<?xml version="1.0" encoding="utf-8"?>
<!-- Generator: Adobe Illustrator 16.0.4, SVG Export Plug-In . SVG Version: 6.00 Build 0)  -->
<!DOCTYPE svg PUBLIC "-//W3C//DTD SVG 1.1//EN" "http://www.w3.org/Graphics/SVG/1.1/DTD/svg11.dtd">
<svg version="1.1" xmlns="http://www.w3.org/2000/svg" xmlns:xlink="http://www.w3.org/1999/xlink" x="0px" y="0px" width="512px"
	 height="512px" viewBox="0 0 512 512" enable-background="new 0 0 512 512" xml:space="preserve">
<g id="grids" display="none">
	<g id="svgGrid_14_" display="inline">
		<line fill="none" stroke="#B35047" x1="32" y1="0" x2="32" y2="512"/>
		<line fill="none" stroke="#B35047" x1="64" y1="0" x2="64" y2="512"/>
		<line fill="none" stroke="#B35047" x1="96" y1="0" x2="96" y2="512"/>
		<line fill="none" stroke="#B35047" x1="128" y1="0" x2="128" y2="512"/>
		<line fill="none" stroke="#B35047" x1="160" y1="0" x2="160" y2="512"/>
		<line fill="none" stroke="#B35047" x1="192" y1="0" x2="192" y2="512"/>
		<line fill="none" stroke="#B35047" x1="224" y1="0" x2="224" y2="512"/>
		<line fill="none" stroke="#B35047" x1="256" y1="0" x2="256" y2="512"/>
		<line fill="none" stroke="#B35047" x1="288" y1="0" x2="288" y2="512"/>
		<line fill="none" stroke="#B35047" x1="320" y1="0" x2="320" y2="512"/>
		<line fill="none" stroke="#B35047" x1="352" y1="0" x2="352" y2="512"/>
		<line fill="none" stroke="#B35047" x1="384" y1="0" x2="384" y2="512"/>
		<line fill="none" stroke="#B35047" x1="416" y1="0" x2="416" y2="512"/>
		<line fill="none" stroke="#B35047" x1="448" y1="0" x2="448" y2="512"/>
		<line fill="none" stroke="#B35047" x1="480" y1="0" x2="480" y2="512"/>
		<line fill="none" stroke="#B35047" x1="0" y1="32" x2="512" y2="32"/>
		<line fill="none" stroke="#B35047" x1="0" y1="64" x2="512" y2="64"/>
		<line fill="none" stroke="#B35047" x1="0" y1="96" x2="512" y2="96"/>
		<line fill="none" stroke="#B35047" x1="0" y1="128" x2="512" y2="128"/>
		<line fill="none" stroke="#B35047" x1="0" y1="160" x2="512" y2="160"/>
		<line fill="none" stroke="#B35047" x1="0" y1="192" x2="512" y2="192"/>
		<line fill="none" stroke="#B35047" x1="0" y1="224" x2="512" y2="224"/>
		<line fill="none" stroke="#B35047" x1="0" y1="256" x2="512" y2="256"/>
		<line fill="none" stroke="#B35047" x1="0" y1="288" x2="512" y2="288"/>
		<line fill="none" stroke="#B35047" x1="0" y1="320" x2="512" y2="320"/>
		<line fill="none" stroke="#B35047" x1="0" y1="352" x2="512" y2="352"/>
		<line fill="none" stroke="#B35047" x1="0" y1="384" x2="512" y2="384"/>
		<line fill="none" stroke="#B35047" x1="0" y1="416" x2="512" y2="416"/>
		<line fill="none" stroke="#B35047" x1="0" y1="448" x2="512" y2="448"/>
		<line fill="none" stroke="#B35047" x1="0" y1="480" x2="512" y2="480"/>
		<rect fill="none" stroke="#B35047" width="512" height="512"/>
	</g>
</g>
<g id="b_x26_w" display="none">
	<g id="Layer_9" display="inline">
	</g>
	<g id="Layer_6_copy" display="inline">
	</g>
	<g id="Layer_7_copy" display="inline">
	</g>
	<g id="Layer_11_copy" display="inline">
	</g>
	<g id="Layer_13_copy" display="inline">
	</g>
	<g id="Layer_15_copy" display="inline">
	</g>
	<g id="Layer_17_copy" display="inline">
	</g>
	<g id="Layer_19_copy" display="inline">
	</g>
	<g id="Layer_21_copy" display="inline">
	</g>
	<g id="Layer_23_copy" display="inline">
	</g>
	<g id="Layer_25_copy" display="inline">
	</g>
	<g id="Layer_27" display="inline">
	</g>
	<g id="Layer_29_copy" display="inline">
	</g>
	<g id="Layer_31_copy" display="inline">
		<path d="M386.9,281.1c0.8-4.2,3.1-8.9,1.1-13.4c2.2-1.2,4.8-2.5,7.2-3.7c0.2-2.8-0.8-11.2-10.2-17.2c0,0,4.1-1.4,2.2-9.8
			c-11.4,0.9-8.4-11.9-11.6-18.3c9.6-5.5,12-16.6,9.1-23.7c-2.9,5.1-6.7,9.4-12,10.2c-26.1-67.8-92.8-84.8-132.3-82.6
			c0,0-1.2,9.8-3.4,13.7c-28.7-7.5-28-38.9-41.6-58.6c-3.2-4.5-11.8-15.4-21.6-17.2c-1.9-0.3-2.6,1.1-2.4,1.9
			c20.3,13.8,22.4,37,24.4,59.5c1.6,18.9,13.5,29.7,25.9,38.9c-0.7,0.6-1.7,2.7-2.3,3.9c-15.9,4.5-35.1,1.9-48.4-7
			c-26.9-17.6-20.2-51.2-27.7-77.7c-2.2-6.9-5.7-16.3-12.8-20c-2.2-1.2-4.4,0.1-3.3,1.5c5.2,7.3,8.9,15.5,9.4,24.7
			c0.2,23.8-5.6,49,3.5,71.3c13.6,30.3,38.7,52.1,69.1,58.5c-1,10.7,0.1,19.9,1.9,30c-32.7,17.7-58.1,36.3-100.1,101.3
			c-1.3,2.6,0,5.1,3.5,1.8c41.2-38.3,109-57.2,151.7,6.5c20.5,32.3,18.7,55.1,17.4,76.3c0,7.4-4.5,17.6,2.2,20.5
			c7.1,3.1,14.2-15,14.3-17.5c1.6-1.6,2.3-4.8,2.4-7.1c1.5-1.1,2.3-6.3,1.9-9c4.3-5.1,8.1-17.7,3.3-25.1c1.6-4.3,1.8-15.3-0.9-21.2
			c1.5-6.5,3-21.1-2.3-27.8c7.7-8.7,17.7-15.7,27.8-20c2.5,18.9,6.2,43-10.3,56c-1.1,0.7-0.9,2,1.1,1.5c26.6-8.9,32.3-59.6,34.1-66
			c8.9-4.6,34.1-11.4,41.7-14.2c7.9-3,2.4-13.7-0.7-17.5C396.5,282.3,392,281.3,386.9,281.1L386.9,281.1z M382.7,238.8l0.4,2.9
			c-5.5,1.3-13.6,6.7-15.4,3.1c-1.6-3.2,5.6-3.7,6.8-5.3c0.7-0.9,0.1-2.3-1.6-2.7c-3.9,0.1-6.1,0.1-7.7,0.6
			c-3.3,2.8-3.1,9.6-1.6,11.8c-7.2,3.3-14.3,10.6-18.4,14.9c-1.9-9.4,5-16.1,11.9-20.9c1.6-1.5,0.6-10.9-0.6-15.8
			c-1.3-0.6-3.5,0-3.7-1.1c0-1.1,8.6-1.3,12.2-1.4c-0.9-5.9,6.2-6.9,8.3-3.5C376,227.2,374.2,237.8,382.7,238.8z M382.3,203.1
			c-0.5,4.5-3.4,8.6-7.5,10.9c-11.4,5-26.6-2.3-37,4.8c0.2-3.9,2.2-9.3,8.1-9.8C360.9,208.5,371.5,213.4,382.3,203.1z M366.6,205
			c-20.5-1.1-42.9,2-61.5,7.6c-2.8,28.8-36.8,39.6-56.6,17.5c0,0-7.5,1.7-30.3,12c-2.8-3.8-5.2-12.9-0.9-15
			c5.9-3.2,10.4-5.9,16.5-7.3c5.1-1.2,13.3,1.4,17.3,2.5c22.6,13.6,45.6,13.9,51.4-26.3c0,0,29.2-7.2,56.9-5.3
			C359.4,190.8,363.8,196.7,366.6,205z M215.5,222.3v-5l8.6,1.2C221.4,219.4,218.4,220.8,215.5,222.3z M244.1,126.2
			c87.3,2.2,112.5,60,112.5,60c-16.7-1.4-38.2,1.7-55.1,5.3c-9-22.9-22.7-32.4-75-27.8C233.6,150.6,242.3,142.1,244.1,126.2z
			 M207.7,140.1c-4.4-8.3-7.5-18.8-8.6-29.1c0.1-0.4,0.3-0.4,0.5-0.3c1,5.6,2,10.1,4.4,14.1c0.5,0.5,1.3,0.3,1.1-0.6
			c-1.8-5.2-3.7-11.2-4.6-17.9c0.2-0.3,0.4-0.7,0.6-0.1c1.6,4.2,4.2,11.5,6.2,13.6c0.3,0.4,1.2,0.3,1.2-0.5c-0.8-2.3-2.5-6.7-3-8.9
			c-0.3-0.7,0.3-0.5,0.5-0.3c4.8,13.2,12.1,20.2,21.3,25.8c3.3,2.3,2.2,11.5-5.3,13.1C215.5,150.3,210.6,145,207.7,140.1z
			 M216.9,201.3c-1.8-2.4-10.1,4.1-11.1,2.9c-0.7-0.5,3.7-2.2,2.7-3c-2.8-1.9-7.6,1.9-8.3,1.1c-0.5-0.8,1.8-1.1,1.1-2.2
			c-2-2-9.1,2-9.7,0.8c-0.4-0.8,5.2-1.9,4.1-3.4c-1.9-1.8-7.7,2.1-16.1-1.8c-31.4-16.5-39.7-49.5-40.7-63.2c0.1-0.5,0.1-0.6,0.4-0.2
			c2.5,12,7.2,28.7,18.1,37.1c0.6,0.4,1.1-0.4,0.8-0.8c-11.6-9.1-15.9-29.6-16.5-47.3c0-0.7,0.2-0.7,0.4-0.2
			c0.8,13.4,4.5,29.5,15.3,39.7c0.5,0.4,1.2-0.2,0.8-0.8c-10.4-12.5-13.5-28.4-13.4-43.7c0.1-0.6,0.5-0.4,0.5-0.2
			c0.6,18.3,8.9,33.8,23.9,45.5c28,21,74.6-1.2,101.2,7.7c39.6,11.6,27.2,46.5,15.4,52.6c-2.7-2.8-4.5,1.1-5.6,0.5
			c-1.2-0.8,1.4-1.9-0.2-2.9c-1.5-0.6-3.3,1.6-4.7,1c-0.8-0.3,1.4-1.9,0.3-2.6c-2.3-1.6-5.2,3.3-6.4,2.6c-0.9-0.6,4-3.1,2-4.7
			c-2.6-1.9-6.1,3.2-7.2,2.4c-1.7-1.2,7.2-5.1,3.8-6.7c-1.9-0.9-7.8,5.2-9.1,4.1c-1-0.9,7.2-4.3,4.9-6c-1.9-1.1-12,6.1-13.5,4.9
			c-1.1-0.9,8.9-5.7,6.5-7.6c-2.9-2-12.5,8.2-14.4,6.5c-1.4-1.1,8.2-4.9,5.9-7.3c-2.2-2.2-12,7.6-14.6,5.7c-1.2-0.8,9.8-5.2,6.9-7.4
			c-2.9-1.7-14.4,7.8-15.5,6.3c-0.9-1.2,9.7-5.2,8.3-7c-3-2.8-13.6,6.5-15,5.2c-1.3-1.3,8.4-4.5,6.6-5.9c-3-2.1-12.8,5.6-13.8,4
			C210,205.4,219.2,204.2,216.9,201.3L216.9,201.3z M144.5,321.4c-8.4,5.7-14.9,10.4-23.1,18.5c-0.7,0.6-1.1-0.4-0.4-1.3
			c49.7-74.2,109-98,123.4-101.7c2.8-0.6,2.5,1,1.4,1.7c-27.2,10.5-72.5,37.5-91.8,70.1C151.1,313.8,148.8,318.5,144.5,321.4z
			 M182,310.2c-10.4,3-19.1,5.3-28.2,8.5c-0.8,0.3-2.2,0.2-1.7-0.9c21.3-38.4,60.5-61.5,98.1-77.9c1.1-0.6,1.9,0.7,1,1.1
			c-27.9,13.6-48.1,40.6-64.9,66C186,307.6,183.6,309.7,182,310.2z M192.1,309.2c-1.5-0.6-1.3-2.1-1-3c18-22,32-50,59.3-61.3
			c2.2-0.6,5-2.2,7.3-1.2c5.3,2.2,14.3,5.6,25.5,2.6c22.1-6.9,24.9-28.2,24.9-28.2c5.5-1.4,10.9-3.1,16.9-3.7
			c-6.4,37-58,52.3-60,91.1c-15.3,3-34.4-9-37.3-26.9c-3.8,7.6-8.9,16.6-17.8,24.4C204.8,307,197.3,310.9,192.1,309.2z M292.3,355.4
			c-3.3-2.7-6.4-5.9-10.5-7.2c-0.5-14.4,9.4-30.7,12.7-35.7c1.3-2,2.6-0.7,3.3,1.9C305.1,336.4,294.1,345.5,292.3,355.4z
			 M301.7,347.1c3.5,2.2,1.7,20.2-2.2,29.5c-2.7-3.9-6-7.3-7.8-9.1C294.2,361.7,300.1,346.4,301.7,347.1z M295.8,275.4
			c-0.6,0.3-2.2-1.8-3-1.4c-1,0.6,2.6,5.6,2.6,5.6c0.1,29.9-15.7,36.1-15.6,54.4c-3.2-2.5-7.4-6.2-11.4-7.7
			c-7.2-28.2,27.6-65.5,29.5-63.9C298.6,263.3,296.5,274.8,295.8,275.4L295.8,275.4z M208.2,308.7c8.3-5.2,14.5-14.1,17.8-20.8
			l3.3,7.2c-4.2,5.2-10.4,12.3-16.6,14.6C210.3,310.1,206.7,310.2,208.2,308.7z M249.1,328.5c-9.7-8.3-20.1-13.6-31.8-17
			c4.5-3.3,10.6-8.9,14.2-13.6c0.6,0.6,1.5,1.5,1.9,2c-0.5,11.9,5.5,21.1,16,26.6C251.2,327.2,250.1,329.4,249.1,328.5z
			 M237.7,303.5c8.3,5.6,17.2,8.1,26.6,7.5v13.6C238.2,321.6,237.7,303.5,237.7,303.5z M264.6,344.1c-2.8-1.7-13.8-12-9.8-15.4
			c4.3-4.5,23.6,8.3,23.6,8.3c-0.2,3.1-0.9,6.1-0.6,9.4C277.8,346.4,267.6,346.1,264.6,344.1z M272.8,358.4
			c-1.4-2.7-4.2-5.9-2.6-7.9c2.6-2.3,14.3,1.7,20.3,8.2c-0.6,2.9-1.5,5-2.2,8C282.3,365.7,275.9,364.6,272.8,358.4L272.8,358.4z
			 M283,378.5c-1.2-2.2-3.1-7.3-1.1-8.9c2.4-1.3,12.8,3.7,16.2,9.9c0.6,1.5-2.3,6.8-3.4,7C293.7,387.1,284.7,382.6,283,378.5
			L283,378.5z M299.1,399.9c0,2.2-1.8,5-2.7,4.9c-1.1,0.3-9.5-4.6-10.2-9.4c-0.5-2.5-0.8-7,0.5-7.5
			C289,387.3,297.2,394.8,299.1,399.9z M286.4,449.5c-2.6-1.5-1.1-7.3,0.8-10.5c1.6,1.1,2.8,3,4.3,4.5
			C290.9,445,288.9,450.5,286.4,449.5z M293,440.4c-2.2-2.3-3-4.3-5.8-6c-0.9-0.9-0.1-3.2,0.6-3c2.2,1,5.5,4.6,6.4,7.7
			C294.4,440,293.8,441,293,440.4z M295.4,434.8c-2.1-2.7-4.8-5.5-7.4-7.6c-1.2-0.7,0.1-2.9,1.4-2.6c3.1,1.1,5.7,5.5,7.1,8.9
			C296.6,434.6,295.7,435.2,295.4,434.8z M297.5,428.8c-1.1-2.6-6.5-8.1-9.6-10.8c-1.7-1.3,1.2-4.1,2.3-3.1
			C294.8,418.5,300.5,426.4,297.5,428.8z M299.3,422.4c-2.2-5.2-6-9.9-10.7-13c-1.7-0.9-1.5-4.9,0-4.5c5.5,1.9,11,8.6,12.2,14
			C301.4,420.9,300.2,424,299.3,422.4z M305.7,398.1c1.8,1.3,0.4,11-2.8,15.4l-4.1-5.6C300.9,404.5,304.4,397.3,305.7,398.1z
			 M300.9,397.3c-0.7-3.3-2.7-5-3.7-8c0.7-1.1,6-12.5,7.1-12.1C306.3,378.1,304.3,391.9,300.9,397.3z M304.1,339.6
			c3-12.3-1.9-23.3-6.4-33.4c1.6-8,2-14.7,3-22.7c0.6-1.7,2.7-2,3.4-0.9c2.2,17.9,9.5,24.1,25.5,23.3l1.1,12
			C320.5,322.1,311.9,330.9,304.1,339.6z M329.8,300.4c-14.8,4.4-23.2-4.6-21.9-24.9c-1.8-2.8-6.6,3.6-7.2,1.6
			c-0.1-21.4,9.2-22.4,12.8-27.6c3.5,0.5,7.3,1.7,9.2,4.3c5.7,8.9,4.3,19.7,7.7,29.7c0.8,1.8,2.5,0,2.5,0
			c-3.8-13.8,0.3-33.3-16.4-39.1c6.7-9.2,9.3-19.3,12.2-30c1.1-1.2,3.5-1.5,4.7-1c-0.5,4.2-2.2,8-1.6,12.8c0.4,2.9,5.9-3.5,9.1-5
			c4.5-2.3,11.8-1.7,18-0.8c1.3,0.2,1.1,1.5-0.2,1.6c-6.1,0.6-15.4,1.8-15.9,4.5c0,2,7,3.9,11.2,4.1c0.6,2.3,1.2,5.1,0.9,7.8
			c-7.8,3.7-17.7,13.7-12.2,30C336.5,277.4,332.5,289,329.8,300.4L329.8,300.4z M356.6,305.4c-6.8,20.5-9.8,47.7-18.5,59.5
			c-0.2,0.2-0.6,0.2-0.4-0.3c10.2-20.4,8.4-38.8,14.4-58.4c0.3-0.7-0.5-1.7-1.2-0.6c-6.8,9-8,44.9-13.8,55.9
			c-0.2,0.4-0.8,0.5-0.6-0.3c6.9-25.9,1.5-50.9,12.1-70.8c0.4-0.7-0.8-1.8-1.9-0.6c-4.7,8.4-10.2,25.7-8.6,46.2c0.1,1.1-0.8,1.3-1,0
			c-3-23.9-5.3-47.8,11.5-68.4c7.1-8.7,17.7-16.8,24.8-18.6c16.7-3.5,19.1,12.2,19.1,12.2C372.8,266.8,362.3,288.1,356.6,305.4
			L356.6,305.4z M362.1,307.1c-1-0.6-0.9-2.6,0.1-3c5.8-1.6,22.3-5.4,23.2-3.6C385.6,301.1,363.3,307.8,362.1,307.1z M398.1,296.8
			c-12.3-0.6-24.2,0.7-34.8,3c2-12.1,18.2-30.6,21.4-28.8c3.1,1.7-3.6,10.3,0.2,12.9c2.8,1.7,6.2,0.6,8.5,1.4
			C398.6,287.8,399.9,296.3,398.1,296.8z"/>
		<path d="M302.6,196.1c-5.8,40.3-28.8,39.9-51.4,26.3c-4-1.1-12.2-3.7-17.3-2.5c-6.1,1.4-10.6,4.1-16.5,7.3c-4.3,2-2,11.2,0.9,15
			c22.8-10.4,30.3-12,30.3-12c19.9,22.1,53.8,11.3,56.6-17.5c18.6-5.6,41-8.7,61.5-7.6c-2.8-8.3-7.1-14.2-7.1-14.2
			C331.7,188.9,302.6,196.1,302.6,196.1L302.6,196.1z"/>
		<g>
			<path fill="#FFFFFF" d="M401.5,281.4c-1.7-2.1-4.7-3.5-9.1-4.3c0.6-2.2,1-4.7,0.7-7.3c1.3-0.7,4-2.1,4-2.1
				c1.4-0.7,2.3-2.1,2.4-3.7c0.3-5-1.8-12.4-8.3-18.3c0.9-2.3,1.3-5.5,0.3-10.1c-0.5-2.1-2.5-3.6-4.7-3.4c-3.2,0.3-4-0.3-5.1-7.6
				c-0.2-1.5-0.5-3-0.8-4.5c9.1-7.1,11.2-18,7.9-27.2c-1.4-4-6.4-3.1-8-0.5c-1.9,3.1-3.7,5.4-5.7,6.7c-12.3-29-33.5-51.8-61.7-65.9
				c-22.4-11.2-49.1-16.9-73.4-15.5c-2.1,0.1-3.9,1.7-4.2,3.9c-0.3,2.5-0.9,6-1.7,8.8c-14.2-5.5-19.2-18.8-24.5-32.8
				c-3-7.8-6-15.9-10.8-22.8c-4.5-6.3-13.6-17-24.5-19c-8.7-0.7-8.9,8.1-5.7,9.9c18.7,12.6,20.6,34.8,22.4,56.2
				c1.6,18.8,12.5,30.1,23.6,38.9c-14.1,3-30.4,0.3-41.5-7.2l0,0l0,0c-17.2-11.3-19.7-29.5-21.6-49.7c-1.2-13.1-4.3-25.6-4.3-25.7
				c-2.8-8.8-6.8-18.3-14.9-22.5c-3.1-1.7-6.7-1.2-8.7,1.1c-1.7,2-1.9,4.8-0.3,7c8.7,11.9,9.2,22.5,8.5,34.2
				c-3.7,32.1-1.9,48.4,5.9,65.8c18.3,35.2,45.9,50.4,66.6,55.4c-0.5,9,0.4,16.9,1.6,24.2c-29.6,16.3-56.3,35.3-98.9,101.2
				c-3.5,4.6,0.8,15.1,10.2,7.5c26-24.2,58.3-36.7,86.3-33.4c23.4,2.7,43.1,15.9,58.7,39.1c19.3,30.5,18.4,54.9,16,80
				c-0.6,6.4-2.4,15.1,5.6,18.4c2.8,1.2,5.9,0.8,8.8-1c5.8-3.8,10.2-13.8,11.3-18.6c1.7-2.4,2.4-5.4,2.6-7.4
				c1.7-2.7,2.1-6.8,2.1-9.3c4.6-6.6,7.6-18.6,3.6-27.1c1.3-5.7,1.2-14.9-1-21.1c0.8-4.3,2.8-17.7-1.4-26.8
				c5.4-5.5,11.8-10.3,18.6-14c1.4,16.9,4.5,33.8-9.5,45.9c-3.5,2.8-3.2,11.4,5.2,9.2c25.8-8.3,34-51.6,36.6-67.1
				c6.3-2.8,36.8-12.2,39.3-13.1c4.4-1.7,6-4.7,6.6-7C408.6,292.4,404.1,284.6,401.5,281.4L401.5,281.4z M398.7,301.7
				c-7.6,2.8-32.8,9.6-41.7,14.2c-1.8,6.3-7.5,57-34.1,66c-2,0.6-2.2-0.7-1.1-1.5c16.6-13,12.8-37.1,10.3-56
				c-10,4.3-20.1,11.3-27.8,20c5.3,6.7,3.8,21.3,2.3,27.8c2.6,5.9,2.5,17,0.9,21.2c4.7,7.4,0.9,20.1-3.4,25.1c0.3,2.8-0.4,7.9-1.9,9
				c-0.1,2.3-0.9,5.6-2.4,7.1c0,2.5-7.1,20.6-14.3,17.5c-6.7-2.8-2.2-13.1-2.2-20.5c1.3-21.2,3.1-44-17.4-76.3
				c-42.6-63.7-110.5-44.8-151.7-6.5c-3.5,3.3-4.8,0.8-3.5-1.8c42-65,67.3-83.5,100.1-101.3c-1.8-10.1-2.9-19.3-1.9-30
				c-30.5-6.4-55.6-28.3-69.1-58.5c-9.1-22.3-3.3-47.5-3.5-71.3c-0.5-9.2-4.2-17.3-9.4-24.7c-1.1-1.5,1.1-2.8,3.3-1.5
				c7.1,3.7,10.6,13.1,12.8,20c7.4,26.5,0.8,60.1,27.7,77.7c13.3,8.9,32.5,11.5,48.4,7c0.6-1.2,1.6-3.3,2.3-3.9
				c-12.3-9.2-24.2-20-25.9-38.9c-1.9-22.5-4.1-45.8-24.4-59.5c-0.2-0.8,0.5-2.1,2.4-1.9c9.8,1.8,18.4,12.7,21.6,17.2
				c13.6,19.7,12.8,51.1,41.6,58.6c2.2-3.9,3.4-13.7,3.4-13.7c39.6-2.2,106.2,14.8,132.3,82.6c5.3-0.8,9.2-5.1,12-10.2
				c2.9,7.1,0.5,18.3-9.1,23.7c3.1,6.4,0.2,19.2,11.6,18.3c2,8.4-2.2,9.8-2.2,9.8c9.4,6,10.3,14.3,10.2,17.2
				c-2.4,1.2-4.9,2.5-7.2,3.7c2,4.5-0.3,9.2-1.1,13.4c5.2,0.3,9.6,1.2,11.2,3.2C401.1,288,406.6,298.7,398.7,301.7L398.7,301.7z
				 M227.2,136.1c-9.2-5.6-16.5-12.6-21.3-25.8c-0.2-0.2-0.9-0.5-0.5,0.3c0.5,2.2,2.2,6.6,3,8.9c0.1,0.7-0.9,0.8-1.2,0.5
				c-1.9-2.1-4.5-9.4-6.2-13.6c-0.2-0.5-0.4-0.2-0.6,0.1c0.9,6.7,2.8,12.8,4.6,17.9c0.2,0.8-0.6,1-1.1,0.6c-2.4-4-3.3-8.5-4.4-14.1
				c-0.2-0.2-0.4-0.1-0.5,0.3c1.2,10.3,4.2,20.8,8.6,29.1c3,4.8,7.8,10.2,14.2,9.1C229.4,147.6,230.5,138.3,227.2,136.1z
				 M224.8,202.8c1.8,1.4-7.9,4.6-6.6,5.9c1.4,1.4,12-8,15-5.2c1.5,1.9-9.2,5.8-8.3,7c1,1.5,12.6-8,15.5-6.3
				c2.9,2.2-8.1,6.6-6.9,7.4c2.6,1.9,12.4-7.9,14.6-5.7c2.3,2.3-7.3,6.1-5.9,7.3c1.8,1.8,11.5-8.5,14.4-6.5c2.3,1.8-7.7,6.7-6.5,7.6
				c1.5,1.2,11.5-6,13.5-4.9c2.3,1.7-5.9,5.1-4.9,6c1.3,1.2,7.2-5,9.1-4.1c3.4,1.6-5.5,5.5-3.8,6.7c1.1,0.9,4.6-4.3,7.2-2.4
				c2,1.7-3,4.1-2,4.7c1.2,0.8,4-4.2,6.4-2.6c1.1,0.7-1.1,2.2-0.3,2.6c1.4,0.6,3.2-1.6,4.7-1c1.6,0.9-1,2.1,0.2,2.9
				c1.1,0.6,2.9-3.3,5.6-0.5c11.9-6.1,24.2-40.9-15.4-52.6c-26.5-8.9-73.2,13.3-101.2-7.7c-15-11.7-23.2-27.2-23.9-45.5
				c0-0.2-0.4-0.4-0.5,0.2c-0.1,15.3,3,31.2,13.4,43.7c0.5,0.6-0.3,1.2-0.8,0.8c-10.8-10.2-14.5-26.3-15.3-39.7
				c-0.2-0.6-0.5-0.5-0.4,0.2c0.6,17.7,4.9,38.2,16.5,47.3c0.4,0.4-0.2,1.2-0.8,0.8c-10.9-8.4-15.6-25-18.1-37.1
				c-0.3-0.4-0.3-0.2-0.4,0.2c1,13.7,9.3,46.7,40.7,63.2c8.4,3.8,14.2,0,16.1,1.8c1.1,1.5-4.5,2.6-4.1,3.4c0.6,1.2,7.7-2.8,9.7-0.8
				c0.7,1.1-1.6,1.4-1.1,2.2c0.7,0.8,5.5-3,8.3-1.1c1.1,0.8-3.3,2.4-2.7,3c1.1,1.2,9.3-5.3,11.1-2.9c2.2,2.9-6.9,4.1-6,5.6
				C211.9,208.4,221.8,200.7,224.8,202.8z"/>
		</g>
		<g>
			<path fill="#FFFFFF" d="M354.8,238.2c0.4-2.7-0.3-5.5-0.9-7.8c-4.2-0.2-11.3-2.1-11.2-4.1c0.5-2.6,9.9-3.9,15.9-4.5
				c1.3-0.2,1.5-1.5,0.2-1.6c-6.3-0.9-13.5-1.5-18,0.8c-3.2,1.5-8.7,7.9-9.1,5c-0.6-4.8,1.1-8.6,1.6-12.8c-1.3-0.5-3.6-0.2-4.7,1
				c-2.8,10.8-5.4,20.8-12.2,30c16.7,5.8,12.7,25.3,16.4,39.1c0,0-1.7,1.8-2.5,0c-3.4-10-2-20.8-7.7-29.7c-1.9-2.5-5.7-3.8-9.2-4.3
				c-3.6,5.2-12.9,6.2-12.8,27.6c0.6,2,5.4-4.4,7.2-1.6c-1.3,20.3,7.2,29.3,21.9,24.9c2.7-11.3,6.8-22.9,12.9-32.2
				C337,251.9,346.9,242,354.8,238.2z M365,225c-3.6,0.2-12.2,0.4-12.1,1.4c0.2,1.1,2.4,0.5,3.7,1.1c1.3,4.8,2.2,14.3,0.6,15.8
				c-6.9,4.8-13.7,11.6-11.9,20.9c4.1-4.4,11.2-11.6,18.4-14.9c-1.5-2.2-1.7-9,1.6-11.8c1.6-0.5,3.8-0.6,7.7-0.6
				c1.7,0.3,2.2,1.8,1.6,2.7c-1.3,1.6-8.4,2.1-6.8,5.3c1.8,3.6,9.9-1.7,15.4-3.1l-0.4-2.9c-8.6-0.9-6.7-11.5-9.4-17.3
				C371.2,218,364.1,219,365,225L365,225z M393.4,285.4c-2.4-0.9-5.7,0.2-8.5-1.4c-3.7-2.6,2.9-11.2-0.2-12.9
				c-3.2-1.8-19.4,16.6-21.4,28.8c10.6-2.3,22.5-3.6,34.8-3C399.9,296.3,398.6,287.8,393.4,285.4z M304.1,282.6
				c-0.7-1.2-2.8-0.8-3.4,0.9c-1,8-1.3,14.7-3,22.7c4.5,10.1,9.4,21.1,6.4,33.4c7.8-8.7,16.4-17.5,26.6-21.7l-1.1-12
				C313.6,306.8,306.2,300.5,304.1,282.6z M362.1,304.1c-1,0.4-1,2.4-0.1,3c1.2,0.6,23.5-6,23.2-6.5
				C384.5,298.8,367.9,302.5,362.1,304.1z"/>
		</g>
		<g>
			<path fill="#FFFFFF" d="M215.5,217.3v5c3-1.5,5.9-3,8.6-3.8L215.5,217.3z M301.4,191.5c16.9-3.6,38.4-6.7,55.1-5.3
				c0,0-25.2-57.8-112.5-60c-1.8,15.8-10.5,24.4-17.6,37.5C278.7,159.2,292.4,168.6,301.4,191.5z M345.9,209.1
				c-5.9,0.4-7.9,5.8-8.1,9.7c10.5-7.2,25.6,0.2,37-4.8c4.1-2.3,7-6.4,7.5-10.9C371.5,213.4,360.9,208.5,345.9,209.1z M227.7,278.6
				c2.9,17.9,22,29.9,37.3,26.9c2-38.7,53.6-54.1,60-91.1c-5.9,0.6-11.4,2.3-16.9,3.7c0,0-2.8,21.4-24.9,28.2
				c-11.2,3-20.1-0.4-25.5-2.6c-2.3-0.9-5.2,0.6-7.3,1.2c-27.3,11.2-41.4,39.2-59.3,61.3c-0.4,0.9-0.5,2.5,1,3
				c5.2,1.6,12.7-2.3,17.8-6.3C218.8,295.2,223.9,286.2,227.7,278.6L227.7,278.6z M245.9,238.7c1.1-0.7,1.4-2.3-1.4-1.7
				c-14.4,3.7-73.7,27.5-123.4,101.7c-0.7,0.9-0.4,1.8,0.4,1.3c8.2-8.1,14.7-12.9,23.1-18.5c4.2-2.9,6.6-7.6,9.5-12.5
				C173.4,276.2,218.7,249.2,245.9,238.7z M251.3,241c0.9-0.4,0.1-1.7-1-1.1c-37.7,16.4-76.8,39.5-98.1,77.9
				c-0.5,1.1,0.9,1.2,1.7,0.9c9.1-3.2,17.8-5.5,28.2-8.5c1.5-0.4,4-2.5,4.4-3.2C203.2,281.6,223.4,254.5,251.3,241z M392.5,261.2
				c0,0-2.3-15.7-19.1-12.2c-7.1,1.8-17.7,9.9-24.8,18.6c-16.8,20.7-14.5,44.5-11.5,68.4c0.2,1.3,1.1,1.1,1,0
				c-1.5-20.5,4-37.8,8.6-46.2c1.1-1.2,2.3-0.1,1.9,0.6c-10.7,19.9-5.3,44.8-12.1,70.8c-0.2,0.8,0.4,0.8,0.6,0.3
				c5.8-11.1,7-46.9,13.8-55.9c0.6-1.1,1.5-0.1,1.2,0.6c-6,19.7-4.1,38-14.4,58.4c-0.2,0.5,0.3,0.5,0.4,0.3
				c8.7-11.8,11.7-39,18.5-59.5C362.3,288.1,372.8,266.8,392.5,261.2L392.5,261.2z M297.8,262.4c-2-1.6-36.7,35.7-29.5,63.9
				c4.1,1.6,8.2,5.2,11.4,7.7c-0.1-18.2,15.7-24.5,15.6-54.4c0,0-3.5-5-2.6-5.6c0.9-0.4,2.5,1.7,3,1.4
				C296.5,274.8,298.6,263.3,297.8,262.4z M229.2,295.1l-3.3-7.2c-3.3,6.7-9.5,15.6-17.8,20.8c-1.5,1.4,2.2,1.4,4.4,1
				C218.8,307.4,225,300.3,229.2,295.1z M249.5,326.5c-10.5-5.5-16.5-14.7-16-26.6c-0.5-0.5-1.3-1.4-1.9-2
				c-3.6,4.7-9.7,10.3-14.2,13.6c11.7,3.4,22.1,8.7,31.8,17C250.1,329.4,251.2,327.2,249.5,326.5z M264.2,311.1
				c-9.4,0.6-18.2-1.9-26.6-7.5c0,0,0.5,18,26.6,21.1V311.1z M294.6,312.5c-3.3,5-13.2,21.3-12.7,35.7c4.1,1.2,7.1,4.5,10.5,7.2
				c1.8-9.9,12.7-19.1,5.5-41C297.2,311.8,295.8,310.5,294.6,312.5z M278.4,337c0,0-19.2-12.8-23.6-8.3c-4.1,3.3,7,13.7,9.8,15.4
				c3,2,13.2,2.3,13.2,2.3C277.5,343.1,278.3,340.1,278.4,337z M299.5,376.7c3.9-9.3,5.7-27.3,2.2-29.5c-1.7-0.7-7.5,14.6-9.9,20.5
				C293.5,369.4,296.8,372.7,299.5,376.7z M290.5,358.7c-6-6.6-17.7-10.5-20.3-8.2c-1.6,2,1.2,5.3,2.6,7.9c3.1,6.2,9.5,7.3,15.5,8.3
				C289,363.7,289.8,361.6,290.5,358.7z M294.7,386.5c1.1-0.2,3.9-5.5,3.4-7c-3.4-6.2-13.7-11.3-16.2-9.9c-2,1.6-0.1,6.7,1.1,8.9
				C284.7,382.6,293.7,387.1,294.7,386.5L294.7,386.5z M297.3,389.3c1,3,2.9,4.8,3.7,8c3.4-5.4,5.4-19.2,3.4-20.2
				C303.3,376.8,298,388.2,297.3,389.3z M286.7,387.9c-1.3,0.5-1,5-0.5,7.5c0.6,4.9,9.1,9.8,10.2,9.4c0.9,0.1,2.7-2.8,2.7-4.9
				C297.2,394.8,289,387.3,286.7,387.9z M298.8,407.9l4.1,5.6c3.2-4.4,4.6-14.1,2.8-15.4C304.4,397.3,300.9,404.5,298.8,407.9z
				 M288.6,404.8c-1.5-0.4-1.7,3.6,0,4.5c4.7,3.1,8.5,7.9,10.7,13c0.9,1.7,2.1-1.5,1.5-3.5C299.6,413.4,294.1,406.7,288.6,404.8z
				 M290.2,414.9c-1.1-0.9-4,1.8-2.3,3.1c3.1,2.7,8.5,8.2,9.6,10.8C300.5,426.4,294.8,418.5,290.2,414.9z M289.4,424.6
				c-1.3-0.3-2.7,1.9-1.4,2.6c2.6,2.2,5.4,5,7.4,7.6c0.4,0.4,1.3-0.3,1.1-1.4C295.1,430,292.5,425.6,289.4,424.6z M287.8,431.5
				c-0.7-0.2-1.6,2-0.6,3c2.8,1.7,3.6,3.7,5.8,6c0.8,0.5,1.4-0.4,1.2-1.2C293.4,436.1,290,432.5,287.8,431.5z M287.2,439
				c-1.8,3.2-3.4,9-0.8,10.5c2.5,1,4.5-4.5,5.1-6C290,441.9,288.8,440.1,287.2,439z"/>
		</g>
	</g>
	<g id="Layer_33_copy" display="inline">
	</g>
	<g id="Layer_35_copy" display="inline">
	</g>
	<g id="Layer_37_copy" display="inline">
	</g>
	<g id="Layer_39_copy" display="inline">
	</g>
	<g id="Layer_41_copy" display="inline">
	</g>
	<g id="Layer_43_copy" display="inline">
	</g>
	<g id="Layer_48" display="inline">
	</g>
	<g id="Layer_45_copy" display="inline">
	</g>
	<g id="Layer_49_copy_2" display="inline">
	</g>
	<g id="Layer_51" display="inline">
	</g>
	<g id="Layer_53_copy" display="inline">
	</g>
	<g id="Layer_55_copy" display="inline">
	</g>
	<g id="Layer_57_copy" display="inline">
	</g>
	<g id="Layer_59_copy" display="inline">
	</g>
	<g id="Layer_61_copy" display="inline">
	</g>
	<g id="Layer_63_copy" display="inline">
	</g>
</g>
<g id="color">
	<g id="Layer_5">
	</g>
	<g id="Layer_6">
	</g>
	<g id="Layer_7">
	</g>
	<g id="Layer_11">
	</g>
	<g id="Layer_13">
	</g>
	<g id="Layer_15">
	</g>
	<g id="Layer_17">
	</g>
	<g id="Layer_19">
	</g>
	<g id="Layer_21">
	</g>
	<g id="Layer_23">
	</g>
	<g id="Layer_25">
	</g>
	<g id="Layer_27_copy">
	</g>
	<g id="Layer_29">
	</g>
	<g id="Layer_31">
		<path d="M386.9,281.1c0.8-4.2,3.1-8.9,1.1-13.4c2.2-1.2,4.8-2.5,7.2-3.7c0.2-2.8-0.8-11.2-10.2-17.2c0,0,4.1-1.4,2.2-9.8
			c-11.4,0.9-8.4-11.9-11.6-18.3c9.6-5.5,12-16.6,9.1-23.7c-2.9,5.1-6.7,9.4-12,10.2c-26.1-67.8-92.8-84.8-132.3-82.6
			c0,0-1.2,9.8-3.4,13.7c-28.7-7.5-28-38.9-41.6-58.6c-3.2-4.5-11.8-15.4-21.6-17.2c-1.9-0.3-2.6,1.1-2.4,1.9
			c20.3,13.8,22.4,37,24.4,59.5c1.6,18.9,13.5,29.7,25.9,38.9c-0.7,0.6-1.7,2.7-2.3,3.9c-15.9,4.5-35.1,1.9-48.4-7
			c-26.9-17.6-20.2-51.2-27.7-77.7c-2.2-6.9-5.7-16.3-12.8-20c-2.2-1.2-4.4,0.1-3.3,1.5c5.2,7.3,8.9,15.5,9.4,24.7
			c0.2,23.8-5.6,49,3.5,71.3c13.6,30.3,38.7,52.1,69.1,58.5c-1,10.7,0.1,19.9,1.9,30c-32.7,17.7-58.1,36.3-100.1,101.3
			c-1.3,2.6,0,5.1,3.5,1.8c41.2-38.3,109-57.2,151.7,6.5c20.5,32.3,18.7,55.1,17.4,76.3c0,7.4-4.5,17.6,2.2,20.5
			c7.1,3.1,14.2-15,14.3-17.5c1.6-1.6,2.3-4.8,2.4-7.1c1.5-1.1,2.3-6.3,1.9-9c4.3-5.1,8.1-17.7,3.3-25.1c1.6-4.3,1.8-15.3-0.9-21.2
			c1.5-6.5,3-21.1-2.3-27.8c7.7-8.7,17.7-15.7,27.8-20c2.5,18.9,6.2,43-10.3,56c-1.1,0.7-0.9,2,1.1,1.5c26.6-8.9,32.3-59.6,34.1-66
			c8.9-4.6,34.1-11.4,41.7-14.2c7.9-3,2.4-13.7-0.7-17.5C396.5,282.3,392,281.3,386.9,281.1L386.9,281.1z M382.7,238.8l0.4,2.9
			c-5.5,1.3-13.6,6.7-15.4,3.1c-1.6-3.2,5.6-3.7,6.8-5.3c0.7-0.9,0.1-2.3-1.6-2.7c-3.9,0.1-6.1,0.1-7.7,0.6
			c-3.3,2.8-3.1,9.6-1.6,11.8c-7.2,3.3-14.3,10.6-18.4,14.9c-1.9-9.4,5-16.1,11.9-20.9c1.6-1.5,0.6-10.9-0.6-15.8
			c-1.3-0.6-3.5,0-3.7-1.1c0-1.1,8.6-1.3,12.2-1.4c-0.9-5.9,6.2-6.9,8.3-3.5C376,227.2,374.2,237.8,382.7,238.8z M382.3,203.1
			c-0.5,4.5-3.4,8.6-7.5,10.9c-11.4,5-26.6-2.3-37,4.8c0.2-3.9,2.2-9.3,8.1-9.8C360.9,208.5,371.5,213.4,382.3,203.1z M366.6,205
			c-20.5-1.1-42.9,2-61.5,7.6c-2.8,28.8-36.8,39.6-56.6,17.5c0,0-7.5,1.7-30.3,12c-2.8-3.8-5.2-12.9-0.9-15
			c5.9-3.2,10.4-5.9,16.5-7.3c5.1-1.2,13.3,1.4,17.3,2.5c22.6,13.6,45.6,13.9,51.4-26.3c0,0,29.2-7.2,56.9-5.3
			C359.4,190.8,363.8,196.7,366.6,205z M215.5,222.3v-5l8.6,1.2C221.4,219.4,218.4,220.8,215.5,222.3z M244.1,126.2
			c87.3,2.2,112.5,60,112.5,60c-16.7-1.4-38.2,1.7-55.1,5.3c-9-22.9-22.7-32.4-75-27.8C233.6,150.6,242.3,142.1,244.1,126.2z
			 M207.7,140.1c-4.4-8.3-7.5-18.8-8.6-29.1c0.1-0.4,0.3-0.4,0.5-0.3c1,5.6,2,10.1,4.4,14.1c0.5,0.5,1.3,0.3,1.1-0.6
			c-1.8-5.2-3.7-11.2-4.6-17.9c0.2-0.3,0.4-0.7,0.6-0.1c1.6,4.2,4.2,11.5,6.2,13.6c0.3,0.4,1.2,0.3,1.2-0.5c-0.8-2.3-2.5-6.7-3-8.9
			c-0.3-0.7,0.3-0.5,0.5-0.3c4.8,13.2,12.1,20.2,21.3,25.8c3.3,2.3,2.2,11.5-5.3,13.1C215.5,150.3,210.6,145,207.7,140.1z
			 M216.9,201.3c-1.8-2.4-10.1,4.1-11.1,2.9c-0.7-0.5,3.7-2.2,2.7-3c-2.8-1.9-7.6,1.9-8.3,1.1c-0.5-0.8,1.8-1.1,1.1-2.2
			c-2-2-9.1,2-9.7,0.8c-0.4-0.8,5.2-1.9,4.1-3.4c-1.9-1.8-7.7,2.1-16.1-1.8c-31.4-16.5-39.7-49.5-40.7-63.2c0.1-0.5,0.1-0.6,0.4-0.2
			c2.5,12,7.2,28.7,18.1,37.1c0.6,0.4,1.1-0.4,0.8-0.8c-11.6-9.1-15.9-29.6-16.5-47.3c0-0.7,0.2-0.7,0.4-0.2
			c0.8,13.4,4.5,29.5,15.3,39.7c0.5,0.4,1.2-0.2,0.8-0.8c-10.4-12.5-13.5-28.4-13.4-43.7c0.1-0.6,0.5-0.4,0.5-0.2
			c0.6,18.3,8.9,33.8,23.9,45.5c28,21,74.6-1.2,101.2,7.7c39.6,11.6,27.2,46.5,15.4,52.6c-2.7-2.8-4.5,1.1-5.6,0.5
			c-1.2-0.8,1.4-1.9-0.2-2.9c-1.5-0.6-3.3,1.6-4.7,1c-0.8-0.3,1.4-1.9,0.3-2.6c-2.3-1.6-5.2,3.3-6.4,2.6c-0.9-0.6,4-3.1,2-4.7
			c-2.6-1.9-6.1,3.2-7.2,2.4c-1.7-1.2,7.2-5.1,3.8-6.7c-1.9-0.9-7.8,5.2-9.1,4.1c-1-0.9,7.2-4.3,4.9-6c-1.9-1.1-12,6.1-13.5,4.9
			c-1.1-0.9,8.9-5.7,6.5-7.6c-2.9-2-12.5,8.2-14.4,6.5c-1.4-1.1,8.2-4.9,5.9-7.3c-2.2-2.2-12,7.6-14.6,5.7c-1.2-0.8,9.8-5.2,6.9-7.4
			c-2.9-1.7-14.4,7.8-15.5,6.3c-0.9-1.2,9.7-5.2,8.3-7c-3-2.8-13.6,6.5-15,5.2c-1.3-1.3,8.4-4.5,6.6-5.9c-3-2.1-12.8,5.6-13.8,4
			C210,205.4,219.2,204.2,216.9,201.3L216.9,201.3z M144.5,321.4c-8.4,5.7-14.9,10.4-23.1,18.5c-0.7,0.6-1.1-0.4-0.4-1.3
			c49.7-74.2,109-98,123.4-101.7c2.8-0.6,2.5,1,1.4,1.7c-27.2,10.5-72.5,37.5-91.8,70.1C151.1,313.8,148.8,318.5,144.5,321.4z
			 M182,310.2c-10.4,3-19.1,5.3-28.2,8.5c-0.8,0.3-2.2,0.2-1.7-0.9c21.3-38.4,60.5-61.5,98.1-77.9c1.1-0.6,1.9,0.7,1,1.1
			c-27.9,13.6-48.1,40.6-64.9,66C186,307.6,183.6,309.7,182,310.2z M192.1,309.2c-1.5-0.6-1.3-2.1-1-3c18-22,32-50,59.3-61.3
			c2.2-0.6,5-2.2,7.3-1.2c5.3,2.2,14.3,5.6,25.5,2.6c22.1-6.9,24.9-28.2,24.9-28.2c5.5-1.4,10.9-3.1,16.9-3.7
			c-6.4,37-58,52.3-60,91.1c-15.3,3-34.4-9-37.3-26.9c-3.8,7.6-8.9,16.6-17.8,24.4C204.8,307,197.3,310.9,192.1,309.2z M292.3,355.4
			c-3.3-2.7-6.4-5.9-10.5-7.2c-0.5-14.4,9.4-30.7,12.7-35.7c1.3-2,2.6-0.7,3.3,1.9C305.1,336.4,294.1,345.5,292.3,355.4z
			 M301.7,347.1c3.5,2.2,1.7,20.2-2.2,29.5c-2.7-3.9-6-7.3-7.8-9.1C294.2,361.7,300.1,346.4,301.7,347.1z M295.8,275.4
			c-0.6,0.3-2.2-1.8-3-1.4c-1,0.6,2.6,5.6,2.6,5.6c0.1,29.9-15.7,36.1-15.6,54.4c-3.2-2.5-7.4-6.2-11.4-7.7
			c-7.2-28.2,27.6-65.5,29.5-63.9C298.6,263.3,296.5,274.8,295.8,275.4L295.8,275.4z M208.2,308.7c8.3-5.2,14.5-14.1,17.8-20.8
			l3.3,7.2c-4.2,5.2-10.4,12.3-16.6,14.6C210.3,310.1,206.7,310.2,208.2,308.7z M249.1,328.5c-9.7-8.3-20.1-13.6-31.8-17
			c4.5-3.3,10.6-8.9,14.2-13.6c0.6,0.6,1.5,1.5,1.9,2c-0.5,11.9,5.5,21.1,16,26.6C251.2,327.2,250.1,329.4,249.1,328.5z
			 M237.7,303.5c8.3,5.6,17.2,8.1,26.6,7.5v13.6C238.2,321.6,237.7,303.5,237.7,303.5z M264.6,344.1c-2.8-1.7-13.8-12-9.8-15.4
			c4.3-4.5,23.6,8.3,23.6,8.3c-0.2,3.1-0.9,6.1-0.6,9.4C277.8,346.4,267.6,346.1,264.6,344.1z M272.8,358.4
			c-1.4-2.7-4.2-5.9-2.6-7.9c2.6-2.3,14.3,1.7,20.3,8.2c-0.6,2.9-1.5,5-2.2,8C282.3,365.7,275.9,364.6,272.8,358.4L272.8,358.4z
			 M283,378.5c-1.2-2.2-3.1-7.3-1.1-8.9c2.4-1.3,12.8,3.7,16.2,9.9c0.6,1.5-2.3,6.8-3.4,7C293.7,387.1,284.7,382.6,283,378.5
			L283,378.5z M299.1,399.9c0,2.2-1.8,5-2.7,4.9c-1.1,0.3-9.5-4.6-10.2-9.4c-0.5-2.5-0.8-7,0.5-7.5
			C289,387.3,297.2,394.8,299.1,399.9z M286.4,449.5c-2.6-1.5-1.1-7.3,0.8-10.5c1.6,1.1,2.8,3,4.3,4.5
			C290.9,445,288.9,450.5,286.4,449.5z M293,440.4c-2.2-2.3-3-4.3-5.8-6c-0.9-0.9-0.1-3.2,0.6-3c2.2,1,5.5,4.6,6.4,7.7
			C294.4,440,293.8,441,293,440.4z M295.4,434.8c-2.1-2.7-4.8-5.5-7.4-7.6c-1.2-0.7,0.1-2.9,1.4-2.6c3.1,1.1,5.7,5.5,7.1,8.9
			C296.6,434.6,295.7,435.2,295.4,434.8z M297.5,428.8c-1.1-2.6-6.5-8.1-9.6-10.8c-1.7-1.3,1.2-4.1,2.3-3.1
			C294.8,418.5,300.5,426.4,297.5,428.8z M299.3,422.4c-2.2-5.2-6-9.9-10.7-13c-1.7-0.9-1.5-4.9,0-4.5c5.5,1.9,11,8.6,12.2,14
			C301.4,420.9,300.2,424,299.3,422.4z M305.7,398.1c1.8,1.3,0.4,11-2.8,15.4l-4.1-5.6C300.9,404.5,304.4,397.3,305.7,398.1z
			 M300.9,397.3c-0.7-3.3-2.7-5-3.7-8c0.7-1.1,6-12.5,7.1-12.1C306.3,378.1,304.3,391.9,300.9,397.3z M304.1,339.6
			c3-12.3-1.9-23.3-6.4-33.4c1.6-8,2-14.7,3-22.7c0.6-1.7,2.7-2,3.4-0.9c2.2,17.9,9.5,24.1,25.5,23.3l1.1,12
			C320.5,322.1,311.9,330.9,304.1,339.6z M329.8,300.4c-14.8,4.4-23.2-4.6-21.9-24.9c-1.8-2.8-6.6,3.6-7.2,1.6
			c-0.1-21.4,9.2-22.4,12.8-27.6c3.5,0.5,7.3,1.7,9.2,4.3c5.7,8.9,4.3,19.7,7.7,29.7c0.8,1.8,2.5,0,2.5,0
			c-3.8-13.8,0.3-33.3-16.4-39.1c6.7-9.2,9.3-19.3,12.2-30c1.1-1.2,3.5-1.5,4.7-1c-0.5,4.2-2.2,8-1.6,12.8c0.4,2.9,5.9-3.5,9.1-5
			c4.5-2.3,11.8-1.7,18-0.8c1.3,0.2,1.1,1.5-0.2,1.6c-6.1,0.6-15.4,1.8-15.9,4.5c0,2,7,3.9,11.2,4.1c0.6,2.3,1.2,5.1,0.9,7.8
			c-7.8,3.7-17.7,13.7-12.2,30C336.5,277.4,332.5,289,329.8,300.4L329.8,300.4z M356.6,305.4c-6.8,20.5-9.8,47.7-18.5,59.5
			c-0.2,0.2-0.6,0.2-0.4-0.3c10.2-20.4,8.4-38.8,14.4-58.4c0.3-0.7-0.5-1.7-1.2-0.6c-6.8,9-8,44.9-13.8,55.9
			c-0.2,0.4-0.8,0.5-0.6-0.3c6.9-25.9,1.5-50.9,12.1-70.8c0.4-0.7-0.8-1.8-1.9-0.6c-4.7,8.4-10.2,25.7-8.6,46.2c0.1,1.1-0.8,1.3-1,0
			c-3-23.9-5.3-47.8,11.5-68.4c7.1-8.7,17.7-16.8,24.8-18.6c16.7-3.5,19.1,12.2,19.1,12.2C372.8,266.8,362.3,288.1,356.6,305.4
			L356.6,305.4z M362.1,307.1c-1-0.6-0.9-2.6,0.1-3c5.8-1.6,22.3-5.4,23.2-3.6C385.6,301.1,363.3,307.8,362.1,307.1z M398.1,296.8
			c-12.3-0.6-24.2,0.7-34.8,3c2-12.1,18.2-30.6,21.4-28.8c3.1,1.7-3.6,10.3,0.2,12.9c2.8,1.7,6.2,0.6,8.5,1.4
			C398.6,287.8,399.9,296.3,398.1,296.8z"/>
		<path fill="#3C1E5E" d="M302.6,196.1c-5.8,40.3-28.8,39.9-51.4,26.3c-4-1.1-12.2-3.7-17.3-2.5c-6.1,1.4-10.6,4.1-16.5,7.3
			c-4.3,2-2,11.2,0.9,15c22.8-10.4,30.3-12,30.3-12c19.9,22.1,53.8,11.3,56.6-17.5c18.6-5.6,41-8.7,61.5-7.6
			c-2.8-8.3-7.1-14.2-7.1-14.2C331.7,188.9,302.6,196.1,302.6,196.1L302.6,196.1z"/>
		<g>
			<path fill="#FFFFFF" d="M401.5,281.4c-1.7-2.1-4.7-3.5-9.1-4.3c0.6-2.2,1-4.7,0.7-7.3c1.3-0.7,4-2.1,4-2.1
				c1.4-0.7,2.3-2.1,2.4-3.7c0.3-5-1.8-12.4-8.3-18.3c0.9-2.3,1.3-5.5,0.3-10.1c-0.5-2.1-2.5-3.6-4.7-3.4c-3.2,0.3-4-0.3-5.1-7.6
				c-0.2-1.5-0.5-3-0.8-4.5c9.1-7.1,11.2-18,7.9-27.2c-1.4-4-6.4-3.1-8-0.5c-1.9,3.1-3.7,5.4-5.7,6.7c-12.3-29-33.5-51.8-61.7-65.9
				c-22.4-11.2-49.1-16.9-73.4-15.5c-2.1,0.1-3.9,1.7-4.2,3.9c-0.3,2.5-0.9,6-1.7,8.8c-14.2-5.5-19.2-18.8-24.5-32.8
				c-3-7.8-6-15.9-10.8-22.8c-4.5-6.3-13.6-17-24.5-19c-8.7-0.7-8.9,8.1-5.7,9.9c18.7,12.6,20.6,34.8,22.4,56.2
				c1.6,18.8,12.5,30.1,23.6,38.9c-14.1,3-30.4,0.3-41.5-7.2l0,0l0,0c-17.2-11.3-19.7-29.5-21.6-49.7c-1.2-13.1-4.3-25.6-4.3-25.7
				c-2.8-8.8-6.8-18.3-14.9-22.5c-3.1-1.7-6.7-1.2-8.7,1.1c-1.7,2-1.9,4.8-0.3,7c8.7,11.9,9.2,22.5,8.5,34.2
				c-3.7,32.1-1.9,48.4,5.9,65.8c18.3,35.2,45.9,50.4,66.6,55.4c-0.5,9,0.4,16.9,1.6,24.2c-29.6,16.3-56.3,35.3-98.9,101.2
				c-3.5,4.6,0.8,15.1,10.2,7.5c26-24.2,58.3-36.7,86.3-33.4c23.4,2.7,43.1,15.9,58.7,39.1c19.3,30.5,18.4,54.9,16,80
				c-0.6,6.4-2.4,15.1,5.6,18.4c2.8,1.2,5.9,0.8,8.8-1c5.8-3.8,10.2-13.8,11.3-18.6c1.7-2.4,2.4-5.4,2.6-7.4
				c1.7-2.7,2.1-6.8,2.1-9.3c4.6-6.6,7.6-18.6,3.6-27.1c1.3-5.7,1.2-14.9-1-21.1c0.8-4.3,2.8-17.7-1.4-26.8
				c5.4-5.5,11.8-10.3,18.6-14c1.4,16.9,4.5,33.8-9.5,45.9c-3.5,2.8-3.2,11.4,5.2,9.2c25.8-8.3,34-51.6,36.6-67.1
				c6.3-2.8,36.8-12.2,39.3-13.1c4.4-1.7,6-4.7,6.6-7C408.6,292.4,404.1,284.6,401.5,281.4L401.5,281.4z M398.7,301.7
				c-7.6,2.8-32.8,9.6-41.7,14.2c-1.8,6.3-7.5,57-34.1,66c-2,0.6-2.2-0.7-1.1-1.5c16.6-13,12.8-37.1,10.3-56
				c-10,4.3-20.1,11.3-27.8,20c5.3,6.7,3.8,21.3,2.3,27.8c2.6,5.9,2.5,17,0.9,21.2c4.7,7.4,0.9,20.1-3.4,25.1c0.3,2.8-0.4,7.9-1.9,9
				c-0.1,2.3-0.9,5.6-2.4,7.1c0,2.5-7.1,20.6-14.3,17.5c-6.7-2.8-2.2-13.1-2.2-20.5c1.3-21.2,3.1-44-17.4-76.3
				c-42.6-63.7-110.5-44.8-151.7-6.5c-3.5,3.3-4.8,0.8-3.5-1.8c42-65,67.3-83.5,100.1-101.3c-1.8-10.1-2.9-19.3-1.9-30
				c-30.5-6.4-55.6-28.3-69.1-58.5c-9.1-22.3-3.3-47.5-3.5-71.3c-0.5-9.2-4.2-17.3-9.4-24.7c-1.1-1.5,1.1-2.8,3.3-1.5
				c7.1,3.7,10.6,13.1,12.8,20c7.4,26.5,0.8,60.1,27.7,77.7c13.3,8.9,32.5,11.5,48.4,7c0.6-1.2,1.6-3.3,2.3-3.9
				c-12.3-9.2-24.2-20-25.9-38.9c-1.9-22.5-4.1-45.8-24.4-59.5c-0.2-0.8,0.5-2.1,2.4-1.9c9.8,1.8,18.4,12.7,21.6,17.2
				c13.6,19.7,12.8,51.1,41.6,58.6c2.2-3.9,3.4-13.7,3.4-13.7c39.6-2.2,106.2,14.8,132.3,82.6c5.3-0.8,9.2-5.1,12-10.2
				c2.9,7.1,0.5,18.3-9.1,23.7c3.1,6.4,0.2,19.2,11.6,18.3c2,8.4-2.2,9.8-2.2,9.8c9.4,6,10.3,14.3,10.2,17.2
				c-2.4,1.2-4.9,2.5-7.2,3.7c2,4.5-0.3,9.2-1.1,13.4c5.2,0.3,9.6,1.2,11.2,3.2C401.1,288,406.6,298.7,398.7,301.7L398.7,301.7z
				 M227.2,136.1c-9.2-5.6-16.5-12.6-21.3-25.8c-0.2-0.2-0.9-0.5-0.5,0.3c0.5,2.2,2.2,6.6,3,8.9c0.1,0.7-0.9,0.8-1.2,0.5
				c-1.9-2.1-4.5-9.4-6.2-13.6c-0.2-0.5-0.4-0.2-0.6,0.1c0.9,6.7,2.8,12.8,4.6,17.9c0.2,0.8-0.6,1-1.1,0.6c-2.4-4-3.3-8.5-4.4-14.1
				c-0.2-0.2-0.4-0.1-0.5,0.3c1.2,10.3,4.2,20.8,8.6,29.1c3,4.8,7.8,10.2,14.2,9.1C229.4,147.6,230.5,138.3,227.2,136.1z
				 M224.8,202.8c1.8,1.4-7.9,4.6-6.6,5.9c1.4,1.4,12-8,15-5.2c1.5,1.9-9.2,5.8-8.3,7c1,1.5,12.6-8,15.5-6.3
				c2.9,2.2-8.1,6.6-6.9,7.4c2.6,1.9,12.4-7.9,14.6-5.7c2.3,2.3-7.3,6.1-5.9,7.3c1.8,1.8,11.5-8.5,14.4-6.5c2.3,1.8-7.7,6.7-6.5,7.6
				c1.5,1.2,11.5-6,13.5-4.9c2.3,1.7-5.9,5.1-4.9,6c1.3,1.2,7.2-5,9.1-4.1c3.4,1.6-5.5,5.5-3.8,6.7c1.1,0.9,4.6-4.3,7.2-2.4
				c2,1.7-3,4.1-2,4.7c1.2,0.8,4-4.2,6.4-2.6c1.1,0.7-1.1,2.2-0.3,2.6c1.4,0.6,3.2-1.6,4.7-1c1.6,0.9-1,2.1,0.2,2.9
				c1.1,0.6,2.9-3.3,5.6-0.5c11.9-6.1,24.2-40.9-15.4-52.6c-26.5-8.9-73.2,13.3-101.2-7.7c-15-11.7-23.2-27.2-23.9-45.5
				c0-0.2-0.4-0.4-0.5,0.2c-0.1,15.3,3,31.2,13.4,43.7c0.5,0.6-0.3,1.2-0.8,0.8c-10.8-10.2-14.5-26.3-15.3-39.7
				c-0.2-0.6-0.5-0.5-0.4,0.2c0.6,17.7,4.9,38.2,16.5,47.3c0.4,0.4-0.2,1.2-0.8,0.8c-10.9-8.4-15.6-25-18.1-37.1
				c-0.3-0.4-0.3-0.2-0.4,0.2c1,13.7,9.3,46.7,40.7,63.2c8.4,3.8,14.2,0,16.1,1.8c1.1,1.5-4.5,2.6-4.1,3.4c0.6,1.2,7.7-2.8,9.7-0.8
				c0.7,1.1-1.6,1.4-1.1,2.2c0.7,0.8,5.5-3,8.3-1.1c1.1,0.8-3.3,2.4-2.7,3c1.1,1.2,9.3-5.3,11.1-2.9c2.2,2.9-6.9,4.1-6,5.6
				C211.9,208.4,221.8,200.7,224.8,202.8z"/>
		</g>
		<g>
			<path fill="#EEC6A5" d="M354.8,238.2c0.4-2.7-0.3-5.5-0.9-7.8c-4.2-0.2-11.3-2.1-11.2-4.1c0.5-2.6,9.9-3.9,15.9-4.5
				c1.3-0.2,1.5-1.5,0.2-1.6c-6.3-0.9-13.5-1.5-18,0.8c-3.2,1.5-8.7,7.9-9.1,5c-0.6-4.8,1.1-8.6,1.6-12.8c-1.3-0.5-3.6-0.2-4.7,1
				c-2.8,10.8-5.4,20.8-12.2,30c16.7,5.8,12.7,25.3,16.4,39.1c0,0-1.7,1.8-2.5,0c-3.4-10-2-20.8-7.7-29.7c-1.9-2.5-5.7-3.8-9.2-4.3
				c-3.6,5.2-12.9,6.2-12.8,27.6c0.6,2,5.4-4.4,7.2-1.6c-1.3,20.3,7.2,29.3,21.9,24.9c2.7-11.3,6.8-22.9,12.9-32.2
				C337,251.9,346.9,242,354.8,238.2z M365,225c-3.6,0.2-12.2,0.4-12.1,1.4c0.2,1.1,2.4,0.5,3.7,1.1c1.3,4.8,2.2,14.3,0.6,15.8
				c-6.9,4.8-13.7,11.6-11.9,20.9c4.1-4.4,11.2-11.6,18.4-14.9c-1.5-2.2-1.7-9,1.6-11.8c1.6-0.5,3.8-0.6,7.7-0.6
				c1.7,0.3,2.2,1.8,1.6,2.7c-1.3,1.6-8.4,2.1-6.8,5.3c1.8,3.6,9.9-1.7,15.4-3.1l-0.4-2.9c-8.6-0.9-6.7-11.5-9.4-17.3
				C371.2,218,364.1,219,365,225L365,225z M393.4,285.4c-2.4-0.9-5.7,0.2-8.5-1.4c-3.7-2.6,2.9-11.2-0.2-12.9
				c-3.2-1.8-19.4,16.6-21.4,28.8c10.6-2.3,22.5-3.6,34.8-3C399.9,296.3,398.6,287.8,393.4,285.4z M304.1,282.6
				c-0.7-1.2-2.8-0.8-3.4,0.9c-1,8-1.3,14.7-3,22.7c4.5,10.1,9.4,21.1,6.4,33.4c7.8-8.7,16.4-17.5,26.6-21.7l-1.1-12
				C313.6,306.8,306.2,300.5,304.1,282.6z M362.1,304.1c-1,0.4-1,2.4-0.1,3c1.2,0.6,23.5-6,23.2-6.5
				C384.5,298.8,367.9,302.5,362.1,304.1z"/>
		</g>
		<g>
			<path fill="#EEBF1B" d="M215.5,217.3v5c3-1.5,5.9-3,8.6-3.8L215.5,217.3z M301.4,191.5c16.9-3.6,38.4-6.7,55.1-5.3
				c0,0-25.2-57.8-112.5-60c-1.8,15.8-10.5,24.4-17.6,37.5C278.7,159.2,292.4,168.6,301.4,191.5z M345.9,209.1
				c-5.9,0.4-7.9,5.8-8.1,9.7c10.5-7.2,25.6,0.2,37-4.8c4.1-2.3,7-6.4,7.5-10.9C371.5,213.4,360.9,208.5,345.9,209.1z M227.7,278.6
				c2.9,17.9,22,29.9,37.3,26.9c2-38.7,53.6-54.1,60-91.1c-5.9,0.6-11.4,2.3-16.9,3.7c0,0-2.8,21.4-24.9,28.2
				c-11.2,3-20.1-0.4-25.5-2.6c-2.3-0.9-5.2,0.6-7.3,1.2c-27.3,11.2-41.4,39.2-59.3,61.3c-0.4,0.9-0.5,2.5,1,3
				c5.2,1.6,12.7-2.3,17.8-6.3C218.8,295.2,223.9,286.2,227.7,278.6L227.7,278.6z M245.9,238.7c1.1-0.7,1.4-2.3-1.4-1.7
				c-14.4,3.7-73.7,27.5-123.4,101.7c-0.7,0.9-0.4,1.8,0.4,1.3c8.2-8.1,14.7-12.9,23.1-18.5c4.2-2.9,6.6-7.6,9.5-12.5
				C173.4,276.2,218.7,249.2,245.9,238.7z M251.3,241c0.9-0.4,0.1-1.7-1-1.1c-37.7,16.4-76.8,39.5-98.1,77.9
				c-0.5,1.1,0.9,1.2,1.7,0.9c9.1-3.2,17.8-5.5,28.2-8.5c1.5-0.4,4-2.5,4.4-3.2C203.2,281.6,223.4,254.5,251.3,241z M392.5,261.2
				c0,0-2.3-15.7-19.1-12.2c-7.1,1.8-17.7,9.9-24.8,18.6c-16.8,20.7-14.5,44.5-11.5,68.4c0.2,1.3,1.1,1.1,1,0
				c-1.5-20.5,4-37.8,8.6-46.2c1.1-1.2,2.3-0.1,1.9,0.6c-10.7,19.9-5.3,44.8-12.1,70.8c-0.2,0.8,0.4,0.8,0.6,0.3
				c5.8-11.1,7-46.9,13.8-55.9c0.6-1.1,1.5-0.1,1.2,0.6c-6,19.7-4.1,38-14.4,58.4c-0.2,0.5,0.3,0.5,0.4,0.3
				c8.7-11.8,11.7-39,18.5-59.5C362.3,288.1,372.8,266.8,392.5,261.2L392.5,261.2z M297.8,262.4c-2-1.6-36.7,35.7-29.5,63.9
				c4.1,1.6,8.2,5.2,11.4,7.7c-0.1-18.2,15.7-24.5,15.6-54.4c0,0-3.5-5-2.6-5.6c0.9-0.4,2.5,1.7,3,1.4
				C296.5,274.8,298.6,263.3,297.8,262.4z M229.2,295.1l-3.3-7.2c-3.3,6.7-9.5,15.6-17.8,20.8c-1.5,1.4,2.2,1.4,4.4,1
				C218.8,307.4,225,300.3,229.2,295.1z M249.5,326.5c-10.5-5.5-16.5-14.7-16-26.6c-0.5-0.5-1.3-1.4-1.9-2
				c-3.6,4.7-9.7,10.3-14.2,13.6c11.7,3.4,22.1,8.7,31.8,17C250.1,329.4,251.2,327.2,249.5,326.5z M264.2,311.1
				c-9.4,0.6-18.2-1.9-26.6-7.5c0,0,0.5,18,26.6,21.1V311.1z M294.6,312.5c-3.3,5-13.2,21.3-12.7,35.7c4.1,1.2,7.1,4.5,10.5,7.2
				c1.8-9.9,12.7-19.1,5.5-41C297.2,311.8,295.8,310.5,294.6,312.5z M278.4,337c0,0-19.2-12.8-23.6-8.3c-4.1,3.3,7,13.7,9.8,15.4
				c3,2,13.2,2.3,13.2,2.3C277.5,343.1,278.3,340.1,278.4,337z M299.5,376.7c3.9-9.3,5.7-27.3,2.2-29.5c-1.7-0.7-7.5,14.6-9.9,20.5
				C293.5,369.4,296.8,372.7,299.5,376.7z M290.5,358.7c-6-6.6-17.7-10.5-20.3-8.2c-1.6,2,1.2,5.3,2.6,7.9c3.1,6.2,9.5,7.3,15.5,8.3
				C289,363.7,289.8,361.6,290.5,358.7z M294.7,386.5c1.1-0.2,3.9-5.5,3.4-7c-3.4-6.2-13.7-11.3-16.2-9.9c-2,1.6-0.1,6.7,1.1,8.9
				C284.7,382.6,293.7,387.1,294.7,386.5L294.7,386.5z M297.3,389.3c1,3,2.9,4.8,3.7,8c3.4-5.4,5.4-19.2,3.4-20.2
				C303.3,376.8,298,388.2,297.3,389.3z M286.7,387.9c-1.3,0.5-1,5-0.5,7.5c0.6,4.9,9.1,9.8,10.2,9.4c0.9,0.1,2.7-2.8,2.7-4.9
				C297.2,394.8,289,387.3,286.7,387.9z M298.8,407.9l4.1,5.6c3.2-4.4,4.6-14.1,2.8-15.4C304.4,397.3,300.9,404.5,298.8,407.9z
				 M288.6,404.8c-1.5-0.4-1.7,3.6,0,4.5c4.7,3.1,8.5,7.9,10.7,13c0.9,1.7,2.1-1.5,1.5-3.5C299.6,413.4,294.1,406.7,288.6,404.8z
				 M290.2,414.9c-1.1-0.9-4,1.8-2.3,3.1c3.1,2.7,8.5,8.2,9.6,10.8C300.5,426.4,294.8,418.5,290.2,414.9z M289.4,424.6
				c-1.3-0.3-2.7,1.9-1.4,2.6c2.6,2.2,5.4,5,7.4,7.6c0.4,0.4,1.3-0.3,1.1-1.4C295.1,430,292.5,425.6,289.4,424.6z M287.8,431.5
				c-0.7-0.2-1.6,2-0.6,3c2.8,1.7,3.6,3.7,5.8,6c0.8,0.5,1.4-0.4,1.2-1.2C293.4,436.1,290,432.5,287.8,431.5z M287.2,439
				c-1.8,3.2-3.4,9-0.8,10.5c2.5,1,4.5-4.5,5.1-6C290,441.9,288.8,440.1,287.2,439z"/>
		</g>
	</g>
	<g id="Layer_33">
	</g>
	<g id="Layer_35">
	</g>
	<g id="Layer_37">
	</g>
	<g id="Layer_39">
	</g>
	<g id="Layer_41">
	</g>
	<g id="Layer_43">
	</g>
	<g id="Layer_46">
	</g>
	<g id="Layer_45">
	</g>
	<g id="Layer_49">
	</g>
	<g id="Layer_51_copy">
	</g>
	<g id="Layer_53">
	</g>
	<g id="Layer_55">
	</g>
	<g id="Layer_57">
	</g>
	<g id="Layer_59">
	</g>
	<g id="Layer_61">
	</g>
	<g id="Layer_63">
	</g>
</g>
</svg>
