<?xml version="1.0" encoding="utf-8"?>
<!-- Generator: Adobe Illustrator 16.0.4, SVG Export Plug-In . SVG Version: 6.00 Build 0)  -->
<!DOCTYPE svg PUBLIC "-//W3C//DTD SVG 1.1//EN" "http://www.w3.org/Graphics/SVG/1.1/DTD/svg11.dtd">
<svg version="1.1" xmlns="http://www.w3.org/2000/svg" xmlns:xlink="http://www.w3.org/1999/xlink" x="0px" y="0px" width="512px"
	 height="512px" viewBox="0 0 512 512" enable-background="new 0 0 512 512" xml:space="preserve">
<g id="grids" display="none">
	<g id="svgGrid_13_" display="inline">
		<line fill="none" stroke="#B35047" x1="32" y1="0" x2="32" y2="512"/>
		<line fill="none" stroke="#B35047" x1="64" y1="0" x2="64" y2="512"/>
		<line fill="none" stroke="#B35047" x1="96" y1="0" x2="96" y2="512"/>
		<line fill="none" stroke="#B35047" x1="128" y1="0" x2="128" y2="512"/>
		<line fill="none" stroke="#B35047" x1="160" y1="0" x2="160" y2="512"/>
		<line fill="none" stroke="#B35047" x1="192" y1="0" x2="192" y2="512"/>
		<line fill="none" stroke="#B35047" x1="224" y1="0" x2="224" y2="512"/>
		<line fill="none" stroke="#B35047" x1="256" y1="0" x2="256" y2="512"/>
		<line fill="none" stroke="#B35047" x1="288" y1="0" x2="288" y2="512"/>
		<line fill="none" stroke="#B35047" x1="320" y1="0" x2="320" y2="512"/>
		<line fill="none" stroke="#B35047" x1="352" y1="0" x2="352" y2="512"/>
		<line fill="none" stroke="#B35047" x1="384" y1="0" x2="384" y2="512"/>
		<line fill="none" stroke="#B35047" x1="416" y1="0" x2="416" y2="512"/>
		<line fill="none" stroke="#B35047" x1="448" y1="0" x2="448" y2="512"/>
		<line fill="none" stroke="#B35047" x1="480" y1="0" x2="480" y2="512"/>
		<line fill="none" stroke="#B35047" x1="0" y1="32" x2="512" y2="32"/>
		<line fill="none" stroke="#B35047" x1="0" y1="64" x2="512" y2="64"/>
		<line fill="none" stroke="#B35047" x1="0" y1="96" x2="512" y2="96"/>
		<line fill="none" stroke="#B35047" x1="0" y1="128" x2="512" y2="128"/>
		<line fill="none" stroke="#B35047" x1="0" y1="160" x2="512" y2="160"/>
		<line fill="none" stroke="#B35047" x1="0" y1="192" x2="512" y2="192"/>
		<line fill="none" stroke="#B35047" x1="0" y1="224" x2="512" y2="224"/>
		<line fill="none" stroke="#B35047" x1="0" y1="256" x2="512" y2="256"/>
		<line fill="none" stroke="#B35047" x1="0" y1="288" x2="512" y2="288"/>
		<line fill="none" stroke="#B35047" x1="0" y1="320" x2="512" y2="320"/>
		<line fill="none" stroke="#B35047" x1="0" y1="352" x2="512" y2="352"/>
		<line fill="none" stroke="#B35047" x1="0" y1="384" x2="512" y2="384"/>
		<line fill="none" stroke="#B35047" x1="0" y1="416" x2="512" y2="416"/>
		<line fill="none" stroke="#B35047" x1="0" y1="448" x2="512" y2="448"/>
		<line fill="none" stroke="#B35047" x1="0" y1="480" x2="512" y2="480"/>
		<rect fill="none" stroke="#B35047" width="512" height="512"/>
	</g>
</g>
<g id="b_x26_w" display="none">
	<g id="Layer_9" display="inline">
	</g>
	<g id="Layer_6_copy" display="inline">
	</g>
	<g id="Layer_7_copy" display="inline">
	</g>
	<g id="Layer_11_copy" display="inline">
	</g>
	<g id="Layer_13_copy" display="inline">
	</g>
	<g id="Layer_15_copy" display="inline">
	</g>
	<g id="Layer_17_copy" display="inline">
	</g>
	<g id="Layer_19_copy" display="inline">
	</g>
	<g id="Layer_21_copy" display="inline">
	</g>
	<g id="Layer_23_copy" display="inline">
	</g>
	<g id="Layer_25_copy" display="inline">
	</g>
	<g id="Layer_27" display="inline">
	</g>
	<g id="Layer_29_copy" display="inline">
		<path fill="#FFFFFF" d="M409.8,211c-13.7-2.9-17.8-18.3-18-19v-0.2c-4.2-15.4,9.3-26.8,10-27.3c2-1.7,2.7-4.6,1.5-7
			c-1.2-2.4-3.7-3.7-6.5-3.2c-17.3,3.6-27.7-9.5-29.4-11.9c-8.8-18.7,1-29.7,1.4-30c2-2.2,2.2-5.4,0.3-7.8c-1.9-2.2-5.3-2.7-7.6-1
			c-15.1,9.8-28.3,0.2-28.8-0.3h-0.2c-14.9-10.7-11.5-25.6-11.4-26.1c0.7-3.1-0.9-6.1-3.7-7c-2.9-1-6.1,0.5-7.3,3.2
			c-1.2,2.7-11.9,10.9-23.6,10.5c-10.7-0.2-19-7.5-24.6-21.4c-1-2.2-3.4-3.7-5.9-3.6c-2.5,0.3-4.6,2.2-5.1,4.6
			c-2,9.7-10.4,18-20.2,20.5c-9.8,2.5-19.9-1.5-28-11.2c-1.7-2-4.6-2.5-7-1.5c-2.4,1.2-3.7,3.7-3.2,6.3c1.9,10.9-2.4,21.6-10.9,27.5
			c-8.7,5.9-19.5,5.9-30-0.2c-2.2-1.4-5.3-0.9-7,1c-1.9,2-2.2,4.9-0.7,7.1c5.3,8,5.4,19.3,0.5,27.8c-3.6,6.3-11.4,13.4-28.2,12.4
			c-2.5-0.2-4.8,1.2-5.8,3.6c-0.8,2.4-0.2,4.9,1.7,6.6c10.2,8.5,13.9,18.3,10.7,28.5c-3.4,10.7-13.7,18.7-19,19
			c-2.7,0.3-4.9,2.4-5.3,5.1c-0.3,2.7,1.4,5.3,3.9,6.3c12.6,4.1,20.2,12,21.6,22.2c1.4,9.7-3.2,20.4-11.2,25.8c-2.2,1.5-3.1,4.4-2,7
			c1,2.4,3.6,3.9,6.3,3.4c11.7-1.9,21.7,2.4,27.5,11.5c5.8,9.2,5.6,20.9-0.2,29c-1.7,2.5-1.2,5.8,1,7.8c2.2,1.9,5.4,1.9,7.6-0.2
			c4.4-4.1,15.8-5.3,25.3-0.5c7.3,3.6,15.6,11.2,14.4,28.2c-0.2,2.5,1.4,4.9,3.7,5.8c2.2,1,4.9,0.3,6.6-1.5
			c6.4-7.8,17.6-12.1,27.2-10.4c9.3,1.5,16.5,8.7,20.7,20.4c1,2.5,3.6,4.2,6.4,3.7c2.7-0.5,4.8-2.9,4.8-5.6
			c0.2-5.1,7.1-15.1,18-18.8c7.6-2.7,19.2-3,30.5,10.7c1.7,2.2,4.8,2.7,7.1,1.5c2.5-1.4,3.7-4.1,2.9-6.8c-1.9-6.8,2-19.2,10.5-26.1
			c8.3-6.6,18.8-7,30.4-0.8c2.2,1.2,4.9,0.8,6.8-1c1.7-1.7,2.2-4.4,1-6.6c-4.6-8.8-3.9-21,1.4-29.4c5.1-7.8,13.9-11.7,25.6-11.2
			c2.5,0.2,5.1-1.5,5.8-4.2c0.7-2.5-0.3-5.3-2.7-6.6c-5.9-3.2-11.7-14.6-10.4-25.5c0.8-7.5,5.1-17.3,20.9-21.9
			c2.5-0.7,4.4-3.1,4.2-5.8C414.2,213.7,412.4,211.5,409.8,211z"/>
		<path d="M408.6,216.6c-36.8,10.7-27,49.6-11.9,58c-34.1-1.7-41.6,30.9-32.2,48.9c-34.5-18.2-54,17-49.2,33.8
			c-26-31.6-58.5-3.9-58.7,11.5c-12-33.6-44.3-27.8-57.9-11.7c2.5-37.7-37-43.6-49.4-32.4c14.3-20.2-0.8-54.8-32.9-49.6
			c17.6-12.2,22.9-46.7-11.9-58.4c14.4-1.2,42.3-32.1,11.5-57.7c36.7,2.4,44.5-31.6,32.8-49.2c28,16.3,54.1-6.6,49.6-33.3
			c22.7,27.2,53.6,9.8,58.2-11.9c17.7,42.8,55.5,19.5,59.1,10.9c0,0-4.9,19,13.6,32.4c0,0,16.6,12.7,35.5,0.3c0,0-13.2,13.9-2.2,37
			c0,0,12.7,19.3,35.6,14.6c0,0-17.1,13.9-11.9,33.4C386.2,193.3,391,213,408.6,216.6L408.6,216.6z"/>
		<path fill="#FFFFFF" d="M141.9,216.8c0-63.3,51.4-114.7,114.7-114.7c63.3,0,114.7,51.4,114.7,114.7c0,63.5-51.4,114.7-114.7,114.7
			C193.3,331.5,141.9,280.2,141.9,216.8z M140.2,452.7c0,0-4.4-2.7-7.6-6.8c-5.6-7.1-4.9-26.6-4.1-32.4c1.5-16.3,11.2-28,17.6-34.8
			c6.4-6.6,16-11.7,20.4-14.6c-4.4-25.5-8.1-50.2-2-95.9c3.9-29.2,17.8-65.8,22.2-73c0.7-1.5,0.9-2.7,0.5-3.2
			c-0.3-0.8-2.4-2.2-6.3-2.9c-1.2,0-6.1-0.2-11.5,0.8h-0.8c-1,0-4.9-0.3-7.3-3.1c-1.4-1.7-2-3.7-2-5.8v-0.3c0.2-1,1.2-10,11.4-18.8
			c2.4-2.5,27.2-26.5,73-18.5c15.3-10.4,32.2-18.2,50.9-23.2c4.4-15.1,16.5-23.2,18.5-24.4C337,79.1,370.6,84.6,383,92
			c10.9,6.4,24.1,17.5,21.6,44.3c11,9.8,15.8,23.9,16.6,26.3c0.5,1.5,3.4,8.8,3.2,17c4.6,4.4,13.2,11.7,15.4,16.3
			c3.1,5.9,3.9,12.4,3.1,17.5c-1.2,6.4-6.3,11-12.2,12.9c-6.6,1.9-24.1-2.4-26.8-3.4c-4.8-1.5-14.8-3.6-17.8-3.9
			c-10.7-1-13.9-1.2-26.1,0.5c-2.5,0.3-4.1,0.5-5.6,1c3.2,16-2.9,33.6-4.1,35.1c-3.4,4.4-7.3,7.3-11.4,7.5c-5.1,0.3-8.3-3.2-8.7-3.7
			h-0.2c-3.6-4.4-6.6-8.5-9.3-12c-2-2.9-4.2-5.8-6.1-8c-2.5,11.2-8.7,26.6-20.2,37.7c-6.4,7.6-21.9,19.3-35.1,18.7
			c-3.7-0.2-6.3-1.7-8.1-5.3c-1.5-3.2-1.7-7.8-0.3-11.2c0.2-0.3,1.2-3.4,2.2-8.3c-9,5.3-18.8,13.2-27.5,22.4
			c-7,7.5-25.8,41.4-27.3,69.4c18.5,2.5,28.3,8.6,33.3,18.8c3.4,7,3.9,14.6,1.9,23.6c-1.9,7.6-8.8,10.2-8.8,10.2s-0.2-3-1.7-4.6
			c-4.1-3.4-9.2-1.5-10.4-1c-1.9,0.8-4.2,2-8.7,2.2c-3.7,0.2-6.8-0.8-9-2c-2.2,2.4-5.6,5.3-10.2,6.3c-12.9,3.4-26.1,11.4-28,13.8
			c0,0-7.5,6.4-4.9,21.2c0,0,0.7,4.4-3.2,3.9C148.5,455,142.7,454.5,140.2,452.7L140.2,452.7z"/>
		<path d="M347.9,214.9c5.4,9.5,0,35.8-1.7,38.2c-6.4,9-12.6,2.9-12.6,2.9c-10.5-12.4-16.3-23.9-22.2-24.9
			c-1,8.8-6.3,29.2-20.4,42.4c-1.2,1.5-17,18.2-32.2,17.3c-0.8-0.2-2.5-0.9-3.4-2.7c-1.5-3.2-0.3-6.3,0-7.3
			c0.2-0.7,2.9-13.2,3.9-23.8c-60.2,30.9-67.5,109.8-67.5,109.8c11.5,1.2,29.5,4.8,35.5,17c3.1,6.4,3.4,14.4,1.5,19.9
			c-0.8,2.4-1.4,3.7-2.5,4.9c-0.3-3.6-5.8-5.8-11.2-4.8c-3.7,0.7-5.3,2.9-11.4,3.1c-5.9,0.2-10-3.6-10-3.6c-2.4,7.1-10,8-10,8
			c-21.7,5.6-29.7,15.1-29.7,15.1c-9.3,10.3-6.4,22.6-6.4,22.6s-9.2,2-13.2-9.7c0,0-4.1-11.9-2.2-24.6c1.7-13.1,8.8-23.2,17.1-31.7
			c8.5-8.8,22.6-16.3,22.6-16.3c-4.4-26.1-9-50.7-2.7-97.8c4.1-29.5,18.5-66.2,21.7-71.3c3.7-8-0.8-12-9.5-13.6
			c0,0-5.8-0.2-12.7,0.9c0,0-4.8,0-4.6-3.6c0,0,0.7-7.8,9.7-15.6c0,0,23.8-25.3,69.6-17.1l1.7,0.2c18-12.7,37-20.2,53.5-24.4
			c3.2-16.5,18.5-25.1,18.5-25.1c1.2-0.3-0.3,1.5,0.8,1c-9.2,7.8-19.5,24.1-7.5,54.8c0,0-0.2-3.6,0.8-7c0,0,4.4,26,27.5,23.4
			c0,0,16.6-0.2,22.2-20.9c0,0,2-10.4,9.7-14.8c1.4-1.4,2.2-1.7,4.8-3.7c2.5-2.7,2.9-4.8,2-10.7c-1-10.2-5.3-24.6-24.9-28.3
			c0.2-0.3,0.3-0.8,0.3-1.2c13.4,1.2,31.7,8.3,31.6,37.8l0.7,0.5c0,0,3.4-0.5,6.1,0.5c0,0,0.3-0.2,0.5-0.5c3.6-29.4-22.7-38-22.7-38
			c7.8,2.5,11.2,4.2,11.2,4.2s23.4,8.5,20.2,42.4c12.2,9.5,17.3,25.3,17.3,25.3s2.9,8.3,3.4,18.5c0,0,10.5,9,13.4,13.7
			c0,0,2.7,3.9,3.4,10.4c0,0,0.7,3.4-1.2,8.1c0,0-2.9,8.3-16.6,5.8c-7-0.7-12.2-2.4-12.2-2.4c-7.3-2.2-16.1-3.7-21.5-4.6
			c-11-1.7-21-1.4-27-0.7C359.1,213,349.9,214.4,347.9,214.9z"/>
		<path fill="#FFFFFF" d="M310.2,155c0,0-0.2-3.6,0.8-7c0,0,4.4,26,27.5,23.4c0,0,16.6-0.2,22.2-20.9c0,0,2-10.4,9.7-14.8
			c1.4-1.4,2.2-1.7,4.8-3.7c2.5-2.7,2.9-4.8,2-10.7c-1.2-12.1-7-30.4-38.4-29.2c0,0,45.5-9,45.3,37.5l0.7,0.5c0,0,3.4-0.5,6.1,0.5
			c0,0,0.3-0.2,0.5-0.5c3.6-29.4-22.7-38-22.7-38s1.5,0.3,3.7,1c-9.7-3.9-20-3.4-20-3.4c-10.5,0.2-18.8,1.9-25.3,4.4h0.3
			C327.5,94.2,291.4,106.8,310.2,155L310.2,155z"/>
		<path d="M434.3,209c1.5,9.2-9.8,9.2-9.8,9.2c-13.7-1.2-15.1-2.5-25.6-8.3c0,0-37.2-22.6-80.4,0c0,0-0.7,0.8-1.5,2.2
			c12-20.2,37.3-19.9,37.3-19.9c-8.7-15.4-61.9,5.9-61.9,5.9c23.2-4.9,28.5-2.7,28.5-2.7h-0.2c-13.6,3.7-17.8,31.2-17.8,31.2
			c-4.4,22.9-5.6,28.7-12.9,39.5c-2.9,4.2-9.7,12.7-22.9,15.4h1h-1.2c-0.5,0-1-0.3-1-0.3s-2.9-1-1.4-6.4c0,0,5.9-16.5,5.4-34.5
			c-0.5-11.2-2.7-17.1-4.1-21.6c-0.3-0.8-0.7-1.7-1-2.9c0,0,3.7-8.8,8-11.9c0,0-27.5,10.9-48.5,37.5c0,0,8.7-29.4,58-48.9
			c0,0-54.5,2.9-91.5,83.3c0,0-21.4,44.5-7.3,93.7c0,0-2-19.7,8.7-30.6c0,0-9.7,24.6,2,45c0,0,4.1,11.2,16.1,11.4
			c0,0,12.4-1.2,13.2,5.8c-0.5-0.5-1.2-1-1.7-1.2c-0.9-0.5-1.7-1.2-5.3-1.2c-4.1,0-5.1,1.7-11,2.2c-3.6,0.3-11,1.4-15.8-9.2
			c0,0,2.7,11.7-9.2,14.8c0,0-15.6,5.4-22.6,9.5c0,0-13.6,7.1-14.8,22.9c0,0,0.3,2.2-1.5,2.2c0,0-1.5,0.2-2.5-3.4
			c0,0-11.2-30,16.3-53.5c3.4-3.1,7.3-5.4,11-7.6c11.7-4.7,16.5,4.8,16.5,4.8c-6.6-12.9-10-33.4-11.2-40.2c0-0.7,0-1.4-0.2-2
			c-5.4-50.4,8.3-99.6,13.9-113.9c3.1-8.1,6.6-15.6,10.5-22.6l-0.2,0.3c4.8-7.5,5.3-11.7,5.3-11.7c1.2-5.6-3.9-10-3.9-10
			c-4.9-5.4-18-3.6-18-3.6s-3.4,0.5-2.7-2.2v-0.2c1.7-2.5,4.8-5.1,8.1-7.3c30.4-17.8,28,7,28,7c11.9-14.6,26.8-20.5,26.8-20.5
			C188,194.9,185.6,256,185.6,256c22.9-101.5,101.5-121,112.9-117.3c0.5,0.7,2.7,3.2,3.9,4.4c-1.5-8.1-2-18.8,2.4-28.7
			c0,0,5.3-15.4,22.7-20.2c0,0-4.9,1.7-10.2,6.3c-2.4,2-4.9,4.8-7.1,8.3c-0.5,1-1.2,2-1.7,3.2c-0.8,1.5-1.5,3.4-2,5.4
			c-1,3.2-1.7,7-1.7,11c-0.2,7.3,1.4,16.1,5.4,26.5c0,0-0.2-3.6,0.8-7c0,0,4.4,26,27.5,23.4c0,0,16.6-0.2,22.2-20.9
			c0,0,2.2-11,9.7-14.8c1.4-1.4,2.2-1.7,4.8-3.7c2.2-2.2,2.4-4.1,2.4-4.1c0.5-2.9-0.3-6.6-0.3-6.6c-1.2-12.1-7-30.4-38.4-29.2
			c0,0,45.5-9,45.3,37.5l0.7,0.5c0,0,3.4-0.5,6.1,0.5c0,0,0.3-0.2,0.5-0.5c3.6-29.4-22.7-38-22.7-38s31.9,4.6,27.2,44.3
			c-3.9-2-11.7-2.7-19,0.3c-8.7,4.2-12.4,13.6-12.4,13.6c9.3-12.6,20.9-12.6,28-10.9c7.5,4.4,18.8,14.3,22.2,33.9
			c0,0,0.2,0.2,0.2,0.3c-2.2-5.8-9.7-21.6-26-27.8c0,0,12,8.1,18.3,25.5c0.8,2.4,3.2,8.5,0.7,9.2c-4.4,1.7-17.8,2.5-26.5,0
			c-2.5-0.9-3.7-1.4-4.9-2.2c-0.5-0.2-1.2-0.5-1.2-0.5c-2.7,1.9-5.1,1.4-5.1,1.4c2.5-0.7,3.4-2.9,3.4-2.9c-2.2-0.2-3.7-2.5-3.7-2.5
			c-3.2-3.9-5.9-4.9-5.9-4.9c-6.3-2.4-9.2,1.7-9.5,2.4c-0.8,2,0.2,5.4,6.8,10.5c-1.7-3.6-2.7-7.5,1.2-8.7c0.2,0,0.3-0.2,0.3-0.2
			c2.2-0.2,4.4,1.4,5.4,2.4c-0.5,0.2-1,0.7-1.2,1.4c-0.7,1.5,0.3,3.6,2.2,4.4c0.7,0.3,1.5,0.3,2.4,0.2c1,0,2.2-0.3,3.6-1
			c5.9,3.1,14.4,4.6,21.2,4.9c0,0,14.9,0.9,19.2-0.7c12.9,7.1,17.1,15.4,17.3,16.3c2,6.1-6.8,6.1-6.8,6.1
			c-12.4-0.3-17.1-4.8-25.6-8.7c-9.5-4.4-6.1-3.1-15.3-6.1c0,0-9.3-3.1-11.9,0.3l0.5-0.5c0,0,3.6-0.5,9.8,2.5
			c7,3.6,13.4,6.6,20.2,9.8c0,0,10,8.5,21,7.5l4.1,0.3L434.3,209L434.3,209z M314.1,131.7c0,0-4.1-0.3-5.8-3.7c0,0-0.2-19,17.8-28.3
			C326.2,99.7,310.2,109.3,314.1,131.7z M309.4,133.1c0,0,1.9,1.5,2.9,1.5c0,0,0.3,5.1,2.9,10.2C315.1,144.8,309,139.7,309.4,133.1z
			 M340.4,153.1c-3.7,1.9-4.1,5.8-4.1,5.8c-0.5,3.6,0.8,6.3,1,6.6c0.5,0.2,1,0.3,1.7,0.3c2.7,0,4.9-2.9,5.1-6.4
			C344.2,156.3,342.5,154,340.4,153.1z"/>
		<path fill="#13264B" d="M336.3,158.9c0,0,0.3-3.9,4.1-5.8c-0.5-0.2-0.8-0.2-1.4-0.2c-2.7,0-5.1,2.9-5.1,6.4c0,2.7,1.5,5.3,3.4,6.1
			C337.2,165.2,335.8,162.5,336.3,158.9L336.3,158.9z"/>
		<path d="M326.5,111.7c1.4,0.5,1.5,1.4,1.4,2.4l-1.5,17.1c-0.2,0.9-0.7,1.9-1.9,1.9H324c0,0-0.5,0.2-0.5,0.3v1.2
			c0,0,0.2,0.3,0.3,0.5c0.2,0.2,8,1,8,1s0.3-0.2,0.5-0.3l0.2-1.4l-0.3-0.3c-2-0.3-1.4-1.9-1.5-2.4l1-10.7l6.1,15.8l3.4,0.5l7.5-14.4
			l-1,10.9c-0.2,1.5-0.8,1.9-1.2,1.9h-0.5c0,0-0.5-0.2-0.7,0.5v0.7c0,0-0.2,0.7,0.3,0.8l10.4,1.2c0,0,0.3,0,0.5-0.3l0.2-1.2
			c0,0-0.3-0.5-0.5-0.5c0,0-1.5-0.2-1.7-2.4l1.4-17.1c0,0,0-1.7,2-1.9c0,0,0.5-0.2,0.7-0.5l0.2-1.4c0,0-0.2-0.5-0.5-0.5
			c-0.2,0-9-1-9-1l-7.8,13.4l-5.6-15.1l-9.5-1c0,0-0.5,0-0.5,0.5c0,0.3-0.2,1.2-0.2,1.2s0,0.5,0.2,0.5
			C325.8,111.5,326.5,111.7,326.5,111.7L326.5,111.7z M390.3,130.6c0.3-30.5-20.2-35.1-20.2-35.1c16.6,9,16.6,27.7,16,34.6
			C387.1,130,388.8,130,390.3,130.6L390.3,130.6z"/>
		<path fill="#FFFFFF" d="M376.7,178.6c0.3-0.3,0.8-1.9,0.7-3.2c-0.3-2-2.7-9-11.9-9.7c-9.3-0.9-11,5.6-11,5.6s2.9-4.9,9.5-2.4
			c0,0,2.7,1,5.9,4.9c0,0,1.5,2.4,3.7,2.5c0,0-0.8,2.2-3.4,2.9c0,0,2.4,0.5,5.1-1.4L376.7,178.6L376.7,178.6z M371.6,181.3
			c-0.8,0.2-1.7,0.2-2.4-0.2c-1.9-0.8-2.9-2.9-2.2-4.4c0.2-0.7,0.7-1.2,1.2-1.4c-1-1-3.2-2.5-5.4-2.4c0,0-1,3.9,0.5,6.1
			c0,0,2.5,4.4,8.7,3.1c0,0,1.7-0.3,3.6-1.7c-0.2-0.2-0.3-0.2-0.3-0.2C373.9,181,372.7,181.3,371.6,181.3L371.6,181.3z M419,210.3
			c0,0,13.6,4.9,15.3-3.6c3.2,13.9-16.5,6.3-16.5,6.3c-5.8-1.5-31.7-17.3-31.7-17.3c-5.4-3.2-8.5-3.4-8.5-3.4
			c-1-0.2-3.7-0.3-3.7-0.3c1.7-1,7-0.3,13.2,2.7C387.1,194.7,413.2,209.3,419,210.3L419,210.3z M406.8,214.6
			c-14.3-5.6-24.8-6.1-24.8-6.1c-42.6-3.9-69.2,13.2-69.2,13.2c1.2-6.1,5.6-11.9,5.6-11.9c44.5-24.3,82.3,1.2,82.3,1.2
			s7.5,3.9,8.7,4.2C409.3,215.2,407.8,214.9,406.8,214.6L406.8,214.6z M320.9,195.4c0,0-9.8,6.1-12.9,30.7
			c-1.4,12.7-4.1,28.2-17.1,42.8c-4.4,4.9-11.5,12.6-23.9,12.7c13.2-2.7,20-11.2,22.9-15.4c7.3-10.9,8.5-16.6,12.9-39.5
			C302.7,226.6,307,198.8,320.9,195.4L320.9,195.4z M260.8,249.3c0,0,2.2-11-1.7-20c0,0-54.6,23.1-59.9,86.7
			C199.2,316,206.5,279.6,260.8,249.3L260.8,249.3z M187.5,159.7c26.3-16,54.5-8.8,54.5-8.8s-3.1,1.5-5.6,3.2
			C236.4,154.1,213.8,147.4,187.5,159.7z M161.5,406.2c-13.6,2.4-19.4,16.8-19.2,24.8c0,0-7.5-33.6,22.7-47.9c0,0,13.1-5.8,14.3,8.3
			C179.5,393.4,182.4,402.3,161.5,406.2z M424.6,193.3c0,0,13.6,9.8,0.2,11C424.8,204.4,431.4,200,424.6,193.3z"/>
		<path fill="#FFFFFF" d="M344.3,220.2l-5.1,1.2c0,0,5.4,3.4,3.7,28.2C343,249.5,349.8,232.7,344.3,220.2z M200.4,372.9
			c0,0,22.9,0.7,24.1,15.6c0,0-2-6.1-11.2-6.6C213.3,381.9,199.2,380.5,200.4,372.9z"/>
	</g>
	<g id="Layer_31_copy" display="inline">
	</g>
	<g id="Layer_33_copy" display="inline">
	</g>
	<g id="Layer_35_copy" display="inline">
	</g>
	<g id="Layer_37_copy" display="inline">
	</g>
	<g id="Layer_39_copy" display="inline">
	</g>
	<g id="Layer_41_copy" display="inline">
	</g>
	<g id="Layer_43_copy" display="inline">
	</g>
	<g id="Layer_48" display="inline">
	</g>
	<g id="Layer_45_copy" display="inline">
	</g>
	<g id="Layer_49_copy_2" display="inline">
	</g>
	<g id="Layer_51" display="inline">
	</g>
	<g id="Layer_53_copy" display="inline">
	</g>
	<g id="Layer_55_copy" display="inline">
	</g>
	<g id="Layer_57_copy" display="inline">
	</g>
	<g id="Layer_59_copy" display="inline">
	</g>
	<g id="Layer_61_copy" display="inline">
	</g>
	<g id="Layer_63_copy" display="inline">
	</g>
</g>
<g id="color">
	<g id="Layer_5">
	</g>
	<g id="Layer_6">
	</g>
	<g id="Layer_7">
	</g>
	<g id="Layer_11">
	</g>
	<g id="Layer_13">
	</g>
	<g id="Layer_15">
	</g>
	<g id="Layer_17">
	</g>
	<g id="Layer_19">
	</g>
	<g id="Layer_21">
	</g>
	<g id="Layer_23">
	</g>
	<g id="Layer_25">
	</g>
	<g id="Layer_27_copy">
	</g>
	<g id="Layer_29">
		<g>
			<path fill="#FFFFFF" d="M409.8,211c-13.7-2.9-17.8-18.3-18-19v-0.2c-4.2-15.4,9.3-26.8,10-27.3c2-1.7,2.7-4.6,1.5-7
				c-1.2-2.4-3.7-3.7-6.5-3.2c-17.3,3.6-27.7-9.5-29.4-11.9c-8.8-18.7,1-29.7,1.4-30c2-2.2,2.2-5.4,0.3-7.8c-1.9-2.2-5.3-2.7-7.6-1
				c-15.1,9.8-28.3,0.2-28.8-0.3h-0.2c-14.9-10.7-11.5-25.6-11.4-26.1c0.7-3.1-0.9-6.1-3.7-7c-2.9-1-6.1,0.5-7.3,3.2
				c-1.2,2.7-11.9,10.9-23.6,10.5c-10.7-0.2-19-7.5-24.6-21.4c-1-2.2-3.4-3.7-5.9-3.6c-2.5,0.3-4.6,2.2-5.1,4.6
				c-2,9.7-10.4,18-20.2,20.5c-9.8,2.5-19.9-1.5-28-11.2c-1.7-2-4.6-2.5-7-1.5c-2.4,1.2-3.7,3.7-3.2,6.3
				c1.9,10.9-2.4,21.6-10.9,27.5c-8.7,5.9-19.5,5.9-30-0.2c-2.2-1.4-5.3-0.9-7,1c-1.9,2-2.2,4.9-0.7,7.1c5.3,8,5.4,19.3,0.5,27.8
				c-3.6,6.3-11.4,13.4-28.2,12.4c-2.5-0.2-4.8,1.2-5.8,3.6c-0.8,2.4-0.2,4.9,1.7,6.6c10.2,8.5,13.9,18.3,10.7,28.5
				c-3.4,10.7-13.7,18.7-19,19c-2.7,0.3-4.9,2.4-5.3,5.1c-0.3,2.7,1.4,5.3,3.9,6.3c12.6,4.1,20.2,12,21.6,22.2
				c1.4,9.7-3.2,20.4-11.2,25.8c-2.2,1.5-3.1,4.4-2,7c1,2.4,3.6,3.9,6.3,3.4c11.7-1.9,21.7,2.4,27.5,11.5c5.8,9.2,5.6,20.9-0.2,29
				c-1.7,2.5-1.2,5.8,1,7.8c2.2,1.9,5.4,1.9,7.6-0.2c4.4-4.1,15.8-5.3,25.3-0.5c7.3,3.6,15.6,11.2,14.4,28.2
				c-0.2,2.5,1.4,4.9,3.7,5.8c2.2,1,4.9,0.3,6.6-1.5c6.4-7.8,17.6-12.1,27.2-10.4c9.3,1.5,16.5,8.7,20.7,20.4c1,2.5,3.6,4.2,6.4,3.7
				c2.7-0.5,4.8-2.9,4.8-5.6c0.2-5.1,7.1-15.1,18-18.8c7.6-2.7,19.2-3,30.5,10.7c1.7,2.2,4.8,2.7,7.1,1.5c2.5-1.4,3.7-4.1,2.9-6.8
				c-1.9-6.8,2-19.2,10.5-26.1c8.3-6.6,18.8-7,30.4-0.8c2.2,1.2,4.9,0.8,6.8-1c1.7-1.7,2.2-4.4,1-6.6c-4.6-8.8-3.9-21,1.4-29.4
				c5.1-7.8,13.9-11.7,25.6-11.2c2.5,0.2,5.1-1.5,5.8-4.2c0.7-2.5-0.3-5.3-2.7-6.6c-5.9-3.2-11.7-14.6-10.4-25.5
				c0.8-7.5,5.1-17.3,20.9-21.9c2.5-0.7,4.4-3.1,4.2-5.8C414.2,213.7,412.4,211.5,409.8,211z"/>
			<path fill="#DE6226" d="M408.6,216.6c-36.8,10.7-27,49.6-11.9,58c-34.1-1.7-41.6,30.9-32.2,48.9c-34.5-18.2-54,17-49.2,33.8
				c-26-31.6-58.5-3.9-58.7,11.5c-12-33.6-44.3-27.8-57.9-11.7c2.5-37.7-37-43.6-49.4-32.4c14.3-20.2-0.8-54.8-32.9-49.6
				c17.6-12.2,22.9-46.7-11.9-58.4c14.4-1.2,42.3-32.1,11.5-57.7c36.7,2.4,44.5-31.6,32.8-49.2c28,16.3,54.1-6.6,49.6-33.3
				c22.7,27.2,53.6,9.8,58.2-11.9c17.7,42.8,55.5,19.5,59.1,10.9c0,0-4.9,19,13.6,32.4c0,0,16.6,12.7,35.5,0.3c0,0-13.2,13.9-2.2,37
				c0,0,12.7,19.3,35.6,14.6c0,0-17.1,13.9-11.9,33.4C386.2,193.3,391,213,408.6,216.6L408.6,216.6z"/>
			<path fill="#FFFFFF" d="M141.9,216.8c0-63.3,51.4-114.7,114.7-114.7c63.3,0,114.7,51.4,114.7,114.7
				c0,63.5-51.4,114.7-114.7,114.7C193.3,331.5,141.9,280.2,141.9,216.8z M140.2,452.7c0,0-4.4-2.7-7.6-6.8
				c-5.6-7.1-4.9-26.6-4.1-32.4c1.5-16.3,11.2-28,17.6-34.8c6.4-6.6,16-11.7,20.4-14.6c-4.4-25.5-8.1-50.2-2-95.9
				c3.9-29.2,17.8-65.8,22.2-73c0.7-1.5,0.9-2.7,0.5-3.2c-0.3-0.8-2.4-2.2-6.3-2.9c-1.2,0-6.1-0.2-11.5,0.8h-0.8
				c-1,0-4.9-0.3-7.3-3.1c-1.4-1.7-2-3.7-2-5.8v-0.3c0.2-1,1.2-10,11.4-18.8c2.4-2.5,27.2-26.5,73-18.5
				c15.3-10.4,32.2-18.2,50.9-23.2c4.4-15.1,16.5-23.2,18.5-24.4C337,79.1,370.6,84.6,383,92c10.9,6.4,24.1,17.5,21.6,44.3
				c11,9.8,15.8,23.9,16.6,26.3c0.5,1.5,3.4,8.8,3.2,17c4.6,4.4,13.2,11.7,15.4,16.3c3.1,5.9,3.9,12.4,3.1,17.5
				c-1.2,6.4-6.3,11-12.2,12.9c-6.6,1.9-24.1-2.4-26.8-3.4c-4.8-1.5-14.8-3.6-17.8-3.9c-10.7-1-13.9-1.2-26.1,0.5
				c-2.5,0.3-4.1,0.5-5.6,1c3.2,16-2.9,33.6-4.1,35.1c-3.4,4.4-7.3,7.3-11.4,7.5c-5.1,0.3-8.3-3.2-8.7-3.7h-0.2
				c-3.6-4.4-6.6-8.5-9.3-12c-2-2.9-4.2-5.8-6.1-8c-2.5,11.2-8.7,26.6-20.2,37.7c-6.4,7.6-21.9,19.3-35.1,18.7
				c-3.7-0.2-6.3-1.7-8.1-5.3c-1.5-3.2-1.7-7.8-0.3-11.2c0.2-0.3,1.2-3.4,2.2-8.3c-9,5.3-18.8,13.2-27.5,22.4
				c-7,7.5-25.8,41.4-27.3,69.4c18.5,2.5,28.3,8.6,33.3,18.8c3.4,7,3.9,14.6,1.9,23.6c-1.9,7.6-8.8,10.2-8.8,10.2s-0.2-3-1.7-4.6
				c-4.1-3.4-9.2-1.5-10.4-1c-1.9,0.8-4.2,2-8.7,2.2c-3.7,0.2-6.8-0.8-9-2c-2.2,2.4-5.6,5.3-10.2,6.3c-12.9,3.4-26.1,11.4-28,13.8
				c0,0-7.5,6.4-4.9,21.2c0,0,0.7,4.4-3.2,3.9C148.5,455,142.7,454.5,140.2,452.7L140.2,452.7z"/>
			<path fill="#13264B" d="M347.9,214.9c5.4,9.5,0,35.8-1.7,38.2c-6.4,9-12.6,2.9-12.6,2.9c-10.5-12.4-16.3-23.9-22.2-24.9
				c-1,8.8-6.3,29.2-20.4,42.4c-1.2,1.5-17,18.2-32.2,17.3c-0.8-0.2-2.5-0.9-3.4-2.7c-1.5-3.2-0.3-6.3,0-7.3
				c0.2-0.7,2.9-13.2,3.9-23.8c-60.2,30.9-67.5,109.8-67.5,109.8c11.5,1.2,29.5,4.8,35.5,17c3.1,6.4,3.4,14.4,1.5,19.9
				c-0.8,2.4-1.4,3.7-2.5,4.9c-0.3-3.6-5.8-5.8-11.2-4.8c-3.7,0.7-5.3,2.9-11.4,3.1c-5.9,0.2-10-3.6-10-3.6c-2.4,7.1-10,8-10,8
				c-21.7,5.6-29.7,15.1-29.7,15.1c-9.3,10.3-6.4,22.6-6.4,22.6s-9.2,2-13.2-9.7c0,0-4.1-11.9-2.2-24.6c1.7-13.1,8.8-23.2,17.1-31.7
				c8.5-8.8,22.6-16.3,22.6-16.3c-4.4-26.1-9-50.7-2.7-97.8c4.1-29.5,18.5-66.2,21.7-71.3c3.7-8-0.8-12-9.5-13.6
				c0,0-5.8-0.2-12.7,0.9c0,0-4.8,0-4.6-3.6c0,0,0.7-7.8,9.7-15.6c0,0,23.8-25.3,69.6-17.1l1.7,0.2c18-12.7,37-20.2,53.5-24.4
				c3.2-16.5,18.5-25.1,18.5-25.1c1.2-0.3-0.3,1.5,0.8,1c-9.2,7.8-19.5,24.1-7.5,54.8c0,0-0.2-3.6,0.8-7c0,0,4.4,26,27.5,23.4
				c0,0,16.6-0.2,22.2-20.9c0,0,2-10.4,9.7-14.8c1.4-1.4,2.2-1.7,4.8-3.7c2.5-2.7,2.9-4.8,2-10.7c-1-10.2-5.3-24.6-24.9-28.3
				c0.2-0.3,0.3-0.8,0.3-1.2c13.4,1.2,31.7,8.3,31.6,37.8l0.7,0.5c0,0,3.4-0.5,6.1,0.5c0,0,0.3-0.2,0.5-0.5
				c3.6-29.4-22.7-38-22.7-38c7.8,2.5,11.2,4.2,11.2,4.2s23.4,8.5,20.2,42.4c12.2,9.5,17.3,25.3,17.3,25.3s2.9,8.3,3.4,18.5
				c0,0,10.5,9,13.4,13.7c0,0,2.7,3.9,3.4,10.4c0,0,0.7,3.4-1.2,8.1c0,0-2.9,8.3-16.6,5.8c-7-0.7-12.2-2.4-12.2-2.4
				c-7.3-2.2-16.1-3.7-21.5-4.6c-11-1.7-21-1.4-27-0.7C359.1,213,349.9,214.4,347.9,214.9z"/>
			<path fill="#FFFFFF" d="M310.2,155c0,0-0.2-3.6,0.8-7c0,0,4.4,26,27.5,23.4c0,0,16.6-0.2,22.2-20.9c0,0,2-10.4,9.7-14.8
				c1.4-1.4,2.2-1.7,4.8-3.7c2.5-2.7,2.9-4.8,2-10.7c-1.2-12.1-7-30.4-38.4-29.2c0,0,45.5-9,45.3,37.5l0.7,0.5c0,0,3.4-0.5,6.1,0.5
				c0,0,0.3-0.2,0.5-0.5c3.6-29.4-22.7-38-22.7-38s1.5,0.3,3.7,1c-9.7-3.9-20-3.4-20-3.4c-10.5,0.2-18.8,1.9-25.3,4.4h0.3
				C327.5,94.2,291.4,106.8,310.2,155L310.2,155z"/>
			<path fill="#015E6A" d="M434.3,209c1.5,9.2-9.8,9.2-9.8,9.2c-13.7-1.2-15.1-2.5-25.6-8.3c0,0-37.2-22.6-80.4,0
				c0,0-0.7,0.8-1.5,2.2c12-20.2,37.3-19.9,37.3-19.9c-8.7-15.4-61.9,5.9-61.9,5.9c23.2-4.9,28.5-2.7,28.5-2.7h-0.2
				c-13.6,3.7-17.8,31.2-17.8,31.2c-4.4,22.9-5.6,28.7-12.9,39.5c-2.9,4.2-9.7,12.7-22.9,15.4h1h-1.2c-0.5,0-1-0.3-1-0.3
				s-2.9-1-1.4-6.4c0,0,5.9-16.5,5.4-34.5c-0.5-11.2-2.7-17.1-4.1-21.6c-0.3-0.8-0.7-1.7-1-2.9c0,0,3.7-8.8,8-11.9
				c0,0-27.5,10.9-48.5,37.5c0,0,8.7-29.4,58-48.9c0,0-54.5,2.9-91.5,83.3c0,0-21.4,44.5-7.3,93.7c0,0-2-19.7,8.7-30.6
				c0,0-9.7,24.6,2,45c0,0,4.1,11.2,16.1,11.4c0,0,12.4-1.2,13.2,5.8c-0.5-0.5-1.2-1-1.7-1.2c-0.9-0.5-1.7-1.2-5.3-1.2
				c-4.1,0-5.1,1.7-11,2.2c-3.6,0.3-11,1.4-15.8-9.2c0,0,2.7,11.7-9.2,14.8c0,0-15.6,5.4-22.6,9.5c0,0-13.6,7.1-14.8,22.9
				c0,0,0.3,2.2-1.5,2.2c0,0-1.5,0.2-2.5-3.4c0,0-11.2-30,16.3-53.5c3.4-3.1,7.3-5.4,11-7.6c11.7-4.7,16.5,4.8,16.5,4.8
				c-6.6-12.9-10-33.4-11.2-40.2c0-0.7,0-1.4-0.2-2c-5.4-50.4,8.3-99.6,13.9-113.9c3.1-8.1,6.6-15.6,10.5-22.6l-0.2,0.3
				c4.8-7.5,5.3-11.7,5.3-11.7c1.2-5.6-3.9-10-3.9-10c-4.9-5.4-18-3.6-18-3.6s-3.4,0.5-2.7-2.2v-0.2c1.7-2.5,4.8-5.1,8.1-7.3
				c30.4-17.8,28,7,28,7c11.9-14.6,26.8-20.5,26.8-20.5C188,194.9,185.6,256,185.6,256c22.9-101.5,101.5-121,112.9-117.3
				c0.5,0.7,2.7,3.2,3.9,4.4c-1.5-8.1-2-18.8,2.4-28.7c0,0,5.3-15.4,22.7-20.2c0,0-4.9,1.7-10.2,6.3c-2.4,2-4.9,4.8-7.1,8.3
				c-0.5,1-1.2,2-1.7,3.2c-0.8,1.5-1.5,3.4-2,5.4c-1,3.2-1.7,7-1.7,11c-0.2,7.3,1.4,16.1,5.4,26.5c0,0-0.2-3.6,0.8-7
				c0,0,4.4,26,27.5,23.4c0,0,16.6-0.2,22.2-20.9c0,0,2.2-11,9.7-14.8c1.4-1.4,2.2-1.7,4.8-3.7c2.2-2.2,2.4-4.1,2.4-4.1
				c0.5-2.9-0.3-6.6-0.3-6.6c-1.2-12.1-7-30.4-38.4-29.2c0,0,45.5-9,45.3,37.5l0.7,0.5c0,0,3.4-0.5,6.1,0.5c0,0,0.3-0.2,0.5-0.5
				c3.6-29.4-22.7-38-22.7-38s31.9,4.6,27.2,44.3c-3.9-2-11.7-2.7-19,0.3c-8.7,4.2-12.4,13.6-12.4,13.6c9.3-12.6,20.9-12.6,28-10.9
				c7.5,4.4,18.8,14.3,22.2,33.9c0,0,0.2,0.2,0.2,0.3c-2.2-5.8-9.7-21.6-26-27.8c0,0,12,8.1,18.3,25.5c0.8,2.4,3.2,8.5,0.7,9.2
				c-4.4,1.7-17.8,2.5-26.5,0c-2.5-0.9-3.7-1.4-4.9-2.2c-0.5-0.2-1.2-0.5-1.2-0.5c-2.7,1.9-5.1,1.4-5.1,1.4c2.5-0.7,3.4-2.9,3.4-2.9
				c-2.2-0.2-3.7-2.5-3.7-2.5c-3.2-3.9-5.9-4.9-5.9-4.9c-6.3-2.4-9.2,1.7-9.5,2.4c-0.8,2,0.2,5.4,6.8,10.5c-1.7-3.6-2.7-7.5,1.2-8.7
				c0.2,0,0.3-0.2,0.3-0.2c2.2-0.2,4.4,1.4,5.4,2.4c-0.5,0.2-1,0.7-1.2,1.4c-0.7,1.5,0.3,3.6,2.2,4.4c0.7,0.3,1.5,0.3,2.4,0.2
				c1,0,2.2-0.3,3.6-1c5.9,3.1,14.4,4.6,21.2,4.9c0,0,14.9,0.9,19.2-0.7c12.9,7.1,17.1,15.4,17.3,16.3c2,6.1-6.8,6.1-6.8,6.1
				c-12.4-0.3-17.1-4.8-25.6-8.7c-9.5-4.4-6.1-3.1-15.3-6.1c0,0-9.3-3.1-11.9,0.3l0.5-0.5c0,0,3.6-0.5,9.8,2.5
				c7,3.6,13.4,6.6,20.2,9.8c0,0,10,8.5,21,7.5l4.1,0.3L434.3,209L434.3,209z M314.1,131.7c0,0-4.1-0.3-5.8-3.7
				c0,0-0.2-19,17.8-28.3C326.2,99.7,310.2,109.3,314.1,131.7z M309.4,133.1c0,0,1.9,1.5,2.9,1.5c0,0,0.3,5.1,2.9,10.2
				C315.1,144.8,309,139.7,309.4,133.1z M340.4,153.1c-3.7,1.9-4.1,5.8-4.1,5.8c-0.5,3.6,0.8,6.3,1,6.6c0.5,0.2,1,0.3,1.7,0.3
				c2.7,0,4.9-2.9,5.1-6.4C344.2,156.3,342.5,154,340.4,153.1z"/>
			<path fill="#13264B" d="M336.3,158.9c0,0,0.3-3.9,4.1-5.8c-0.5-0.2-0.8-0.2-1.4-0.2c-2.7,0-5.1,2.9-5.1,6.4
				c0,2.7,1.5,5.3,3.4,6.1C337.2,165.2,335.8,162.5,336.3,158.9L336.3,158.9z"/>
			<path fill="#DE6226" d="M326.5,111.7c1.4,0.5,1.5,1.4,1.4,2.4l-1.5,17.1c-0.2,0.9-0.7,1.9-1.9,1.9H324c0,0-0.5,0.2-0.5,0.3v1.2
				c0,0,0.2,0.3,0.3,0.5c0.2,0.2,8,1,8,1s0.3-0.2,0.5-0.3l0.2-1.4l-0.3-0.3c-2-0.3-1.4-1.9-1.5-2.4l1-10.7l6.1,15.8l3.4,0.5
				l7.5-14.4l-1,10.9c-0.2,1.5-0.8,1.9-1.2,1.9h-0.5c0,0-0.5-0.2-0.7,0.5v0.7c0,0-0.2,0.7,0.3,0.8l10.4,1.2c0,0,0.3,0,0.5-0.3
				l0.2-1.2c0,0-0.3-0.5-0.5-0.5c0,0-1.5-0.2-1.7-2.4l1.4-17.1c0,0,0-1.7,2-1.9c0,0,0.5-0.2,0.7-0.5l0.2-1.4c0,0-0.2-0.5-0.5-0.5
				c-0.2,0-9-1-9-1l-7.8,13.4l-5.6-15.1l-9.5-1c0,0-0.5,0-0.5,0.5c0,0.3-0.2,1.2-0.2,1.2s0,0.5,0.2,0.5
				C325.8,111.5,326.5,111.7,326.5,111.7L326.5,111.7z M390.3,130.6c0.3-30.5-20.2-35.1-20.2-35.1c16.6,9,16.6,27.7,16,34.6
				C387.1,130,388.8,130,390.3,130.6L390.3,130.6z"/>
			<path fill="#FFFFFF" d="M376.7,178.6c0.3-0.3,0.8-1.9,0.7-3.2c-0.3-2-2.7-9-11.9-9.7c-9.3-0.9-11,5.6-11,5.6s2.9-4.9,9.5-2.4
				c0,0,2.7,1,5.9,4.9c0,0,1.5,2.4,3.7,2.5c0,0-0.8,2.2-3.4,2.9c0,0,2.4,0.5,5.1-1.4L376.7,178.6L376.7,178.6z M371.6,181.3
				c-0.8,0.2-1.7,0.2-2.4-0.2c-1.9-0.8-2.9-2.9-2.2-4.4c0.2-0.7,0.7-1.2,1.2-1.4c-1-1-3.2-2.5-5.4-2.4c0,0-1,3.9,0.5,6.1
				c0,0,2.5,4.4,8.7,3.1c0,0,1.7-0.3,3.6-1.7c-0.2-0.2-0.3-0.2-0.3-0.2C373.9,181,372.7,181.3,371.6,181.3L371.6,181.3z M419,210.3
				c0,0,13.6,4.9,15.3-3.6c3.2,13.9-16.5,6.3-16.5,6.3c-5.8-1.5-31.7-17.3-31.7-17.3c-5.4-3.2-8.5-3.4-8.5-3.4
				c-1-0.2-3.7-0.3-3.7-0.3c1.7-1,7-0.3,13.2,2.7C387.1,194.7,413.2,209.3,419,210.3L419,210.3z M406.8,214.6
				c-14.3-5.6-24.8-6.1-24.8-6.1c-42.6-3.9-69.2,13.2-69.2,13.2c1.2-6.1,5.6-11.9,5.6-11.9c44.5-24.3,82.3,1.2,82.3,1.2
				s7.5,3.9,8.7,4.2C409.3,215.2,407.8,214.9,406.8,214.6L406.8,214.6z M320.9,195.4c0,0-9.8,6.1-12.9,30.7
				c-1.4,12.7-4.1,28.2-17.1,42.8c-4.4,4.9-11.5,12.6-23.9,12.7c13.2-2.7,20-11.2,22.9-15.4c7.3-10.9,8.5-16.6,12.9-39.5
				C302.7,226.6,307,198.8,320.9,195.4L320.9,195.4z M260.8,249.3c0,0,2.2-11-1.7-20c0,0-54.6,23.1-59.9,86.7
				C199.2,316,206.5,279.6,260.8,249.3L260.8,249.3z M187.5,159.7c26.3-16,54.5-8.8,54.5-8.8s-3.1,1.5-5.6,3.2
				C236.4,154.1,213.8,147.4,187.5,159.7z M161.5,406.2c-13.6,2.4-19.4,16.8-19.2,24.8c0,0-7.5-33.6,22.7-47.9
				c0,0,13.1-5.8,14.3,8.3C179.5,393.4,182.4,402.3,161.5,406.2z M424.6,193.3c0,0,13.6,9.8,0.2,11
				C424.8,204.4,431.4,200,424.6,193.3z"/>
			<path fill="#015E6A" d="M344.3,220.2l-5.1,1.2c0,0,5.4,3.4,3.7,28.2C343,249.5,349.8,232.7,344.3,220.2z M200.4,372.9
				c0,0,22.9,0.7,24.1,15.6c0,0-2-6.1-11.2-6.6C213.3,381.9,199.2,380.5,200.4,372.9z"/>
		</g>
	</g>
	<g id="Layer_31">
	</g>
	<g id="Layer_33">
	</g>
	<g id="Layer_35">
	</g>
	<g id="Layer_37">
	</g>
	<g id="Layer_39">
	</g>
	<g id="Layer_41">
	</g>
	<g id="Layer_43">
	</g>
	<g id="Layer_46">
	</g>
	<g id="Layer_45">
	</g>
	<g id="Layer_49">
	</g>
	<g id="Layer_51_copy">
	</g>
	<g id="Layer_53">
	</g>
	<g id="Layer_55">
	</g>
	<g id="Layer_57">
	</g>
	<g id="Layer_59">
	</g>
	<g id="Layer_61">
	</g>
	<g id="Layer_63">
	</g>
</g>
</svg>
