<svg xmlns="http://www.w3.org/2000/svg" width="512" height="512" viewBox="0 0 512 512"><g><g><path fill="#fff" d="M396.3 273.2h78.3c-21.9 146.3-306.3 182-390.7 31.2-14.2-25.3-31.3-36.5-45.3-43 15.5-6.1 38.4-27.1 45.9-47.1 51.5-137 308.8-135 379.5-12.4h-93c-75.1-60-225.4-32.4-225.4 59.4 0 64.4 178.6 137.5 250.7 11.9zm61.8 11.7h-53c-72.1 125.7-273 59-273-23.5 0-101.8 167.3-131.8 242.4-71.8h64.7c-73.1-85.6-280.8-106-344.8 31.2-5.5 15.1-15.7 28.6-30.6 40.6 14 6.5 24 18.9 31.8 34.7 83.5 152.2 340.6 93.9 362.5-11.2z"/><path d="M405.1 284.9h53c-21.9 105.1-279 163.4-362.5 11.2-7.7-15.9-17.8-28.3-31.8-34.7 14.9-12 25.1-25.5 30.6-40.6 64.1-137.2 271.8-116.8 344.9-31.2h-64.7c-75.1-60-242.4-30-242.4 71.8-.1 82.5 200.8 149.2 272.9 23.5z"/><g fill="none" stroke="#03182F" stroke-width="11.34" stroke-linecap="square" stroke-linejoin="round"><path d="M464 202"/><path d="M464 202c-70.8-122.7-328.1-124.6-379.6 12.3-7.5 20-30.4 41-45.9 47.1 14 6.5 31.1 17.6 45.3 43 84.4 150.9 368.8 115.1 390.7-31.2h-78.3c-72.2 125.7-250.7 52.5-250.7-11.8 0-91.8 150.3-119.5 225.4-59.4h93.1z"/></g></g></g></svg>