<svg xmlns="http://www.w3.org/2000/svg" width="512" height="512" viewBox="0 0 512 512"><g><g><path fill="#fff" d="M409.8 211c-13.7-2.9-17.8-18.3-18-19v-.2c-4.2-15.4 9.3-26.8 10-27.3 2-1.7 2.7-4.6 1.5-7-1.2-2.4-3.7-3.7-6.5-3.2-17.3 3.6-27.7-9.5-29.4-11.9-8.8-18.7 1-29.7 1.4-30 2-2.2 2.2-5.4.3-7.8-1.9-2.2-5.3-2.7-7.6-1-15.1 9.8-28.3.2-28.8-.3h-.2c-14.9-10.7-11.5-25.6-11.4-26.1.7-3.1-.9-6.1-3.7-7-2.9-1-6.1.5-7.3 3.2-1.2 2.7-11.9 10.9-23.6 10.5-10.7-.2-19-7.5-24.6-21.4-1-2.2-3.4-3.7-5.9-3.6-2.5.3-4.6 2.2-5.1 4.6-2 9.7-10.4 18-20.2 20.5-9.8 2.5-19.9-1.5-28-11.2-1.7-2-4.6-2.5-7-1.5-2.4 1.2-3.7 3.7-3.2 6.3 1.9 10.9-2.4 21.6-10.9 27.5-8.7 5.9-19.5 5.9-30-.2-2.2-1.4-5.3-.9-7 1-1.9 2-2.2 4.9-.7 7.1 5.3 8 5.4 19.3.5 27.8-3.6 6.3-11.4 13.4-28.2 12.4-2.5-.2-4.8 1.2-5.8 3.6-.8 2.4-.2 4.9 1.7 6.6 10.2 8.5 13.9 18.3 10.7 28.5-3.4 10.7-13.7 18.7-19 19-2.7.3-4.9 2.4-5.3 5.1-.3 2.7 1.4 5.3 3.9 6.3 12.6 4.1 20.2 12 21.6 22.2 1.4 9.7-3.2 20.4-11.2 25.8-2.2 1.5-3.1 4.4-2 7 1 2.4 3.6 3.9 6.3 3.4 11.7-1.9 21.7 2.4 27.5 11.5 5.8 9.2 5.6 20.9-.2 29-1.7 2.5-1.2 5.8 1 7.8 2.2 1.9 5.4 1.9 7.6-.2 4.4-4.1 15.8-5.3 25.3-.5 7.3 3.6 15.6 11.2 14.4 28.2-.2 2.5 1.4 4.9 3.7 5.8 2.2 1 4.9.3 6.6-1.5 6.4-7.8 17.6-12.1 27.2-10.4 9.3 1.5 16.5 8.7 20.7 20.4 1 2.5 3.6 4.2 6.4 3.7 2.7-.5 4.8-2.9 4.8-5.6.2-5.1 7.1-15.1 18-18.8 7.6-2.7 19.2-3 30.5 10.7 1.7 2.2 4.8 2.7 7.1 1.5 2.5-1.4 3.7-4.1 2.9-6.8-1.9-6.8 2-19.2 10.5-26.1 8.3-6.6 18.8-7 30.4-.8 2.2 1.2 4.9.8 6.8-1 1.7-1.7 2.2-4.4 1-6.6-4.6-8.8-3.9-21 1.4-29.4 5.1-7.8 13.9-11.7 25.6-11.2 2.5.2 5.1-1.5 5.8-4.2.7-2.5-.3-5.3-2.7-6.6-5.9-3.2-11.7-14.6-10.4-25.5.8-7.5 5.1-17.3 20.9-21.9 2.5-.7 4.4-3.1 4.2-5.8.1-2.7-1.7-4.9-4.3-5.4z"/><path d="M408.6 216.6c-36.8 10.7-27 49.6-11.9 58-34.1-1.7-41.6 30.9-32.2 48.9-34.5-18.2-54 17-49.2 33.8-26-31.6-58.5-3.9-58.7 11.5-12-33.6-44.3-27.8-57.9-11.7 2.5-37.7-37-43.6-49.4-32.4 14.3-20.2-.8-54.8-32.9-49.6 17.6-12.2 22.9-46.7-11.9-58.4 14.4-1.2 42.3-32.1 11.5-57.7 36.7 2.4 44.5-31.6 32.8-49.2 28 16.3 54.1-6.6 49.6-33.3 22.7 27.2 53.6 9.8 58.2-11.9 17.7 42.8 55.5 19.5 59.1 10.9 0 0-4.9 19 13.6 32.4 0 0 16.6 12.7 35.5.3 0 0-13.2 13.9-2.2 37 0 0 12.7 19.3 35.6 14.6 0 0-17.1 13.9-11.9 33.4-.1.1 4.7 19.8 22.3 23.4z"/><path fill="#fff" d="M141.9 216.8c0-63.3 51.4-114.7 114.7-114.7 63.3 0 114.7 51.4 114.7 114.7 0 63.5-51.4 114.7-114.7 114.7-63.3 0-114.7-51.3-114.7-114.7zm-1.7 235.9s-4.4-2.7-7.6-6.8c-5.6-7.1-4.9-26.6-4.1-32.4 1.5-16.3 11.2-28 17.6-34.8 6.4-6.6 16-11.7 20.4-14.6-4.4-25.5-8.1-50.2-2-95.9 3.9-29.2 17.8-65.8 22.2-73 .7-1.5.9-2.7.5-3.2-.3-.8-2.4-2.2-6.3-2.9-1.2 0-6.1-.2-11.5.8h-.8c-1 0-4.9-.3-7.3-3.1-1.4-1.7-2-3.7-2-5.8v-.3c.2-1 1.2-10 11.4-18.8 2.4-2.5 27.2-26.5 73-18.5 15.3-10.4 32.2-18.2 50.9-23.2 4.4-15.1 16.5-23.2 18.5-24.4 23.9-16.7 57.5-11.2 69.9-3.8 10.9 6.4 24.1 17.5 21.6 44.3 11 9.8 15.8 23.9 16.6 26.3.5 1.5 3.4 8.8 3.2 17 4.6 4.4 13.2 11.7 15.4 16.3 3.1 5.9 3.9 12.4 3.1 17.5-1.2 6.4-6.3 11-12.2 12.9-6.6 1.9-24.1-2.4-26.8-3.4-4.8-1.5-14.8-3.6-17.8-3.9-10.7-1-13.9-1.2-26.1.5-2.5.3-4.1.5-5.6 1 3.2 16-2.9 33.6-4.1 35.1-3.4 4.4-7.3 7.3-11.4 7.5-5.1.3-8.3-3.2-8.7-3.7h-.2c-3.6-4.4-6.6-8.5-9.3-12-2-2.9-4.2-5.8-6.1-8-2.5 11.2-8.7 26.6-20.2 37.7-6.4 7.6-21.9 19.3-35.1 18.7-3.7-.2-6.3-1.7-8.1-5.3-1.5-3.2-1.7-7.8-.3-11.2.2-.3 1.2-3.4 2.2-8.3-9 5.3-18.8 13.2-27.5 22.4-7 7.5-25.8 41.4-27.3 69.4 18.5 2.5 28.3 8.6 33.3 18.8 3.4 7 3.9 14.6 1.9 23.6-1.9 7.6-8.8 10.2-8.8 10.2s-.2-3-1.7-4.6c-4.1-3.4-9.2-1.5-10.4-1-1.9.8-4.2 2-8.7 2.2-3.7.2-6.8-.8-9-2-2.2 2.4-5.6 5.3-10.2 6.3-12.9 3.4-26.1 11.4-28 13.8 0 0-7.5 6.4-4.9 21.2 0 0 .7 4.4-3.2 3.9-.1-.2-5.9-.7-8.4-2.5z"/><path d="M347.9 214.9c5.4 9.5 0 35.8-1.7 38.2-6.4 9-12.6 2.9-12.6 2.9-10.5-12.4-16.3-23.9-22.2-24.9-1 8.8-6.3 29.2-20.4 42.4-1.2 1.5-17 18.2-32.2 17.3-.8-.2-2.5-.9-3.4-2.7-1.5-3.2-.3-6.3 0-7.3.2-.7 2.9-13.2 3.9-23.8-60.2 30.9-67.5 109.8-67.5 109.8 11.5 1.2 29.5 4.8 35.5 17 3.1 6.4 3.4 14.4 1.5 19.9-.8 2.4-1.4 3.7-2.5 4.9-.3-3.6-5.8-5.8-11.2-4.8-3.7.7-5.3 2.9-11.4 3.1-5.9.2-10-3.6-10-3.6-2.4 7.1-10 8-10 8-21.7 5.6-29.7 15.1-29.7 15.1-9.3 10.3-6.4 22.6-6.4 22.6s-9.2 2-13.2-9.7c0 0-4.1-11.9-2.2-24.6 1.7-13.1 8.8-23.2 17.1-31.7 8.5-8.8 22.6-16.3 22.6-16.3-4.4-26.1-9-50.7-2.7-97.8 4.1-29.5 18.5-66.2 21.7-71.3 3.7-8-.8-12-9.5-13.6 0 0-5.8-.2-12.7.9 0 0-4.8 0-4.6-3.6 0 0 .7-7.8 9.7-15.6 0 0 23.8-25.3 69.6-17.1l1.7.2c18-12.7 37-20.2 53.5-24.4 3.2-16.5 18.5-25.1 18.5-25.1 1.2-.3-.3 1.5.8 1-9.2 7.8-19.5 24.1-7.5 54.8 0 0-.2-3.6.8-7 0 0 4.4 26 27.5 23.4 0 0 16.6-.2 22.2-20.9 0 0 2-10.4 9.7-14.8 1.4-1.4 2.2-1.7 4.8-3.7 2.5-2.7 2.9-4.8 2-10.7-1-10.2-5.3-24.6-24.9-28.3.2-.3.3-.8.3-1.2 13.4 1.2 31.7 8.3 31.6 37.8l.7.5s3.4-.5 6.1.5c0 0 .3-.2.5-.5 3.6-29.4-22.7-38-22.7-38 7.8 2.5 11.2 4.2 11.2 4.2s23.4 8.5 20.2 42.4c12.2 9.5 17.3 25.3 17.3 25.3s2.9 8.3 3.4 18.5c0 0 10.5 9 13.4 13.7 0 0 2.7 3.9 3.4 10.4 0 0 .7 3.4-1.2 8.1 0 0-2.9 8.3-16.6 5.8-7-.7-12.2-2.4-12.2-2.4-7.3-2.2-16.1-3.7-21.5-4.6-11-1.7-21-1.4-27-.7-.3.1-9.5 1.5-11.5 2z"/><path fill="#fff" d="M310.2 155s-.2-3.6.8-7c0 0 4.4 26 27.5 23.4 0 0 16.6-.2 22.2-20.9 0 0 2-10.4 9.7-14.8 1.4-1.4 2.2-1.7 4.8-3.7 2.5-2.7 2.9-4.8 2-10.7-1.2-12.1-7-30.4-38.4-29.2 0 0 45.5-9 45.3 37.5l.7.5s3.4-.5 6.1.5c0 0 .3-.2.5-.5 3.6-29.4-22.7-38-22.7-38s1.5.3 3.7 1c-9.7-3.9-20-3.4-20-3.4-10.5.2-18.8 1.9-25.3 4.4h.3c.1.1-36 12.7-17.2 60.9z"/><path d="M434.3 209c1.5 9.2-9.8 9.2-9.8 9.2-13.7-1.2-15.1-2.5-25.6-8.3 0 0-37.2-22.6-80.4 0 0 0-.7.8-1.5 2.2 12-20.2 37.3-19.9 37.3-19.9-8.7-15.4-61.9 5.9-61.9 5.9 23.2-4.9 28.5-2.7 28.5-2.7h-.2c-13.6 3.7-17.8 31.2-17.8 31.2-4.4 22.9-5.6 28.7-12.9 39.5-2.9 4.2-9.7 12.7-22.9 15.4h1-1.2c-.5 0-1-.3-1-.3s-2.9-1-1.4-6.4c0 0 5.9-16.5 5.4-34.5-.5-11.2-2.7-17.1-4.1-21.6-.3-.8-.7-1.7-1-2.9 0 0 3.7-8.8 8-11.9 0 0-27.5 10.9-48.5 37.5 0 0 8.7-29.4 58-48.9 0 0-54.5 2.9-91.5 83.3 0 0-21.4 44.5-7.3 93.7 0 0-2-19.7 8.7-30.6 0 0-9.7 24.6 2 45 0 0 4.1 11.2 16.1 11.4 0 0 12.4-1.2 13.2 5.8-.5-.5-1.2-1-1.7-1.2-.9-.5-1.7-1.2-5.3-1.2-4.1 0-5.1 1.7-11 2.2-3.6.3-11 1.4-15.8-9.2 0 0 2.7 11.7-9.2 14.8 0 0-15.6 5.4-22.6 9.5 0 0-13.6 7.1-14.8 22.9 0 0 .3 2.2-1.5 2.2 0 0-1.5.2-2.5-3.4 0 0-11.2-30 16.3-53.5 3.4-3.1 7.3-5.4 11-7.6 11.7-4.7 16.5 4.8 16.5 4.8-6.6-12.9-10-33.4-11.2-40.2 0-.7 0-1.4-.2-2-5.4-50.4 8.3-99.6 13.9-113.9 3.1-8.1 6.6-15.6 10.5-22.6l-.2.3c4.8-7.5 5.3-11.7 5.3-11.7 1.2-5.6-3.9-10-3.9-10-4.9-5.4-18-3.6-18-3.6s-3.4.5-2.7-2.2v-.2c1.7-2.5 4.8-5.1 8.1-7.3 30.4-17.8 28 7 28 7 11.9-14.6 26.8-20.5 26.8-20.5-51.3 40.4-53.7 101.5-53.7 101.5 22.9-101.5 101.5-121 112.9-117.3.5.7 2.7 3.2 3.9 4.4-1.5-8.1-2-18.8 2.4-28.7 0 0 5.3-15.4 22.7-20.2 0 0-4.9 1.7-10.2 6.3-2.4 2-4.9 4.8-7.1 8.3-.5 1-1.2 2-1.7 3.2-.8 1.5-1.5 3.4-2 5.4-1 3.2-1.7 7-1.7 11-.2 7.3 1.4 16.1 5.4 26.5 0 0-.2-3.6.8-7 0 0 4.4 26 27.5 23.4 0 0 16.6-.2 22.2-20.9 0 0 2.2-11 9.7-14.8 1.4-1.4 2.2-1.7 4.8-3.7 2.2-2.2 2.4-4.1 2.4-4.1.5-2.9-.3-6.6-.3-6.6-1.2-12.1-7-30.4-38.4-29.2 0 0 45.5-9 45.3 37.5l.7.5s3.4-.5 6.1.5c0 0 .3-.2.5-.5 3.6-29.4-22.7-38-22.7-38s31.9 4.6 27.2 44.3c-3.9-2-11.7-2.7-19 .3-8.7 4.2-12.4 13.6-12.4 13.6 9.3-12.6 20.9-12.6 28-10.9 7.5 4.4 18.8 14.3 22.2 33.9 0 0 .2.2.2.3-2.2-5.8-9.7-21.6-26-27.8 0 0 12 8.1 18.3 25.5.8 2.4 3.2 8.5.7 9.2-4.4 1.7-17.8 2.5-26.5 0-2.5-.9-3.7-1.4-4.9-2.2-.5-.2-1.2-.5-1.2-.5-2.7 1.9-5.1 1.4-5.1 1.4 2.5-.7 3.4-2.9 3.4-2.9-2.2-.2-3.7-2.5-3.7-2.5-3.2-3.9-5.9-4.9-5.9-4.9-6.3-2.4-9.2 1.7-9.5 2.4-.8 2 .2 5.4 6.8 10.5-1.7-3.6-2.7-7.5 1.2-8.7.2 0 .3-.2.3-.2 2.2-.2 4.4 1.4 5.4 2.4-.5.2-1 .7-1.2 1.4-.7 1.5.3 3.6 2.2 4.4.7.3 1.5.3 2.4.2 1 0 2.2-.3 3.6-1 5.9 3.1 14.4 4.6 21.2 4.9 0 0 14.9.9 19.2-.7 12.9 7.1 17.1 15.4 17.3 16.3 2 6.1-6.8 6.1-6.8 6.1-12.4-.3-17.1-4.8-25.6-8.7-9.5-4.4-6.1-3.1-15.3-6.1 0 0-9.3-3.1-11.9.3l.5-.5s3.6-.5 9.8 2.5c7 3.6 13.4 6.6 20.2 9.8 0 0 10 8.5 21 7.5l4.1.3 5.3-2.9zm-120.2-77.3s-4.1-.3-5.8-3.7c0 0-.2-19 17.8-28.3.1 0-15.9 9.6-12 32zm-4.7 1.4s1.9 1.5 2.9 1.5c0 0 .3 5.1 2.9 10.2-.1 0-6.2-5.1-5.8-11.7zm31 20c-3.7 1.9-4.1 5.8-4.1 5.8-.5 3.6.8 6.3 1 6.6.5.2 1 .3 1.7.3 2.7 0 4.9-2.9 5.1-6.4.1-3.1-1.6-5.4-3.7-6.3z"/><path fill="#13264B" d="M336.3 158.9s.3-3.9 4.1-5.8c-.5-.2-.8-.2-1.4-.2-2.7 0-5.1 2.9-5.1 6.4 0 2.7 1.5 5.3 3.4 6.1-.1-.2-1.5-2.9-1-6.5z"/><path d="M326.5 111.7c1.4.5 1.5 1.4 1.4 2.4l-1.5 17.1c-.2.9-.7 1.9-1.9 1.9h-.5s-.5.2-.5.3v1.2s.2.3.3.5c.2.2 8 1 8 1s.3-.2.5-.3l.2-1.4-.3-.3c-2-.3-1.4-1.9-1.5-2.4l1-10.7 6.1 15.8 3.4.5 7.5-14.4-1 10.9c-.2 1.5-.8 1.9-1.2 1.9h-.5s-.5-.2-.7.5v.7s-.2.7.3.8l10.4 1.2s.3 0 .5-.3l.2-1.2s-.3-.5-.5-.5c0 0-1.5-.2-1.7-2.4l1.4-17.1s0-1.7 2-1.9c0 0 .5-.2.7-.5l.2-1.4s-.2-.5-.5-.5c-.2 0-9-1-9-1l-7.8 13.4-5.6-15.1-9.5-1s-.5 0-.5.5c0 .3-.2 1.2-.2 1.2s0 .5.2.5c-.1-.1.6.1.6.1zm63.8 18.9c.3-30.5-20.2-35.1-20.2-35.1 16.6 9 16.6 27.7 16 34.6 1-.1 2.7-.1 4.2.5z"/><path fill="#fff" d="M376.7 178.6c.3-.3.8-1.9.7-3.2-.3-2-2.7-9-11.9-9.7-9.3-.9-11 5.6-11 5.6s2.9-4.9 9.5-2.4c0 0 2.7 1 5.9 4.9 0 0 1.5 2.4 3.7 2.5 0 0-.8 2.2-3.4 2.9 0 0 2.4.5 5.1-1.4l1.4.8zm-5.1 2.7c-.8.2-1.7.2-2.4-.2-1.9-.8-2.9-2.9-2.2-4.4.2-.7.7-1.2 1.2-1.4-1-1-3.2-2.5-5.4-2.4 0 0-1 3.9.5 6.1 0 0 2.5 4.4 8.7 3.1 0 0 1.7-.3 3.6-1.7-.2-.2-.3-.2-.3-.2-1.4.8-2.6 1.1-3.7 1.1zm47.4 29s13.6 4.9 15.3-3.6c3.2 13.9-16.5 6.3-16.5 6.3-5.8-1.5-31.7-17.3-31.7-17.3-5.4-3.2-8.5-3.4-8.5-3.4-1-.2-3.7-.3-3.7-.3 1.7-1 7-.3 13.2 2.7 0 0 26.1 14.6 31.9 15.6zm-12.2 4.3c-14.3-5.6-24.8-6.1-24.8-6.1-42.6-3.9-69.2 13.2-69.2 13.2 1.2-6.1 5.6-11.9 5.6-11.9 44.5-24.3 82.3 1.2 82.3 1.2s7.5 3.9 8.7 4.2c-.1 0-1.6-.3-2.6-.6zm-85.9-19.2s-9.8 6.1-12.9 30.7c-1.4 12.7-4.1 28.2-17.1 42.8-4.4 4.9-11.5 12.6-23.9 12.7 13.2-2.7 20-11.2 22.9-15.4 7.3-10.9 8.5-16.6 12.9-39.5-.1-.1 4.2-27.9 18.1-31.3zm-60.1 53.9s2.2-11-1.7-20c0 0-54.6 23.1-59.9 86.7 0 0 7.3-36.4 61.6-66.7zm-73.3-89.6c26.3-16 54.5-8.8 54.5-8.8s-3.1 1.5-5.6 3.2c0 0-22.6-6.7-48.9 5.6zm-26 246.5c-13.6 2.4-19.4 16.8-19.2 24.8 0 0-7.5-33.6 22.7-47.9 0 0 13.1-5.8 14.3 8.3.2 2 3.1 10.9-17.8 14.8zm263.1-212.9s13.6 9.8.2 11c0 .1 6.6-4.3-.2-11zM344.3 220.2l-5.1 1.2s5.4 3.4 3.7 28.2c.1-.1 6.9-16.9 1.4-29.4zm-143.9 152.7s22.9.7 24.1 15.6c0 0-2-6.1-11.2-6.6 0 0-14.1-1.4-12.9-9z"/></g></g></svg>