<svg xmlns="http://www.w3.org/2000/svg" width="512" height="512" viewBox="0 0 512 512"><g><g><path fill="#1A191A" d="M40.2 131.1s6.7 23 32.3 41l-14.9-1.6s15.7 22.2 44.2 36.1l-15.5-1.4s20.8 33.1 63 49.4c0 0 4.2 27 40.8 51.5 0 0 34.7 20 38.7 38.3 0 0 66.8-4.4 140 44.6 0 0 17.3-70.6 106.8-79.2 0 0 .1-38.4-50.7-63.8 0 0-20.8-79.6-146.7-88.2l-106.1.3c-.2 0-81.2-5.3-131.9-27z"/><path fill="#fff" d="M70.7 151.8s21.7 28.4 83.1 42.7l-55.4-5s20.7 19.9 82.1 34.9l-55.6-4.8s31.2 29.7 79.6 37.7l-29.7 4.7s2.7 15 53.7 48.1c0 0 16.9 14.2 13.4 17.7 0 0 27.7.3 76.1 23 0 0 46.4-23.7-18.4-92.8 0 0-29.7-32.7-63.1-54.1 0 0 50.4-12 113.2 24 0 0 32 24 61.4 12 0 0-12-60.7-125.2-70.4h-122.7s-52.1-4-92.5-17.7z"/><path fill="none" stroke="#000" d="M70.7 151.8s21.7 28.4 83.1 42.7l-55.4-5s20.7 19.9 82.1 34.9l-55.6-4.8s31.2 29.7 79.6 37.7l-29.7 4.7s2.7 15 53.7 48.1c0 0 16.9 14.2 13.4 17.7 0 0 27.7.3 76.1 23 0 0 46.4-23.7-18.4-92.8 0 0-29.7-32.7-63.1-54.1 0 0 50.4-12 113.2 24 0 0 32 24 61.4 12 0 0-12-60.7-125.2-70.4h-122.7s-52.1-4-92.5-17.7z"/><path fill="#fff" d="M309.7 224.5s6.7 52.4 58.1 49.7c0 0 18-4.3 21.7-23h-7s-6 19-24 15.4c0 0-10.8-.2-21.4-16l17-2.3c0-.1-30-9.4-44.4-23.8z"/><path fill="none" stroke="#000" d="M309.7 224.5s6.7 52.4 58.1 49.7c0 0 18-4.3 21.7-23h-7s-6 19-24 15.4c0 0-10.8-.2-21.4-16l17-2.3c0-.1-30-9.4-44.4-23.8z"/><path fill="#fff" d="M378.6 297.9s52.2-9.6 87.4 7.7c0 0-44.6 1.8-74.5 27.1 0-.1 2.7-19.2-12.9-34.8z"/><path fill="none" stroke="#000" d="M378.6 297.9s52.2-9.6 87.4 7.7c0 0-44.6 1.8-74.5 27.1 0-.1 2.7-19.2-12.9-34.8z"/><path fill="#fff" d="M379.3 285.2s57.2-2.5 87 16.3c-7-27.8-55-49.5-51.1-47.6-.1.1-9.7 22.4-35.9 31.3z"/><path fill="none" stroke="#000" d="M379.3 285.2s57.2-2.5 87 16.3c-7-27.8-55-49.5-51.1-47.6-.1.1-9.7 22.4-35.9 31.3z"/></g></g></svg>