<svg xmlns="http://www.w3.org/2000/svg" version="1" width="219.69" height="207.48"><g fill-rule="evenodd"><path d="M203.936 83.071s12.994-1.969 15.356-14.174c2.361-12.204-5.946-21.958-20.867-28.74-21.654-9.843-47.638-19.291-102.362-31.495-29.551-6.592-37.795-8.662-37.795-8.662l-58.268 62.205 50-1.575s-16.536 25.197-13.779 66.535c2.755 41.339 20.35 61.991 34.252 71.26 9.45 6.299 22.442 9.055 22.442 9.055s-6.693-9.449-4.725-21.26c1.969-11.811 6.693-18.11 10.237-24.41 3.544-6.299 26.379-51.18 26.379-51.18s8.267 0 11.81.393c3.544.395 5.906 1.969 5.906 3.939 0 1.967-2.363 4.724-2.363 4.724s11.811.788 27.165-5.119c15.355-5.904 20.472-15.748 20.472-15.748s-6.692-8.267-14.566-14.567c-7.875-6.299-14.174-10.236-14.174-10.236h34.646s6.692 0 9.055 1.968c2.362 1.969 1.18 7.087 1.18 7.087z" fill="#dce0e5"/><path d="M207.677 78.149s7.481-2.362 8.466-10.039c.984-7.677-3.347-13.188-5.709-15.552-2.362-2.362-12.796-9.843-31.104-16.338-15.078-5.35-37.992-11.417-79.134-20.669-26.705-6.006-37.992-6.89-37.992-6.89l-42.914 46.26 44.292-.198s-18.312 22.462-19.882 66.928c-2.362 66.93 42.914 81.102 42.914 81.102s-4.331-7.874-3.151-16.929c1.182-9.055 5.118-16.141 9.449-24.016 4.331-7.874 27.952-54.722 27.952-54.722h16.535c2.952 0 7.088 1.575 8.661 3.739 1.576 2.165.787 3.936.787 3.936s11.426.806 19.095-2.557c11.22-4.921 17.128-12.402 17.128-12.402s-7.875-9.448-19.489-16.732c-11.614-7.284-21.457-12.205-21.457-12.205h54.922s6.691 0 8.661 1.771c1.968 1.771 1.968 5.511 1.968 5.511z" fill="#fff"/><path d="M210.039 73.229s3.544-1.965 3.544-7.875c0-4.528-4.331-9.843-7.874-12.401-3.544-2.559-11.22-7.284-23.819-11.417-12.598-4.135-39.174-10.63-62.009-15.354-22.834-4.725-60.039-10.828-60.039-10.828l3.347 4.922-24.607 26.378 87.401 6.89-.788.984h-58.464l4.331 4.331-9.45 16.732 49.213-10.237-1.377 1.378-57.48 19.489 4.921 3.149s-1.771 3.346-2.953 10.433c-1.18 7.086-1.968 13.779-1.968 13.779l49.213-30.118-.198 1.182-54.33 43.307 5.117 1.377s.198 9.253 1.182 14.764c.984 5.511 2.559 11.811 2.559 11.811l44.489-52.362v1.771l-43.898 64.567h4.331s2.362 6.89 7.873 13.976c5.513 7.088 13.583 12.795 13.583 12.795s-2.989-6.182-1.771-16.534c.787-6.694 7.481-17.718 10.63-24.016 3.15-6.3 43.307-85.63 43.307-85.63l-7.677-4.135h74.608s4.528.591 6.693 2.363c2.165 1.771 2.361 4.528 2.361 4.528z" fill="#161413"/><path d="M210.631 68.307s.985-3.74-.788-6.89c-1.771-3.149-5.709-5.315-5.709-5.315l.788 3.937-20.473 2.56-.786 1.18h19.881s2.066.099 4.331 1.477c1.916 1.167 2.755 3.051 2.755 3.051zM200.985 57.875s-2.165-2.953-5.709-5.118c-3.544-2.166-9.842-5.119-9.842-5.119s4.33 3.641 6.495 6.201c2.165 2.558 2.756 3.838 2.756 3.838l6.3.198z" fill="#fff"/><path d="M177.56 51.378s-26.253-7.101-56.694-12.992c-30.512-5.906-52.953-9.45-52.953-9.45l-6.89 8.071 116.339 15.748.198-1.378zM106.89 60.236l-31.495.591-4.036 7.087 35.138-6.693.393-.985zM96.162 78.641l-34.154 12.303-2.264 9.055 35.828-19.98.591-1.378zM91.339 101.674l-33.17 28.05s.099 3.641.394 5.414c.295 1.771.787 3.937.787 3.937l32.086-35.827-.098-1.575zM97.343 124.211s-9.547 14.076-16.043 24.017c-6.497 9.94-12.894 19.488-12.894 19.488s1.476 2.952 2.461 4.527c.984 1.575 2.559 3.544 2.559 3.544l24.607-50.69-.69-.886z" fill="#b01742"/><path d="M136.811 72.047s17.421 8.563 26.771 14.863c9.351 6.299 15.749 13.09 15.749 13.09s-1.969 2.953-6.694 6.003c-4.724 3.052-9.646 3.839-9.646 3.839s3.741-3.346 4.036-5.02c.295-1.674-.393-2.067-1.379-2.067h-10.826s-1.771 1.279-1.674 3.937c.1 2.657 1.379 4.329 1.379 4.329s-3.445-.491-5.906-3.346c-2.46-2.854-2.46-4.921-2.46-4.921h-22.441l14.075-27.657-.984-3.052z" fill="#161413"/><path d="M134.449 93.996l25.099 3.838-.591 1.182h-27.264l2.756-5.02z" fill="#b01742"/></g></svg>