<svg xmlns="http://www.w3.org/2000/svg" width="279.007" height="200" viewBox="0 0 279.007 200" overflow="visible"><path fill="#fff" d="M276.509 33.534c-4.065-7.479-19.201-10.212-30.034-9.43-7.021-9.707-16.25-18.339-28.219-23.614-.27.675-.691 1.725-.913 2.535-3.456-1.016-11.326-2.938-17.819-3.025l-.043 2.242c-7.021.906-16.904 2.182-20.208 2.853.494 1.682.643 2.469 1.055 3.558-23.905 6.584-45.703 19.199-65.295 36.114.855.261 1.448.639 1.75.673-21.356 8.06-36.979 20.576-50.589 33.326-16.092 2.491-44.978 6.239-44.978 6.239l-21.216 42.029 56.114-11.836c-4.681 13.26-17.479 25.097-29.265 33.072-1.561 8.144-5.807 15.856-13.26 20.795 3.484 3.903-.805 8.831-1.414 12.99 4.768 6.154 14.5 17.945 14.5 17.945l5.98-24.955 12.038-12.267c-.769 2.063-.485 4.406-.25 5.308-1.077 2.233-4.072 4.982-4.298 8.851 4.557 5.918 13.308 16.655 13.308 16.655s6.326-16.817 9.186-25.392l48.61-44.909c3.679-.54 12.661-.43 19.163-.247l2.772-2.686 13.69-1.039c1.13 1.839 1.771 3.001 2.517 4.42-2.48 1.423-4.63 2.539-6.996 3.71l-6.181 22.082s11.846-6.392 17.94-9.586c2.21.348 7.357.21 10.021-.366-1.304 6.241-3.569 19.196-3.569 19.196s10.524-5.648 15.463-8.252c13.463.06 27.004-5.337 30.704-7.206 10.325-4.109 7.28-29.709 7.28-29.709 2.077-.266 4.665-.888 6.662-.27 5.84 1.492 2.004 23.472 2.004 23.472l13.516-12.88 1.459 1.896s8.149-10.155 11.784-15.536c9.94.094 12.269-6.202 13.507-10.473 4.976-17.135 10.752-15.941 12.919-25.3 1.312-3.803 5.913-31.955.605-40.983zm-269.593 88.129l16.447-33.177 222.265-32.514c-6.891 3.596-7.495 11.393-4.203 15.511-58.455 12.784-234.509 50.18-234.509 50.18zm54.075 43.417c-3.118 7.106-8.43 22.004-8.43 22.004s-6.129-7.099-8.641-10.565c-.045-2.608 2.773-5.285 4.159-7.888-.258-.778-.345-1.821-.171-2.512 4.939-3.64 8.06-8.84 9.098-14.559 16.806-26.396 48.491-27.65 48.491-27.65l-44.506 41.17zm143.639-24.726c-13.653 6.776-29.754 6.877-29.754 6.877l-9.559 5.061s1.862-8.895 2.643-13.054c10.549-1.766 25.364-4.548 30.953-12.939 1.826-2.741 3.065-7.349 4.29-10.883 2.425-.346 4.507-.707 7.021-1.053 0-.001 2.807 21.79-5.594 25.991zm70.413-84.649c-.604 8.689-1.814 19.379-6.347 24.545-4.395 5.015-7.75 12.322-10.265 19.921-1.324 4.502-3.063 6.566-11.191 6.928-3.034 4.422-5.969 9.11-9.62 13.088l-1.039-1.476c-3.555 3.37-5.39 5.326-9.201 8.771.407-4.425.618-10.469-.837-13.64-2.169-3.555-5.82-4.404-9.462-3.88l-16.982 2.594c-1.075 3.553-2.18 8.574-4.784 12.212-3.887 9.105-35.643 12.308-41.324 11.453-3.987 1.99-7.886 4.507-12.045 6.413 1.142-4.258 3.761-13.244 3.761-13.244s5.568-2.832 8.236-4.319c-.403-.885-.581-1.263-1.165-2.631 4.939-1.212 10.517-3.619 14.42-7.348 0 0-24.559 1.629-36.085 2.411-.702.879-1.389 1.734-2.253 2.251-26.259-1.125-51.131 2.425-69.504 20.974-5.893 5.893-12.306 12.26-16.119 19.02-4.695 4.875-8.714 9.009-13.605 13.91l-5.2 18.847-8.156-10.698c-1.098-1.514 3.839-8.245 1.309-11.704 5.893-4.244 10.661-12.525 12.052-19.432 11.906-8.025 26.652-22.168 31.027-36.425 0 0 182.247-39.564 184.846-40.077-1.212 3.468-.521 8.233 3.379 10.052 1.906.435 3.988-.174 5.633-1.297-.854-.798-2.515-1.906-2.944-3.553-.783-2.082.345-3.9 1.647-5.376-2.343-5.2-.435-11.178 2.686-15.424 2.164-2.86 5.623-6.136 8.05-8.735l-191.732 27.888s25.094-23.454 52.925-31.825c-.837-.355-2.896-1.215-4.402-1.759 19.814-16.19 42.049-28.121 63.899-33.319-.323-1.094-.634-1.922-1.014-3.162.664-.082 18.623-2.733 18.623-2.733l-.107-1.455c4.354-.021 13.537 2.372 17.009 3.534l.668-1.533c13.429 5.985 24.396 22.049 24.396 22.049 8.838-.965 18.096.11 25.2 3.839 6.598 3.444 6.214 15.782 5.617 24.345z"/><path fill="#BF2026" d="M245.627 55.972l-222.265 32.514-16.446 33.177s176.054-37.396 234.509-50.179c-3.293-4.119-2.689-11.916 4.202-15.512z"/><path d="M269.426 31.36c-7.104-3.729-16.362-4.804-25.2-3.839 0 0-10.967-16.064-24.396-22.049l-.668 1.533c-3.473-1.162-12.656-3.555-17.009-3.534l.107 1.455s-17.959 2.651-18.623 2.733c.38 1.24.691 2.068 1.014 3.162-21.851 5.198-44.085 17.128-63.899 33.319 1.505.544 3.564 1.404 4.402 1.759-27.831 8.371-52.925 31.825-52.925 31.825l191.729-27.888c-2.427 2.599-5.886 5.875-8.05 8.735-3.121 4.246-5.029 10.224-2.686 15.424-1.302 1.476-2.43 3.294-1.647 5.376.43 1.647 2.091 2.755 2.944 3.553-1.645 1.123-3.727 1.732-5.633 1.297-3.9-1.819-4.591-6.584-3.379-10.052-2.599.513-184.846 40.077-184.846 40.077-4.375 14.257-19.121 28.4-31.027 36.425-1.391 6.907-6.159 15.188-12.052 19.432 2.53 3.459-2.407 10.19-1.309 11.704l8.156 10.698 5.2-18.847c4.891-4.9 8.911-9.034 13.605-13.91 3.813-6.76 10.226-13.127 16.119-19.02 18.373-18.549 43.246-22.1 69.504-20.974.865-.517 1.551-1.373 2.253-2.251 11.526-.782 36.085-2.411 36.085-2.411-3.903 3.729-9.48 6.136-14.42 7.348.583 1.368.762 1.746 1.165 2.631-2.667 1.487-8.236 4.319-8.236 4.319s-2.62 8.986-3.761 13.244c4.159-1.906 8.058-4.422 12.045-6.413 5.681.855 37.437-2.347 41.324-11.453 2.604-3.638 3.708-8.659 4.784-12.212l16.982-2.594c3.642-.524 7.293.325 9.462 3.88 1.455 3.171 1.245 9.215.837 13.64 3.811-3.445 5.646-5.401 9.201-8.771l1.039 1.476c3.651-3.978 6.586-8.666 9.62-13.088 8.128-.362 9.867-2.425 11.191-6.928 2.515-7.6 5.871-14.907 10.265-19.921 4.532-5.166 5.743-15.856 6.347-24.545.6-8.563.984-20.901-5.614-24.345zm-66.223 84.055c-1.224 3.534-2.464 8.142-4.29 10.883-5.589 8.392-20.404 11.173-30.953 12.939-.78 4.159-2.643 13.054-2.643 13.054l9.559-5.061s16.101-.101 29.754-6.877c8.4-4.2 5.593-25.991 5.593-25.991-2.514.346-4.595.707-7.02 1.053zm-146.197 36.144c-1.039 5.719-4.159 10.919-9.098 14.559-.174.691-.087 1.734.171 2.512-1.386 2.604-4.205 5.28-4.159 7.888 2.512 3.466 8.641 10.565 8.641 10.565s5.312-14.898 8.43-22.004l44.506-41.17s-31.685 1.254-48.491 27.65z" fill="#194787"/></svg>