<svg xmlns="http://www.w3.org/2000/svg" version="1" width="800" height="600"><g fill-rule="evenodd"><path d="M692.961 191.183c-118.591-138.907-455.484-171.971-559.398 50.594-8.913 24.5-25.453 46.459-49.639 65.868 22.709 10.485 39.006 30.587 51.549 56.322 135.338 246.916 552.555 152.32 588.036-18.137h-85.914c-117.052 203.861-442.937 95.648-442.937-38.184 0-165.135 271.446-213.848 393.297-116.462h105.007z" fill="#df6108"/><path d="M733.054 211.23c-114.772-199.047-532.234-202.172-615.72 20.047-12.201 32.476-49.318 66.505-74.459 76.368 22.709 10.485 50.528 28.621 73.505 69.686 136.946 244.758 598.376 186.686 633.858-50.594h-126.962c-117.052 203.861-406.662 85.256-406.662-19.092 0-148.907 243.762-193.801 365.614-96.415h150.828z" fill="none" stroke="#03182f" stroke-width="11.34"/></g></svg>