<svg xmlns="http://www.w3.org/2000/svg" width="219.183" height="200" viewBox="0 0 219.183 200" overflow="visible"><path fill="#fff" d="M161.712 34.076c46.904 35.692 11.21 41.039-25.413 46.248 0 0-15.462-4.263-42.242-17.569-60.735-30.173-41.615-44.389 6.121-52.987-76.41-33.286-140.089 24.668-69.832 81.023l-19.283 13.781c15.846 9.708 48.643 30.077 43.878 61.26l-16.279 11.636 49.729 22.532 39.238-17.775c.292-17.278 31.156-26.244 44.44-61.376 73.103-16.769 54.48-81.085-10.357-86.773z"/><path fill="#B21E35" d="M174.887 39.66c31.494 24.662 9.632 40.409-28.771 44.692 9.715 40.948-20.069 78.455-51.606 107.505l28.915-13.106c2.143-16.641 31.477-25.297 45.371-62.229 65.297-14.564 54.647-61.426 6.091-76.862z"/><path fill="#06192E" d="M128.296 83.615c-91.768-35.449-97.851-64.525-40.564-74.575-71.641-19.463-113.42 32.457-42.54 81.974l-19.025 13.592c20.2 13.499 41.603 33.48 34.339 64.927l-9.583 6.844 36.809 16.681c34.258-37.513 52.176-73.966 40.564-109.443zm-23.123 57.074l-14.099-16.026-16.192 2.415 7.488-12.333-14.095-16.046 18.721 8.433 7.463-12.327 4.089 17.521 18.724 8.416-16.195 2.418 4.096 17.529zm23.123-57.074c-91.768-35.449-97.851-64.525-40.564-74.575-71.641-19.463-113.42 32.457-42.54 81.974l-19.025 13.592c20.2 13.499 41.603 33.48 34.339 64.927l-9.583 6.844 36.809 16.681c34.258-37.513 52.176-73.966 40.564-109.443zm-23.123 57.074l-14.099-16.026-16.192 2.415 7.488-12.333-14.095-16.046 18.721 8.433 7.463-12.327 4.089 17.521 18.724 8.416-16.195 2.418 4.096 17.529z"/><path fill="#B21E35" d="M174.887 39.66c31.494 24.662 9.632 40.409-28.771 44.692 9.715 40.948-20.069 78.455-51.606 107.505l28.915-13.106c2.143-16.641 31.477-25.297 45.371-62.229 65.297-14.564 54.647-61.426 6.091-76.862z"/><path fill="#fff" d="M127.655 192.117l1.512-3.948h1.447v5.369h-.951v-4.367h-.025l-1.672 4.367h-.648l-1.673-4.367h-.03v4.367h-.948v-5.369h1.457l1.531 3.948zm-3.923-3.166h-1.649v4.587h-.951v-4.587h-1.647v-.782h4.248v.782h-.001z"/></svg>