<svg xmlns="http://www.w3.org/2000/svg" width="187.039" height="200" viewBox="0 0 187.039 200" overflow="visible"><path fill="#023A79" d="M157.712 28.834c-3.548-4.967-2.133-7.601.34-7.951 1.716-.244 3.767.014 4.832.014 1.884 0 5.483.231 5.181-3.451-.348-4.14-1.207-8.11-2.246-12.94-1.034-4.831-1.381-4.486-7.938-4.486 0 0-1.205-.172-11.213.517-10.008.691-17.944 2.07-18.293 15.527-.343 13.46 2.765 17.947 8.286 26.573 5.517 8.63 22.086 35.2 22.086 59.359 0 44.4-38.998 63.496-65.223 63.496-26.229 0-65.227-19.096-65.227-63.496 0-24.159 16.566-50.729 22.089-59.359 5.522-8.626 8.628-13.113 8.286-26.573-.35-13.458-8.287-14.837-18.293-15.528-10.01-.689-11.218-.517-11.218-.517-6.559 0-6.901-.345-7.94 4.486-1.034 4.83-1.896 8.8-2.24 12.94-.306 3.682 3.299 3.451 5.177 3.451 1.067 0 3.119-.257 4.833-.014 2.47.351 3.886 2.984.338 7.951-14.259 19.97-29.329 44.68-29.329 74.194 0 48.661 41.756 96.973 93.522 96.973s93.517-48.313 93.517-96.973c0-29.514-15.064-54.224-29.327-74.193zm-13.98 3.497c-1.551 0-2.806-1.257-2.806-2.808 0-1.548 1.255-2.806 2.806-2.806 1.547 0 2.808 1.257 2.808 2.806 0 1.551-1.261 2.808-2.808 2.808zm-100.423-5.613c1.548 0 2.805 1.257 2.805 2.806 0 1.55-1.257 2.808-2.805 2.808s-2.805-1.257-2.805-2.808c0-1.549 1.257-2.806 2.805-2.806zm-27.953 71.527c-1.545 0-2.806-1.257-2.806-2.806 0-1.552 1.26-2.808 2.806-2.808 1.553 0 2.805 1.256 2.805 2.808 0 1.548-1.252 2.806-2.805 2.806zm13.805 55.56c-1.548 0-2.808-1.26-2.808-2.808s1.259-2.806 2.808-2.806c1.551 0 2.805 1.258 2.805 2.806s-1.254 2.808-2.805 2.808zm64.361 31.748c-1.551 0-2.805-1.257-2.805-2.808 0-1.548 1.254-2.806 2.805-2.806 1.548 0 2.802 1.256 2.802 2.806.001 1.551-1.254 2.808-2.802 2.808zm64.358-31.748c-1.551 0-2.805-1.26-2.805-2.808s1.254-2.806 2.805-2.806c1.548 0 2.806 1.258 2.806 2.806s-1.256 2.808-2.806 2.808zm13.808-55.56c-1.554 0-2.811-1.257-2.811-2.806 0-1.552 1.257-2.808 2.811-2.808 1.543 0 2.806 1.256 2.806 2.808 0 1.548-1.264 2.806-2.806 2.806z"/><g fill="#fff"><circle cx="143.734" cy="29.524" r="2.806"/><path d="M143.732 29.524"/><circle cx="43.309" cy="29.524" r="2.807"/><path d="M12.55 95.437c0-1.549 1.26-2.805 2.806-2.805 1.553 0 2.805 1.256 2.805 2.805 0 1.551-1.252 2.808-2.805 2.808-1.545 0-2.806-1.258-2.806-2.808zm2.806 0"/><circle cx="29.161" cy="150.999" r="2.806"/><circle cx="93.522" cy="182.747" r="2.806"/><circle cx="157.88" cy="150.997" r="2.805"/><path d="M157.88 150.997M168.878 95.437c0-1.549 1.257-2.805 2.812-2.805 1.547 0 2.805 1.256 2.805 2.805 0 1.551-1.258 2.808-2.805 2.808-1.555 0-2.812-1.258-2.812-2.808zm2.81 0"/></g></svg>