<svg xmlns="http://www.w3.org/2000/svg" width="254.668" height="200" viewBox="0 0 254.668 200" overflow="visible"><path d="M247.557 2.627h-38.005l.071 89.827c-.022 2.156-.593 13.096-9.642 13.101-3.347.004-4.875-1.155-5.734-2.026-2.838-2.883-3.377-8.428-3.347-10.321l-.065-90.58h-61.656l.022 36.604 7-.003c6.399-.002 8.502 1.636 9.109 2.341.599.695.7 1.582.7 2.108 0 .257-.025.428-.027.448l-.093.48-.027.817.036 60.281c.008 11.715 3.883 21.767 11.201 29.071 7.616 7.604 18.576 11.783 30.859 11.772 9.046-.006 16.304-2.199 21.775-4.795.005.87.017 1.763.017 2.607 0 6.158-.189 11.421-1.138 12.568-.246.19-1.611.938-8.021.943h-182.509v42.13h196.323c14.375-.01 25.246-4.18 32.306-12.244 7.047-8.049 7.933-17.798 7.933-22.84 0-1.275.052-2.207 0-2.777-.003-.646 0-159.511 0-159.511h-7.088zm-229.474 141.321l43.666-.033-.065-93.645-.054-.482c-.004-.038-.388-3.794 1.728-6.155 1.949-2.176 5.722-2.636 8.543-2.638 3.048-.001 5.223.699 6.65 2.142 2.04 2.063 2.45 5.571 2.436 6.749l-.002.176.061 70.619.004-.251c-.038 1.083-.185 10.777 6.321 17.513 3.76 3.894 8.957 5.951 15.03 5.949l37.437-.032-.022-36.933-7.991 1.042c-.918.12-3.891.158-5.43-1.192-1.251-1.098-1.649-3.364-1.65-5.071v-66.601.284c.023-.599.554-14.801-9.385-25.136-6.549-6.813-15.772-10.262-27.408-10.253-11.994.012-20.675 3.342-26.869 7.445l-.003-4.817h-61.08l.023 38.335 8.507-1.804c1.703-.361 5.836-.551 7.742 1.165 1.385 1.246 1.812 3.733 1.812 5.937v97.687z" fill="#B21E35"/><path d="M149.761 105.703c.008 10.67 3.479 19.78 10.055 26.347 6.891 6.876 16.883 10.658 28.139 10.647 11.988-.007 20.525-4.079 25.584-7.476l.019 2.829c.022 2.392.044 4.593.044 6.605 0 8.042-.339 13.045-2.248 14.975-1.419 1.434-4.537 2.021-10.76 2.026l-178.66.128v34.436l192.469-.146c13.219-.01 23.115-3.662 29.41-10.854 6.227-7.114 7.146-15.73 7.146-20.188 0-1.37-.084-2.323-.131-2.743 0-.353-.117-155.813-.117-155.813h-37.305l.068 85.973c-.002.685-.219 16.946-13.489 16.954-3.612.004-6.396-1.043-8.507-3.202-4.569-4.676-4.427-12.99-4.427-13.074.003-.085-.063-86.651-.063-86.651h-53.958l.021 28.902 3.147-.001c5.882-.003 10.072 1.306 12.117 3.784 2.04 2.47 1.471 5.495 1.446 5.623v60.919zm-127.826 34.392l35.962-.027-.063-89.612-.027-.214c-.007-.054-.642-5.401 2.63-9.119 2.321-2.636 6.177-3.975 11.461-3.979 4.103-.003 7.279 1.119 9.438 3.333 3.606 3.697 3.501 9.423 3.5 9.48-.001.099.06 70.718.06 70.718-.011.251-.25 8.9 5.245 14.59 3.06 3.169 7.185 4.774 12.26 4.773l33.586-.028-.019-28.754-3.615.525c-.052.007-5.223.719-8.46-2.08-1.899-1.642-2.863-4.333-2.864-7.996l-.046-66.601c.019-.405.417-13.021-8.396-22.186-5.797-6.024-14.084-9.076-24.633-9.068-15.799.016-25.327 6.141-30.716 11.673l-.006-9.045h-53.38l.019 29.772 3.842-.854c.07-.016 7.104-1.528 11.108 2.04 2.023 1.804 3.114 4.752 3.114 8.787v93.872z" fill="#25316A"/></svg>