<svg xmlns="http://www.w3.org/2000/svg" width="512" height="512" viewBox="0 0 512 512"><path d="M451.994 213.265s27-4.125 31.875-29.5-12.375-45.625-43.375-59.75c-45-20.5-99-40.125-212.75-65.5-61.375-13.75-78.5-18-78.5-18l-121.125 129.375 103.875-3.25s-34.375 52.375-28.625 138.25 42.25 128.875 71.25 148.125c19.625 13.125 46.625 18.875 46.625 18.875s-13.875-19.625-9.875-44.25c4.125-24.5 13.875-37.625 21.25-50.75l54.875-106.375s17.125 0 24.5.875 12.25 4.125 12.25 8.25l-4.875 9.875s24.5 1.625 56.5-10.625c31.875-12.25 42.5-32.75 42.5-32.75s-13.875-17.25-30.25-30.375l-29.5-21.25h72s13.875 0 18.875 4.125c4.875 4 2.5 14.625 2.5 14.625z"/><path fill="#fff" d="M459.66 203.052s15.5-4.875 17.625-20.875c2-16-7-27.375-11.875-32.375-4.875-4.875-26.625-20.5-64.625-34-31.375-11.125-79-23.75-164.5-43-55.5-12.5-79-14.375-79-14.375l-89.125 96.375 92-.375s-38 46.75-41.375 139.125c-4.875 139.125 89.25 168.625 89.25 168.625s-9-16.375-6.5-35.125c2.5-18.875 10.625-33.5 19.625-49.875l58.125-113.75h34.375c6.125 0 14.75 3.25 18 7.75l1.625 8.125s23.75 1.625 39.75-5.375c23.375-10.25 35.625-25.75 35.625-25.75s-16.375-19.625-40.5-34.75c-24.25-15.25-44.75-25.5-44.75-25.5h114.25s13.875 0 18 3.625c4 3.75 4 11.5 4 11.5z"/><path fill="#161413" d="M464.577 192.869s7.375-4.125 7.375-16.375c0-9.375-9-20.5-16.375-25.75-7.375-5.375-23.375-15.125-49.5-23.75s-81.375-22.125-128.875-31.875c-47.5-9.875-124.75-22.5-124.75-22.5l7 10.25-51.25 54.75 181.625 14.375-1.625 2h-121.5l9 9-19.625 34.75 102.25-21.25-2.875 2.875-119.375 40.5 10.25 6.5s-3.625 7-6.125 21.625c-2.5 14.75-4.125 28.625-4.125 28.625l102.25-62.625-.375 2.5-112.875 90 10.625 2.875s.375 19.25 2.5 30.625c2 11.5 5.375 24.5 5.375 24.5l92.5-108.875v3.625l-91.25 134.25h9s4.875 14.375 16.375 29c11.5 14.75 28.25 26.625 28.25 26.625s-6.25-12.875-3.625-34.375c1.625-13.875 15.5-36.875 22.125-49.875 6.5-13.125 90-178 90-178l-16.25-8.375h155.125s9.375 1.25 13.875 4.875c4.5 3.75 4.875 9.5 4.875 9.5z"/><path fill="#fff" d="M465.907 182.617s2-7.75-1.625-14.375c-3.625-6.5-11.875-11-11.875-11l1.625 8.125-42.5 5.375-1.625 2.5h41.375s4.25.25 9 3.125c3.875 2.375 5.625 6.25 5.625 6.25zM445.803 160.903s-4.5-6.125-11.875-10.625l-20.5-10.625s9 7.625 13.5 12.875c4.5 5.375 5.75 8 5.75 8l13.125.375zM397.143 147.452s-54.625-14.75-117.875-27c-63.375-12.25-110.125-19.625-110.125-19.625l-14.25 16.75 241.875 32.75.375-2.875zM250.228 165.876l-65.5 1.25-8.375 14.75 73-13.875.875-2.125zM227.988 204.031l-71 25.625-4.75 18.875 74.5-41.625 1.25-2.875zM217.913 251.939l-69 58.375s.25 7.625.875 11.25l1.625 8.125 66.75-74.5-.25-3.25zM230.4 298.851s-19.875 29.25-33.375 49.875l-26.75 40.5s3.125 6.125 5.125 9.375l5.375 7.375 51-105.375-1.375-1.75z"/><path fill="#161413" d="M312.464 190.312s36.25 17.75 55.625 30.875l32.75 27.25s-4.125 6.125-13.875 12.5c-9.875 6.375-20 8-20 8s7.75-7 8.375-10.375c.625-3.5-.875-4.25-2.875-4.25h-22.5s-3.625 2.625-3.5 8.125c.25 5.5 2.875 9 2.875 9s-7.125-1-12.25-7c-5.125-5.875-5.125-10.25-5.125-10.25h-46.625l29.25-57.5-2.125-6.375z"/><path fill="#fff" d="M307.562 236.012l52.125 8-1.25 2.5h-56.625l5.75-10.5z"/></svg>