<svg xmlns="http://www.w3.org/2000/svg" width="512" height="512" viewBox="0 0 512 512"><g fill="none" stroke="#B35047"><path d="M32 0v512m32-512v512m32-512v512m32-512v512m32-512v512m32-512v512m32-512v512m32-512v512m32-512v512m32-512v512m32-512v512m32-512v512m32-512v512m32-512v512m32-512v512m-480-480h512m-512 32h512m-512 32h512m-512 32h512m-512 32h512m-512 32h512m-512 32h512m-512 32h512m-512 32h512m-512 32h512m-512 32h512m-512 32h512m-512 32h512m-512 32h512m-512 32h512"/><path d="M0 0h512v512h-512z"/></g></svg>