<svg xmlns="http://www.w3.org/2000/svg" width="325.501" height="144.021"><path d="M272.791 118.099c-14.834-2.967-34.31-3.754-42.535-3.754l-195.741.041c-12.178 0-24.773 0-31.235-9.954-6.555-10.099-2.993-20.038 8.062-39.923.823-1.476 34.351-64.509 34.351-64.509s3.425 4.256 6.876 6.964c3.409 2.672 6.915 4.095 16.255 4.095 16.589 0 123.613-.233 124.706-.238 21.723 0 43.668 2.247 57.886 17.842 7.384.787 31.211 3.935 50.845 13.328 11.494 5.491 19.075 13.692 21.941 23.708.864 3.03 1.297 6.213 1.297 9.517 0 9.506-3.562 20.038-10.542 30.984-14.746 23.129-28.349 31.213-28.959 31.648-8.378 5.895-16.494 6.172-16.494 6.172s7.308-8.313 9.776-16.628c2.467-8.31-6.49-9.294-6.49-9.294z" fill="#fff"/><path d="M299.845 47.061c-22.386-10.703-51.141-13.017-51.141-13.017-12.546-15.331-33.746-17.604-55.173-17.604 0 0-107.917.238-124.706.238-19.54 0-21.503-7.751-21.503-7.751l-26.194 49.049h68.025c21.407 0 22.482-2.144 36.681-12.587 15.083-11.096 27.121-15.108 41.373-15.108 14.244 0 23.675 3.21 39.529 10.236 15.861 7.021 24.288 10.435 33.725 6.42 0 0-7.427 10.034-29.906.6-22.476-9.431-28.493-11.437-42.147-11.437-13.467 0-28.891 6.461-48.202 25.733l23.015 18.518s-5.325 8.225-8.83 13.477c-3.495 5.251-3.169 8.759-1.305 11.321 1.869 2.571 4.222 3.733 12.742 3.733 8.517 0 76.791-.155 84.428-.155 6.643 0 27.415.619 43.633 3.857 21.534 4.308 7.642 22.469 7.642 22.469s14.42-9.493 28.695-31.872c15.921-24.967 11.996-45.419-10.381-56.121z" fill="#00295e"/><path d="M260.295 51.084c-10.18-2.436-1.476-8.334-1.476-8.334-14.651 2.962-20.103 14.912-21.361 18.254-.233.453-.477.916-.723 1.408-8.105 16.31-15.406 15.437-29.247 15.437h-23.703c-19.199 0-28.141 9.514-37.344 25.72h10.844c9.91-14.757 17.392-18.736 36.99-19.841 44.792.026 80.498 12.877 99.366 22.697 26.836-45.065-12.991-52.525-33.347-55.342zM176.931 103.394c5.007-7.569 15.194-10.143 31.615-9.198 40.526 2.348 63.825 10.239 81.93 16.985-22.324-13.068-62.105-22.487-89.754-22.398-13.514.041-25.314 2.402-32.246 14.611h8.455zM220.424 58.689c-5.281 7.368-12.238 9.885-31.967 8.536-22.953-1.559-17.03-11.23-14.358-15.991l-.078-.007c.73-1.347 1.983-3.635 3.249-5.936-17.589-1.087-30.432 12.452-30.432 12.452 13.11 12.971 21.855 14.324 33.717 14.324h22.176c20.618 0 25.599-9.278 27.489-13.403-3.557.446-6.762.41-9.796.026z" fill="#fff"/><path d="M210.415 56.494l-1.287-.523c-2.022 2.128-5.509 3.365-8.887 2.93-4.448-.57-7.011-3.801-5.747-7.211.182-.499.446-.97.761-1.418-2.278-.893-4.569-1.752-6.801-2.529-4.567 7.388-7.244 12.286 8.607 13.622 9.874.844 12.553-.849 14.627-4.396-.424-.16-.838-.3-1.273-.476z" fill="#4dbd38"/><path d="M130.797 84.571c-8.178 14.194-11.424 17.457-5.68 24.193h-90.602c-13.364 0-22.05-.505-26.521-7.394-4.346-6.689-3.451-13.071 8.261-34.132h77.034c13.263 0 16.673.756 23.869 6.342 7.198 5.59 13.638 10.99 13.638 10.99z" fill="#b2b7bb"/></svg>