<svg xmlns="http://www.w3.org/2000/svg" width="280.513" height="200" viewBox="0 0 280.513 200" overflow="visible"><path fill="#fff" d="M205.878 198.949c.088-.019 6.78-1.731 6.78-1.731 8.316-2.074 13.607-3.443 16.713-4.922 0-.007 2.716-1.317 2.716-1.317l1.558-2.587c.452-.751 10.827-18.278 15.955-42.668 1.451-1.315 6.882-6.259 6.882-6.259l.154-1.636.207-2.233c.19-2.009.281-4.04.281-6.057 0-3.639-.302-7.425-.885-11.272 11.998-6.675 17.194-16.333 20.375-24.176 2.597-6.399 3.898-13.586 3.898-21.046 0-7.363-1.272-14.992-3.793-22.374-4.093-11.947-13.379-28.796-34.404-41.208-13.096-7.734-31.541-11.008-49.377-8.771-20.708 2.594-38.537 12.38-50.199 27.539-.906 1.184-1.772 2.442-2.602 3.738l-.403.071c-66.129 10.3-118.557 53.361-120.754 55.185l-18.98 15.757 24.586 1.979c43.333 3.486 74.008 18.647 92.107 30.749 19.826 13.263 29.369 25.855 29.463 25.983l6.397 8.713 8.228-7.058c1.396-1.204 2.656-2.573 3.798-4.086l.283.252 1.857 1.551c1.227.989 2.228 1.836 3.5 3.268.309.699.497 1.479.497 2.369 0 2.216-.271 2.849-.861 4.228l-.291.666c-.704 1.686-2.033 4.124-2.055 4.152l-2.012 3.686 36.607 20.566"/><path fill="#13264B" d="M168.687 149.505l.428.378-.019-.124-.409-.254zm61.987-60.344l-.611.614.364-.352.247-.262z"/><path fill="#C9AF74" d="M240.144 13.123c-23.438-13.843-69.683-13.955-94.035 17.703-1.218 1.593-2.347 3.258-3.386 4.98-1.051.209-1.847.356-2.311.435-64.928 10.112-116.55 52.463-118.716 54.261l-10.933 9.077 14.164 1.139c85.832 6.904 124.259 57.917 124.635 58.44l3.705 5.027 4.732-4.069c2.592-2.229 4.371-4.849 5.626-7.401 1.158 1.058 2.464 2.214 4.041 3.605 2.157 1.881 3.788 2.846 6.192 5.709.811 1.513 1.111 3.139 1.111 4.671 0 3.489-.671 4.613-1.477 6.533-.799 1.919-2.242 4.556-2.242 4.556l31.408 17.634 2.119-.587 6.825-1.752c7.843-1.945 13.196-3.334 15.924-4.633l1.572-.761.901-1.489c.447-.761 10.873-18.431 15.71-42.692 1.717-1.57 6.692-6.088 6.692-6.088l.212-2.226c.169-1.91.254-3.795.254-5.66 0-4.718-.519-9.327-1.341-13.622 12.452-5.888 17.736-15.015 21.148-23.427 9.047-22.324 1.829-59.073-32.53-79.363z"/><path fill="#13264B" d="M264.548 48.847c-19.862-48.019-74.42-38.43-74.42-38.43l.43-.041c2.794-.224 18.961-1.158 35.161 5.529 14.223 5.872 30.111 20.495 33.955 39.819.913 4.59 1.268 8.842 1.268 12.689l-.005.973c-.178 11.836-3.738 19.791-4.944 22.285-1.617 3.358-5.607 8.291-8.302 10.255-2.262 1.66-4.35 2.356-5.943 2.356-.309 0-.59-.031-.854-.083h-.017c-.269-.043-.528-.124-.756-.224-1.505-.688-2.021-2.49-5.463-7.32-2.278-3.215-5.175-6.316-5.175-6.316.286-.247.545-.519.811-.78l.38-.409c.314-.335.606-.718.904-1.113.833-1.137 1.543-2.461 2.107-3.958l.06-.171c.183-.48.335-.975.485-1.475 2.792-9.95-.292-25.355-12.816-35.377-13.313-10.659-27.703-11.541-39.362-6.868-19.62 7.867-31.491 31.481-17.479 50.792 6.792 9.367 17.835 9.969 24.696 4.716 6.423-4.93 10.737-20.007-5.075-28.083 12.702-1.075 28.116 14.076 20.53 33.633-.557 1.43-1.213 2.764-1.94 4.012-10.999 18.542-41.022 16.485-55.453-.759-14.059-16.796-16.447-39.315-9.697-58.059.491-1.36 1.036-2.718 1.627-4.041-57.993 12.535-95.515 47.61-95.515 47.61 81.086 16.828 110.481 65.726 110.481 65.726 3.006-2.583 4.638-6.05 5.553-8.903-5.625-9.21-3.161-17.841-3.161-17.841 1.229 6.202 3.496 10.749 5.757 14.009.97 1.354 5.437 5.736 6.309 6.502l.409.254.019.124c4.064 3.594 8.889 7.648 9.746 9.191 4.364 7.846-.193 16.754-.193 16.754l24.542 13.446c5.472-1.545 18.28-4.347 21.814-6.04 0 0 10.88-18.19 15.396-42.735l6.431-5.848c2.38-6.742-1.827-21.479-1.827-21.479.519-.133 1.056-.288 1.591-.474 1.277-.423 2.554-.994 3.833-1.698 13.898-7.701 26.678-31.786 14.102-62.15z"/><path fill="#fff" d="M260.941 68.414c0-3.848-.354-8.1-1.268-12.689-3.843-19.325-19.731-33.948-33.955-39.819-16.2-6.687-32.366-5.752-35.161-5.529-.659.083-1.327.164-1.981.254-22.074 3.125-35.491 18.892-35.491 18.892 19.976-15.617 49.969-17.46 69.814-9.325 19.827 8.141 34.243 24.645 38.036 49.189l.005-.221.001-.752zm-64.444 96.376c.209-.989 3.058-1.189 3.058-1.189 2.023 7.158-1.113 11.752-1.303 12.435-.153-3.254.425-9.275-1.755-11.246zm-49.166-60.288c-14.059-16.796-16.447-39.315-9.697-58.059-4.033 6.209-13.29 24.63-1.834 50 13.895 30.764 51.926 31.981 64.718 12.726.866-1.306 1.615-2.614 2.267-3.907-11 18.541-41.023 16.484-55.454-.76zm72.975 28.002c0-2.535 2.05-4.595 4.59-4.595l.242.014c-.542-2.544-1.674-5.322-3.81-8.052 0 0 .171 2.721-.414 5.051-2.342 1.241-3.943 3.686-3.943 6.53 0 4.066 3.311 7.367 7.382 7.367 0 0 .271-.632.561-1.722h-.019c-2.539.002-4.589-2.057-4.589-4.593z"/><path fill="#13264B" d="M225.414 134.511l-.152.352c-.928.38-2.502.043-3.113-1.427 1.715 1.008 3.032-.069 3.384-.395l.104-.095s.072.719-.223 1.565z"/><path fill="#fff" d="M225.638 132.947l-.104.095c-.352.326-1.669 1.403-3.384.395.611 1.47 2.186 1.807 3.113 1.427l.152-.352c.294-.847.223-1.565.223-1.565zm14.202-1.218c.571-23.315-18.896-38.825-18.896-38.825s14.269 17.789 12.609 38.707l-3.881 3.619c.062 5.679-.205 16.457-5.703 28.538-5.698-10.302-18.262-17.123-23.441-18.35-3.522 1.983-11.339 6.283-15.896 11.339.797 1.094 1.915 4.057 2.085 5.022 1.035 5.731.255 9.888-.635 12.892.012.01 8.702 4.863 8.578 4.623 2.38-8.233-.785-11.947-3.199-16.173 2.347-1.427 7.807-4.485 10.352-5.546 2.575 3.546 3.9 9.415 1.132 17.767-.833 2.501-2.036 5.049-2.761 6.809.01.09 3.394 1.897 3.373 1.788 4.397-.885 8.416-3.891 9.971-8.109.464-1.253.259-2.221.107-3.206-.433.552-1.025 1.427-1.738 1.912-1.127-2.611-1.142-4.692.285-6.259.737-.809 1.563-1.106 2.55-1.139 1.46-.05 2.635.894 3.099 2.009 2.183 5.365-2.88 11.006-2.88 11.006s4.844-.224 6.24-.906c2.854-5.762 11.682-24.549 14.188-43.51l4.461-4.008z"/></svg>