<svg xmlns="http://www.w3.org/2000/svg" width="337.553" height="200" viewBox="0 0 337.553 200" overflow="visible"><path fill="#1A191A" d="M0 0s5.164 17.84 25.039 31.768l-11.581-1.252s12.207 17.214 34.271 28.012l-12.049-1.096s16.118 25.665 48.825 38.341c0 0 3.286 20.97 31.61 39.905 0 0 26.917 15.495 30.046 29.735 0 0 51.833-3.428 108.581 34.587 0 0 13.392-54.792 82.811-61.403 0 0 .059-29.743-39.29-49.448 0 0-16.135-61.715-113.791-68.426l-82.323.259s-62.813-4.143-102.149-20.982z"/><path fill="#84161C" d="M23.709 16.063s16.827 22.005 64.46 33.136l-42.973-3.883s16.051 15.403 63.684 27.053l-43.103-3.753s24.204 23.039 61.742 29.252l-23.039 3.625s2.071 11.649 41.679 37.278c0 0 13.073 11.001 10.355 13.72 0 0 21.487.26 59.025 17.864 0 0 35.984-18.381-14.237-71.969 0 0-23.041-25.369-48.928-41.938 0 0 39.09-9.319 87.759 18.64 0 0 24.852 18.638 47.633 9.319 0 0-9.32-47.116-97.079-54.624h-95.268c0 .001-40.386-3.106-71.71-13.72z"/><path fill="none" stroke="#000" d="M23.709 16.063s16.827 22.005 64.46 33.136l-42.973-3.883s16.051 15.403 63.684 27.053l-43.103-3.753s24.204 23.039 61.742 29.252l-23.039 3.625s2.071 11.649 41.679 37.278c0 0 13.073 11.001 10.355 13.72 0 0 21.487.26 59.025 17.864 0 0 35.984-18.381-14.237-71.969 0 0-23.041-25.369-48.928-41.938 0 0 39.09-9.319 87.759 18.64 0 0 24.852 18.638 47.633 9.319 0 0-9.32-47.116-97.079-54.624h-95.268c0 .001-40.386-3.106-71.71-13.72z"/><path fill="#fff" d="M209.068 72.498s5.177 40.644 45.044 38.572c0 0 13.979-3.365 16.827-17.862h-5.436s-4.659 14.755-18.639 11.908c0 0-8.414-.13-16.568-12.426l13.203-1.812s-23.299-7.249-34.431-18.38z"/><path fill="none" stroke="#000" d="M209.068 72.498s5.177 40.644 45.044 38.572c0 0 13.979-3.365 16.827-17.862h-5.436s-4.659 14.755-18.639 11.908c0 0-8.414-.13-16.568-12.426l13.203-1.812s-23.299-7.249-34.431-18.38z"/><path fill="#FDBD12" d="M262.454 129.369s40.488-7.414 67.801 5.958c0 0-34.627 1.43-57.767 20.989 0 0 2.12-14.793-10.034-26.947z"/><path fill="none" stroke="#000" d="M262.454 129.369s40.488-7.414 67.801 5.958c0 0-34.627 1.43-57.767 20.989 0 0 2.12-14.793-10.034-26.947z"/><path fill="#FDBD12" d="M263.006 119.563s44.351-1.928 67.49 12.672c-5.467-21.58-42.689-38.389-39.667-36.913 0-.001-7.438 17.354-27.823 24.241z"/><path fill="none" stroke="#000" d="M263.006 119.563s44.351-1.928 67.49 12.672c-5.467-21.58-42.689-38.389-39.667-36.913 0-.001-7.438 17.354-27.823 24.241z"/></svg>