<svg xmlns="http://www.w3.org/2000/svg" width="404.225" height="200" viewBox="0 0 404.225 200" overflow="visible"><path fill="#D1B336" d="M300.825 37.704c0 7.914-3.198 12.797-3.198 12.797-3.529-12.935-21.719-29.97-21.719-29.97 3.198 4.041 2.188 12.123 2.188 12.123-1.18-1.01-10.128-6.894-10.128-6.894-17.708-12.645-46.825-25.76-91.458-25.76-112.875 0-160.589 72.587-162.565 75.678 0 0-10.995 15.773-13.945 24.623l24.061-14.391c.196-.123 19.998-12.159 50.673-12.159 2.381 0 8.055.279 9.322 2.872 3.025 6.191-6.402 25.066-17.105 38.81l-22.974 29.5 32.486-18.584c.129-.073 13.123-7.365 34.654-7.365 4.347 0 6.213.705 6.847 1.029-.072 1.177-1.184 3.69-2.426 5.37l-15.921 21.524 24.689-10.309c.151-.063 15.317-6.305 36.961-6.305 12.741 0 21.46 2.486 23.922 6.822 2.278 4.011-.545 10.509-1.715 12.468l-5.087 8.527 9.61 2.446c1.082.271 2.455.6 8.007-.523-.049.788-.115 1.583-.115 2.35 0 12.463 6.027 22.003 6.38 22.552l9.723 15.065 3.693-17.544c3.268-15.525 15.699-22.247 23.44-24.976l2.22 8.317 7.722-3.088c6.936-2.774 18.348-11.103 22.462-14.187 3.356-.609 12.193-2.004 22.981-2.004 6.375 0 13.84.602 21.742 1.24 9.928.801 21.18 1.71 33.326 1.71 17.34 0 33.231-2.976 39.846-4.397 1.613 1.076 14.096 9.398 14.096 9.398l.625-13.004c.053-1.101.079-2.186.079-3.255 0-27.229-16.846-44.457-35.108-54.375l1.149-.063-19.728-12.34c-2.731-1.707-8.075-3.018-13.409-3.98l.975-1.95-8.764-2.321c-8.637-2.286-16.044-2.557-21.606-2.182 2.688-14.035-6.908-23.295-6.908-23.295z"/><path d="M20.158 79.651s46.217-72.276 156.352-72.276c81.125 0 108.168 45.233 108.168 45.233s1.475-6.882-.493-10.325c0 0 9.343 9.835 9.834 21.636 0 0 5.409-5.409 5.409-7.375 0 0 2.458 8.357 0 13.275 0 0 11.309-3.935 28.025.49l-1.475 2.95s16.718 1.967 20.65 4.425c0 0-9.343.493-9.343 2.95 0 0 61.952 9.344 59.493 60.477l-5.9-3.934s-19.667 4.917-41.3 4.917c-21.634 0-40.318-2.95-55.068-2.95s-26.058 2.459-26.058 2.459-14.75 11.309-22.125 14.259l-1.968-7.375s-29.992 4.425-35.892 32.45c0 0-9.833-15.241-2.459-30.975 0 0-14.257 3.932-16.224 3.441 0 0 18.693-30.484-28.518-30.484-23.6 0-39.825 6.884-39.825 6.884s13.766-18.193-10.325-18.193l-38.35 8.359s41.819-53.591 1.967-53.591c-33.433-.002-54.575 13.273-54.575 13.273z"/><path fill="#fff" d="M266.978 85.551s-32.45-5.9-46.463 2.213c0 0 36.138 0 50.15 8.112 0 0-64.163-8.85-90.713 12.538 0 0 39.088-9.587 69.326-6.638 0 0-11.063 4.425.738 11.8 11.8 7.375 19.175 8.85 16.225 21.388l6.145-9.096 6.885 6.884s17.699-1.475 29.99 0c12.292 1.475 29.009 2.95 38.35 2.95 9.343 0 34.911-3.441 34.911-3.441s-53.59-21.142-101.776-21.142c-5.411 0-11.311.982-7.868 6.883 0 0-16.718-8.241-16.718-12.666 0-4.425 12.785-2.084 12.785-2.084 5.9 0 112.1 10.816 122.916 29.992 0 0 0-43.759-88.008-52.609l9.833 8.36-15.732-1.475 9.343 8.357c-.001-.001-24.587-8.358-40.319-10.326z"/><path fill="#2D2062" d="M44.988 63.426s48.676-48.676 131.276-48.676c72.276 0 103.251 40.563 103.251 40.563s13.275 19.913 5.9 27.288-8.85-18.438-27.288-24.338l15.488 5.163s-16.962-22.125-45.726-16.963c0 0 16.225 3.688 20.65 8.85 0 0-36.138 3.688-37.613 6.638 0 0 28.025 5.9 29.5 10.325 0 0-26.55.737-33.925 7.375 0 0 49.413 2.212 60.476 5.9 0 0-32.45-5.9-46.463 2.213 0 0 36.138 0 50.15 8.112 0 0-64.163-8.85-90.713 12.538 0 0 39.088-9.587 69.326-6.638 0 0-11.063 4.425.738 11.8 11.8 7.375 19.175 8.85 16.225 21.388 0 0-5.9 8.85-14.75 12.538l-.738-10.325s-28.025 2.213-40.563 28.025c0 0 2.213-21.388 8.113-26.55l-16.225 5.163s16.225-26.55-24.338-28.763l-42.775 4.425s5.163-19.913-40.563-11.8c0-.001 43.513-71.539-49.413-44.251z"/><path fill="#fff" d="M210.659 32.6c-4.483-6.553-15.492-9.737-33.657-9.737-51.367 0-80.457 14.615-81.67 15.237l-19.773 10.881 22.751-2.623c.383-.085 32.271-7.094 57.629-7.748-34.125 4.315-46.178 60.506-46.696 63.005l-1.161 5.601 52.787-2.597 1.276-1.727c2.164-2.409 17.521-9.51 30.513-14.707l1.649-.66 4.694-10.328.086-.648c.072-.539.107-1.072.107-1.599 0-2.752-.974-5.325-2.861-7.516-2.353-2.731-6.053-4.644-10.074-5.991 19.876-4.937 25.571-18.599 25.825-19.236.206-.526 1.773-4.931-1.425-9.607zm-66.309 60.006c2.672-7.345 8.385-20.127 9.776-23.949 2.796 0 17.12-.807 17.12 7.552-.001 3.933-6.576 16.475-26.896 16.397zm14.358-34.736c2.578-5.156 7.334-17.424 8.382-19.52 3.418.478 16.367 1.773 15.566 7.375-.984 6.884-8.072 12.218-9.834 13.029l-14.114-.884z"/><path fill="#D1B336" d="M165.939 62.688l-13.158-.737 7.995-19.175c-34.663-.737-47.2 59.738-47.2 59.738l44.988-2.212c2.95-4.425 32.45-16.226 32.45-16.226l3.688-8.112c1.703-12.792-28.763-13.276-28.763-13.276zm9.588 15.488c-7.057 19.139-33.188 19.175-37.613 19.175l14.168-33.103s29.056-1.29 23.445 13.928zm1.475-50.888c-50.888 0-79.651 14.75-79.651 14.75s46.463-10.325 73.013-7.375c34.646 3.849 8.85 23.6 8.85 23.6 22.863-2.95 28.763-17.7 28.763-17.7s5.163-13.275-30.975-13.275z"/><ellipse fill="#C6332C" cx="255.178" cy="70.516" rx="8.407" ry="7.744"/><ellipse fill="#fff" cx="256.899" cy="71.785" rx="7.622" ry="7.866"/><ellipse fill="#C6332C" cx="258.374" cy="72.276" rx="6.146" ry="5.9"/><ellipse cx="259.848" cy="72.029" rx="5.163" ry="5.654"/></svg>