<svg xmlns="http://www.w3.org/2000/svg" width="368.179" height="200"><defs><clipPath><path d="M17.75 11.847h756.5v585.714h-756.5v-585.714z"/></clipPath><clipPath><path d="M17.75 11.847h756.5v585.714h-756.5v-585.714z"/></clipPath><clipPath><path d="M17.75 11.903h756.49v585.657h-756.49v-585.657z"/></clipPath><clipPath><path d="M17.75 11.847h756.5v585.714h-756.5v-585.714z"/></clipPath><clipPath><path d="M17.75 11.903h756.49v585.657h-756.49v-585.657z"/></clipPath><clipPath><path d="M17.75 11.847h756.5v585.714h-756.5v-585.714z"/></clipPath><clipPath><path d="M17.75 11.903h756.49v585.657h-756.49v-585.657z"/></clipPath><clipPath><path d="M17.75 11.903h756.49v585.657h-756.49v-585.657z"/></clipPath><clipPath><path d="M17.75 11.847h756.5v585.714h-756.5v-585.714z"/></clipPath><clipPath><path d="M17.75 11.903h756.49v585.657h-756.49v-585.657z"/></clipPath><clipPath><path d="M17.75 11.847h756.5v585.714h-756.5v-585.714z"/></clipPath><clipPath><path d="M17.75 11.903h756.49v585.657h-756.49v-585.657z"/></clipPath><clipPath><path d="M17.75 11.903h756.49v585.657h-756.49v-585.657z"/></clipPath><clipPath id="a"><path d="M17.75 11.847h756.5v585.714h-756.5v-585.714z"/></clipPath><clipPath><path d="M17.75 11.847h756.5v585.714h-756.5v-585.714z"/></clipPath><clipPath><path d="M17.75 11.903h756.49v585.657h-756.49v-585.657z"/></clipPath><clipPath><path d="M17.75 11.847h756.5v585.714h-756.5v-585.714z"/></clipPath></defs><g clip-path="url(#a)"><path d="M337.202 20.408l.205-.556.125-.441-.008-.024c-.532-1.526-1.595-1.637-3.83-1.462-3.261.622-6.278 1.015-8.814 1.271h.003l-.412.04-.295.027-1.098.098-.154.013c-3.269.266-5.337.276-5.337.276 8.354 6.318 9.33 16.1 9.33 16.1l.425-.364c6.414-4.654 9.861-14.978 9.861-14.978"/><path d="M250.417 72.347c4.144 12.206-2.833 28.555-2.833 28.555 9.154-7.846 16.347-23.975 16.347-23.975 15.039-3.051 23.324 0 23.324 0 1.959 11.77-2.403 21.357-2.403 21.357 8.721-6.972 12.644-25.501 12.644-25.501s-3.487-3.267-18.96-4.356c-15.478-1.092-28.119 3.921-28.119 3.921" fill="#d1d3d4"/><path d="M261.695 119.023s-4.545 12.649-9.213 17.32c0 0 6.031 3.307 16.541 2.334 10.507-.973 13.04-4.861 14.013-8.755.973-3.891 0-9.343-1.754-13.428 0 0 .781 10.313-6.422 15.571 0 0-7.759 1.621-12.82.066 0 0 1.991-4.152-.346-13.107" fill="#d1d3d4"/><path d="M236.928 20.716l.322.066-.322-.066c-6.342-1.207-9.016 3.583-9.016 3.583-2.009 2.974-1.244 4.399-1.244 4.399 19.544-.343 30.083 2.812 30.083 2.812s-7.28-7.958-19.023-10.629l-.8-.165z" fill="#d1d3d4"/><path d="M315.017 30.752c-2.57-2.398-8.056-5.486-14.058-4.287-5.999 1.204-6.345 7.716-6.345 7.716 6.515-5.999 20.403-3.429 20.403-3.429" fill="#d1d3d4"/><path d="M169.564 43.582s32.21-6.167 69.052 2.536c1.324-1.188 2.849-2.398 4.617-3.626 0 0-33.783-9.372-73.669 1.09" fill="#0099d8"/><path d="M169.737 56.162s28.233-7.038 62.654-2.291c.657-1.305 1.544-2.679 2.706-4.104-12.421-1.425-37.637-2.538-65.36 6.395" fill="#0099d8"/><path d="M170.455 68.341s26.678-8.24 60.318-5.914c-.162-1.204-.178-2.645.133-4.271-13.484-.364-36.191.861-60.451 10.185" fill="#0099d8"/><path d="M91.787 152.337h.013l.159.016c.585.053 2.467.226 2.57.237.255.024 3.485.364 3.511.367 4.588.513 9.234 1.159 13.915 1.954v-.003c10.555-38.629 40.25-59.276 40.25-59.276-40.165 19.425-57.054 51.05-60.419 56.706" fill="#0099d8"/><path d="M281.153 98.831c-2.512-11.653 4.128-19.632 4.128-19.632-15.089 13.234-5.954 26.484-1.387 36.763 4.569 10.278 2.743 17.819-1.826 23.074-4.569 5.258-17.133 5.712-25.586 4.115-8.45-1.6-12.793-10.512-15.079-21.019-2.281-10.507 1.829-29.015 1.829-29.015-6.167 9.369-6.167 28.558-1.372 44.094 4.798 15.533 17.362 19.414 26.5 19.414 9.141 0 25.586-7.764 23.05-26.261-2.536-18.494-7.743-19.882-10.257-31.532" fill="#0099d8"/><path d="M182.915 108.277c-15.762-15.959-16.24-34.009-16.24-34.009s-5.409 21.046 7.437 36.808c12.846 15.765 44.128 17.484 44.128 17.484s-19.563-4.325-35.325-20.283" fill="#0099d8"/><path d="M262.62 39.222c18.526 7.195 18.308 18.311 18.308 18.311 2.833-10.68 15.913-16.347 15.913-16.347s-6.759-3.269-16.131-3.923c-9.372-.657-18.09 1.959-18.09 1.959" fill="#0099d8"/><path d="M236.928 20.716c-11.161-2.219-21.873 2.254-22.412 2.483l-.011.005-.011.003-.003.003c10.286.175 13.42 1.09 13.42 1.09s2.674-4.79 9.016-3.583" fill="#0099d8"/><path d="M273.206 165.666l-.003.003c-.12.043-6.672 2.352-14.784.893 0 0 10.73 10.385 21.628 33.095l.016.037.42-.032c-1.053-10.35-5.47-27.691-6.488-30.891l-.789-3.105z" fill="#0099d8"/><path d="M284.848 98.281s4.362-9.587 2.4-21.36c0 0-8.285-3.049-23.324 0 0 0-7.19 16.129-16.347 23.975 0 0 6.977-16.347 2.836-28.552 0 0 12.639-5.013 28.116-3.923 15.475 1.09 18.962 4.359 18.962 4.359s-3.923 18.529-12.644 25.501m-9.991 33.783c7.203-5.255 6.424-15.571 6.424-15.571 1.752 4.088 2.724 9.537 1.752 13.431-.973 3.891-3.506 7.783-14.013 8.755-10.51.97-16.541-2.334-16.541-2.334 4.67-4.673 9.213-17.32 9.213-17.32 2.336 8.955.346 13.104.346 13.104 5.061 1.555 12.82-.066 12.82-.066m16.554-1.701c2.533 18.497-13.912 26.261-23.05 26.261s-21.705-3.881-26.5-19.414c-4.798-15.536-4.798-34.721 1.372-44.094 0 0-4.112 18.508-1.829 29.015 2.286 10.507 6.626 19.419 15.076 21.019 8.455 1.597 21.017 1.143 25.589-4.115 4.566-5.255 6.392-12.796 1.826-23.074-4.569-10.278-13.705-23.529 1.387-36.763 0 0-6.642 7.979-4.128 19.632 2.514 11.65 7.721 13.037 10.257 31.532m-59.037-76.5c-34.418-4.745-62.652 2.294-62.652 2.294 27.723-8.934 52.937-7.82 65.36-6.395-1.162 1.425-2.049 2.796-2.709 4.101m-54.09-35.856c-33.64-2.328-60.318 5.911-60.318 5.911 24.26-9.324 46.967-10.55 60.448-10.185-.308 1.627-.295 3.067-.13 4.274m-110.751 12.798c-12.843-15.762-7.437-36.811-7.437-36.811s.478 18.05 16.24 34.009c15.762 15.959 35.327 20.283 35.327 20.283s-31.285-1.717-44.131-17.482m69.121-68.595c-1.768 1.228-3.296 2.437-4.62 3.626-36.84-8.702-69.05-2.536-69.05-2.536 39.886-10.462 73.669-1.09 73.669-1.09m-28.73-19.286l.011-.003.011-.005c.553-.234 11.767-4.925 23.212-2.32 11.743 2.674 19.026 10.632 19.026 10.632s-10.542-3.158-30.086-2.815c0 0-.766-1.425 1.244-4.396 0 0-3.131-.914-13.42-1.09l.003-.003zm28.199 60.475c6.002-1.199 11.485 1.887 14.058 4.287 0 0-13.888-2.573-20.403 3.429 0 0 .346-6.515 6.345-7.716m19.746 30.447c-.218-1.244-.566-2.302-.999-3.221-.003 0-.351-.877-1.403-2.251-.904-1.148-1.914-2.049-2.831-2.916-2.007-1.892-5.619-3.017-5.619-3.017l-.005-.003c2.514 1.911 4.442 4.654 4.636 8.601.585 12.15-11.956 17.054-11.956 17.054 2.94-1.964 8.229-8.625 6.858-17.253-1.372-8.623-12.548-12.719-12.548-12.719s-13.083 5.667-15.913 16.347c0 0 .218-11.116-18.311-18.311 0 0 8.718-2.618 18.09-1.962 9.375.654 16.134 3.926 16.134 3.926s1.733-4.569 10.932-6.132c9.197-1.56 19.148.691 19.148.691-1.839-3.354-3.955-8.242-13.202-12.022-9.247-3.777-17.537-.359-17.537-.359s-.603-4.463-7.323-8.811c-10.922-7.065-39.806-11.275-45.375-11.573-5.569-.298 4.168 3.288 8.075 5.513 4.434 2.528 9.401 6.82 9.824 10.892.109 1.092-.149 2.049-.641 2.841-.391-1.14-1.212-2.592-2.658-4.447-7.908-10.164-27.989-14.558-43.049-13.553-15.058 1.002-27.021 6.701-27.021 6.701.17 1.39-5.558 6.249-21.349 7.987-15.05 1.651-25.668-1.1-29.491-1.664l-.29-.056c-1.55-.197-2.711-.122-3.198.991l-.053.154-.032.202c-.066.776.409 1.85.409 1.85l-.221-.42c1.074 2.06 7.477 13.856 15.911 19.916 0 0 5.042-1.069 11.025-1.709 0 0-92.443 44.987-129.894 115.28 16.32-1.911 37.789-3.144 61.099-1.092l-.159-.016h-.013c3.365-5.656 20.254-37.281 60.422-56.706 0 0-29.698 20.645-40.253 59.276 13.428 2.283 27.143 5.816 40.572 11.041 43.174 16.828 79.562 34.416 120.583 34.052l6.977-.303-.016-.037c-10.895-22.71-21.625-33.095-21.625-33.095 8.112 1.459 14.664-.853 14.784-.896.617-.221 1.143-.441 1.582-.643 13.412-7.232 15.658-19.473 16.756-28.247 1.265-10.14-.537-16.631-.537-16.631s23.22-30.485 29.121-54.476c0 0 1.364-4.338.585-8.777"/><path d="M367.15 72.294c-13.574-7.408-28.972-9.71-40.779-10.167h-.069.069c.444-1.496.983-3.4 1.507-5.452l.447-.029c23.667-.776 36.178 5.486 36.178 5.486l-1.191-.917c-11.533-5.345-23.723-7.294-34.275-7.594h-.428c.367-1.64.837-4.97.933-4.965l.245.008c18.21.191 28.14 4.508 28.14 4.508l-1.193-.941c-9.032-3.854-18.268-5.598-26.915-6.175.051-3.368-.513-6.143-1.789-8.54 6.677-5.794 9.144-14.622 9.497-18.106v-.005l.003-.008.096-.5.024-.199.019-.346-.003-.178-.029-.303-.027-.154-.077-.263-.045-.13-.112-.229-.064-.112-.138-.197-.077-.093-.162-.162-.085-.074-.181-.138-.085-.058-.189-.109-.088-.051-.194-.082-.082-.037-.183-.066-.077-.024-.175-.048-.061-.016-.157-.035-.051-.011-.125-.019-.032-.005-.144-.016c-11.528.128-21.004-3.79-21.004-3.79l-.776-.279c-25.647-9.383-52.262-12.07-75.966-11.639l-.005-.021c-10.581.096-18.314.962-18.314.962-34.025 2.876-58.418 11.025-58.418 11.025s-9.26 2.615-21.594 2.001c0 0-4.58-.08-5.483 2.831-.776 1.855-.88 4.067.867 8.904 2.009 5.574 10.053 16.054 10.114 16.137-24.334 9.885-87.714 45.436-144.497 116.915 0 0 11.998-3.12 30.87-5.329v-.003c37.454-70.293 129.894-115.28 129.894-115.28-5.981.641-11.023 1.709-11.023 1.709-8.434-6.06-14.837-17.856-15.911-19.914l.221.42s-.476-1.076-.409-1.853l.032-.202.053-.154c.484-1.114 1.648-1.188 3.198-.991l.29.056c3.822.563 14.441 3.317 29.491 1.664 15.791-1.738 21.519-6.594 21.349-7.987 0 0 11.964-5.696 27.021-6.698 15.06-1.007 35.139 3.386 43.046 13.55 1.449 1.855 2.27 3.309 2.661 4.447.492-.789.75-1.746.641-2.841-.423-4.072-5.39-8.365-9.824-10.892-3.907-2.225-13.644-5.81-8.075-5.513 5.566.298 34.453 4.508 45.372 11.573 6.722 4.348 7.325 8.811 7.325 8.811s8.29-3.416 17.535.359c9.25 3.78 11.366 8.668 13.205 12.022 0 0-.975-9.781-9.33-16.1 0 0 2.068-.011 5.337-.276l.157-.013 1.098-.098.295-.027.412-.04h-.003c2.533-.255 5.55-.649 8.811-1.271 2.235-.175 3.299-.064 3.83 1.462l.008.024-.125.441c-.058.175-.125.361-.205.558 0 0-3.447 10.324-9.861 14.975l-.425.364s-9.952-2.251-19.148-.691c-9.202 1.566-10.935 6.132-10.935 6.132s11.18 4.099 12.551 12.721c1.372 8.625-3.921 15.289-6.858 17.25 0 0 12.54-4.904 11.953-17.054-.194-3.947-2.118-6.69-4.633-8.599l.005.003s3.61 1.122 5.619 3.014c.917.867 1.927 1.768 2.831 2.916 1.053 1.377 1.401 2.254 1.403 2.254.433.917.781 1.975.999 3.219.776 4.442-.585 8.777-.585 8.777-5.903 23.991-29.121 54.476-29.121 54.476l.011-.011c17.553-14.975 29.254-41.47 34.376-54.819 27.675.3 42.799 8.006 42.799 8.006l-1.029-1.042z" fill="#0099d8"/></g></svg>