<svg xmlns="http://www.w3.org/2000/svg" width="250" height="178" viewBox="0 0 250 178"><path d="M5.593 121.491l30.954 53.172 142.964-.013c46.131 0 66.083-24.077 66.083-49.912 0-17.101-12.147-30.979-24.498-37.256-1.273-.662-1.107-1.808-.203-2.483 10.822-8.009 18.092-18.271 18.092-34.124 0-18.762-13.42-45.1-65.892-45.1h-135.241l-30.642 53.364h22.505c2.502 0 4.539 2.037 4.539 4.54v53.28c0 2.495-2.037 4.532-4.539 4.532h-24.122" fill="#fff"/><path d="M141.007 78.436h-22.238v-21.392c.025-2.247 1.84-4.042 4.081-4.042h18.157c10.632 0 14.592 5.424 14.592 12.503 0 7.506-3.96 12.931-14.592 12.931m0 49.192h-18.157c-2.254 0-4.081-1.819-4.081-4.074v-21.366h22.238c10.632 0 14.592 5.234 14.592 12.53 0 7.512-3.96 12.91-14.592 12.91zm63.395-38.949c-1.629-.395-1.362-2.381-.165-2.833 14.668-5.558 23.224-15.438 23.224-32.844.205-23.352-20.435-39.402-53.999-39.402h-127.188l-22.307 39.427h15.362c3.023 0 5.475 2.451 5.475 5.475v63.625c0 3.031-2.452 5.487-5.475 5.487h-15.19l22.474 39.23 132.898-.025c37.942 0 53.578-25.211 53.578-43.763 0-16.309-12.019-30.391-28.687-34.377z" fill="#F04E23"/><path d="M89.547 155.704c-23.581-44.323-29.776-95.298-21.003-142.104h-22.27l-22.307 39.427h15.362c3.023 0 5.475 2.451 5.475 5.475v48.817c11.446 18.577 28.031 36.378 44.743 48.385m111.227-137.724c-26.994 40.025-41.623 91.058-35.066 137.533 8.047-39.116 29.03-75.213 61.703-101.353.024-.388.05-.771.05-1.159.141-16.1-9.625-28.724-26.687-35.021zm-45.265-4.38c-4.215 11.078-8.671 24.46-12.414 39.478-.662-.051-1.363-.076-2.088-.076h-18.157c-2.241 0-4.056 1.795-4.081 4.042v21.391h19.08c-1.248 7.672-2.292 15.617-2.953 23.752h-16.127v21.366c0 2.255 1.827 4.074 4.081 4.074h11.129c.178 12.81 1.323 25.938 3.717 39.192h-16.578c-13.076-31.577-31.087-85.017-13.185-153.22h47.576z"/></svg>