<svg xmlns="http://www.w3.org/2000/svg" version="1" width="800" height="620"><defs><clipPath><path d="M34 936h76.565v36h-76.565v-36z"/></clipPath><clipPath><path d="M313.181 212h262.319v695.179h-262.319v-695.179z"/></clipPath></defs><path d="M95.087 466.245c-2.694 15.32.875 31.848 7.458 44.056 3.926 7.281 6.789 13.709 6.938 20.987.85 41.433 89.866 8.462 95.57-5.377" fill="#fff" fill-rule="evenodd" stroke="#000" stroke-width="1.943"/><path d="M557.793 170.639c4.433 8.417-38.159 2.455-47.775 3.057-4.767.299-15.568 1.409-8.704 18.094 5.683 13.814 6.313 20.474 10.569 29.892 11.526 25.506 2.458 35.993-13.867 37.614-85.271 8.432-119.603 66.463-84.305 160.812 71.925 191.748-150.076 156.87-195.65 115.517-17.624-15.991-38.78-24.193-63.135-15.263-18.179 6.666-26.808 2.839-33.649-8.326-261.808-427.274 291.828-616.098 436.516-341.396z" fill="#de6108" fill-rule="evenodd" stroke="#000" stroke-width="3.885"/><path d="M510.488 173.788l25.407.403c-43.455-82.74-133.067-138.379-256.95-125.894 103.663-1.067 186.75 46.757 231.543 125.492z" fill="#312821" fill-rule="evenodd" stroke-width=".1"/><path d="M564.456 177.028c2.698-1.472 23.058-9.812 23.058-9.812l26.737 49.549c17.586 32.591-23.03 36.364-29.435 18.152l-20.359-57.889z" fill="#7f8180" fill-rule="evenodd" stroke="#000" stroke-width="1.943"/><path d="M418.668 527.307c59.103 6.249 148.485-8.329 111.938-147.667-7.833-29.938-12.867-85.215 30.907-100.08 22.627-7.684 32.643-17.044 21.586-49.059l-18.499-53.558-52.636-3.35c-10.469-.666-14.225 6.235-10.793 15.699l16.189 44.643c5.405 14.905-4.885 24.715-16.189 26.001-102.562 11.665-114.882 80.63-86.918 158.95 15.332 42.808 20.121 77.851 4.415 108.42z" fill-rule="evenodd" stroke="#000" stroke-width="1.943"/><path d="M531.101 171.729l25.223.035c-38.906-81.701-145.788-147.639-275.148-123.688 114.115-10.925 213.451 40.759 249.925 123.653z" fill="#fff" fill-rule="evenodd" stroke-width=".1"/><path d="M561.513 279.561c22.627-7.684 32.643-17.044 21.586-49.059l-18.499-53.558-52.636-3.35c-10.469-.666-14.225 6.235-10.793 15.699l16.189 44.643c5.405 14.905-4.885 24.715-16.189 26.001-8.668.986-16.692 2.381-24.102 4.157 17.336 9.741 116.677-8.122 84.444 15.467z" fill="#fff" fill-rule="evenodd" stroke="#000" stroke-width="1.943"/><path d="M561.513 279.561c22.627-7.684 32.643-17.044 21.586-49.059l-18.499-53.558-46.072-2.932c-10.469-.666-14.225 6.235-10.793 15.699l16.189 44.643c5.405 14.905-4.538 29.225-15.842 30.511-8.668.986-23.951 1.27-31.013-.771 17.336 9.741 116.677-8.122 84.444 15.467z" fill="#fff" fill-rule="evenodd" stroke="#000" stroke-width="1.943"/><path d="M450.136 277.186c-68.939 38.54-48.667 105.014-21.161 174.489-22.655-77.521-37.641-133.374 21.161-174.489z" fill="#d6d6d6" fill-rule="evenodd" stroke-width=".1"/><path d="M242.124 504.985c1.105 6.767-3.323 12.254-9.886 12.254-6.564 0-12.776-5.488-13.873-12.254-1.105-6.767 3.323-12.254 9.886-12.254 6.564 0 12.776 5.488 13.873 12.254z" fill="#fff" stroke="#000" stroke-width="2.468"/><path d="M563.051 217.866c2.154-1.866 36.332.838 39.72 2.081 9.884 3.626 8.726 17.799-1.041 15.61-13.179-2.954-25.463-2.95-38.506-3.816l-.173-13.876z" fill="#7f8180" fill-rule="evenodd" stroke="#000" stroke-width="1.943"/><path d="M432.098 459.654c.619 19.532 1.583 38.977-7.979 61.054 60.455 8.374 142.086-30.904 94.009-147.778-13.815-33.584-62.181-29.419-55.504 19.079 5.591 40.61-13.477 55.572-30.527 67.645z" fill="#fff" fill-rule="evenodd" stroke-width=".1"/><path d="M250.733 384.807c-16.557.085-29.629 13.031-29.746 30.293-.125 18.412 14.48 34.828 32.6 36.606 3.805.373 7.459.028 10.867-.85l22.097-32.175c-1.322-17.292-15.321-32.008-32.478-33.692-1.132-.111-2.235-.188-3.339-.182z" stroke-width="2" stroke-miterlimit="1.8"/><path d="M182.78 506.212c20.226 8.206 43.356 25.591 63.246 33.462 130.658 51.707 206.235-31.881 154.575-125.692 38.993 127.527-58.414 159.751-154.598 121.853-21.904-8.63-38.531-23.551-63.222-29.623z" fill-rule="evenodd" stroke-width=".1"/><path d="M210.988 468.436c25.537 36.299 77.495 35.69 97.627 8.831-31.337 21.254-65.467 18.609-97.627-8.831z" fill-rule="evenodd" stroke-width=".1"/><path d="M163.252 523.83c9.855-1.521 17.423-1.124 27.752 2.428 1.546.532 4.008 1.558-2.775 4.857-16.926 8.23-34.17 14.467-50.647 13.182-3.066-.239-5.75-3.688.347-6.244 7.249-3.039 10.823-7.706 10.06-15.263l12.141-3.816c-.82 2.109-1.958 5.64 3.122 4.857z" fill-rule="evenodd" stroke-width=".1"/><path d="M108.442 503.71c4.716 4.927 7.942 9.355 8.326 17.692.998 21.676 28.956 9.943 27.578 1.908" fill="none" fill-rule="evenodd" stroke="#000" stroke-width="1.943"/><path d="M536.248 292.07c3.63-4.309-1.261-5.816-3.679-3.434-23.291 22.932-19.44 47.05-13.736 66.475 2.159 7.354 4.446 4.515 3.434-.491-5.223-25.847 2.049-48.386 13.982-62.55z" fill="#fff" fill-rule="evenodd" stroke-width=".1"/><path d="M557.793 170.639c4.433 8.417-38.159 2.455-47.775 3.057-4.767.299-15.568 1.409-8.704 18.094 5.683 13.814 6.313 20.474 10.569 29.892 11.526 25.506 2.458 35.993-13.867 37.614-85.271 8.432-119.603 66.463-84.305 160.812 71.925 191.748-150.076 156.87-195.65 115.517-17.624-15.991-38.78-24.193-63.135-15.263-18.179 6.666-26.808 2.839-33.649-8.326-261.808-427.274 291.828-616.098 436.516-341.396z" fill="none" fill-rule="evenodd" stroke="#000" stroke-width="3.885"/><path d="M528.015 317.252c27.585 42.426 58.393 69.927 168.766 54.289 11.541-1.635 19.317 1.612 22.895 12.141 17.087 50.28 26.855 94.63 30.18 146.044.845 12.982-15.432 17.684-17.692-.347-6.233-49.737-15.779-93.963-31.915-141.534-108.628 25.367-156.978-19.413-174.836-45.27.069-8.441.264-16.882 2.602-25.324z" fill="#7f8180" fill-rule="evenodd" stroke="#000" stroke-width="1.943"/><path d="M517.087 192.716c-2.761-8.142-3.25-15.223 4.163-18.559l13.876-6.244c5.69-2.56 13.792-4.911 16.998 2.428l19.773 45.27c4.427 10.136 7.221 30.508-12.315 30.007l-13.529-.347c-10.066-.258-12.21-3.145-15.437-12.662l-13.529-39.893z" fill="#7f8180" fill-rule="evenodd" stroke="#000" stroke-width="1.943"/><path d="M530.963 169.821c-7.155 3.22-9.954 9.213-6.938 18.906l13.876 37.638" fill="none" fill-rule="evenodd" stroke="#000" stroke-width="1.943"/><g fill="#7f8180" stroke="#000"><path d="M306.304 409.746c-5.542-3.533-6.013-8.725-2.775-13.876l13.399-19.819c3.468-5.129 6.647-4.389 12.141-1.041l44.403 27.058c20.721 12.627-6.281 55.08-26.017 41.975l-41.15-34.297z" fill-rule="evenodd" stroke-width="1.943"/><path d="M305.538 398.21l19.855 8.236-30.759 48.744c-8.351 13.234-26.35.019-18.642-11.774l29.547-45.206z" fill-rule="evenodd" stroke-width="1.943"/><path d="M306.489 416.877c-7.561-5.014-8.258-13.171-4.615-18.559l10.826-16.014c3.468-5.129.83-1.331 4.114-6.042l52.43 32.06c20.721 12.627-2.054 48.828-21.79 35.722l-40.966-27.166z" fill-rule="evenodd" stroke-width="1.943"/><path d="M306.489 416.877c-7.561-5.014-8.258-13.171-4.615-18.559l6.364-9.414 5.678-8.025c-.497 4.714 4.212 7.437 9.129 10.448l40.77 24.962c20.721 12.627 3.375 40.861-16.361 27.755l-40.966-27.166z" opacity=".97" fill-rule="evenodd" stroke-width="1.943"/><path d="M336.298 388.868c-4.269 4.269-21.023-6.412-18.363-11.02l56.174-84.552c20.387-31.192 45.642-46.064 75.06-54.946 28.127-8.492 56.326-12.299 84.381-17.661 12.121-2.317 17.252 12.507.981 16.189-30.541 6.912-61.451 12.827-90.268 23.058-25.543 9.068-43.564 27.172-59.852 52.983l-48.113 75.948z" fill-rule="evenodd" stroke-width="1.943"/><path d="M360.132 434.332c-1.777 3.821-6.83 5.319-11.577 3.33-4.947-2.072-7.698-7.15-6.141-11.334.621-1.668 1.833-2.944 3.38-3.743"/><path d="M363.496 430.68c-1.558 4.184-6.837 5.898-11.784 3.826-4.947-2.072-7.698-7.15-6.141-11.334 1.558-4.184 6.837-5.898 11.784-3.826 4.947 2.072 7.698 7.15 6.141 11.334z"/><path d="M345.001 423.124c-1.657 4.418-7.273 6.67-12.536 4.482-5.263-2.188-7.754-7.411-6.532-11.969.663-2.474 4.457-6.497 4.745-6.497"/><path d="M347.716 419.778c-1.657 4.418-7.273 6.228-12.536 4.04-5.263-2.188-8.189-7.55-6.532-11.969 1.657-4.418 7.273-6.228 12.536-4.04 5.263 2.188 8.189 7.55 6.532 11.969z"/><path d="M337.847 407.184l.804 17.321" fill-rule="evenodd" stroke-width="1.5"/></g><path d="M393.592 271.288l101.294 222.014c52.17 114.345 191.416 66.568 232.421 55.504 25.467-6.871 28.166-21.539-4.51-28.446-40.999-8.666-73.565-30.362-89.153-68.339l-70.767-172.408c-2.067-5.036-20.555 1.794-17.345 9.366l68.686 162.001c17.566 41.431 48.399 77.251 83.949 80.48 8.901.808 36.929-2.576-20.467 9.019-67.735 13.684-135.638 10.007-163.389-50.3l-106.151-230.687c-1.997-4.339-17.739 4.848-14.57 11.794z" fill="#7f8180" fill-rule="evenodd" stroke="#000" stroke-width="1.943"/><path d="M342.22 344.318l44.153 44.153c23.905 23.905 58.648 39.175 127.062 31.398 80.257-9.124 137.886-20.191 186.423-28.945 8.148-1.469 9.96-20.521-5.887-17.661-61.173 11.04-122.555 21.098-184.461 27.473-62.16 6.376-92.04-4.481-110.382-24.039l-44.398-47.342c-3.768-4.018-18.23 9.243-12.51 14.963z" fill="#7f8180" fill-rule="evenodd" stroke="#000" stroke-width="1.943"/><path d="M627.746 437.828c30.07 2.238 52.081-1.515 79.471-6.186 25.8-4.399 26.142 20.8 10.302 24.039-58.728 12.01-115.646 24.372-179.064 30.416-20.674 1.97-40.979 6.292-61.323 2.944l-185.564-30.539c2.434-1.785 7.245-9.682 11.897-17.171l168.271 29.067c21.804 3.766 43.872.704 66.72-2.453 60.563-8.368 118.225-17.196 173.177-30.416-27.368 6.395-53.101 12.818-78.508 14.667m-18.211.478c-6.999-.167-13.997-.77-21.022-1.899l-54.767-8.801-.52-17.661 62.646 10.273c2.286.375 4.523.726 6.715 1.044" fill="#7f8180" fill-rule="evenodd" stroke="#000" stroke-width="1.943"/><path d="M679.219 561.257c3.245 3.162 16.005 1.811 16.174-4.125 2.071-72.67-14.76-128.321-38.506-176.571-2.31-4.694-14.48-2.838-15.871 2.182s-.063 1.096 6.425 17.277c6.488 16.181 11.814 32.256 16.109 47.904 4.296 15.648-1.804-9.466 4.469 17.685 6.273 27.15 9.481 52.875 10.299 74.764" fill="#7f8180" stroke="#000" stroke-width="1.943" stroke-linecap="round"/><rect width="19.356" height="6.092" ry=".063" x="555.143" y="230.854" stroke-width=".1"/><path d="M544.007 176.584c-.376.005-.736.071-1.093.182-2.901.907-3.895 5.166-2.185 9.47 1.709 4.304 5.476 7.039 8.378 6.131 2.901-.907 3.895-5.166 2.185-9.47l-.121-.182c-1.536-3.68-4.528-6.168-7.163-6.131zm-.486 1.336c1.886-.028 4 1.856 5.099 4.735l.061.182c1.223 3.367.559 6.696-1.518 7.406-2.076.71-4.787-1.489-6.01-4.857-1.223-3.367-.498-6.636 1.578-7.346.255-.087.52-.117.789-.121z" stroke-width=".1"/><path d="M550.381 191.761c-.376.005-.736.071-1.093.182-2.901.907-3.895 5.166-2.185 9.47 1.709 4.304 5.476 7.039 8.378 6.131 2.901-.907 3.895-5.166 2.185-9.47l-.121-.182c-1.536-3.68-4.528-6.168-7.163-6.131zm-.486 1.639c1.886-.028 4.061 1.856 5.16 4.735l.061.182c1.223 3.367.498 6.696-1.578 7.406s-4.726-1.489-5.949-4.857c-1.223-3.367-.559-6.636 1.518-7.346.255-.087.52-.117.789-.121z" stroke-width=".1"/><path d="M573.042 173.348l18.397 44.153" fill="none" fill-rule="evenodd" stroke="#000" stroke-width="1.943"/><path d="M236.451 505.966c.703 4.369-2.113 7.912-6.288 7.912-4.175 0-8.127-3.543-8.824-7.912-.703-4.369 2.113-7.912 6.288-7.912 4.175 0 8.127 3.543 8.824 7.912z" fill="#fff" stroke="#000" stroke-width="1.943"/><path d="M232.85 510.504c.703 4.369-2.113 7.912-6.288 7.912-4.175 0-8.127-3.543-8.824-7.912-.703-4.369 2.113-7.912 6.288-7.912 4.175 0 8.127 3.543 8.824 7.912z" fill="#fff" stroke="#000" stroke-width="1.943"/><path d="M363.316 487.201c0 7.654-6.205 13.859-13.859 13.859s-13.859-6.205-13.859-13.859 6.205-13.859 13.859-13.859 13.859 6.205 13.859 13.859z" fill="#fff" stroke="#000" stroke-width="1.943"/><path d="M360.794 489.9c0 6.262-5.076 11.338-11.338 11.338s-11.338-5.076-11.338-11.338 5.076-11.338 11.338-11.338 11.338 5.076 11.338 11.338z" fill="none" stroke="#000" stroke-width="1.943"/><path d="M358.083 492.611c0 4.764-3.862 8.626-8.626 8.626-4.764 0-8.626-3.862-8.626-8.626 0-4.764 3.862-8.626 8.626-8.626 4.764 0 8.626 3.862 8.626 8.626z" fill="none" stroke="#000" stroke-width="1.943"/><path d="M540.503 166.179c-10.262 2.696-8.29 10.372-4.336 19.947l15.784 34.516c4.857 10.62 5.232 18.333-3.989 24.63" fill="none" fill-rule="evenodd" stroke="#000" stroke-width="1.943"/><path d="M633.645 452.022l-13.062-31.822m-17.708 4.026l11.344 26.755c.729 1.719 1.48 3.428 2.254 5.125" fill="#f0f" fill-rule="evenodd" stroke="#000" stroke-width="1.943"/><path d="M661.96 449.426l4.875-1.012 2.496 16.164-3.355.608-4.017-15.76z" fill="#7f8180" fill-rule="evenodd"/><path d="M639.282 383.77l3.989-.629 5.442 16.022-3.079.499-6.938-14.721.585-1.171z" fill="#7f8180" fill-rule="evenodd"/><path d="M357.19 490.678c0 3.778-3.501 6.841-7.82 6.841-4.319 0-7.82-3.063-7.82-6.841s3.501-6.841 7.82-6.841c4.319 0 7.82 3.063 7.82 6.841z" stroke-width="1.607"/><path d="M220.837 504.057c-3.328 5.196 9.094 11.969 11.274 9.019.633-5.727-3.79-11.954-11.274-9.019z" fill-rule="evenodd"/><path d="M299.843 447.512v12.141l-7.718-1.214 7.718-10.927z" fill-rule="evenodd"/><path d="M473.943 421.831c-4.501 2.082-7.47 5.237-7.359 10.548l-4.661-11.284 12.019.736z" fill-rule="evenodd"/><path d="M507.153 490.05c-4.501 2.082-8.424 6.19-8.313 11.502l-4.661-11.284 12.973-.218z" fill-rule="evenodd"/></svg>