<svg xmlns="http://www.w3.org/2000/svg" version="1" width="300" height="197"><path d="M299.942 98.761a150.493 98.761 0 1 1-.903-10.803" fill="#f2c800" stroke-width="2.8" stroke-linecap="round" stroke-linejoin="round"/><path d="M287.281 62.765a147.358 93.275 0 1 1-.252-.396" transform="matrix(.986 0 0 1.017 1.089 -.07)" fill="#313f36" stroke-width="2.8" stroke-linecap="round" stroke-linejoin="round"/><path d="M21.424 98.239c-.072-43.251 63.723-80.866 133.249-79.427 72.028-.162 107.888 39.027 116.005 54.345h-57.48c-12.701-21.137-29.48-30.013-66.363-29.785-51.452 2.778-74.799 32.057-73.679 54.345.339 12.709 5.21 47.63 71.066 48.597 29.143-1.097 63.968-2.602 70.729-30.505l-87.973.197v-22.47l149.971 1.045c1.76 40.976-39.751 83.651-132.543 85.059-78.747-.554-124.364-46.603-122.982-81.402z" fill="#fff" fill-rule="evenodd"/></svg>