<svg xmlns="http://www.w3.org/2000/svg" width="149.838" height="200" viewBox="0 0 149.838 200" overflow="visible"><path d="M139.71 112.463c.389-2.1 1.555-4.432.544-6.686 1.115-.615 2.367-1.249 3.574-1.865.09-1.412-.396-5.566-5.05-8.545 0 0 2.062-.715 1.087-4.896-5.672.466-4.196-5.905-5.75-9.091 4.774-2.727 5.947-8.278 4.507-11.811-1.428 2.515-3.342 4.662-5.983 5.051-13-33.705-46.146-42.168-65.818-41.088 0 0-.614 4.881-1.702 6.824-14.294-3.73-13.906-19.346-20.665-29.136-1.597-2.225-5.871-7.644-10.751-8.547-.954-.134-1.293.543-1.216.932 10.101 6.839 11.152 18.425 12.121 29.603.817 9.41 6.737 14.749 12.877 19.34-.338.318-.861 1.342-1.145 1.949-7.925 2.254-17.47.946-24.073-3.483-13.365-8.761-10.065-25.451-13.766-38.628-1.095-3.426-2.846-8.108-6.357-9.939-1.108-.607-2.168.042-1.645.77 2.563 3.652 4.429 7.693 4.66 12.277.078 11.817-2.806 24.355 1.741 35.451 6.754 15.055 19.228 25.92 34.39 29.116-.492 5.327.028 9.906.932 14.918-16.274 8.812-28.884 18.053-49.769 50.361-.642 1.307-.021 2.548 1.732.918 20.476-19.027 54.234-28.45 75.428 3.242 10.191 16.069 9.304 27.382 8.661 37.939-.006 3.667-2.229 8.774 1.081 10.183 3.547 1.528 7.085-7.456 7.092-8.706.774-.78 1.148-2.38 1.202-3.547.739-.556 1.127-3.113.957-4.489 2.132-2.521 4.022-8.826 1.665-12.498.794-2.117.887-7.605-.429-10.557.732-3.212 1.483-10.491-1.156-13.82 3.821-4.306 8.808-7.812 13.804-9.938 1.241 9.399 3.1 21.383-5.138 27.831-.549.368-.458 1.002.553.724 13.249-4.438 16.057-29.665 16.974-32.808 4.407-2.294 16.961-5.685 20.724-7.064 3.942-1.498 1.214-6.815-.325-8.7-.771-.98-2.996-1.462-5.568-1.587zm-2.048-21.037l.186 1.454c-2.72.665-6.781 3.312-7.665 1.526-.783-1.574 2.77-1.837 3.392-2.613.338-.438.042-1.166-.778-1.321-1.942.028-3.018.07-3.807.304-1.652 1.377-1.525 4.768-.792 5.869-3.584 1.635-7.132 5.247-9.154 7.423-.93-4.661 2.487-8 5.907-10.411.777-.742.311-5.438-.311-7.848-.643-.275-1.738.008-1.831-.543-.009-.527 4.265-.627 6.043-.704-.462-2.947 3.077-3.442 4.151-1.74 1.318 2.874.387 8.137 4.659 8.604zm-.204-17.737c-.233 2.253-1.71 4.273-3.729 5.438-5.673 2.486-13.209-1.166-18.415 2.409.076-1.942 1.072-4.648 4.021-4.849 7.447-.312 12.752 2.115 18.123-2.998zm-7.847.932c-10.18-.544-21.325 1.003-30.57 3.8-1.399 14.307-18.282 19.677-28.17 8.71 0 0-3.745.826-15.073 5.982-1.399-1.865-2.584-6.427-.425-7.445 2.936-1.592 5.171-2.919 8.217-3.637 2.547-.582 6.63.717 8.618 1.265 11.234 6.762 22.7 6.932 25.574-13.089 0 0 14.517-3.581 28.29-2.657 0 0 2.147 2.968 3.539 7.071zm-75.135 8.625v-2.487l4.274.622c-1.321.395-2.798 1.137-4.274 1.865zm14.218-47.785c43.413 1.109 55.943 29.836 55.943 29.836-8.322-.699-19.015.84-27.427 2.641-4.492-11.405-11.293-16.09-37.295-13.83 3.567-6.504 7.883-10.778 8.779-18.647zm-18.103 6.915c-2.213-4.14-3.717-9.361-4.293-14.49.034-.196.162-.21.249-.135.515 2.776.988 5.037 2.179 7.012.23.228.636.137.544-.277-.898-2.57-1.833-5.573-2.3-8.914.107-.145.214-.333.32-.06.82 2.104 2.105 5.71 3.067 6.763.139.183.622.138.577-.23-.386-1.123-1.231-3.315-1.503-4.415-.158-.365.149-.227.269-.126 2.394 6.583 6.019 10.054 10.603 12.853 1.653 1.129 1.098 5.743-2.642 6.524-3.185.546-5.594-2.096-7.07-4.505zm4.613 30.408c-.919-1.179-5.01 2.027-5.544 1.449-.331-.266 1.843-1.094 1.32-1.476-1.399-.933-3.781.932-4.118.544-.24-.373.883-.544.544-1.088-.987-1.005-4.515.972-4.818.389-.217-.422 2.587-.939 2.021-1.71-.925-.894-3.807 1.02-8.009-.893-15.609-8.214-19.746-24.601-20.223-31.42.046-.23.059-.292.198-.108 1.229 5.982 3.591 14.27 8.998 18.436.276.183.572-.206.389-.389-5.75-4.524-7.925-14.735-8.211-23.542-.02-.337.089-.368.208-.078.389 6.678 2.254 14.685 7.614 19.734.23.185.619-.112.389-.388-5.191-6.223-6.694-14.124-6.666-21.745.048-.305.248-.202.231-.106.311 9.091 4.415 16.801 11.874 22.628 13.906 10.457 37.125-.596 50.319 3.852 19.701 5.784 13.548 23.119 7.644 26.14-1.346-1.407-2.246.539-2.796.233-.596-.377.682-.965-.096-1.432-.734-.306-1.64.805-2.314.5-.389-.173.679-.944.144-1.289-1.167-.776-2.575 1.662-3.173 1.289-.472-.311 1.998-1.517 1.014-2.342-1.286-.967-3.025 1.612-3.579 1.175-.852-.609 3.555-2.553 1.865-3.341-.93-.472-3.87 2.595-4.506 2.021-.5-.459 3.603-2.149 2.437-2.985-.969-.541-5.969 3.015-6.709 2.442-.552-.429 4.421-2.844 3.257-3.764-1.447-.984-6.232 4.101-7.143 3.22-.692-.57 4.08-2.448 2.92-3.607-1.112-1.08-5.959 3.776-7.271 2.83-.61-.402 4.882-2.582 3.423-3.68-1.434-.826-7.174 3.866-7.696 3.137-.456-.604 4.842-2.567 4.117-3.497-1.469-1.408-6.786 3.238-7.458 2.564-.639-.629 4.184-2.246 3.301-2.931-1.469-1.041-6.386 2.795-6.875 2-.455-.719 4.087-1.318 2.978-2.772zm-36.005 59.746c-4.172 2.82-7.434 5.189-11.497 9.223-.368.275-.543-.185-.176-.646 24.728-36.906 54.212-48.74 61.384-50.565 1.402-.274 1.264.502.702.863-13.54 5.219-36.045 18.639-45.671 34.887-1.465 2.47-2.64 4.812-4.742 6.238zm18.643-5.598c-5.181 1.486-9.521 2.623-14.025 4.229-.405.173-1.08.087-.83-.439 10.588-19.116 30.069-30.587 48.795-38.745.551-.277.953.36.495.544-13.874 6.746-23.907 20.199-32.253 32.826-.209.317-1.425 1.363-2.182 1.585zm5.001-.458c-.734-.278-.671-1.047-.488-1.504 8.936-10.952 15.915-24.87 29.512-30.464 1.074-.304 2.498-1.072 3.641-.608 2.644 1.1 7.11 2.769 12.661 1.286 10.989-3.412 12.383-14.036 12.383-14.036 2.72-.699 5.44-1.552 8.392-1.864-3.185 18.414-28.827 26.029-29.836 45.298-7.613 1.495-17.108-4.465-18.556-13.365-1.909 3.78-4.428 8.257-8.873 12.121-2.536 2.005-6.259 3.955-8.836 3.136zm49.861 22.971c-1.666-1.358-3.185-2.955-5.207-3.574-.233-7.15 4.684-15.264 6.316-17.758.628-.99 1.285-.341 1.645.963 3.581 10.889-1.871 15.444-2.754 20.369zm4.662-4.118c1.765 1.109.847 10.069-1.087 14.684-1.364-1.962-2.991-3.61-3.858-4.501 1.195-2.937 4.12-10.551 4.945-10.183zm-2.952-35.663c-.284.134-1.083-.918-1.506-.7-.489.296 1.272 2.799 1.272 2.799.063 14.858-7.826 17.968-7.77 27.036-1.591-1.256-3.667-3.071-5.688-3.849-3.58-14.029 13.716-32.595 14.687-31.784.417.444-.642 6.187-.995 6.498zm-43.569 16.556c4.118-2.563 7.213-7.019 8.836-10.342l1.626 3.583c-2.099 2.572-5.171 6.101-8.261 7.24-1.123.197-2.93.231-2.201-.481zm20.372 9.845c-4.818-4.115-9.981-6.747-15.809-8.455 2.253-1.639 5.283-4.423 7.07-6.759.296.275.728.753.961.99-.233 5.904 2.755 10.5 7.96 13.222.828.365.277 1.462-.182 1.002zm-5.708-12.42c4.146 2.793 8.546 4.046 13.208 3.735v6.756c-12.965-1.525-13.208-10.491-13.208-10.491zm13.415 20.148c-1.377-.826-6.887-5.984-4.869-7.635 2.162-2.24 11.734 4.118 11.734 4.118-.078 1.555-.466 3.029-.311 4.662 0 0-5.087-.134-6.554-1.145zm4.067 7.126c-.7-1.319-2.077-2.916-1.293-3.933 1.274-1.151 7.092.832 10.073 4.091-.317 1.459-.733 2.485-1.087 3.962-2.954-.468-6.139-1.012-7.693-4.12zm5.05 10.025c-.613-1.11-1.531-3.61-.544-4.429 1.217-.67 6.343 1.821 8.054 4.928.275.736-1.13 3.392-1.681 3.484-.516.261-4.959-1.961-5.829-3.983zm8.003 10.647c0 1.085-.897 2.503-1.334 2.456-.544.158-4.74-2.276-5.051-4.692-.233-1.241-.374-3.502.248-3.748 1.157-.326 5.205 3.418 6.137 5.984zm-6.293 24.628c-1.286-.742-.529-3.625.389-5.207.776.544 1.412 1.468 2.138 2.231-.28.736-1.263 3.484-2.527 2.976zm3.27-4.486c-1.087-1.146-1.482-2.121-2.88-2.973-.461-.458-.057-1.57.31-1.475 1.099.512 2.759 2.285 3.183 3.852.107.389-.214.868-.613.596zm1.181-2.796c-1.024-1.328-2.401-2.712-3.688-3.801-.601-.353.057-1.462.721-1.304 1.562.542 2.817 2.715 3.517 4.426.093.55-.368.861-.55.679zm1.045-2.982c-.531-1.292-3.258-4.008-4.775-5.347-.827-.643.592-2.019 1.144-1.562 2.33 1.789 5.135 5.698 3.631 6.909zm.911-3.221c-1.087-2.563-2.988-4.928-5.317-6.483-.827-.458-.736-2.438 0-2.252 2.718.93 5.452 4.265 6.072 6.983.276 1.007-.296 2.578-.755 1.752zm3.165-12.052c.896.658.204 5.491-1.413 7.665l-2.021-2.793c1.088-1.714 2.805-5.261 3.434-4.872zm-2.346-.413c-.368-1.618-1.349-2.491-1.821-3.986.366-.547 2.98-6.224 3.53-6.042.953.485-.034 7.348-1.709 10.028zm1.554-28.674c1.476-6.137-.932-11.577-3.185-16.625.806-3.984.974-7.309 1.476-11.302.297-.849 1.349-1.017 1.709-.434 1.081 8.891 4.727 12.01 12.666 11.58l.542 5.981c-5.048 2.1-9.322 6.451-13.208 10.8zm12.777-19.535c-7.343 2.201-11.556-2.3-10.913-12.396-.876-1.406-3.263 1.785-3.574.774-.07-10.632 4.584-11.153 6.351-13.715 1.723.227 3.644.867 4.568 2.118 2.847 4.443 2.136 9.812 3.843 14.785.417.888 1.244 0 1.244 0-1.866-6.839.155-16.551-8.159-19.425 3.341-4.584 4.647-9.578 6.047-14.94.542-.621 1.723-.755 2.345-.522-.233 2.097-1.087 3.962-.778 6.371.184 1.434 2.917-1.731 4.507-2.487 2.232-1.151 5.848-.868 8.957-.401.642.091.55.727-.093.818-3.029.311-7.683.912-7.931 2.226-.015.975 3.495 1.942 5.594 2.02.303 1.124.614 2.551.431 3.872-3.887 1.865-8.821 6.791-6.047 14.912-3.03 4.58-5.028 10.349-6.392 15.99zm13.33 2.521c-3.357 10.174-4.878 23.698-9.193 29.574-.082.114-.315.108-.218-.134 5.096-10.159 4.163-19.275 7.158-29.051.161-.368-.25-.85-.573-.299-3.406 4.489-3.997 22.319-6.867 27.816-.097.209-.416.254-.311-.167 3.413-12.902.727-25.304 6.041-35.197.204-.356-.407-.918-.933-.311-2.33 4.196-5.056 12.788-4.3 22.98.043.562-.417.649-.495.021-1.476-11.891-2.648-23.764 5.729-34.035 3.529-4.325 8.816-8.333 12.347-9.253 8.326-1.758 9.486 6.068 9.486 6.068-9.791 2.797-15.03 13.375-17.871 21.988zm2.748.84c-.495-.296-.446-1.301.027-1.478 2.889-.795 11.104-2.677 11.521-1.773.154.251-10.947 3.568-11.548 3.251zm17.92-5.114c-6.14-.311-12.041.326-17.328 1.475 1.005-6.038 9.047-15.197 10.646-14.313 1.518.84-1.773 5.126.085 6.427 1.413.823 3.06.275 4.238.712 2.604 1.192 3.226 5.439 2.359 5.699z"/><path fill="#3C1E5E" d="M97.782 70.207c-2.874 20.021-14.34 19.851-25.574 13.089-1.988-.547-6.071-1.846-8.618-1.265-3.046.717-5.281 2.044-8.217 3.637-2.16 1.019-.974 5.581.425 7.445 11.328-5.156 15.073-5.982 15.073-5.982 9.889 10.967 26.771 5.596 28.17-8.71 9.246-2.797 20.39-4.344 30.57-3.8-1.392-4.104-3.539-7.071-3.539-7.071-13.774-.924-28.29 2.657-28.29 2.657z"/><g fill="#fff"><path d="M146.984 112.657c-.823-1.047-2.318-1.752-4.522-2.126.275-1.101.497-2.327.353-3.62.64-.333 2.013-1.033 2.013-1.033.695-.353 1.151-1.047 1.201-1.823.16-2.512-.891-6.166-4.146-9.083.46-1.129.658-2.738.13-5-.247-1.064-1.237-1.786-2.325-1.696-1.61.131-1.975-.156-2.536-3.772-.117-.743-.236-1.499-.413-2.234 4.514-3.526 5.572-8.951 3.925-13.531-.708-1.967-3.172-1.54-3.955-.255-.947 1.55-1.842 2.691-2.826 3.337-6.095-14.447-16.658-25.747-30.663-32.758-11.133-5.576-24.443-8.392-36.516-7.73-1.063.058-1.933.869-2.066 1.925-.154 1.223-.47 2.989-.841 4.357-7.044-2.728-9.542-9.33-12.17-16.293-1.471-3.895-2.991-7.923-5.36-11.354-2.242-3.126-6.77-8.463-12.162-9.461-4.315-.367-4.412 4.004-2.852 4.922 9.282 6.281 10.237 17.308 11.162 27.97.811 9.354 6.201 14.982 11.739 19.368-7.011 1.499-15.12.132-20.66-3.584l-.016-.009-.002-.001c-8.542-5.6-9.811-14.653-10.725-24.694-.593-6.521-2.143-12.74-2.151-12.765-1.391-4.352-3.36-9.085-7.42-11.212-1.54-.832-3.318-.613-4.334.533-.867.979-.932 2.379-.137 3.467 4.313 5.898 4.581 11.175 4.207 17.01-1.829 15.961-.957 24.062 2.942 32.704 9.099 17.529 22.836 25.043 33.104 27.559-.226 4.456.217 8.399.82 12.024-14.722 8.089-27.993 17.568-49.18 50.343-1.744 2.297.401 7.495 5.082 3.727 12.952-12.031 28.991-18.243 42.906-16.619 11.63 1.361 21.448 7.904 29.177 19.451 9.618 15.178 9.146 27.284 7.961 39.779-.302 3.188-1.178 7.491 2.764 9.172 1.396.598 2.949.421 4.363-.502 2.881-1.887 5.066-6.885 5.644-9.265.852-1.193 1.169-2.707 1.289-3.676.851-1.36 1.047-3.364 1.05-4.621 2.27-3.26 3.786-9.229 1.797-13.464.658-2.811.589-7.417-.502-10.5.407-2.153 1.415-8.825-.706-13.326 2.673-2.751 5.868-5.138 9.272-6.938.684 8.392 2.262 16.808-4.704 22.804-1.745 1.375-1.614 5.652 2.609 4.552 12.827-4.148 16.915-25.648 18.186-33.373 3.152-1.409 18.285-6.053 19.568-6.522 2.168-.826 2.981-2.36 3.287-3.5.862-3.218-1.363-7.076-2.661-8.664zm-1.382 10.093c-3.762 1.379-16.317 4.77-20.724 7.064-.917 3.143-3.725 28.369-16.974 32.808-1.011.278-1.102-.356-.553-.724 8.238-6.448 6.379-18.431 5.138-27.831-4.996 2.126-9.983 5.631-13.804 9.938 2.64 3.329 1.889 10.608 1.156 13.82 1.316 2.952 1.223 8.44.429 10.557 2.358 3.672.468 9.977-1.665 12.498.17 1.375-.218 3.933-.957 4.489-.054 1.167-.428 2.767-1.202 3.547-.007 1.25-3.545 10.234-7.092 8.706-3.311-1.409-1.087-6.517-1.081-10.183.643-10.557 1.53-21.871-8.661-37.939-21.194-31.692-54.952-22.269-75.428-3.242-1.753 1.63-2.374.389-1.732-.918 20.885-32.308 33.495-41.549 49.769-50.361-.904-5.012-1.423-9.591-.932-14.918-15.163-3.196-27.636-14.062-34.39-29.116-4.547-11.096-1.664-23.634-1.741-35.451-.231-4.584-2.097-8.625-4.66-12.277-.523-.728.537-1.377 1.645-.77 3.511 1.831 5.262 6.514 6.357 9.939 3.7 13.177.4 29.868 13.766 38.628 6.603 4.429 16.148 5.737 24.073 3.483.283-.607.807-1.631 1.145-1.949-6.14-4.591-12.06-9.93-12.877-19.34-.969-11.178-2.021-22.764-12.121-29.603-.078-.389.262-1.066 1.216-.932 4.88.904 9.154 6.322 10.751 8.547 6.76 9.791 6.372 25.406 20.667 29.137 1.088-1.943 1.702-6.824 1.702-6.824 19.672-1.08 52.818 7.384 65.818 41.088 2.641-.389 4.555-2.536 5.983-5.051 1.44 3.533.268 9.084-4.507 11.811 1.553 3.186.078 9.557 5.75 9.091.975 4.181-1.087 4.896-1.087 4.896 4.653 2.979 5.14 7.133 5.05 8.545-1.207.616-2.458 1.25-3.574 1.865 1.011 2.253-.156 4.586-.544 6.686 2.572.125 4.797.607 5.567 1.588 1.538 1.883 4.266 7.2.324 8.698zM60.304 40.357c-4.584-2.799-8.209-6.27-10.603-12.853-.12-.1-.427-.238-.269.126.271 1.1 1.117 3.292 1.503 4.415.045.368-.438.413-.577.23-.961-1.053-2.247-4.659-3.067-6.763-.106-.273-.213-.085-.32.06.467 3.341 1.402 6.343 2.3 8.914.092.414-.314.505-.544.277-1.19-1.975-1.664-4.235-2.179-7.012-.087-.075-.215-.061-.249.135.576 5.128 2.08 10.35 4.293 14.49 1.476 2.409 3.885 5.051 7.071 4.505 3.739-.781 4.294-5.395 2.641-6.524zM59.098 73.554c.883.685-3.939 2.302-3.301 2.931.673.674 5.989-3.972 7.458-2.564.725.93-4.573 2.894-4.117 3.497.522.729 6.262-3.963 7.696-3.137 1.459 1.099-4.034 3.278-3.423 3.68 1.312.946 6.159-3.91 7.271-2.83 1.16 1.159-3.612 3.037-2.92 3.607.911.88 5.696-4.205 7.143-3.22 1.164.92-3.809 3.335-3.257 3.764.74.573 5.74-2.982 6.709-2.442 1.166.836-2.938 2.526-2.437 2.985.637.575 3.576-2.493 4.506-2.021 1.69.788-2.717 2.731-1.865 3.341.553.437 2.292-2.142 3.579-1.175.984.825-1.486 2.031-1.014 2.342.598.374 2.007-2.064 3.173-1.289.535.344-.532 1.116-.144 1.289.674.306 1.581-.806 2.314-.5.778.466-.5 1.054.096 1.432.55.306 1.451-1.641 2.796-.233 5.904-3.021 12.057-20.356-7.644-26.14-13.194-4.448-36.414 6.605-50.319-3.852-7.458-5.827-11.563-13.537-11.874-22.628.017-.096-.183-.198-.231.106-.028 7.621 1.475 15.522 6.666 21.745.23.276-.159.573-.389.388-5.36-5.05-7.226-13.057-7.614-19.734-.119-.29-.228-.259-.208.078.286 8.807 2.46 19.018 8.211 23.542.184.183-.113.572-.389.389-5.407-4.166-7.769-12.454-8.998-18.436-.139-.184-.152-.122-.198.108.477 6.819 4.613 23.206 20.223 31.42 4.202 1.913 7.084-.001 8.009.893.566.771-2.238 1.288-2.021 1.71.303.583 3.831-1.394 4.818-.389.338.544-.785.715-.544 1.088.337.388 2.719-1.477 4.118-.544.522.382-1.651 1.209-1.32 1.476.535.579 4.625-2.627 5.544-1.449 1.109 1.454-3.433 2.054-2.981 2.77.492.797 5.409-3.038 6.878-1.998z"/></g><g fill="#EEC6A5"><path d="M123.748 91.157c.184-1.321-.127-2.748-.431-3.872-2.1-.077-5.609-1.044-5.594-2.02.248-1.313 4.902-1.915 7.931-2.226.643-.091.734-.727.093-.818-3.109-.467-6.725-.75-8.957.401-1.589.756-4.323 3.921-4.507 2.487-.31-2.409.544-4.274.778-6.371-.622-.233-1.802-.099-2.345.522-1.4 5.362-2.707 10.356-6.047 14.94 8.314 2.874 6.292 12.585 8.159 19.425 0 0-.827.888-1.244 0-1.708-4.973-.996-10.341-3.843-14.785-.924-1.251-2.845-1.892-4.568-2.118-1.766 2.562-6.421 3.083-6.351 13.715.311 1.011 2.697-2.18 3.574-.774-.643 10.096 3.569 14.597 10.913 12.396 1.364-5.64 3.362-11.409 6.393-15.991-2.775-8.12 2.159-13.046 6.046-14.911zM128.85 84.562c-1.778.077-6.052.177-6.043.704.093.551 1.188.269 1.831.543.622 2.409 1.088 7.105.311 7.848-3.42 2.411-6.837 5.75-5.907 10.411 2.022-2.176 5.57-5.788 9.154-7.423-.732-1.101-.86-4.492.792-5.869.79-.234 1.865-.276 3.807-.304.82.156 1.116.883.778 1.321-.622.776-4.175 1.039-3.392 2.613.884 1.786 4.945-.861 7.665-1.526l-.186-1.454c-4.272-.466-3.34-5.729-4.661-8.604-1.072-1.703-4.611-1.208-4.149 1.74zM142.946 114.607c-1.178-.437-2.825.111-4.238-.712-1.858-1.301 1.433-5.586-.085-6.427-1.599-.884-9.641 8.275-10.646 14.313 5.288-1.148 11.188-1.786 17.328-1.475.868-.259.246-4.506-2.359-5.699zM98.531 113.234c-.36-.583-1.412-.416-1.709.434-.502 3.993-.67 7.318-1.476 11.302 2.253 5.048 4.661 10.488 3.185 16.625 3.886-4.349 8.16-8.7 13.208-10.799l-.542-5.981c-7.94.43-11.585-2.69-12.666-11.581zM127.413 123.944c-.473.176-.522 1.181-.027 1.478.601.317 11.702-3 11.548-3.251-.417-.904-8.632.977-11.521 1.773z"/></g><g fill="#EEBF1B"><path d="M54.476 80.759v2.487c1.476-.728 2.953-1.47 4.274-1.865l-4.274-.622zM97.21 67.938c8.413-1.801 19.105-3.34 27.427-2.641 0 0-12.531-28.728-55.943-29.836-.896 7.869-5.212 12.143-8.779 18.647 26.002-2.26 32.803 2.425 37.295 13.83zM119.335 76.688c-2.949.2-3.944 2.907-4.021 4.849 5.205-3.575 12.742.077 18.415-2.409 2.019-1.166 3.496-3.185 3.729-5.438-5.371 5.112-10.676 2.685-18.123 2.998zM60.551 111.216c1.448 8.9 10.943 14.86 18.556 13.365 1.009-19.269 26.651-26.884 29.836-45.298-2.952.312-5.672 1.165-8.392 1.864 0 0-1.394 10.624-12.383 14.036-5.55 1.483-10.017-.186-12.661-1.286-1.143-.464-2.567.304-3.641.608-13.596 5.595-20.575 19.513-29.511 30.465-.183.458-.247 1.226.488 1.504 2.578.819 6.3-1.131 8.835-3.137 4.445-3.864 6.964-8.341 8.873-12.121zM69.612 91.405c.562-.361.7-1.137-.702-.863-7.172 1.826-36.656 13.66-61.384 50.565-.367.461-.191.921.176.646 4.063-4.034 7.325-6.403 11.497-9.223 2.102-1.426 3.277-3.768 4.742-6.238 9.625-16.249 32.131-29.668 45.671-34.887zM72.276 92.521c.458-.184.056-.821-.495-.544-18.726 8.158-38.207 19.628-48.795 38.745-.25.526.425.613.83.439 4.504-1.606 8.845-2.742 14.025-4.229.756-.222 1.973-1.268 2.181-1.585 8.347-12.627 18.38-26.08 32.254-32.826zM142.508 102.592s-1.161-7.826-9.486-6.068c-3.531.92-8.818 4.929-12.347 9.253-8.376 10.271-7.204 22.144-5.729 34.035.078.628.539.542.495-.021-.755-10.192 1.971-18.785 4.3-22.98.526-.607 1.137-.045.933.311-5.314 9.893-2.628 22.295-6.041 35.197-.104.421.214.376.311.167 2.87-5.497 3.46-23.327 6.867-27.816.323-.55.734-.069.573.299-2.995 9.776-2.062 18.892-7.158 29.051-.097.242.136.248.218.134 4.315-5.876 5.836-19.4 9.193-29.574 2.842-8.612 8.081-19.19 17.871-21.988zM95.41 103.165c-.971-.811-18.267 17.755-14.687 31.784 2.021.778 4.097 2.593 5.688 3.849-.057-9.067 7.833-12.178 7.77-27.036 0 0-1.761-2.503-1.272-2.799.423-.218 1.222.834 1.506.7.352-.31 1.411-6.053.995-6.498zM61.307 119.461l-1.626-3.583c-1.623 3.323-4.718 7.779-8.836 10.342-.729.712 1.078.679 2.201.481 3.089-1.139 6.162-4.668 8.261-7.24zM71.4 135.063c-5.206-2.721-8.194-7.318-7.96-13.222-.233-.236-.665-.715-.961-.99-1.788 2.335-4.817 5.12-7.07 6.759 5.827 1.708 10.991 4.339 15.809 8.455.458.46 1.009-.637.182-1.002zM78.718 127.38c-4.663.311-9.063-.942-13.208-3.735 0 0 .243 8.966 13.208 10.491v-6.756zM93.813 128.113c-1.633 2.494-6.549 10.608-6.316 17.758 2.022.619 3.541 2.216 5.207 3.574.884-4.926 6.335-9.48 2.754-20.37-.36-1.303-1.017-1.952-1.645-.962zM85.789 140.276s-9.572-6.358-11.734-4.118c-2.019 1.651 3.492 6.81 4.869 7.635 1.467 1.011 6.554 1.145 6.554 1.145-.155-1.633.233-3.107.311-4.662zM96.279 160.011c1.934-4.615 2.852-13.575 1.087-14.684-.825-.368-3.75 7.246-4.945 10.183.867.891 2.494 2.539 3.858 4.501zM91.771 151.078c-2.98-3.26-8.799-5.243-10.073-4.091-.783 1.017.594 2.614 1.293 3.933 1.554 3.107 4.739 3.652 7.692 4.121.355-1.478.77-2.503 1.088-3.963zM93.87 164.928c.55-.093 1.956-2.749 1.681-3.484-1.71-3.107-6.836-5.598-8.054-4.928-.987.819-.069 3.319.544 4.429.87 2.021 5.313 4.243 5.829 3.983zM95.156 166.283c.473 1.495 1.454 2.368 1.821 3.986 1.675-2.68 2.662-9.543 1.709-10.028-.55-.182-3.164 5.494-3.53 6.042zM89.907 165.606c-.622.246-.481 2.506-.248 3.748.311 2.417 4.507 4.851 5.051 4.692.437.048 1.334-1.37 1.334-2.456-.932-2.565-4.98-6.309-6.137-5.984zM95.889 175.554l2.021 2.793c1.617-2.174 2.309-7.007 1.413-7.665-.629-.389-2.346 3.158-3.434 4.872zM90.84 173.999c-.736-.186-.827 1.794 0 2.252 2.33 1.555 4.23 3.92 5.317 6.483.459.826 1.032-.745.755-1.752-.62-2.719-3.353-6.054-6.072-6.983zM91.616 179.046c-.552-.458-1.971.918-1.144 1.562 1.517 1.339 4.244 4.055 4.775 5.347 1.504-1.211-1.301-5.12-3.631-6.909zM91.235 183.832c-.664-.158-1.322.951-.721 1.304 1.286 1.088 2.663 2.473 3.688 3.801.183.183.643-.128.55-.679-.7-1.711-1.956-3.885-3.517-4.426zM90.45 187.286c-.367-.096-.771 1.017-.31 1.475 1.398.852 1.792 1.827 2.88 2.973.399.272.721-.207.613-.595-.424-1.568-2.084-3.342-3.183-3.853zM90.141 191.012c-.918 1.582-1.675 4.465-.389 5.207 1.264.508 2.246-2.24 2.527-2.976-.727-.763-1.362-1.686-2.138-2.231z"/></g></svg>