<svg xmlns="http://www.w3.org/2000/svg" width="250" height="140.283" viewBox="0 0 250 140.283" overflow="visible"><g fill-rule="evenodd" clip-rule="evenodd"><path fill="#0c371d" d="M250 70.141c0-33.859-55.503-70.141-125-70.141-66.535 0-125 36.504-125 70.141s58.465 70.142 125 70.142c69.497 0 125-36.283 125-70.142z"/><path fill="#fff" d="M173.346 33.65v7.369h11.74l.074-.005c.631-.042 1.661.124 1.893.502.203.354.139 1.627-1.48 4.157-.019.034-11.307 18.829-15.496 25.809l-16.525-26.438c-1.372-2.105-1.211-2.943-1.048-3.25.298-.558.76-.712 1.716-.774h8.542v-7.37l-63.657-.008v7.338h8.05c1.636 0 2.769.329 3.442 1.005 1.125 1.124 1.356 3.504 1.356 6.726v27.036l-32.234-42.08h-31.798v7.708h10.442c1.108 0 1.892.21 2.3.627.809.8.809 2.845.809 4.817v42.45c0 7.027-.75 8.955-3.506 8.978h-10.13v6.797h34.088v-6.875h-9.624c-1.618.014-2.776-.063-3.195-.472-.895-.891-.971-4.816-.971-8.428v-37.36l43.918 53.202h6.885s.047-59.221 0-60.272c-.078-1.61.363-3.45 3.235-3.819h6.841c3.167-.014 5.237 3.819 7.368 7.436 0 0 16.446 27.959 18.635 31.66v13.493c0 4.577-2.034 4.577-2.896 4.577h-7.718v6.88h40.461v-6.946h-7.385c-2.863-.154-3.858-.977-3.748-5.227v-13.927l19.749-33.121c2.823-4.383 3.122-4.839 6.998-4.788h6.693v-7.407h-33.824z"/><path fill="#0c371d" d="M175.186 35.49v3.689h9.822s7.272-.605 2.12 7.482l-17.026 28.342-18.118-28.985c-4.702-7.466 2.311-6.839 2.311-6.839h6.625v-3.689l-59.972-.009v3.659h6.207c5.955 0 6.636 3.837 6.636 9.571v32.46l-34.984-45.664h-29.046v4.03h8.603c5.49-.01 4.89 4.313 4.951 8.521v41.211c0 5.731-.238 10.779-5.334 10.816h-8.304v3.118h30.409v-3.199h-7.786c-5.206.044-6.006-.749-6.006-10.735v-42.927l46.634 56.929h3.808v-54.965c0-5.729.112-8.91 5.436-9.127h7.571c4.046.293 6.192 4.969 9.049 9.871l18.055 30.563v13.994c0 4.349-1.702 6.419-4.728 6.419h-5.875v3.197h36.78v-3.266h-5.605c-4.489-.23-5.649-2.543-5.529-7.117v-14.382l18.604-31.422c4.157-6.239 4.387-7.896 10.007-7.819h4.832v-3.727h-30.147z"/><path fill="#0c371d" d="M153.303 104.136c0-8.321-12.571-17.236-28.303-17.236-15.065 0-28.307 8.97-28.307 17.236 0 8.262 13.241 17.23 28.307 17.23 15.731.001 28.303-8.912 28.303-17.23z"/><path fill="#fff" d="M151.404 103.207c-.919-7.121-12.299-14.402-26.404-14.402-13.502 0-25.428 7.32-26.406 14.402h52.81z"/><path fill="#fff" d="M98.594 105.046c.961 7.087 12.897 14.418 26.406 14.418 14.112 0 25.502-7.292 26.415-14.418h-52.821z"/><path fill="#0c371d" d="M115.451 110.286c-3.577 0-6.483-2.755-6.483-6.149 0-3.399 2.906-6.154 6.483-6.154h19.098c3.576 0 6.473 2.755 6.473 6.154 0 3.395-2.896 6.149-6.473 6.149h-19.098z"/><path fill="#fff" d="M135.545 101.393l-.137-.545h-1.806c.071.192.118.387.169.584.146.579.248 1.175.299 1.785h-3.229c-.047-.568-.136-1.126-.264-1.642l-1.746.022c.162.519.272 1.06.335 1.619h-3.265v-1.54h-1.806v1.54h-3.271c.068-.56.169-1.101.333-1.619l-1.74-.022c-.125.516-.21 1.073-.263 1.642h-3.236c.059-.61.152-1.206.308-1.785l.16-.584h-1.804l-.129.545c-.204.898-.307 1.831-.307 2.794 0 1.118.144 2.202.408 3.241l1.818.021c-.239-.767-.395-1.566-.463-2.392h3.237c.042.572.135 1.144.271 1.689l1.714-.021c-.161-.538-.265-1.099-.317-1.668h3.281v1.592h1.806v-1.592h3.278c-.051.569-.159 1.13-.32 1.668l1.718.021c.137-.546.23-1.117.272-1.689h3.237c-.068.825-.221 1.625-.46 2.392l1.806-.021c.272-1.039.421-2.123.421-3.241.001-.963-.113-1.895-.308-2.794z"/><path fill="#0c371d" d="M207.366 57.909c-1.871-3.539-6.82-5.558-14.302-5.842-5.5-.18-9.812.105-13.229.983l-90.015.039c2.615-4.895 4.601-8.599 4.601-8.599h-22.199l-15.246 28.691c-1.236 1.811-1.407 1.917-2.675 1.781-.363-.035-.61-.09-.774-.137.229-.787 1.132-2.313 1.465-2.867-.009.017 5.306-8.729 5.306-8.729h-20.7l-.621.856c-5.683 7.829-7.368 14.14-4.991 18.756 2.273 4.434 7.862 6.656 16.608 6.601 8.826-.05 14.379-.468 18.799-3.352h44.908l11.574-21.614h9.979l-11.519 21.576h22.922l7.205-13.518h9.704l-.505 1.229c-1.771 4.354-.817 7.238.288 8.89 2.174 3.236 6.841 4.881 13.869 4.897 11.839-.025 19.396-1.11 23.014-6.619 2.998-4.552 3.441-8.695 1.261-11.678-.597-.842-1.548-1.575-2.675-2.206h6.525l.613-.979c2.293-3.691 1.706-6.472.81-8.159z"/><path fill="#fff" d="M56.61 65.299h-15.954c-10.726 14.757-5.461 22.168 9.932 22.073 14.011-.085 18.936-.982 24.777-11.661l15.598-29.151h-17.489l-14.728 27.695c-1.38 2.026-2.153 3.032-4.659 2.768-3.967-.417-2.887-2.738-.876-6.124l3.399-5.6z"/><path fill="#fff" d="M127.794 83.978h18.219l11.485-21.394h8.396l4.021-7.464h-36.883l-3.928 7.287h10.197l-11.507 21.571z"/><path fill="#fff" d="M165.578 74.544c-2.784 6.844 1.431 10.911 12.248 10.934 11.706-.022 18.263-1.101 21.279-5.687 2.055-3.118 3.228-6.725 1.31-9.326-1.31-1.875-6.028-3.507-10.492-4.375-2.845-.554-3.843-1.236-3.647-2.913.18-1.524 2.079-1.879 3.503-1.461 1.149.337 1.651 1.768 1.465 3.262h13.554c3.668-5.907-.582-10.414-11.817-10.839-13.901-.456-19.199 2.104-21.998 9.183-1.398 3.279-1.169 5.805.866 7.143 2.54 1.664 9.565 2.721 11.661 3.496 1.269.473 1.447 2.03.733 2.951-.835 1.057-2.829 1.56-4.09.58-.867-.673-.723-1.508-1.015-2.948h-13.56z"/><path fill="#fff" d="M78.186 84.02h34.871l3.91-7.291h-19.08l1.831-3.495h16.968l3.987-7.433h-15.954l1.601-3.357h17.249l3.882-7.287h-33.813l-15.452 28.863z"/></g></svg>