<svg xmlns="http://www.w3.org/2000/svg" width="512" height="512" viewBox="0 0 512 512"><g><path fill="#1A191A" d="M7.2 109.5s7.6 26.3 37 46.9l-17.2-1.8s18 25.4 50.6 41.3l-17.8-1.6s23.8 37.9 72.1 56.6c0 0 4.9 31 46.7 58.9 0 0 39.7 22.9 44.3 43.9 0 0 76.5-5.1 160.3 51 0 0 19.8-80.9 122.2-90.6 0 0 .1-43.9-58-73 0 0-23.8-91.1-168-101l-121.5.4s-92.7-6.1-150.7-31z"/><path fill="#fff" d="M70.7 149.8s21.7 28.4 83.1 42.7l-55.4-5s20.7 19.9 82.1 34.9l-55.6-4.8s31.2 29.7 79.6 37.7l-29.7 4.7s2.7 15 53.7 48.1c0 0 16.9 14.2 13.4 17.7 0 0 27.7.3 76.1 23 0 0 46.4-23.7-18.4-92.8 0 0-29.7-32.7-63.1-54.1 0 0 50.4-12 113.2 24 0 0 32 24 61.4 12 0 0-12-60.7-125.2-70.4h-122.7s-52.1-4-92.5-17.7z"/><path fill="none" stroke="#000" d="M70.7 149.8s21.7 28.4 83.1 42.7l-55.4-5s20.7 19.9 82.1 34.9l-55.6-4.8s31.2 29.7 79.6 37.7l-29.7 4.7s2.7 15 53.7 48.1c0 0 16.9 14.2 13.4 17.7 0 0 27.7.3 76.1 23 0 0 46.4-23.7-18.4-92.8 0 0-29.7-32.7-63.1-54.1 0 0 50.4-12 113.2 24 0 0 32 24 61.4 12 0 0-12-60.7-125.2-70.4h-122.7s-52.1-4-92.5-17.7z"/><path fill="#fff" d="M309.7 222.5s6.7 52.4 58.1 49.7c0 0 18-4.3 21.7-23h-7s-6 19-24 15.4c0 0-10.8-.2-21.4-16l17-2.3c0-.1-30-9.4-44.4-23.8z"/><path fill="none" stroke="#000" d="M309.7 222.5s6.7 52.4 58.1 49.7c0 0 18-4.3 21.7-23h-7s-6 19-24 15.4c0 0-10.8-.2-21.4-16l17-2.3c0-.1-30-9.4-44.4-23.8z"/><path fill="#fff" d="M378.6 295.9s52.2-9.6 87.4 7.7c0 0-44.6 1.8-74.5 27.1 0-.1 2.7-19.2-12.9-34.8z"/><path fill="none" stroke="#000" d="M378.6 295.9s52.2-9.6 87.4 7.7c0 0-44.6 1.8-74.5 27.1 0-.1 2.7-19.2-12.9-34.8z"/><path fill="#fff" d="M379.3 283.2s57.2-2.5 87 16.3c-7-27.8-55-49.5-51.1-47.6-.1.1-9.7 22.4-35.9 31.3z"/><path fill="none" stroke="#000" d="M379.3 283.2s57.2-2.5 87 16.3c-7-27.8-55-49.5-51.1-47.6-.1.1-9.7 22.4-35.9 31.3z"/></g></svg>