<svg xmlns="http://www.w3.org/2000/svg" width="512" height="512" viewBox="0 0 512 512"><g><path d="M376.8 180.8c0 9.7-3.9 15.7-3.9 15.7-4.3-15.8-26.6-36.7-26.6-36.7 3.9 4.9 2.7 14.8 2.7 14.8-1.4-1.2-12.4-8.4-12.4-8.4-21.7-15.5-57.3-31.5-111.9-31.5-138 0-196.4 88.8-198.8 92.6 0 0-13.4 19.3-17.1 30.1l29.4-17.6c.2-.2 24.5-14.9 62-14.9 2.9 0 9.9.3 11.4 3.5 3.7 7.6-7.8 30.7-20.9 47.5l-28 36.1 39.7-22.7c.2-.1 16-9 42.4-9 5.3 0 7.6.9 8.4 1.3-.1 1.4-1.4 4.5-3 6.6l-19.5 26.3 30.2-12.6c.2-.1 18.7-7.7 45.2-7.7 15.6 0 26.2 3 29.3 8.3 2.8 4.9-.7 12.9-2.1 15.2l-6.2 10.4 11.8 3c1.3.3 3 .7 9.8-.6-.1 1-.1 1.9-.1 2.9 0 15.2 7.4 26.9 7.8 27.6l11.9 18.4 4.5-21.5c4-19 19.2-27.2 28.7-30.5l2.7 10.2 9.4-3.8c8.5-3.4 22.4-13.6 27.5-17.4 4.1-.7 14.9-2.5 28.1-2.5 7.8 0 16.9.7 26.6 1.5 12.1 1 25.9 2.1 40.8 2.1 21.2 0 40.6-3.6 48.7-5.4 2 1.3 17.2 11.5 17.2 11.5l.8-15.9c.1-1.3.1-2.7.1-4 0-33.3-20.6-54.4-42.9-66.5.1 0 1.4-.1 1.4-.1l-24.1-15.1c-3.3-2.1-9.9-3.7-16.4-4.9.4-.9 1.2-2.4 1.2-2.4l-10.7-2.8c-10.6-2.8-19.6-3.1-26.4-2.7 3.1-17.1-8.7-28.4-8.7-28.4z"/><path fill="#fff" d="M33.6 232.1s56.5-88.4 191.2-88.4c99.2 0 132.3 55.3 132.3 55.3s1.8-8.4-.6-12.6c0 0 11.4 12 12 26.5 0 0 6.6-6.6 6.6-9 0 0 3 10.2 0 16.2 0 0 13.8-4.8 34.3.6l-1.8 3.6s20.4 2.4 25.3 5.4c0 0-11.4.6-11.4 3.6 0 0 75.8 11.4 72.8 74l-7.2-4.8s-24.1 6-50.5 6-49.3-3.6-67.3-3.6l-31.9 3s-18 13.8-27.1 17.4l-2.4-9s-36.7 5.4-43.9 39.7c0 0-12-18.6-3-37.9 0 0-17.4 4.8-19.8 4.2 0 0 22.9-37.3-34.9-37.3-28.9 0-48.7 8.4-48.7 8.4s16.8-22.2-12.6-22.2c-29.5 0-46.9 10.2-46.9 10.2s51.1-65.5 2.4-65.5c-41.1 0-66.9 16.2-66.9 16.2z"/><path d="M335.4 239.3s-39.7-7.2-56.8 2.7c0 0 44.2 0 61.3 9.9 0 0-78.5-10.8-110.9 15.3 0 0 47.8-11.7 84.8-8.1 0 0-13.5 5.4.9 14.4s23.4 10.8 19.8 26.2l7.5-11.1 8.4 8.4s21.6-1.8 36.7 0c15 1.8 35.5 3.6 46.9 3.6 11.4 0 42.7-4.2 42.7-4.2s-65.5-25.9-124.5-25.9c-6.6 0-13.8 1.2-9.6 8.4 0 0-20.4-10.1-20.4-15.5s15.6-2.5 15.6-2.5c7.2 0 137.1 13.2 150.3 36.7 0 0 0-53.5-107.6-64.3l12 10.2-19.2-1.8 11.4 10.2c.1.1-30-10.2-49.3-12.6zM64 212.3s59.5-59.5 160.5-59.5c88.4 0 126.3 49.6 126.3 49.6s16.2 24.4 7.2 33.4-10.8-22.5-33.4-29.8l18.9 6.3s-20.7-27.1-55.9-20.7c0 0 19.8 4.5 25.3 10.8 0 0-44.2 4.5-46 8.1 0 0 34.3 7.2 36.1 12.6 0 0-32.5.9-41.5 9 0 0 60.4 2.7 74 7.2 0 0-39.7-7.2-56.8 2.7 0 0 44.2 0 61.3 9.9 0 0-78.5-10.8-110.9 15.3 0 0 47.8-11.7 84.8-8.1 0 0-13.5 5.4.9 14.4s23.5 10.8 19.8 26.2c0 0-7.2 10.8-18 15.3l-.9-12.6s-34.3 2.7-49.6 34.3c0 0 2.7-26.2 9.9-32.5l-19.8 6.3s19.8-32.5-29.8-35.2c-49.6-2.7-52.3 5.4-52.3 5.4s6.3-24.4-49.6-14.4c-.1.1 53.1-87.4-60.5-54z"/><path fill="#fff" d="M266.6 174.6c-5.5-8-18.9-11.9-41.2-11.9-62.8 0-98.4 17.9-99.9 18.6l-24.2 13.3 27.8-3.2c.5-.1 39.5-8.7 70.5-9.5-41.7 5.3-56.5 74-57.1 77.1l-1.4 6.8 64.6-3.2s1.3-1.8 1.6-2.1c2.6-2.9 21.4-11.6 37.3-18l2-.8 5.7-12.6.1-.8c.1-.7.1-1.3.1-2 0-3.4-1.2-6.5-3.5-9.2-2.9-3.3-7.4-5.7-12.3-7.3 24.3-6 31.3-22.7 31.6-23.5.3-.6 2.2-6-1.7-11.7zm-81.1 73.4c3.3-9 10.3-24.6 12-29.3 3.4 0 20.9-1 20.9 9.2 0 4.8-8.1 20.2-32.9 20.1zm17.5-42.5c3.2-6.3 9-21.3 10.3-23.9 4.2.6 20 2.2 19 9-1.2 8.4-9.9 14.9-12 15.9l-17.3-1z"/><path d="M211.9 211.4l-16.1-.9 9.8-23.5c-42.4-.9-57.7 73.1-57.7 73.1l55-2.7c3.6-5.4 39.7-19.8 39.7-19.8l4.5-9.9c2-15.7-35.2-16.3-35.2-16.3zm11.7 18.9c-8.6 23.4-40.6 23.5-46 23.5l17.3-40.5s35.6-1.6 28.7 17zm1.8-62.2c-62.2 0-97.4 18-97.4 18s56.8-12.6 89.3-9c42.4 4.7 10.8 28.9 10.8 28.9 28-3.6 35.2-21.6 35.2-21.6s6.3-16.3-37.9-16.3z"/><ellipse cx="321" cy="220.9" rx="10.3" ry="9.5"/><ellipse fill="#fff" cx="323.1" cy="222.5" rx="9.3" ry="9.6"/><ellipse fill="#fff" cx="324.9" cy="223.1" rx="7.5" ry="7.2"/><ellipse cx="326.7" cy="222.8" rx="6.3" ry="6.9"/></g></svg>