<svg xmlns="http://www.w3.org/2000/svg" width="134.966" height="134.966" viewBox="0 0 134.966 134.966" overflow="visible"><g><path fill="#9BABB6" d="M67.484 0c-37.27 0-67.484 30.213-67.484 67.482 0 37.27 30.214 67.484 67.484 67.484 37.268 0 67.482-30.214 67.482-67.484 0-37.269-30.215-67.482-67.482-67.482zm.021 124.645c-31.584 0-57.19-25.603-57.19-57.187s25.605-57.188 57.19-57.188c31.583 0 57.188 25.604 57.188 57.188s-25.605 57.187-57.188 57.187z"/><path fill="#fff" d="M38.03 66.165c-.013-.887-.212-1.165-.896-1.165-.859 0-.818.776-.818 1.569v.357h1.714v-.761zM30.537 65c-.856 0-.818.776-.818 1.569v.357h1.716v-.761c-.013-.887-.213-1.165-.898-1.165zM48.292 66.165c-.015-.887-.21-1.165-.898-1.165-.858 0-.819.776-.819 1.569v.357h1.717v-.761zM67.505 10.27c-31.584 0-57.19 25.604-57.19 57.188s25.605 57.187 57.19 57.187c31.583 0 57.188-25.603 57.188-57.187s-25.605-57.188-57.188-57.188zm-47.53 62.447c-2.217 0-3.008-1.461-3.008-3.54v-.855h1.846v.682c-.038 1.137.252 1.959 1.163 1.959.778 0 1.147-.483 1.147-1.367 0-.683-.265-1.15-.74-1.538-.964-.885-2.161-1.521-2.916-2.686-.301-.527-.476-1.166-.476-1.786 0-1.988.952-3.075 2.904-3.075 2.941 0 2.863 2.672 2.876 3.819h-1.782c.015-1.041-.065-2.064-1.082-2.064-.62 0-1.014.295-1.014 1.086 0 .885.475 1.228 1.055 1.661.608.45 1.728 1.32 2.242 1.911.633.729.833 1.426.833 2.438 0 2.206-1.243 3.355-3.048 3.355zm7.004-7.561h-.728v5.433c.04.375.517.328.728.296v1.583c-1.015.14-2.44.249-2.44-1.38v-5.932h-.7v-1.476h.685v-.718l1.728-1.688v2.407h.728v1.475zm6.169 3.322h-3.43v1.273c.012 1.15.382 1.369.897 1.369.633 0 .818-.546.791-1.649h1.717c.065 1.959-.623 3.199-2.375 3.199-1.979 0-2.784-1.102-2.745-3.678v-2.301c-.079-2.064.817-3.243 2.505-3.243 2.389 0 2.639 1.458 2.639 3.85v1.18zm1.451.514v-2.301c-.079-2.064.818-3.243 2.508-3.243 2.387 0 2.638 1.458 2.638 3.85v1.181h-3.43v1.273c.012 1.15.382 1.369.896 1.369.633 0 .818-.546.792-1.649h1.714c.067 1.959-.62 3.199-2.373 3.199-1.978-.001-2.784-1.103-2.745-3.679zm32.288 55.55c-3.034-16.135-8.654-25.105-28.89-28.543 20.236-3.437 25.856-12.405 28.89-28.538-3.034-16.135-8.654-25.104-28.89-28.541 20.236-3.438 25.856-12.407 28.89-28.543 3.034 16.136 8.655 25.105 28.893 28.543-20.237 3.437-25.857 12.406-28.893 28.541 3.036 16.133 8.655 25.101 28.893 28.538-20.238 3.438-25.859 12.408-28.893 28.543zm-25.401-52.103v-11.647h1.715v11.647h-1.715zm5.988-1.319c.632 0 .818-.546.791-1.649h1.716c.065 1.959-.62 3.199-2.376 3.199-1.978 0-2.783-1.102-2.742-3.678v-2.301c-.08-2.064.815-3.243 2.504-3.243 2.388 0 2.639 1.458 2.639 3.85v1.181h-3.43v1.273c.014 1.149.384 1.368.898 1.368zm5.763-5.887c.212-.636.423-.994.674-1.243.487-.482.817-.45 1.069-.465v2.39c-.951-.107-1.676.171-1.704 1.461v5.063h-1.714v-8.76h1.649v1.553h.026zm4.799 5.887c.488 0 .833-.421.714-.979-.026-.497-.514-.776-.844-1.04l-.937-.764c-.858-.697-1.413-1.505-1.413-2.763 0-1.351.909-2.126 2.558-2.126 1.664 0 2.428 1.024 2.389 2.904h-1.714c.041-.979-.199-1.352-.791-1.352-.409 0-.726.217-.726.715 0 .512.316.744.646 1.01l1.397 1.118c.437.294 1.122 1.132 1.176 1.722.146 1.523-.171 3.105-2.546 3.105-.91 0-2.613-.449-2.415-3.121h1.714c-.13 1.616.398 1.571.792 1.571zm37.761 24.808c-3.034-16.133-8.654-25.104-28.893-28.541 20.239-3.439 25.858-12.406 28.893-28.543 3.034 16.137 8.654 25.104 28.892 28.543-20.238 3.437-25.857 12.407-28.892 28.541z"/><path fill="#231F20" d="M19.948 65.015c-.58-.433-1.055-.776-1.055-1.661 0-.791.394-1.086 1.014-1.086 1.017 0 1.097 1.023 1.082 2.064h1.782c-.014-1.147.065-3.819-2.876-3.819-1.952 0-2.904 1.086-2.904 3.075 0 .62.174 1.258.476 1.786.755 1.164 1.952 1.8 2.916 2.686.475.388.74.855.74 1.538 0 .884-.37 1.367-1.147 1.367-.911 0-1.2-.823-1.163-1.959v-.682h-1.846v.855c0 2.079.791 3.54 3.008 3.54 1.805 0 3.048-1.148 3.048-3.353 0-1.012-.2-1.709-.833-2.438-.514-.593-1.634-1.463-2.242-1.913zM26.251 61.273l-1.728 1.688v.718h-.685v1.476h.7v5.932c0 1.629 1.425 1.52 2.44 1.38v-1.583c-.21.032-.688.079-.728-.296v-5.433h.728v-1.475h-.728v-2.407zM30.51 63.448c-1.688 0-2.584 1.179-2.505 3.243v2.301c-.04 2.577.765 3.678 2.745 3.678 1.752 0 2.44-1.24 2.375-3.199h-1.717c.027 1.103-.158 1.649-.791 1.649-.516 0-.885-.218-.897-1.369v-1.273h3.43v-1.181c-.002-2.391-.252-3.849-2.64-3.849zm.925 3.478h-1.716v-.357c0-.793-.038-1.569.818-1.569.685 0 .885.279.897 1.166v.76zM39.718 69.471h-1.714c.026 1.103-.159 1.649-.792 1.649-.514 0-.884-.218-.896-1.369v-1.273h3.43v-1.181c0-2.392-.251-3.85-2.638-3.85-1.69 0-2.587 1.179-2.508 3.243v2.301c-.04 2.577.767 3.678 2.746 3.678 1.753.001 2.439-1.239 2.372-3.198zm-3.402-2.903c0-.793-.041-1.569.818-1.569.684 0 .882.279.896 1.166v.761h-1.714v-.358z"/><g fill="#231F20"><path d="M41.486 60.792h1.715v11.647h-1.715zM42.345 66.615"/></g><path fill="#231F20" d="M50.005 68.478v-1.181c0-2.392-.25-3.85-2.639-3.85-1.688 0-2.584 1.179-2.504 3.243v2.301c-.041 2.577.764 3.678 2.742 3.678 1.756 0 2.441-1.24 2.376-3.199h-1.716c.027 1.103-.159 1.649-.791 1.649-.514 0-.884-.218-.899-1.369v-1.273h3.431zm-3.43-1.91c0-.793-.039-1.569.819-1.569.688 0 .883.279.898 1.166v.761h-1.717v-.358zM51.563 63.68v8.76h1.714v-5.063c.027-1.29.753-1.568 1.704-1.461v-2.39c-.252.015-.582-.017-1.069.465-.251.249-.462.606-.674 1.243h-.026v-1.554h-1.649zM55.53 69.549c-.198 2.672 1.505 3.121 2.415 3.121 2.375 0 2.691-1.582 2.546-3.105-.054-.589-.739-1.428-1.176-1.722l-1.397-1.118c-.329-.266-.646-.498-.646-1.01 0-.499.316-.715.726-.715.593 0 .832.373.792 1.352h1.714c.04-1.879-.725-2.904-2.389-2.904-1.649 0-2.558.776-2.558 2.126 0 1.258.555 2.065 1.413 2.763l.937.764c.331.264.818.543.844 1.04.12.558-.226.979-.714.979-.394 0-.921.045-.791-1.57h-1.716z"/><path fill="#F1C817" d="M66.887 67.461c3.036-16.135 8.655-25.104 28.893-28.541-20.237-3.438-25.858-12.407-28.893-28.543-3.034 16.136-8.654 25.105-28.89 28.543 20.235 3.437 25.856 12.406 28.89 28.541v-.003.003z"/><path fill="#204182" d="M66.887 67.461v-.003.001c-3.034 16.135-8.654 25.103-28.89 28.54 20.236 3.438 25.856 12.408 28.89 28.543 3.034-16.135 8.655-25.105 28.893-28.543-20.238-3.437-25.858-12.405-28.893-28.538z"/><path fill="#BF2026" d="M95.797 38.844c-3.034 16.137-8.654 25.104-28.893 28.543 20.239 3.438 25.858 12.408 28.893 28.541 3.034-16.133 8.654-25.104 28.892-28.541-20.238-3.439-25.857-12.407-28.892-28.543z"/></g></svg>