<svg xmlns="http://www.w3.org/2000/svg" width="369.206" height="200" viewBox="0 0 369.206 200" overflow="visible"><path fill="#12274B" d="M167.031 0c4.021 4.115 11.806 14.799 11.806 14.799-101.698-4.628-155.019 64.449-155.019 64.449l16.026 1.463c-52.121 69.418-38.139 119.009-38.139 119.009 38.435-52.375 63.637-84.567 129.524-109.486 0 0-6.361-9.908-10.273-14.321 93.914-8.553 182.269 48.202 182.269 48.202s-8.583-20.611-10.701-25.244c42.182 35.98 76.382 101.129 76.382 101.129 3.801-59.133-26.588-193.663-201.875-200z"/><path fill="#3997D3" d="M362.118 175.505c-8.024-89.124-67.989-159.042-180.764-168.33-.005-.006 10.939 14.703 10.939 14.703-106.624-7.861-153.34 52.152-153.34 52.152s7.21.735 13.432 1.222c-48.776 57.684-45.741 106.18-45.741 106.18 36.857-49 64.343-72.781 114.582-94.332 0 0-5.927-8.859-14.035-16.126 94.38-13.98 182.915 38.728 182.915 38.728s-8.813-21.172-16.543-32.403c49.998 29.371 88.555 98.206 88.555 98.206z"/><path fill="#F0C818" d="M192.438 13.563c2.909 3.914 5.929 7.928 10.566 14.224-28.122-2.479-100.022-7.033-152.341 42.205 0 0 12.12 1.101 12.056 1.187-18.029 19.198-44.363 59.673-49.969 94.356 39.84-53.342 77.339-70.187 100.573-80.491-4.484-5.957-12.033-13.019-17.813-17.021 57.391-12.848 131.857 2.579 183.821 30.199-5.266-11.629-13.603-23.496-19.89-33.811 50.857 21.746 84.524 73.6 95.163 90.032-5.699-28.679-31.901-125.914-162.166-140.88z"/></svg>