<svg xmlns="http://www.w3.org/2000/svg" width="218.295" height="200" viewBox="0 0 218.295 200" overflow="visible"><g><path d="M214.367 0s3.931 11.28 3.931 27.46-4.46 26.36-5.551 30.35c0 0-1.279 2.08-3.3 3.41l2.32 1.9s-4.91 14.84-9.19 23.94c-4.689 9.94-15.63 29.47-24.18 36.17l-27.5 44.579s-6.19.931-10.29-2.369c-4.11-3.29-3.88-6.471-3.88-6.471l16.65-24.8s-5.49.93-12.66.93-24.221-.649-46.19-10.59c-21.96-9.93-32.89-15.43-48.84-15.43-14.57 0-31.03 11.15-35.77 30.28 0 0-9.92-11.86-9.92-26.73s14.1-25.43 19.65-28.32c5.73-2.99 7.56-5.66 7.56-9.74 0-5-4.83-12.08-11.58-18.24l16.08-5.5-3.16-4.42s10.74 1.92 19.74-9.08c0 0-6.16-.58-27.9 9.41.17-.51 6.13-16.72 33.39-29.97 27.69-13.469 50.46-9.769 75.151.231 24.68 10 31.38 13.18 47.46 13.18 16.069 0 27.859-5.78 33.41-9.54 0 0 3.239-10.24 4.569-20.64zM153.928 166.98s3.72 6.47-.261 16.729c-3.979 10.271-15.229 20.71-30.1 14.34 0 0-.92 1.86-2.89 1.82-1.971-.04-3.03-1.73-3.11-2.561-.08-.829.08-1.89.67-2.399 0 0-4.21-3.97-4.52-5.74-.32-1.77.31-2.28.63-2.479.31-.19 1.3-.19 2.24.79.939.979 1.319 1.449 1.319 1.449l13.01-20.18s-4.35-5.13-4.17-11.24c0 0 3.811-3.27 9.74-1.24 0 0-3.71 2.12-.53 7.351 3.19 5.22 10.271 6.37 11.69 6.46 1.412.09 5.751-.18 6.282-3.1zm-9.34 22.83c4.319-7.06 2.329-13.22 2.329-13.22-1.649.22-3.689-.27-3.689-.27l-13.43 19.6c2.229.63 10.47.94 14.79-6.11z"/><path fill="#fff" d="M146.917 176.59s1.99 6.16-2.329 13.22c-4.32 7.051-12.561 6.74-14.79 6.11l13.43-19.6s2.04.49 3.689.27z"/></g><path fill="#BFC0C0" d="M145.289 161.614s-2.399.054-3.377-2.773l17.813-26.038 5.772-1.691-20.208 30.502z"/><path fill="#B21E35" d="M7.878 123.518s-8.319-11.679 5.842-26.817c0 0 7.165-3.572 14.969-2.128 0 0-12.775 2.368-15.606 12.949 0 0 6.706-11.501 28.15-10.463 0 0-6.011-7.396-19.999-6.011 0 0 3.061-3.698 15.26-5.32 0 0-6.012-1.04-10.637.175 0 0 6.532-4.278 6.532-13.121 0-8.845-8.67-14.854-8.67-14.854s6.011-2.779 13.642-4.398c0 0-1.214-3.235-3.18-4.448 0 0 13.934.692 21.562-16.304 0 0-1.802-.894-3.94-.894-3.64 0-10.916 1.647-19.414 5.691 0 0 5.182-6.232 19.753-13.515 14.564-7.283 24.613-7.417 24.613-7.417s3.644-.072 5.603.941c0 0-6.813.205-17.806 5.396 0 0 7.854-1.348 14.903-1.348 5.395 0 11.63 1.69 15.257 3.107 0 0-2.3-4.25-9.293-5.49 0 0 1.063-.973 4.957-.973 4.425 0 11.152 3.543 11.152 3.543s-2.654-3.81-8.939-5.843c0 0 14.278-1.355 38.77 8.673 22.483 9.208 31.16 10.623 44.436 10.623 14.693 0 31.333-6.2 38.236-10.799 0 0 .515 3.769-.225 8.015-.804 4.619-4.113 7.856-21.033 8.017 0 0 9.444 4.379 18.766 2.431 0 0-1.627 9.041-6.641 22.635-3.871 10.509-10.496 25.328-19.223 39.202-2.916 4.64-5.216 8.254-9.173 12.891 0 0-7.437 3.295-15.401 5.773 0 0 3.717-4.25 3.896-7.082 0 0-6.906 6.903-13.632 9.736 0 0-6.551 2.301-18.234 2.301-36.647 0-59.5-24.781-90.835-24.781-25.496-.006-34.418 19.907-34.418 19.907zm119.665 70.736s-3.517.816-6.708-3.507c0 0-.463-.39.178-1.384l12.014-18.621s2.889 2.576 8.143 4.771c0 0-3.516.715-6.796-1.533 0 0-.447 2.885 2.831 4.811 0 0-3.604.08-5.484-1.266 0 0-.507 2.791 3.188 4.863 0 0-3.515.952-5.62-.631 0 0-.539 2.063 2.697 4.444 0 0-3.516.271-5.664-.627 0 0 .133 2.788 3.013 4.682 0 0-3.694.324-5.623-.851-.001.001-.165 2.372 3.831 4.849z"/><path d="M85.861 103.584l-.313.439-2.583 1.457-3.821 1.196-6.767.238-2.292-1.187-1.287-.235-.44-.306-.68.203s-3.272-2.339-5.595-3.338l-1.749-2.394-.07-.274-.371-.104s.203-.559-.068-1.406l-.677-2.087-.394-.033-.95-1.289.782-3.239 3.002-3.104.9-1.514.339-.065v-.339l2.355-1.557 3.005.065 1.253.544.237 1.049.576 1.24.325.169 3.646.07 2.087.472 1.492-.306 1.443-1.375s-1.581-2.473-3.872-4.358c0 0-2.288-4.412-3.033-5.122l-.612-.948-2.629-5.326 1.816-1.276s-1.139-.303-2.291-.303l-1.476-3.746-.204-3.139.103-5.53s.223-2.851.627-4.14c.406-1.285 1.154-3.033 1.256-5.665l1.849-3.069.643-2.631s.069-.301.374-.676c0 0 2.326-2.913 2.764-4.225l2.188-2.39s.273-.476 3.815-2.628l-.878 3.001s.033 3.477-.44 5.495c-.311 1.312-.798 2.069-.798 2.069l.064 3.291s-.249 5.021 1.142 8.974c0 0 1.504 3.257 1.897 4.85 0 0 1.936 4.545 3.461 8.175 0 0 .76 1.965 4.46 5.834l3.562 3.767s3.071 1.849 3.951 2.694c0 0-.372-.629-.44-1.106-.068-.473-.101-2.231-.101-2.231s-.87-.833-.87-1.784l2.697-8.056s-2.9-3.477-2.37-8.464l.983-.032s.271 0 .201-.202l-1.118-1.426.443-8.058 1.285.476s.624-1.085.813-3.037c.19-1.948.394-4.208 3.799-7.683.545-.551 3.784-5.544 9.042-6.917 5.26-1.377 8.022-2.462 8.022-2.462l2.294.342s2.473-1.211 6.919-1.211c4.442 0 6.531 1.121 8.086 2.26 1.562 1.139 8.363 6.498 8.536 6.937.166.44 0 .78 0 .78s.404.811 3.27 3.442c0 0 .731.745 1.409 2.662.681 1.921.646 2.561.646 2.561s-.1.833-.307 1.544c0 0 .307.68.307 1.051 0 .375-.928 4.589-3.172 7.651-.592.813-1.44 1.335-1.541 2.035l2.015.271s-2.374 3.438-5.19 6.82c-1.197 1.95-2.959 3.558-4.207 4.517 0 0-.525-.314-1.502-.09l.047 1.197s-3.233 2.08-3.94 2.345c0 0-2.213 5.312-3.718 7.921l-1.99.93s-1.02.663-1.775 1.813l-2.609 1.463s10.181-2.26 12.481-3.01c2.3-.753 2.345-1.285 3.718-1.683 1.373-.396 3.453-.799 3.453-.799s2.434-1.591 2.655-1.634c.216-.043 1.546.31 1.947.53l.131-1.945s2.303-1.373 3.542-2.126c1.236-.753 2.923-2.566 4.16-3.452 1.24-.883 2.742-1.681 3.232-2.082.483-.398 5.865-5.188 8.362-9.159.753-1.197 1.417-2.965 1.417-2.965l2.566-1.907s.043-1.103.619-1.99c.574-.887 1.947-2.7 1.947-2.7s.223.177.4 1.108c.177.928.486 1.285.486 1.285s.043 2.119.262 3.271l-.485 2.125-.133 2.918s-.838 1.685-1.283 2.835c-.442 1.15-.707 3.41-.707 3.41l-1.989 3.275s-1.242 3.495-3.363 6.194c-2.127 2.702-4.25 5.312-4.25 5.312l-1.946 2.038-3.233 2.167s-.354.213-1.106.753c-.418.301-1.196.89-1.546 1.146-.186.137-.486.202-1.196.581-2.556 1.344-8.228 4.257-13.278 6.993 0 0-.884.396-1.813.573-.931.18-2.749.31-2.704.973.047.667.357 1.73.357 1.73s.178.62 1.24 1.015c0 0 .663-.133 1.637.177.973.312 1.815.972 1.815.972s1.24.224 1.856.534c0 0 .443-.269.973-.574.534-.311 1.152-.799 1.287-1.108l1.723-.045s1.594.665 2.48.888c0 0 .572 1.637.93 2.256l-.088.443.175.176-.263 1.729s.352 2.832.263 3.803c0 0-.973 2.082-1.413 2.966 0 0-1.463.621-1.727.797l-.268-.135s-3.053 1.727-3.23 2.702l-.441-.088s.133.176-.09.22c-.218.047-3.273 1.461-3.273 1.461s-3.762.047-7.039.713l-.577-.4-1.06.043s-.268-.443-3.584-.043c0 0-4.692-2.395-5.355-2.613l-2.48-2.52-.484-.668-.4-.84-.354-.8s-.133-.173-.664-.04c-.53.131-2.168.354-4.25 1.104 0 0-3.186-.131-5.353.443 0 0-2.259-.443-4.781-.308 0 0-2.302-.312-2.657-.312 0 0-3.981-1.685-6.24-2.123 0 0-.971-.357-1.283-.579-.309-.22-1.374-1.197-3.406-2.345-.002.003-1.774-1.827-3.41-2.893z"/><path fill="#DB6126" d="M93.769 93.169s3.743-.373 4.921-.322l.692-.746.214-1.28 2.673-.108s-.434 1.441-.858 1.816c0 0-.182.234.188.234.365 0 2.362.032 2.362.032s.286-.061.346-.277c.064-.214.245-1.319.677-1.503.428-.186 1.102-.123 1.102-.123l1.116.214.154.121-.217.705-.683.802s-.094.209.153.209c.246 0 1.88.352 2.372.566 0 0 .433.216.554-.031.123-.245.274-.683.274-.683l-.029-.892s.008-.214.375-.214c.371 0 1.63.429 1.875.646 0 0 .15.173.031.551-.125.375-.401 1.114-.584 1.388l2.094 1.045s.396-.582.767-.829l.187-1.103s-.032-.31.334-.153c.371.153 1.76.889 1.76.889s.123.123.033.337c-.094.216-.373 1.137-.373 1.137s-.06.134-.273.224c-.212.09-.309.492-.123.642l3.141 1.781-3.078-1.074s-.215-.027-.274.094l-.595 1.105s-1.114.092-2.408-.092c0 0 .076-.728.66-1.934l-2.094-.745-.832.898-.276 1.409s-.713.216-1.422.216c-.705 0-1.165-.305-1.165-.305l.52-1.537s.216-.928.645-1.298c0 0-.059-.429-2.462-.644 0 0-.798 1.137-1.258 3.016 0 0-1.115.194-2.311-.765l.335-1.085.645-.796v-.674s-1.386-.281-2.369-.244c0 0-.618.294-.859 1.501l-.187.836-1.196-.184-1.116-.808s.287-1.013.715-1.319c0 0 .146-.216-.099-.245-.25-.031-4.774-.401-4.774-.401zm.591 9.565s6.73 3.957 9.569 4.588c3.352.742 2.171-2.997 2.171-2.997s4.131 1.938 9.045 1.938c4.918 0 9.246-1.979 10.691-3.154s-.107-1.766-.377-2.351c-.268-.588-1.443-2.351-1.761-3.207-.321-.854-1.82-2.298-1.82-2.298s-4.646-3.637-6.038-4.326c-1.392-.699-3.046-1.393-3.688-1.766-.643-.375-1.709-.589-1.709-.589l-1.393-.319s-1.174-.108-1.815-.267c0 0-2.459-.108-3.367-.321 0 0-.641.054-.909.054 0 0-1.659.481-4.704.534 0 0-5.236 1.658-7.162 2.138 0 0-.536.106-1.604.8 0 0-2.352 1.229-3.313 1.496 0 0-.691.269-.907.856l-1.017.962.107 2.031s1.816 2.35 2.243 3.473c0 0 4.387 4.277 5.291 5.398 0 0 2.086.91 2.513 1.279 0 0 .859-.106.859-1.065.003-.962-.905-2.887-.905-2.887z"/><path fill="#fff" d="M100.583 77.244s.274-1.84.992-3.152c.723-1.312.8-5.825.8-5.825s.566 1.042 1.28 3.99c0 0 .399 2.678.282 3.435l.157.238 1.753-1.838 2.355 1.159s.158.047.078.597c-.078.559-.359 2.354-.359 2.354l2.271-2.311 2.633.955s.16.08.119.599l-.041 2.392 2.201-2.475 2.916.162s.078.161.119.402c.037.238.237 2.356.237 2.356l1.554-2.397.197-.16 2.913-.081.204 1.193s-2.321 5.072-12.333 4.275c0 0 1.2 1.045 6.026 1.357 0 0-.912.914-4.228.914-3.312 0-7.738-2.112-9.257-4.387-1.517-2.272-2.869-3.752-2.869-3.752zm4.984-11.929s.041 1.593-.121 2.271l1.442.84.433-1.072s-1.393-1.801-1.633-2.122l-.121.083zm3.114 2.514l-.556 1.357s-.045.359.235.479c.278.119 1.833.912 1.833.912l.763-1.871-.806-1.201-1.469.324zm3.074 2.911s-.201.281.077.36c.278.078 2.114.681 2.235.642.117-.04.24 0 .358-.245.119-.238.679-1.589.679-1.589l-.959-1.603-1.551.561s-.162.121-.283.398c-.117.281-.556 1.476-.556 1.476zm4.101 1.119s-.039.359.363.359c.397 0 2.352.162 2.352.162l.8-1.959-1.116-1.235-1.4.599s-.356.277-.559.793c-.197.522-.44 1.281-.44 1.281zm5.469-1.48l-.678 1.802s-.151.277.244.277h1.67l.602-1.521s.04-.159-.043-.24c-.079-.077-1.038-.672-1.038-.672l-.757.354zm-21.921-17.419l-.334 5.284s0 .687.381 1.355c.381.665 1.812 1.333 1.812 1.333s3.662 1.047 4.089 3.26l3.451 2.217 1.93-.193 1.477 1.546 2.211-.451 1.688 1.498 2.455-.571 1.763 1.191 2.312-.811 1.637 1.051s1.172-.287 2.336-.24c0 0 1.261-1.096 1.639-1.719l-1.352-2.972s1.164.524 3.711.524 5.901-.62 8.354-3.405c0 0-.686-1.786-.686-3.999s2.352-5.547 4.949-6.997l-.047-2.071s-.429-2.449-.813-3.12c-.381-.667-1.643-2.242-4.711-3.641-3.071-1.404-8.451-3.14-8.451-3.14s5.046-.955 9.426-.716c0 0-2.386-2.812-11.329-3.978 0 0 3.525-.952 7.378-.094 0 0-1.193-1.402-4.119-1.544 0 0-.381-.715-3.121-.715-2.735 0-3.09.285-3.852.33-.271.02-2.008.355-4.404.813-1.144.22-2.513.319-3.807.694-3.634 1.06-7.425 2.82-8.977 5.708 0 0 1.288-.595 2.402-.782 0 0-4.135 3.662-4.662 4.614-.521.955-1.287 2.927-1.717 3.5-.427.569-.287 1.975 0 2.786 0 0 1.834-4.502 5.998-6.093 0 0-4.662 4.134-5.475 10.898l-3.542-1.35zm8.59-6l6-.378s1.069 3.26 7.306 5.09c0 0-1.64.337-2.068 1.002-.43.667-2.566 3.951-6.594 3.951-2.785 0-5.709-3.569-5.709-3.569s.189-2.289 4.901-4.502l-3.836-1.594zm15.739 5.285l.498-.094s-.098.189 2.83.189c2.929 0 6.332-1.714 6.332-1.714l5.043 2.523-4.664-.189s1.574 2.28 1.574 3.757c0 1.478-.289 1.763-.476 1.954-.19.191-2.86 1.213-4.787 1.213-1.929 0-3.331-.406-4.095-1.26-.758-.86-1.615-2.999-1.33-5.169l-.925-1.21zm-9.166 9.307s3.293-1.615 6.268-6.023l.32-.396s.217-.169.217.062c0 .227-.571 4.859 1.045 7.804 0 0 .13.155-.177.357l-3.832 2.033s.047-.418.423-1.482c.377-1.063.73-3.033.665-4.048 0 0-1.815 2.146-2.833 5.176 0 0-.155-.043-.289-.287-.131-.244-1.807-3.196-1.807-3.196zm7.054 30.502l-2.39-1.77 1.017-.31.487-.088.355-.088 1.903-.356.707-.045s3.409-1.503 6.993-2.074c3.582-.577 2.789-.49 3.453-.753.664-.263 3.494-1.418 3.494-1.418s2.657-1.191 2.922-1.328c.266-.133 2.347-1.463 4.472-1.946 2.125-.485 4.47-2.345 4.868-2.523.277-.125 2.613-2.098 5-3.763 1.016-.708 2.168-1.188 2.965-1.723 2.699-1.816 5.09-4.956 5.09-4.956s1.857-1.64 2.3-1.993c.445-.354 4.606-6.106 5.623-8.009 0 0 .486 1.417-2.657 8.274l-1.149 2.965s-1.24 1.68-1.64 2.568c-.394.885-1.683 1.858-3.718 5.665 0 0-3.629 3.497-4.556 4.47 0 0-4.16 2.347-8.5 5.399l-6.063 3.275s-6.017 1.548-10.137 3.408c0 0-3.984.53-6.549 1.326l-1.991-2.261s11.198-3.276 12.169-3.803l.891-.71 6.24-2.3s1.803-1.374 3.582-2.347c.639-.35 1.268-.478 1.817-.708 2.08-.885 4.599-3.186 5.575-4.691l-3.715 1.948s-2.838 1.5-4.344 2.388c-1.5.887-5.838 2.657-5.838 2.657l-5.18 1.946s-1.325.35-3.188 1.195c-1.857.842-4.688 1.772-6.375 1.902-1.677.133-3.933.577-3.933.577zm-.475 17.387l.058-.205s1.771-.969 4.104-1.767c.61-.206 1.778-.95 2.576-1.741.903-.9 1.398-1.844 1.398-1.844v-2.078l-.416-1.588s.416-2.024-.52-3.352c0 0 2.545-.676 3.51-.833 0 0 .985 2.682.154 5.512 0 0-.236.622.467.78 0 0 1.426-.128 2.26.57.313.26 2.005.569 2.005.569s.849-.065 1.688.828c.416.445 1.508.396 1.508.396s1.324.049 2.104.884c.779.829 2.211.206 2.211.206l.568-1.637s.365-.834 1.142-.469c.78.364.521.756.521.756l-.828 2.936s.074.26.621.312c.549.048 1.223 1.56.156 2.316 0 0-.262.071-.309-.238l-.107-.676s-.102-.204-.257.209c-.157.415-.624 1.17-.624 1.17s-.599.05-.988-.208c0 0-1.846 2.574-2.209 2.835-.363.256-4.596 2.304-9.317 2.442l-1.263-.359c.001.002-6.428.59-10.213-5.726zm-34.976-21.106s-1.592-1.461-2.61-2.078c0 0-2.745 1.99-4.203 5.09l-.576.13s-.976-.53-1.685-.53c-.708 0-.662.177-1.237.177-.578 0-1.639-.44-2.127-.44-.484 0-1.857.263-2.211.263-.352 0-.973-.486-2.167-.486-1.197 0-1.33.223-1.727.223-.399 0-.975-.223-1.549-.71l.664-1.638s.198-.597-.553-.816c-.751-.224-1.174.663-1.174.663s-.772 1.635-1.103 2.542l-.179.202s-.334-.133-.663-.133c-.332 0-1.792.224-1.792 1.617 0 0 .02.333.13.438 0 0 .49-.638 1.132-.77 0 0-.4.948-.4 1.415 0 .287.774.287.774.287s.202.023.157.402c-.045.375-.09.795-.09 1.943 0 1.152.135 1.152.135 1.152s1.504 3.033 6.019 5.246c0 0 .439.175.664.175.218 0 1.373.204 2.369.753.995.555 3.185.421 3.185.421s3.828.177 8.542-2.345c0 0-3.099-4.271-3.475-7.479l1.903-2.058.572-.289c-.002-.002.752-2.127 3.275-3.367zm2.604.482s-2.424-2.264-4.125-3.322c-1.703-1.054-2.269-2.345-2.269-2.345s-3.161-3.727-4.534-4.455l-3.013-4.975s-2.713-7.22-3.624-8.011c0 0-.566-4.147-.85-5.3-.284-1.153.183-2.104.183-2.104s.667-4.471.791-7.366l2.651-7.646s.527-2.006 2.042-3.745c0 0-1.073 5.667-.891 8.435 0 0 .548 2.59.668 3.503.122.912.147 3.161.524 4.102.122.31.364 1.5.364 1.5s1.095 1.921 1.276 2.53c.18.605 1.8 5.724 1.8 5.724s1.275 2.41 1.398 2.651l2.104 2.125s2.247 3.864 3.619 5.241c.831.829 1.255 1.856 1.255 1.856l5.361 4.172s1.478 1.8 1.883 2.228c.405.423 2.854 1.919 3.196 2.467 0 0-1.861.202-2.834.849 0 0-3.277-2.41-4.652-2.893 0 0-1.678-1.881-2.104-2.123 0 0-.743-1.186-1.923-2.621-.956-1.171-2.257-2.505-3.256-3.511 0 0-1.941-2.386-3.741-5.201-.576-.897-1.161-2.185-1.681-3.075-1.363-2.329-2.399-3.998-2.467-4.208l.159 2.956.974 2.651s1.982 2.404 2.526 4.754l3.927 4.837s.364.645.423 1.009c0 0 5.241 5.663 8.195 8.189l-3.355 1.122z"/><path d="M125.049 109.391s4.495-1.742 6.339-5.662c0 0 1.196 1.658.363 3.35 0 0 1.532-.155 2.467-.828 0 0 .417 1.116.055 1.793 0 0 1.377.13 2.416-.831 0 0 .625.647.262 1.819 0 0 1.479.205 2.415-.782 0 0 .519.757.206 1.795 0 0 1.453.021 3.092-1.226 0 0-1.271 4.055-4.52 4.732 0 0-1.432-.13-3.043-.912-1.61-.777-4.492-2.181-9.43-1.399.001-.001-.883-.261-.622-1.849zM80.085 100.285s-1.748-2.475-1.748-4.558c0-1.283.352-2.656.352-2.656s-1.79.531-2.612 2.548c0 0-.108.241-.286.088-.178-.157-.996-.797-1.24-1.574 0 0-.663.067-1.283 1.348 0 0-.2.29-.529.068-.334-.222-.932-1.128-1.041-1.55 0 0-.709.133-1.573 1.438 0 0-1.196-.11-1.462-1.568 0 0-.996.242-1.458 1.525 0 0-.266.043-.464-.175-.199-.222-1.175-1.02-1.242-1.97 0 0-.795.241-.795 2.784 0 2.215 1.285 2.9 1.285 2.9s1.481.465 4.535.335c3.056-.137 6.018 1.171 7.415 2.033.313.195.728.42 1.171.069l.975-1.085zM149.379 125.866s11.427-16.429 24.172-44.278c0 0-1.323 14.731-11.708 29.46-1.174 1.671-5.096 9.815-12.464 14.818z"/></svg>