<svg xmlns="http://www.w3.org/2000/svg" width="282.324" height="200" viewBox="0 0 282.324 200" overflow="visible"><path fill="#fff" d="M91.155 116.677c.277 3.31 1.455 9.909 5.277 17.265 4.704 9.094 14.583 21.209 34.941 28.067 3.233 5.082 7.036 9.818 11.339 14.104 15.479 15.436 36.042 23.912 57.901 23.886 21.853-.032 42.391-8.575 57.83-24.051 15.42-15.48 23.912-36.039 23.881-57.903-.036-21.859-8.579-42.391-24.059-57.825-12.261-12.223-27.642-20.094-44.568-22.825-22.906-20.746-49.663-13.31-50.801-12.975l-1.683.484c-8.228 2.741-12.479-.397-15.239-2.558-3.059-2.393-6.388-4.827-9.606-6.641-10.93-6.145-26.464-6.366-39.546-1.096-8.616 2.947-12.955-.853-15.533-2.628-17.06-11.775-38.047-14.585-60.31-9.681-14.99 3.296-20.979 6.354-20.979 6.354s10.266 1.485 20.991 5.965c8.81 3.686 15.817 8.41 21.119 16.886 0 0 3.334 4.91 1.166 6.354-2.421 1.618-4.961-2.344-4.961-2.344-.08 2.844-.074 5.688.109 7.835 1.238 22.627 5.852 36.224 16.77 46.606 4.96 4.73 13.336 9.322 26.289 14.411 5.907 2.365 9.096 5.387 9.672 12.31z"/><path fill="#002D65" d="M254.585 63.918c-11.874-11.837-26.944-19.305-43.265-21.601-21.256-20.344-46.979-12.882-46.979-12.882 5.453.807 9.072 4.055 7.679 7.649-.931 2.384-4.889 2.51-6.691 2.527-5.751.061-10.704-3.459-14.663-6.679-4.119-3.349-10.839-9.288-16.858-12.673-11.2-6.31-29-5.519-41.866 2.703 7.697.525 16.959 2.736 22.482 7.311 3.088 2.558 7.022 7.694 3.807 10.103-2.834 2.102-9.777 1.009-13.304-1.033-5.62-3.251-10.673-8.172-13.709-11.745-20.376-24.007-49.253-25.343-73.069-19.469 15.63 4.389 26.059 13.293 32.5 28.635 6.445 15.349 11.452 21.879 22.064 26.041 6.645 2.603 8.442 3.084 7.924 6.028-.769 4.315-8.638 2.239-14.641-.101-7.314-2.853-16.954-10.745-22.696-25.533 1.043 19.142 4.694 32.714 15.482 42.981 4.581 4.355 13.003 8.868 26.176 13.939 8.416 3.23 15.067 5.186 21.333 10.804 7.306 6.544 4.19 10.869-.653 10.05-5.483-.924-9.398-6.527-9.398-6.527s.008 31.183 38.557 43.186c3.206 5.319 7.09 10.286 11.6 14.791 14.496 14.441 33.746 22.393 54.205 22.352 20.469-.028 39.691-8.027 54.135-22.513 14.457-14.491 22.395-33.737 22.363-54.204-.036-20.468-8.023-39.692-22.515-54.14z"/><path fill="#648FCC" d="M250.508 67.8c-11.502-11.495-26.249-18.543-42.188-20.29-13.704-13.659-27.379-13.023-27.379-13.023 5.998 3.766 2.912 12.144-10.442 13.992-13.224 1.821-30.019-2.655-38.192-12.181-8.43-9.82-14.791-10.271-14.791-10.271 7.305 4.571 7.829 10.054 12.267 18.403 4.438 8.352 13.57 11.353 21.533 11.878 8.387.546 8.582 4.343 1.828 8.353-7.375 4.37-13.902.236-18.644-4.432-7.49-7.385-14.952-8.81-25.264-8.676-10.304.133-23.938 1.485-35.433-2.816-11.503-4.307-19.1-19.447-19.1-19.447 5.701 20.1 18.334 29.627 30.064 31.927 15.503 3.044 26.21 6.728 32.771 12.037 6.397 5.192 9.802 10.373 12.216 17.512 1.854 5.505 2.189 12.823.353 13.263-2.132.511-2.578-2.438-5.096-7.569-2.779-5.672-6.106-10.114-12.795-13.695-9.082-4.841-17.962-4.559-27.02-4.436-7.177.105-11.383-.718-11.383-.718s.3.964 11.992 3.587c13.029 2.929 25.621 10.271 34.013 28.167 7.129 15.221 3.403 25.939-12.404 21.095 0 0 7.389 16.408 31.498 22.254 3.11 5.47 6.981 10.55 11.553 15.125 13.366 13.358 31.126 20.722 50.019 20.722 18.897 0 36.66-7.363 50.023-20.722 13.362-13.36 20.715-31.123 20.715-50.021.003-18.897-7.351-36.658-20.714-50.018z"/><path fill="#fff" d="M200.484 50.54c17.974 0 34.871 6.998 47.576 19.705 12.707 12.705 19.705 29.603 19.705 47.575 0 37.104-30.187 67.285-67.281 67.285-17.963 0-34.864-7.006-47.575-19.713-12.704-12.707-19.706-29.599-19.706-47.572 0-17.972 7.002-34.87 19.706-47.575 12.712-12.707 29.612-19.705 47.575-19.705z"/><path fill="#002D65" d="M200.578 179.301c-33.953.051-61.521-27.437-61.567-61.385-.049-33.958 27.428-61.52 61.387-61.572 33.947-.05 61.512 27.438 61.563 61.383.05 33.959-27.438 61.522-61.383 61.574z"/><path fill="#fff" d="M185.445 105.385h-18.207l-6.006 10.704-8.074-22.896h94.486l-8.065 22.896-5.953-10.704h-17.91l-15.169 66.36-15.102-66.36z"/><path fill="#C5C9D1" d="M247.645 93.192h-94.487l1.53 4.334h45.05l-14.293 7.859 15.102 66.355v-74.214h45.568z"/><path fill="#C0001D" d="M154.096 40.095c-13.703-.396-19.287-5.822-27.792-12.66-10.421-8.364-21.969-6.04-21.969-6.04 6.917-3.954 20.519-4.12 30.319 4.474 8.752 7.675 13.053 11.837 19.442 14.226zM37.142 9.913s12.822-.307 24.031 19.799c9.415 16.898 27.38 20.279 40.531 16.56 0 0-17.316-.448-26.799-17.245-9.681-17.168-22.487-21.934-37.763-19.114zM109.726 107.266s-1.819-18.688-28.453-24.103c-26.803-5.457-30.259-19.408-30.259-19.408s.178 20.126 23.251 26.307c16.112 4.313 27.927 6.796 35.461 17.204z"/><g fill="#C0001D"><path d="M209.721 87.28l-3.621-10.774 9.157-6.734-11.366.111-3.571-10.798-3.41 10.853-11.368.062 9.271 6.593-3.459 10.83 9.13-6.774zM169.152 125.389l-7.524 8.524-10.409-4.571 5.783 9.783-7.563 8.498 11.098-2.475 5.742 9.815 1.071-11.315 11.112-2.428-10.429-4.523zM222.43 141.47l11.148 2.243 1.25 11.305 5.586-9.905 11.139 2.305-7.692-8.369 5.631-9.881-10.342 4.727-7.649-8.411 1.293 11.293z"/></g></svg>