<svg xmlns="http://www.w3.org/2000/svg" width="247.119" height="246.789" viewBox="0 0 247.119 246.789" overflow="visible"><g><path fill="#fff" d="M77.832 186.379c-.855.259-2.61-.176-2.61-.176.589 4.268 1.236 5.726 1.236 5.726l-1.022 1.151 1.225.874c-1.318 8.447 2.569 14.258 4.366 19.92-1.418.437-3.037.361-4.255-.249.479 4.793.041 14.018-4.157 18.023-.798-.472-1.38-.608-1.691-1.045-.623 1.346-1.104 1.873-2.373 5.311-.71 2.303-1.326 5.529-1.655 9.009-3.454-1.636-7.223-3.35-10.618-8.629-.757-1.251-1.287-2.258-3.133-3.929-.427.791-.499 1.023-1.351 1.759-.901.783-3.238 1.74-3.254 1.662-.474-2.125-1.04-4.093-2.407-6.486-1.31-2.654-5.81-6.182-9.488-14.8-1.508-3.307-2.263-6.255-2.891-9.657-.281.126-.476.211-.662.252-1.367.354-2.35.264-2.821-.688-1.156 2.87-2.595 4.475-3.822 5.254-.564 1.655-.474 2.094-1.701 3.44-1.125 1.562-1.508 1.961-2.293 4.919-1.272 3.003-3.176 4.487-3.465 5.263-.474-.952-.659-.774-1.13-1.479-4.625 5.662-5.194 7.139-15.668 9.149 2.638-4.798 4.432-12.803 4.245-14.453-1.323-11.234-2.551-13.584-3.217-22.292-.391-4.354-1.503-15.061-.463-29.333 1.127-17.235 6.414-32.125 10.95-43.359 5.851-15.666 19.251-40.911 29.03-56.337l.039-13.997h3.776l3.967-8.359 1.789 1.223 6.795-16.718 4.813 12.623 8.232-4.791c3.29-2.78 26.695-33.946 76.262-33.882 48.036-.064 97.501 34.584 97.501 89.951 0 50.312-44.561 89.141-95.984 89.141-39.853-.002-65.519-18.719-79.13-35.869.867 8.62-.945 25.772 7.037 41.877z"/><path fill="none" stroke="#fff" stroke-width="2.584" d="M29.003 77.17l-.299.034-.333-.03-.271-.052-.111-.026.171 1.135.154.746.111.407.043.125-.397.485.476.368-.05 2.476.444 2.159.671 1.939.632 1.817-.856.112-.797-.218.055 1.801-.182 2.119-.522 2.058-.966 1.614-.4-.226-.257-.214-.178.385-.189.403-.237.568-.317.881-.377 1.71-.266 2.084-1.025-.546-1.046-.697-1.042-.983-1.012-1.409-.214-.382-.236-.38-.315-.412-.451-.481-.201.379-.324.362-.345.253-.416.233-.353.165-.15.049-.338-1.324-.597-1.408-.59-.936-.908-1.24-1.081-1.709-1.107-2.349-.691-2.02-.432-2.049-.257.106-.679.062-.417-.351-.734 1.437-.753.777-.129.441-.105.332-.153.309-.274.367-.281.426-.214.388-.189.5-.206.758-.403.834-.413.626-.342.45-.187.307-.22-.352-.219-.271-.611.815-.526.673-.506.556-.549.459-.655.388-.825.339-1.059.313-1.355.312.7-1.706.536-1.835.329-1.587.084-.96-.377-2.949-.345-2.147-.298-1.946-.231-2.349-.15-1.859-.149-2.752-.045-3.536.164-4.208.602-5.252 1.028-4.829 1.277-4.355 1.347-3.828.981-2.648 1.206-2.93 1.378-3.117 1.502-3.209 1.572-3.203 1.594-3.103 1.564-2.906 1.482-2.614.015-5.896h1.467l1.541-3.521.695.515 2.64-7.042 1.87 5.317 3.198-2.018.331-.355.518-.597.708-.804.901-.974 1.099-1.106 1.299-1.203 1.503-1.263 1.711-1.285 1.921-1.272 2.135-1.221 2.353-1.133 2.574-1.008 2.798-.848 3.026-.649 3.257-.414 3.492-.142 3.5.164 3.485.499 3.439.824 3.366 1.142 3.263 1.449 3.131 1.749 2.971 2.039 2.781 2.322 2.562 2.596 2.314 2.86 2.037 3.117 1.732 3.364 1.399 3.604 1.034 3.834.641 4.055.221 4.27-.2 3.914-.583 3.783-.946 3.638-1.288 3.473-1.608 3.292-1.906 3.094-2.184 2.88-2.438 2.649-2.673 2.399-2.886 2.135-3.077 1.853-3.246 1.554-3.396 1.237-3.521.905-3.627.556-3.71.19-5.55-.353-5.042-.992-4.545-1.531-4.058-1.97-3.58-2.307-3.111-2.547-2.652-2.686-2.204-2.723.087 1.522.046 1.811.062 2.054.136 2.249.265 2.397.45 2.497.694 2.551.995 2.558" transform="matrix(2.573 0 0 2.374 3.176 3.178)"/><path fill="#F1C817" d="M148.522 176.202c51.14 0 92.597-38.229 92.597-85.395 0-47.164-41.457-85.398-92.597-85.398-51.138 0-92.592 38.233-92.592 85.398 0 47.167 41.454 85.395 92.592 85.395z"/><path fill="#fff" d="M148.522 164.285c43.995 0 79.67-32.897 79.67-73.478 0-40.581-35.676-73.475-79.67-73.475-43.997 0-79.665 32.897-79.665 73.475-.003 40.581 35.668 73.478 79.665 73.478z"/><path fill="#010101" d="M98.366 83.844s-6.51 14.541-6.229 26.031c0 0 2.026-4.304 2.741-3.568 0 0-5.853 18.106-1.418 28.469 0 0 .945-2.875 2.546-4.62 0 0 2.453-3.568 3.405-6.441 0 0 .466 1.218.746 3.395 0 0 2.175-2.524 2.641-4.268.368-1.36 1.323-2.868 1.985-4.613l.752.354s4.44-4.966 6.136-9.496c0 0 1.32-.169.664 3.4 0 0 3.681-3.309 3.776-8.447l.749.788c3.115 3.568 3.115 9.054 3.027 12.447-.754 10.88-6.801 16.711-14.35 23.068l.667.522c11.228-1.911 18.625-3.032 30.018 0 4.335 1.161 14.813 5.572 19.907 8.535 0 0 11.326 4.525 19.254 4.525 0 0 .378.171.378-.218 0 0-.852-2.697-.095-12.841 0 0 .852-4.696 1.514-7.92 0 0 .849-2.175.945-6.614.01-.366-.384-3.051 1.601-2.789 4.299.563 6.7-.347 10.005-.869 0 0 3.498-.954 4.919-1.047 0 0 3.313.489 4.335.173 1.127-.347 2.358-1.223 3.871-2.524 0 0 1.694-1.657.561-5.398 0 0-1.13-3.397-.474-4.442 0 0 .999-2.308 2.456-3.661 0 0 1.04-1.56-.376-2.343 0 0-.752-.788.515-1.092 0 0 .95.085 1.555-.218 0 0 .329-.128.378-.781.059-.703.384-4.093-2.072-7.056 0 0 .71.178 1.23.354 0 0 3.017.259 4.579-.439 1.367-.696 3.349-1.564 3.071-5.747-.77-3.478-2.273-5.572-3.786-9.487-1.789-4.178-2.069-6.27-5.843-9.135-2.268-.961-3.308-2.526-1.609-4.095 1.32-1.833.847-5.135-1.503-7.4-2.27-2.091-3.967-5.311-4.824-6.968-1.127-1.738-2.358-3.656-3.485-4.788-1.14-1.306-2.834-2.084-5.846-5.398 0 0-1.807-1.479-2.085-3.041-2.551-3.656-9.632-8.796-17.748-9.318-2.368-.264-2.368-.264-4.064-.437-2.826-.957-11.701-1.223-17.743.349-1.951.385-5.851 1.042-5.851 1.042-2.072.61-4.999 1.137-8.208 2.96-2.358 1.13-5.848 3.829-8.492 5.569-2.839 2.616-9.158 6.448-12.651 8.622-6.795 4.61-12.649 10.707-16.046 14.541 0 0-8.584 9.919-12.831 27.071-.283 2.611-1.035 5.135-.571 8.01 0 0 3.784-7.573 7.277-9.93 0 0-.481 1.398-.759 3.656 0 0 1.789-3.043 2.541-3.568 0 0 1.323-1.306 3.215-3.39 0 0 3.969-4.791 5.097-5.313-1.459 2.526-1.792 4.178-1.933 6.787.613-.518.991-.916 1.181-1.218 0 0 .368-.698.752-.525.193.453-.095.795-.095.795z"/><path fill="#57211B" d="M212.235 91.463c.986-1.916.801-3.789-.615-6.051-.852-1.306-1.413-2.785-2.077-4.61-.281-.743-.847-2.265-1.503-3.568-.044-.527-1.233-2.96-1.987-3.922-1.894-2.524-3.444-2.742-4.481-3.787l-.394-.009c-1.097.677-1.115 2.165-2.049 3.297-.095.123-.409.273-.625.183-.296-.14-.417-.38-.759-.826-.311-.425-.559-.121-.898.23-.216 0-.378.159-.548.318-.293.283-.064.43.17.748.237.328 0 .328.149.496-.044.135-.085.188-.131.249-.124.173-.427.131-.651.093-.625-.093-.484-.052-1.042-.297-.685-.301-1.014-1.13-1.544-1.386-.157-.085-.695-.176-1.104.074-.304.188-.438.598-.18.817.445.373.793.812 1.266 1.142.643.444 1.346.772 1.431 1.394.113.793-1.156 1.08-1.755.662-.311-.214-.677-.456-1.009-.781-.054-.045-.106-.311-.178-.358-.268-.188-.582-.413-.731-.608-.268-.373-.623-.767-1.107-.942-.116-.038-.208-.188-.293-.32-.221-.358.018-.776-.142-1.109-.134-.271-.198-.712-.613-.541-.386.351-.335.351-.767.316-.553-.045-.113-.985-.113-.859.01.052-.023-.019.162-.328-.378-.112-.947-.394-.512-.909.373-.434.739.204.88-.057.049-.1.371-.646.492-.722.425-.228.548.081.607.166-.183.477.358.793.88.534l.085-.48c.481-.774 1.228-1.18 1.987-1.714l.309-.145c.229-.42.492-1.028.01-1.22-.404-.157-1.233-.014-1.06-.672.077-.309.515-.427.762-.529.896-.387 1.825-.772 2.757-1.109.224-.083.607-.399.891-.418 1.176-.085.901-.062 2.34.171.255.038.746.287.996.366.762.249 1.853.169 2.355-.594.499-.745.358-2.008-.149-2.884-.597-1.061-1.516-1.978-2.311-2.706-1.012-.938-2.327-1.417-2.592-2.704-.324-1.574-1.645-3.658-2.394-4.905-.788-1.287-1.483-2.144-2.481-3.338-.234-.275-1.691-1.645-1.941-1.871-1.663-1.496-2.381-1.992-4.152-2.581-.909-.299-4.448-.107-6.291-.323-.579-.071-2.358-.109-2.842-.98-.435-.788-.986-1.916-1.902-2.452-.332-.19-.837-.389-1.184-.553-1.66-.769-3.377-2.058-5.169-1.992-.662.021-.028.679.142.753.813.394 1.179.836 1.627 1.313.463.501 1.47.52 2.337.85.824.313 1.506.8 2.275 1.173.726.351 1.699 1.512.896 1.989-.728.43-1.495-.093-2.458.131-.193.047-.484.166-1.601.166-1.488.188-2.005-.472-3.151-1.223-1.145-.755-1.866-1.911-2.97-2.63-1.356-.883-2.728-1.617-4.281-2.12-.342-.112-.793.064-1.097-.085-.533-.275-.942-.867-1.616-.916-1.148-.074-1.148-.161-2.293 0-.16.031-.582.472-.721.47-.677-.024-1.462-.197-1.804.147-.523.553.121.491.793.793.378.159 1.174.558 1.629.548 1.91-.033 3.133-.047 4.628.7.16.085.831.693.867.921-1.418-.024-3.66-.541-5.3-.418 2.759-.207-2.816.069-4.031.026-.366-.012-.366.677.203 1.059.149.097.994-.045 1.104.204.494-.242 1.91-.126 2.319.019.71.233.309.133.929.434.378.185.741.437 1.184.389.577-.062.613-.848 1.192-.596.198.088.641.337.736.332 3.274-.057 3.349.888 4.875.867.396 0 .983-.147 1.261.028.613.394 1.189.442 2.134.09 0 0 2.175 5.396 1.606 15.234-.566 4.178-.847 4.966-1.889 8.361 0 0-1.503 5.394-.945 9.135.574 12.625-3.588 23.073-8.111 30.038-1.701 1.913-2.649 2.956-.945 4.344 3.588 3.051 6.517 3.746 11.604 4.795 1.804.52 2.932.693 4.625.693 2.641 0 6.806 1.042 8.687 2.353 1.789.874 6.607 2.526 9.529 2.087 2.546.176 3.305.351 4.541.786.844.342 1.701.342 2.643.085l1.457-1.002c.188-.43 1.557-.997 1.277-2.742-.095-1.303-.662-2.657-.937-3.872-.816-1.075-.764-1.873-.481-3.001.852-1.572 1.843-2.353 2.366-3.136 1.127-1.178.474-1.999-1.089-2.398-.754-.301-2.214-.173-3.727-.301-.803 0-1.465-.306-2.595-.09 0 0-.764.48-1.179.833l-.574-.309s.528-1.394 1.601-2.22c1.086.173 2.677.29 3.501.09.976-.411 2.1-.579 2.924-.876 1.421-.126 2.082-.043 3.779.047 0 0 .847-3.395-2.124-5.966-.708-.603-1.284-1.391-2.306-1.432-3.604.394-5.575-.957-6.149-1.308-.888-.043-1.166.309-1.647.833-1.233 1.909-2.69 2.564-2.69 2.564l-.754-.088s.662-1.042 2.165-2.787c.674-1.394 1.609-3.131 2.458-4.005.515-.826.664-2.697 1.933-3.219.618 0 .718-.133 1.176.131-.932.824-3.58 3.784-.837 5.61 1.127.874 2.831.874 3.248-.043.206-.501.662-.824.898-1.002 1.418-.261 2.6.392 3.066.743 1.133 1.22 1.797 1.783 2.355 2.042.62.439 1.758.347 2.317.347 1.843-.294 2.831-1.258 3.163-1.866z"/><path fill="#57211B" d="M192.504 71.039c.569.266.801.183 1.959.335 0 0 1.014.15 1.93-.589.149-.119.919-.477.893-.764-.098-1.325.121.862-.162-1.13-.064-.423-.041-.807-.227-1.256-.085-.233-.484-.639-1.071-.451-.108.038-1.042.741-1.06.774-.515.912-1.318 1.018-1.676 1.636l-.664 1.011c-.064.157-.149.32.077.434z"/><path fill="#0C130F" d="M201.19 84.152c1.619-.489 2.404.207 4.193 1.332.311.195.569.705.118.983-.149.093-.486.076-.589-.014-1.568-1.384-2.075-1.396-3.789-1.678-.085-.007-.353-.496.067-.622z"/><path fill="#0C130F" d="M191.56 99.46c-.247.681-.492 1.287-.808 1.937-.322.677-.17 1.512-.669 2.12-.219.271-.824.166-.916-.152-.322-1.189-.162-2.443.453-3.533.329-.563 1.145-.843 1.846-.629l.095.351v-.095z"/><path fill="#0C130F" d="M175.326 91.456c-.535-.164-.824-.624-.752-1.132.183.047.031-.192.19-.178 1.125.066 2.178.484 3.305.508 1.284.024 2.571-.199 3.745-.712 1.457-.641 2.716-1.327 4.116-2.186.625-.382 1.524-.61 2.299-.764 1.223-.256 1.145-.89 2.054-1.389 1.333-.715 1.233-1.244 1.979-.971.211.078-.216.513-.445.707-.502.415-1.163.831-1.619 1.569-.103.147-.803.838-.937.94-1.529 1.042-1.871 1.949-3.009 3.229-.643.729-.852 1.681-1.279 2.526-.255.499-.414 1.016-.746 1.474-.139.19-.651.097-.826.259-.942.833-1.843 1.633-2.541 2.718-.116.176-.512.169-.569.074-.605-1.071-1.447-1.88-2.883-1.918-.255-.009-.53-.539-.515-1.009.01-.104-.111-.297-.247-.325-.224-.033-.324-.226-.559-.237-.245-.012-.44-.361-.484-.508-.291-.845-.185-1.785-.373-2.673h.095z"/><path fill="#fff" d="M154.407 115.618c-.239-.871-1.761-.793-2.852-.691-1.655.164-3.166.425-4.772 1.206 1.058-1.477 2.36-1.567 4.831-2.443.561-.199.425-1.111.067-1.645-.417-.612-.958-.643-1.169-.681-2.039-.366-2.692.069-3.773.325-3.737.888-7.413 3.492-9.462 5.985-.597.729-.399 1.496-.275 1.655.381.472.973 1.788 1.135 1.629 1.516-1.512 3.354-2.906 5.341-2.469-.847.252-3.825 1.645-4.77 3.661-.059.128.384.862.945 1.253.759 1.175 1.04 1.652 1.467 1.871.265-.024.821-.534.973-.75 2.082-2.557 4.165-4.124 9.92-4.819 1.653-.259 2.595-.698 2.741-2.091 0 0 .324-.693-.332-2.089"/><path fill="#fff" d="M147.53 123.705c.098 1.308-.108 1.897.288 2.749.389.805 1.192 1.503 1.493 2.336.237.634 1.048 1.443 1.048 1.883.389.342.43.653.43.653.499.61 1.995 1.341 1.467 1.695-.618.442-2.456.131-3.562-.038-1.426-.218-.602.976-.296 1.097 1.447.551 4.484.738 5.477 1.244.602.306 1.39.769 1.645 1.315.19.408.528.764.824 1.116.955 1.187 1.297 1.7 2.288 2.45.492.373 1.06 1.009.888 1.581-.206.669-.667.812-1.359.724-.219-.031-.909-.221-1.57-.484-1.318-.382-1.601-.831-2.548-.382-.51.242.237 1.042.816 1.332 2.368 1.161 5.23 1.187 7.532 2.419 1.967 1.054 3.166 2.338 3.06 5.052 0 .05.71.408.752.349.674-.976 2.378.235 3.207 0 .077-.024.098-.434-.015-.603l-1.598-1.104c-.381-.563.167-1.168-.021-1.662-.198-.496-1.115.368-1.457.04-1.511-1.448-2.497-3.167-4.533-4.003.852-2.172 1.223-4.61 1.032-5.745-.561-.432-.795.264-.937.349-.466.411-.283 1.306-.826 1.989-.095.114-.826-.021-1.03-.188-1.39-1.094-2.687-2.391-3.336-3.943-.021-.057-.299-.375-.36-.451-1.019-1.32-.958-3.162.227-4.487.124-.145.319-.957.198-1.049-.214-.154-.687.159-.88.337-.646.61-1.202 1.828-2.293 1.719-1.236-.121-1.704-1.27-2.458-2.023-.237-.738-.685-1.211-.569-1.308-1.037-1.391-1.127-2.524-2.09-4.261-.214-.392-.512-.579-.932-.698z"/><path fill="#57211B" d="M154.708 147.214c1.233.579-.185-.743-.185-.743-.474-.304-1.583-1.885-1.799-2.258-.53-.848-.911-1.503-1.228-2.177-.463-1.049-1.385-1.79-2.909-3.146-.762-.679-1.941-1.883-2.42-2.761-.746-1.363-1.171-3.808-2.963-4.952-1.382-.888-1.05-1.897-2.242-3.616-.458-.65-1.393-.731-2.08-1.377-1.727-1.605-.633-2.224-2.139-3.699-.672-.643-.958-.774-1.532-1.762-.752-1.265-.185-2.925-1.459-3.506-1.13-.522-2.008-.707-2.775-.942-1.192-.361-3.084-1.258-4.154-2.027-1.125-.81-3.431-2.583-5.897-4.556 1.506 10.707-.577 19.849-12.085 29.426 21.331-3.658 30.672.957 45.866 8.095z"/><path fill="#57211B" d="M162.769 133.548c.064.876.389.717.916 1.921.263.603 1.004 1.659 1.39 1.959 2.185 1.69 3.691 4.299 3.539 6.989.106 1.313.18 1.232 1.575 2.144.237.161.378.176 1.122.821l2.602 2.44c-.049-.788.085-2.113.067-2.528-.126-4.107.734-8.349-.78-11.941-1.13-2.687-3.678-5.712-4.68-8.525l-.502-1.536c-.523-2.182-.574-4.458-.574-4.458l-3.156-1.391c-2.486-.916-5.284-1.759-7.786-2.611 0 1.22.183 2.084-.803 3.305.664 1.484 1.22 4.75 1.977 5.534 1.65 1.432 2.973 2.564 4.062 6.004.245.819.988 1.263 1.03 1.875z"/><path fill="#fff" d="M124.416 40.84s-1.884-.171-6.324 2.96c-4.903 2.785-11.416 6.79-16.142 12.1-3.439 3.174-8.304 8.008-10.095 11.405 0 0-2.929 4.266-4.816 11.229 0 0 .667 2.265 2.551-.696 3.295-5.175 15.853-22.596 33.786-35.299l.857-.045c-8.88 7.046-20.389 16.542-31.578 32.692-.417.598-.955 1.664-1.006 1.745-.502.864.78.997.126.85 1.022.23 1.398-1.078 2.054-1.337.404-.164.577.954 1.22.667 2.286-1.021 3.977-3.198 4.914-4.503.051.373.577 1.481.577 1.481 1.032.264 4.247-3.827 5.943-6.614.476.518-.113 1.795.51 1.249 1.941-1.688 3.673-3.497 4.703-5.149 1.205-1.932 2.53-2.801 3.001-6.194.754.434.739.62.945.779.474-.522.505-1.071 1.259-1.849.813-.85.976-1.512 1.972-2.113.358-.218 1.138-1.579 1.297-2.289.149-.674 1.771-2.861 1.889-3.587 1.318-2.265 3.588-3.483 5.189-5.223 1.511-1.213.376-3.392-2.831-2.26z"/><path fill="#fff" d="M107.805 108.827c.662.698 1.223-.218 1.223-.218 1.091-1.522 1.326-1.916 2.082-3.96.474-1.351 1.037-1.83 1.508-7.483 1.323 1.826 1.511 5.306 1.511 5.306l.378-.085s1.23-3.222 3.302-4.266c0 0 .188-2.175 2.263-4.349-.278-1.308-.474-2.355-.749-4.444-.852-3.48-1.326-9.311-.476-13.316 1.696 8.352 2.69 9.577 2.69 9.577l.378.126c.71-.997.901-2.737 1.097-4.306.837-3.307 2.35-2.958 2.35-3.658-.474-2.697-1.225-6.963-.757-10.621.947 4.005 1.418 3.746 2.072 5.23.849 1.823.945-.442.945-.442-.183-2.348 1.609-4.701-.095-10.187-.656-3.741-2.546-11.751-1.789-13.582.474-2.26-.378-1.479-.378-1.479s-2.458.522-6.134 10.101c-5.377 15.93-10.003 32.904-15.009 46.661 1.506-7.226 9.529-32.733 11.894-41.956 0 0-.332-.658-.847.081-.62.655-1.23 1.479-1.562 2.044.046-.033-.283.047-.656.226l-1.189 1.65s-2.35 3.043-8.819 9.228c-1.091 1.572-1.557 2.289-2.736 4.788-.427.914.234 1.047.942.525 1.743-1.567 1.838-1.567 4.247-3.267.106-.074 2.046-.719 2.046-.75-.306.361-.716.596-.865.736-.669.582-2.304 2.277-2.746 2.996-1.102 1.75-2.296 3.924-3.874 6.559-1.979 3.302-3.483 7.131-3.483 7.131-1.04 2.699-.757 2.96-.757 2.96 1.413.522.643 1.182.643 1.182-.643 1.083-.927 1.949.162 1.56.713-.133 1.089-.465 1.38-.802.559-.634 1.027-1.071 1.413-1.51.633-.729.51-.95 1.194-1.667.878-.94 1.436-1.724 2.337-2.11-1.562 1.954-1.653 3.347-1.653 3.347l.381.432.273.176s-1.601 1.828-2.35 5.973c-.366 1.968-.291 2.213-.62 3.305.16-.14 1.091 0 1.92-.779-.36 1.211-.432 1.821-.432 1.821-.16.999-.16.826-.16 1.961 0 1.047 0 .603.376 1.823 1.696-.696 2.072-.608 3.673-2.346.759-.655 1.338-2.246 1.57-2.137.42.178.064 1.064-.126 1.453-.257.548-.489.957-.582 1.351-.051.202-.268.496.077.769.149.123.044.104.528.093.288-.007.556-.413.556-.413s.152-.033.301-.335c.108-.256.324-.399.512-.522.003-.002.286-.264.618-.18z"/><path fill="#0C130F" d="M64.107 55.205h-1.979l6.512-13.669-8.023 5.788-1.843-8.66-4.196 11.799-2.033-1.434-3.063 6.348h-2.27v6.877h13.876l3.019-7.048z"/><path fill="#0C130F" d="M52.314 61.905l7.359 4.525.754-2.004-4.342-2.607-3.771.085z"/><path fill="#0C130F" d="M54.392 60.948l3.961 3.744s-3.112 12.098-2.546 18.719c5.761 5.135 10.008 10.097 9.346 21.238 0 0 .376.259-2.075-.434 1.228 1.22 1.601 2.177 2.641 4.264.471 3.395.762 6.443.471 9.577 0 0 .291 7.746.569 10.182 1.135.349.474 3.136.569 6.794 0 0-.095 2.262-.481 4.005-2.353-1.743-2.167-1.652-2.826-1.479.564 1.733.942 1.733 2.08 3.129 0 10.363.378 21.069 1.13 25.772.376 3.395 1.037 7.307 1.32 8.53.566 1.564.566 2.953 2.265 6.265-.564 0-2.147.043-3.21-1.215 1.511 2.607 1.511 2.089 2.456 2.958l1.318 9.054-1.506 1.562 2.08 1.218s-.474 4.095.093 7.834c.278 1.743.849 3.485 2.175 5.921-2.741.093-3.212-1.997-3.212-1.997-.754-.788-2.077-2.533-2.456-2.533-.188 2.533 1.323 3.49 1.982 4.969 1.923 4.252 2.178 8.359.474 16.274-1.889-1.65-1.982-3.136-3.4-3.915-.185 4.52-.376 5.916-1.318 7.913-1.982 3.57-2.551 5.41-2.643 8.891-3.305-2.533-4.154-6.011-6.42-8.012-1.606-1.479-4.811-4.268-5.946-6.094-.19 2.17 0 2.963-.945 5.045-.757-2.417-.847-3.131-2.643-5.13-2.358-3.051-7.647-9.838-8.87-17.064-.288-1.22-1.04-4.788-1.887-9.665-.664 1.659-1.792 2.963-2.927 3.224-.569.266-.569-.432-.569-.432.471-1.572.662-3.309.471-4.615-.278-1.921-.847-6.182-1.887-7.226h-.476c.095 2.87-1.133 4.178-1.887 5.135-.093-2.265 0-4.003-.566-5.135-.283-.791-.942-1.479-1.133-.698-.471 2.265-.659 2.699-.659 4.788-.188 3.136-.188 4.185-.571 6.792-.185 1.916-.847 4.264-2.731 6.612-.378-2.082-1.794-3.739-1.794-3.739 0 2.524.569 6.265-1.13 8.271-2.082 2.609-2.366 3.915-3.024 5.833-.286-2.267-1.037-1.569-1.413-2.789-1.514 5.914-6.237 10.443-7.933 11.485 1.133-2.429 2.08-5.22 2.268-6.961 0 0-.283-6.441-1.326-10.094-2.582-11.398-3.833-37.718-1.882-47.713 4.713-35.864 24.916-68.772 41.905-98.369l4.718-.686z"/><path fill="#fff" d="M56.373 64.515s-2.929 11.578-2.36 19.676c3.967 3.134 8.214 7.4 8.402 16.191-.329.133-.376.045-.664-.176-1.127-1.341-4.149-1.785-6.414-5.175.332 2.134 6.991 10.666 7.459 12.316.09 5.313.94 13.017.466 14.538l-2.265-1.394c1.23 2.915 2.265 5.486 3.73 7.618 0 0 .144 7.528-.144 6.483h-.378c-1.32-.874-2.641-1.916-3.629-2.785-.618-.304-.71-1.042-1.846-2.051-1.694-1.434-2.641-2.652-3.349-2.915-1.797-1.17-3.022-1.564-4.059-1.866-.327 0-.991-.088-.991-.088s3.4 2.654 5.57 5.657c2.597 2.873 3.681 4.568 4.571 6.303.996 1.75 2.412 3.487 3.544 4.966 0 2.398-.19 10.358-.049 11.709l-.71-.48c-1.694-.957-3.537-3.096-5.097-5.878-.847 4.01 3.776 8.705 5.9 10.275.708 7.445.708 10.92 2.033 18.755l-.095.61c-1.892-1.215-3.871-3.136-6.232-6.263-.188 3.043 3.115 7.048 6.61 10.878.458.513.335 1.182.584 1.762.414.964.829 2.158 1.346 2.808.427 1.695.615 3.962.52 4.919l-1.416 2.526 1.887 2.091c.185 2.262-.281 2.868 0 5.394 0 0-2.167-.171-3.117-2.44-1.696 4.359.193 9.235 1.701 11.758 1.133 2.958 1.792 4.784 1.601 8.005l-.376.954c-1.13-2.087-2.734-3.825-4.342-4.957l-.656-.169c1.588 9.159 1.04 12.183-1.977 18.023l-.479-.437c-1.696-3.053-4.903-5.403-7.166-7.573-.381-.085-4.342-4.703-4.631-8.447l-.468.09c-.19 1.306-.759 4.095-.378 4.613l-.378-.173c-2.263-.961-6.371-8.354-7.076-12.618 0 0-.149-.833-.474-2.531-.144-1.652-1.084-6.702-1.277-7.4-.329-1.871-1.192-4.235-1.552-5.482.049-.437-.281-.567-.52-.216-.52.686-.94 1.346-1.228.912-.237-.432-.044-1.13.144-2.087-.378.259-1.225.368-1.323-.261-1.04-4.266-1.604-9.577-1.604-13.931.474-1.128 1.792-3.214 2.834-5.486l-.093-.518c-1.135.518-3.024 2.262-3.4 3.214l-.474-.605c-.376-1.747-.752-5.14-.752-8.705-.19-.655.09-1.042.378-1.569.752-1.65 1.606-3.499 2.263-5.311.569-1.833 3.73-7.48 4.677-8.793l-.623.522c-1.737.57-6.224 5.574-6.79 5.923l-.425.04c.234-5.007 1.745-16.146 2.782-22.985 1.04-2.566 9.158-10.398 7.266-9.007-3.676 1.22-4.903 2.438-5.663 2.787l-1.13.349c1.127-4.86 3.472-22.425 5.949-27.161 1.789-2.873 3.586-3.656 4.906-6.79l-.947.432c-.659.615-3.588 2.616-5.377 4.881l-.574.085c.849-2.262 1.135-4.698 2.834-7.834.468-1.31 1.228-1.83 1.797-2.96 1.411-1.657 1.979-2.267 3.302-2.875.656-.256 1.887-.693 1.887-.693-3.768 14.256-5.097 25.846-6.232 41.695-1.133 25.247 1.163 55.796 10.389 74.693-7.367-22.109-10.198-46.136-9.254-70.513.754-20.894 4.147-37.609 11.516-65.812l1.604.954z"/><path fill="#fff" d="M51.371 62.339c-2.358 2.963-18.595 31.168-20.198 36.306-14.34 26.548-22.842 53.011-22.275 79.047 0 11.4 1.326 19.237 2.831 27.591.664 3.219 1.604 7.573 1.416 10.355l.476-.259c.659-1.132 2.45-4.698 3.022-7.656.19-1.132.849 0 .849 0 .275.779.847 1.13.942 1.911 0 .7.371.615.564.085 1.037-1.911 1.323-3.048.942-5.047-.376-1.652-.656-8.53.19-11.056 0-.7.659 0 .659 0 .476 1.047 1.23 2.963 2.924 4.53 0 0 .71.432.757 0-.18-1.828-.373-13.755 2.646-15.065 1.13.259 1.228.961 2.075 1.743.95-.959 1.326-5.049 1.042-8.183.093-4.874-.664-9.752-1.135-12.793-.396-.961 0-1.137.566-1.313.139-.093 2.265-2.524 2.265-3.825-1.786 1.13-2.265 1.391-3.964 2.44-.188-3.749-1.982-9.665-3.961-14.287 2.077 1.75 3.393 3.746 4.057 5.403.754-3.829 1.037-6.099 1.133-7.927-1.035-3.395-3.017-10.79-2.831-16.279 1.228 4.007 2.358 8.359 3.588 10.973.566-1.921 1.037-5.315 1.792-8.188 1.035-.696 2.265-1.394 2.641-1.997-.378-.615-1.987.522-2.265.603.188-2.697.659-7.92-1.32-16.452l.278-.261c.849.351 1.887 1.916 2.265 3.573 1.701-1.828 2.834-10.88 3.305-14.448-1.794 0-2.641 1.826-3.871 1.648.188-1.132.283-.605.754-1.648.474-1.223 1.609-2.445 2.08-4.095 1.037-1.394 1.037-3.048 1.133-4.613 0-1.481-.188-3.656 1.13-5.572.288.776.098 1.306.752 2.958 0 0 2.649-5.311 4.064-6.526 1.882-7.575 6.414-16.108 10.667-21.682"/><path fill="#fff" d="M52.218 67.125c-3.117 4.098-5.382 10.536-6.517 15.151 1.416-.698 1.511-.615 2.834-1.045.474-2.179 4.196-14.776 3.683-14.106z"/><path fill="#F1C817" d="M21 166.53c.057.252.494.095.263.347.566 0 1.156.102 1.681-.047.265-.071.445-.453.492-.662.154-.729.543-1.657-.167-2.167-.623-.468-.515-1.204-.955-1.562-.203-.164-.636-.275-.929-.546-.219-.207-.615.254-.613.461.01.57.42 1.149.409 1.762-.013.935-.484 1.196-.18 2.417z"/><path fill="#F1C817" d="M14.186 158.529c-.064-1.009-.425-2.431 1.205-2.032.512.121.628.821.641 1.161.026.912.252 1.64.672 2.44.239.453-.165.845-.412 1.168-.631.862-1.93 1.348-2.672.499-.453-.515-1.004-1.289-.595-1.994.322-.553.579-.855 1.066-1.337"/><path fill="#F1C817" d="M15.821 168.893c-.857-1.137-.456-2.196.546-2.87.633-.423 1.4-.138 1.583.361l1.143 2.963c.358 1.061-1.099 2.089-2.124 1.626-.731-.344-.68-1.458-1.148-2.08z"/><path fill="#F1C817" d="M16.698 173.018c-.409-.119-.448.207-.651.375-.425.335-.427 1.042-.798 1.505-.692.859-.484 2.073-.211 2.892.183.563 1.094 1.382 1.869 1.32 1.225-.095 2.131-2.196 1.197-2.694-1.215-.665-.788-2.338-1.236-3.245-.033-.066-.324-.024-.515-.024"/><path fill="#F1C817" d="M24.487 170.87c-.314-.385-.327-.904.033-1.151.329-.223.903-.116 1.236.15l.543.358c1.014.743 1.634 1.738 1.086 2.877-.149.32-.752.622-1.174.332-.327-.226-.782-.24-1.009-.627-.363-.629-.216-1.341-.716-1.94z"/><path fill="#F1C817" d="M13.331 163.834c-.183-.556-.692-.283-.976.121-.667.954-1.001 1.88-1.097 3.274.188.779 1.405.928 2 .582 1.351-.781.384-3.779.319-3.366.041-.268-.247-.669-.247-.61z"/><path fill="#F1C817" d="M39.579 172.449c-.275-.192-.731 0-.757.313-.103.893-.118 2.588 1.354 2.312.523-.093.87-.591.746-1.097-.178-.722-.757-1.128-1.344-1.529z"/><path fill="#F1C817" d="M43.107 175.623c-.358-.328-.991-.275-1.256-.09-.538.385-.739 1.199-.548 1.814.211.669.458 1.384.996 1.902.345.332 1.063.717 1.254.477.44-.575.852-1.344.656-2.175-.18-.738-.546-1.396-1.102-1.928z"/><path fill="#F1C817" d="M56.606 174.58c-.263.021-.597.055-.703.204-.528.764.049 1.652.749 1.97.734.347 1.66-.795 1.115-1.424-.345-.411-.893-.764-1.537-.75"/><path fill="#F1C817" d="M50.128 182.589c-.273-.128-.7-.935-.492-1.474.193-.482.79-.677 1.297-.596.584.102.96.482 1.29.881.865 1.026 1.109 2.628-.013 3.485-.456.356-1.277.271-1.598-.23-.412-.627-.108-1.132-.422-1.804l-.062-.261z"/><path fill="#F1C817" d="M57.968 183.151c-.77-.556-.45-1.671-1.3-2.17-.474-.287-1.104-.356-1.542-.017-.463.37-.461.902-.579 1.458-.064.309.152.582.299.85.62 1.17 2.126 1.208 3.302 1.868.157.088.463-.211.579-.399.363-.584-.224-1.204-.759-1.591z"/><path fill="#F1C817" d="M45.478 182.054c-.399-.442-1.084-.297-1.493-.04-.142.085-.281.316-.281.489-.008 1.132-.417 2.303.031 3.376.27.646.893 1.429 1.701 1.099.577-.237.937-.883.744-1.503-.36-1.151.172-2.448-.703-3.421z"/><path fill="#F1C817" d="M66.839 182.4c-.245-.793-1.792.012-2.347-.496-.486-.446-1.073-.845-1.161-1.548-.394.826-.08 1.683.337 2.414.237.418.785.641 1.138 1.011.404.401.546.954.772 1.458.288.658-.412 1.037-.852 1.116-1.38.235-1.421-1.593-1.856-2.476-.306-.634-1.187-.883-1.653-1.467-.113-.133-.317-.278-.422-.444-.391-.643-1.184-1.099-1.529-1.778-.062.297.046.591.142.855.659 1.923 1.717 3.62 2.628 5.434.257.503.538.999.695 1.55.139.47.064 1.033-.232 1.325-.291.301-.986-.349-1.127-.131-.502.814.281 1.785.728 2.581.319.565.883 1.128.618 1.776-.051.126-.242.297-.435.347-.669.166-1.256-.233-1.611-.579-1.393-1.344-2.605-2.694-3.709-4.309-.425-.617-.193-1.422-.664-2.03-.27-.349-.785-.914-1.254-.529-.152.133-.335.311-.368.506-.147.793-.322 1.536-.844 2.122-.149.166-.438.437-.497.537-.713 1.213-.873 2.611-1.102 4.033-.057.337-.149.762-.528.935-.396.195-.664-.197-.88-.449-.574-.65-.806-1.427-1.202-2.172-.237-.465-.247-1.033-.566-1.522l-.17-.012c.054.133-.075.252-.136.335-.378.601-.996.878-1.673 1.113-.371.133-.793-.119-.873-.415-.456-1.69-1.717-2.892-2.229-4.511-.782.005-1.55.169-2.062-.534-1.127-1.538-.901-3.262-1.05-4.95-.252.202-.559.342-.741.617-1.792 2.657-2.479 5.425-3.246 8.432-.152.603-.247.826-.453 1.391-.422 1.182.237 1.351.901.567 1.158-1.377.916-.242 1.035.088.288 2.011 1.418 4.005 1.882 7.4.386 3.305 1.138 6.614 1.514 8.269 1.004 5.436 4.909 10.97 7.269 12.342-.281-2.262.566-3.115.378-4.86l.479-.088c.088 3.051 2.543 6.968 5.372 9.147 2.265 2.433 3.495 2.953 5.403 5.479.566.871 1.017 1.27 1.49 1.966 1.037-1.966 2.927-5.444 2.927-9.275 0-2.941-.098-6.267-.945-8.884 1.701.703 3.591 3.224 5.006 5.406.849-1.662.376-6.272-.942-8.535-1.323-2.787-3.495-6.616-1.985-12.274.942 1.997 1.606 1.911 3.117 2.26.283-2.091-.098-5.047 0-5.396-.574-.95-1.884-2.096-1.884-2.096l1.411-2.516c.662-2.524-.656-4.53-.517-4.919-.713-1.436-1.197-2.666-1.495-3.618z"/><path fill="#F1C817" d="M50.515 168.415c-.206-.539-.78-.938-.474-1.474.085-.15.396-.112.625-.161.672-.166 1.467-.069 1.91.37.35.347.587.757.878 1.187.293.444.373.976.566 1.467.216.541-.023 1.142-.481 1.398-.533.297-.759.553-1.542.23-.293-.121-.474-.703-.613-.928-.18-.301-.167-1.154-.407-1.434-.219-.24-.337-.325-.463-.655z"/><path fill="#F1C817" d="M50.007 171.355c-.229-.202-.533-.192-.77-.209-.116-.005-.448.019-.435.214.077 1.054-1.248 1.55-1.65 2.381-.404.862.425 1.678 1.109 2.26.548.465 1.416.15 2.08-.038 1.097-.304 1.236-1.721.981-2.675-.196-.719-.69-1.365-1.315-1.932z"/><path fill="#fff" d="M62.549 57.383h-12.976v2.785h11.846l1.13-2.785z"/><path fill="#fff" d="M61.085 49.592l.474 2.046 2.456-4.401-2.929 2.355z"/><path fill="#fff" d="M52.123 55.245l1.318-3.001 3.779 3.001h-5.097z"/><path fill="#fff" d="M56.463 51.939l1.748-5.745 1.22 8.093-2.968-2.348z"/><path fill="#F1C817" d="M9.179 167.356c.098.781.082.304.494.957.378.586.167 1.375.456 2.049.242-.292.708-.425.749-.867.358 1.348-.7 2.645-.185 4 .577-.477 1.431-.586 1.887-1.223-.039.541-.201 1.059-.283 1.583-.147.907.25 1.818.366 2.766.139 1.194 1.748 2.094 1.29 3.267-.746 1.913-1.143 3.938-.468 5.743.142.38.35 1.014.826 1.218.36.152.906.161 1.259 0 .193-.09.358-.377.394-.646.147-.84-.257-1.624-.093-2.426.203-1.042.402-2.084 1.12-2.92.147-.169.698-.114.824.147.474.98.283 2.151.911 3.053.216.304.96.52 1.354.183.88-.757.561-1.94.674-2.925.188-1.633-.643-2.509-.878-4.173-.219-1.557.095-1.788.633-2.431.566 1.46.571 3.048 1.714 4.342.245.273.692.283.883.138.826-.658.659-2.089.057-3.02-.916-1.413-1.663-3.646-.01-4.943-.106.715-.095 1.524.304 2.056.548.734 1.565 2.239 1.709 3.684.057.515.855.722 1.346.316.085-.074-.021-.418.237-.446.793-.102 1.166.762 1.127 1.358.314 0 .731.1.891-.05.762-.719.577-2.433.625-3.428.082-1.837.559-1.137.885-1.315 0 0 .142.876-.044 3.397.283 3.138-.093 7.231-1.042 8.183-.847-.779-.942-1.479-2.072-1.743-3.019 1.31-2.829 13.24-2.646 15.063-.044.437-.757 0-.757 0-1.694-1.564-2.448-3.483-2.924-4.522 0 0-.659-.7-.659 0-.847 2.524-.566 9.399-.19 11.058.378 1.997.095 3.129-.942 5.042-.19.527-.564.615-.564-.085-.095-.779-.667-1.125-.942-1.916 0 0-.659-1.125-.849 0-.571 2.958-2.363 6.531-3.022 7.663l-.476.261c.188-2.785-.752-7.136-1.416-10.36-1.506-8.359-3.019-16.191-3.019-27.595 0-5.14.304-10.662.304-10.662l.165.169z"/><path fill="#F1C817" d="M48.328 188.632c1.341 3.924 3.037 9.232 4.175 11.234-.286-2.262-3.588-11.234-3.495-11.837.093-.612-.68.603-.68.603z"/><path fill="#fff" d="M152.379 41.245c-.283-.292-1.3-.14-1.477-.539-.121-.271-.273-.584-.453-.719-.309-.23-.749.085-1.179.15-.582.083-1.202-.031-1.792-.211-1.012 1.075-3.712.363-4.986.449-.16.007.803.51.973.646.893.705 2.368.643 3.457.677.178.007.533-.171.672-.185 1.171-.147 2.337.226 3.573.42.386.062 1.601-.311 1.212-.686z"/><path fill="#fff" d="M170.726 42.753l-2.801-1.477c-.17-.254-.386-.563-.654-.793-.631-.529-.963-1.161-1.691-1.583-.958-.57-1.753-1.303-2.811-1.659l-.366-.019c-.08-.017-.129-.083-.108-.169-.088 0-.211.033-.268-.012-.142-.152-.366-.237-.502-.278-.548-.166-1.174.133-1.658-.259-.273-.226-.595-.361-.903-.537-.834-.499-1.792-.197-2.687-.066-.18.024-.445.242-.633.394-.34.273-.898-.216-1.349-.076-.394.119-.831.544-.453.888.409.375.937.636 1.493.762 1.622.377 3.326.007 4.857.631.443.178.986.385 1.166.907-.154.028-.322.159-.456.066-.378-.249-.785-.245-1.156-.271-2.582-.195-5.156-.392-7.737-.059 0 .605.26 1.246.86 1.322.803.097 1.663-.133 2.432-.076.842.055 1.74.556 2.582.995.113.059.311.055.445 0 .378-.142.708-.643 1.125-.465.255.119.525.221.793.264.592.093 1.017-.007 1.578.069 1.192.164 2.211.9 3.387.741.888-.119 1.295.152 1.73.52-.257-.207 1.627 1.03 1.786.724.069-.114 1.977-.216 1.997-.484z"/><path fill="#fff" d="M177.556 42.22c-.762-.442-.847-1.315-1.254-1.961-.311-.494-.728-.893-1.223-1.128-2.219-1.061-4.806-2.906-6.456-2.766-.52.047-.731.565-.435.833.569.506 1.57.679 1.655 1.51 2.211 1.018 6.095 1.7 5.912 3.924-.013.216 1.423-.458 1.799-.413z"/><path fill="#F1C817" d="M49.574 57.383l13.918-.021c-.759 1.391-1.212 2.818-1.212 2.818l-12.703-.014v-2.782z"/></g></svg>