<svg xmlns="http://www.w3.org/2000/svg" width="512" height="512" viewBox="0 0 512 512"><g><g><path d="M386.9 281.1c.8-4.2 3.1-8.9 1.1-13.4 2.2-1.2 4.8-2.5 7.2-3.7.2-2.8-.8-11.2-10.2-17.2 0 0 4.1-1.4 2.2-9.8-11.4.9-8.4-11.9-11.6-18.3 9.6-5.5 12-16.6 9.1-23.7-2.9 5.1-6.7 9.4-12 10.2-26.1-67.8-92.8-84.8-132.3-82.6 0 0-1.2 9.8-3.4 13.7-28.7-7.5-28-38.9-41.6-58.6-3.2-4.5-11.8-15.4-21.6-17.2-1.9-.3-2.6 1.1-2.4 1.9 20.3 13.8 22.4 37 24.4 59.5 1.6 18.9 13.5 29.7 25.9 38.9-.7.6-1.7 2.7-2.3 3.9-15.9 4.5-35.1 1.9-48.4-7-26.9-17.6-20.2-51.2-27.7-77.7-2.2-6.9-5.7-16.3-12.8-20-2.2-1.2-4.4.1-3.3 1.5 5.2 7.3 8.9 15.5 9.4 24.7.2 23.8-5.6 49 3.5 71.3 13.6 30.3 38.7 52.1 69.1 58.5-1 10.7.1 19.9 1.9 30-32.7 17.7-58.1 36.3-100.1 101.3-1.3 2.6 0 5.1 3.5 1.8 41.2-38.3 109-57.2 151.7 6.5 20.5 32.3 18.7 55.1 17.4 76.3 0 7.4-4.5 17.6 2.2 20.5 7.1 3.1 14.2-15 14.3-17.5 1.6-1.6 2.3-4.8 2.4-7.1 1.5-1.1 2.3-6.3 1.9-9 4.3-5.1 8.1-17.7 3.3-25.1 1.6-4.3 1.8-15.3-.9-21.2 1.5-6.5 3-21.1-2.3-27.8 7.7-8.7 17.7-15.7 27.8-20 2.5 18.9 6.2 43-10.3 56-1.1.7-.9 2 1.1 1.5 26.6-8.9 32.3-59.6 34.1-66 8.9-4.6 34.1-11.4 41.7-14.2 7.9-3 2.4-13.7-.7-17.5-1.7-2.2-6.2-3.2-11.3-3.4zm-4.2-42.3l.4 2.9c-5.5 1.3-13.6 6.7-15.4 3.1-1.6-3.2 5.6-3.7 6.8-5.3.7-.9.1-2.3-1.6-2.7-3.9.1-6.1.1-7.7.6-3.3 2.8-3.1 9.6-1.6 11.8-7.2 3.3-14.3 10.6-18.4 14.9-1.9-9.4 5-16.1 11.9-20.9 1.6-1.5.6-10.9-.6-15.8-1.3-.6-3.5 0-3.7-1.1 0-1.1 8.6-1.3 12.2-1.4-.9-5.9 6.2-6.9 8.3-3.5 2.7 5.8.9 16.4 9.4 17.4zm-.4-35.7c-.5 4.5-3.4 8.6-7.5 10.9-11.4 5-26.6-2.3-37 4.8.2-3.9 2.2-9.3 8.1-9.8 15-.5 25.6 4.4 36.4-5.9zm-15.7 1.9c-20.5-1.1-42.9 2-61.5 7.6-2.8 28.8-36.8 39.6-56.6 17.5 0 0-7.5 1.7-30.3 12-2.8-3.8-5.2-12.9-.9-15 5.9-3.2 10.4-5.9 16.5-7.3 5.1-1.2 13.3 1.4 17.3 2.5 22.6 13.6 45.6 13.9 51.4-26.3 0 0 29.2-7.2 56.9-5.3 0 .1 4.4 6 7.2 14.3zm-151.1 17.3v-5l8.6 1.2c-2.7.9-5.7 2.3-8.6 3.8zm28.6-96.1c87.3 2.2 112.5 60 112.5 60-16.7-1.4-38.2 1.7-55.1 5.3-9-22.9-22.7-32.4-75-27.8 7.1-13.1 15.8-21.6 17.6-37.5zm-36.4 13.9c-4.4-8.3-7.5-18.8-8.6-29.1.1-.4.3-.4.5-.3 1 5.6 2 10.1 4.4 14.1.5.5 1.3.3 1.1-.6-1.8-5.2-3.7-11.2-4.6-17.9.2-.3.4-.7.6-.1 1.6 4.2 4.2 11.5 6.2 13.6.3.4 1.2.3 1.2-.5-.8-2.3-2.5-6.7-3-8.9-.3-.7.3-.5.5-.3 4.8 13.2 12.1 20.2 21.3 25.8 3.3 2.3 2.2 11.5-5.3 13.1-6.5 1.3-11.4-4-14.3-8.9zm9.2 61.2c-1.8-2.4-10.1 4.1-11.1 2.9-.7-.5 3.7-2.2 2.7-3-2.8-1.9-7.6 1.9-8.3 1.1-.5-.8 1.8-1.1 1.1-2.2-2-2-9.1 2-9.7.8-.4-.8 5.2-1.9 4.1-3.4-1.9-1.8-7.7 2.1-16.1-1.8-31.4-16.5-39.7-49.5-40.7-63.2.1-.5.1-.6.4-.2 2.5 12 7.2 28.7 18.1 37.1.6.4 1.1-.4.8-.8-11.6-9.1-15.9-29.6-16.5-47.3 0-.7.2-.7.4-.2.8 13.4 4.5 29.5 15.3 39.7.5.4 1.2-.2.8-.8-10.4-12.5-13.5-28.4-13.4-43.7.1-.6.5-.4.5-.2.6 18.3 8.9 33.8 23.9 45.5 28 21 74.6-1.2 101.2 7.7 39.6 11.6 27.2 46.5 15.4 52.6-2.7-2.8-4.5 1.1-5.6.5-1.2-.8 1.4-1.9-.2-2.9-1.5-.6-3.3 1.6-4.7 1-.8-.3 1.4-1.9.3-2.6-2.3-1.6-5.2 3.3-6.4 2.6-.9-.6 4-3.1 2-4.7-2.6-1.9-6.1 3.2-7.2 2.4-1.7-1.2 7.2-5.1 3.8-6.7-1.9-.9-7.8 5.2-9.1 4.1-1-.9 7.2-4.3 4.9-6-1.9-1.1-12 6.1-13.5 4.9-1.1-.9 8.9-5.7 6.5-7.6-2.9-2-12.5 8.2-14.4 6.5-1.4-1.1 8.2-4.9 5.9-7.3-2.2-2.2-12 7.6-14.6 5.7-1.2-.8 9.8-5.2 6.9-7.4-2.9-1.7-14.4 7.8-15.5 6.3-.9-1.2 9.7-5.2 8.3-7-3-2.8-13.6 6.5-15 5.2-1.3-1.3 8.4-4.5 6.6-5.9-3-2.1-12.8 5.6-13.8 4-1-1.6 8.2-2.8 5.9-5.7zm-72.4 120.1c-8.4 5.7-14.9 10.4-23.1 18.5-.7.6-1.1-.4-.4-1.3 49.7-74.2 109-98 123.4-101.7 2.8-.6 2.5 1 1.4 1.7-27.2 10.5-72.5 37.5-91.8 70.1-2.9 5.1-5.2 9.8-9.5 12.7zm37.5-11.2c-10.4 3-19.1 5.3-28.2 8.5-.8.3-2.2.2-1.7-.9 21.3-38.4 60.5-61.5 98.1-77.9 1.1-.6 1.9.7 1 1.1-27.9 13.6-48.1 40.6-64.9 66-.3.6-2.7 2.7-4.3 3.2zm10.1-1c-1.5-.6-1.3-2.1-1-3 18-22 32-50 59.3-61.3 2.2-.6 5-2.2 7.3-1.2 5.3 2.2 14.3 5.6 25.5 2.6 22.1-6.9 24.9-28.2 24.9-28.2 5.5-1.4 10.9-3.1 16.9-3.7-6.4 37-58 52.3-60 91.1-15.3 3-34.4-9-37.3-26.9-3.8 7.6-8.9 16.6-17.8 24.4-5.1 4-12.6 7.9-17.8 6.2zm100.2 46.2c-3.3-2.7-6.4-5.9-10.5-7.2-.5-14.4 9.4-30.7 12.7-35.7 1.3-2 2.6-.7 3.3 1.9 7.3 22-3.7 31.1-5.5 41zm9.4-8.3c3.5 2.2 1.7 20.2-2.2 29.5-2.7-3.9-6-7.3-7.8-9.1 2.5-5.8 8.4-21.1 10-20.4zm-5.9-71.7c-.6.3-2.2-1.8-3-1.4-1 .6 2.6 5.6 2.6 5.6.1 29.9-15.7 36.1-15.6 54.4-3.2-2.5-7.4-6.2-11.4-7.7-7.2-28.2 27.6-65.5 29.5-63.9.7.9-1.4 12.4-2.1 13zm-87.6 33.3c8.3-5.2 14.5-14.1 17.8-20.8l3.3 7.2c-4.2 5.2-10.4 12.3-16.6 14.6-2.4.4-6 .5-4.5-1zm40.9 19.8c-9.7-8.3-20.1-13.6-31.8-17 4.5-3.3 10.6-8.9 14.2-13.6.6.6 1.5 1.5 1.9 2-.5 11.9 5.5 21.1 16 26.6 1.8.7.7 2.9-.3 2zm-11.4-25c8.3 5.6 17.2 8.1 26.6 7.5v13.6c-26.1-3-26.6-21.1-26.6-21.1zm26.9 40.6c-2.8-1.7-13.8-12-9.8-15.4 4.3-4.5 23.6 8.3 23.6 8.3-.2 3.1-.9 6.1-.6 9.4 0 0-10.2-.3-13.2-2.3zm8.2 14.3c-1.4-2.7-4.2-5.9-2.6-7.9 2.6-2.3 14.3 1.7 20.3 8.2-.6 2.9-1.5 5-2.2 8-6-1-12.4-2.1-15.5-8.3zm10.2 20.1c-1.2-2.2-3.1-7.3-1.1-8.9 2.4-1.3 12.8 3.7 16.2 9.9.6 1.5-2.3 6.8-3.4 7-1 .6-10-3.9-11.7-8zm16.1 21.4c0 2.2-1.8 5-2.7 4.9-1.1.3-9.5-4.6-10.2-9.4-.5-2.5-.8-7 .5-7.5 2.3-.6 10.5 6.9 12.4 12zm-12.7 49.6c-2.6-1.5-1.1-7.3.8-10.5 1.6 1.1 2.8 3 4.3 4.5-.6 1.5-2.6 7-5.1 6zm6.6-9.1c-2.2-2.3-3-4.3-5.8-6-.9-.9-.1-3.2.6-3 2.2 1 5.5 4.6 6.4 7.7.2.9-.4 1.9-1.2 1.3zm2.4-5.6c-2.1-2.7-4.8-5.5-7.4-7.6-1.2-.7.1-2.9 1.4-2.6 3.1 1.1 5.7 5.5 7.1 8.9.1 1.1-.8 1.7-1.1 1.3zm2.1-6c-1.1-2.6-6.5-8.1-9.6-10.8-1.7-1.3 1.2-4.1 2.3-3.1 4.6 3.6 10.3 11.5 7.3 13.9zm1.8-6.4c-2.2-5.2-6-9.9-10.7-13-1.7-.9-1.5-4.9 0-4.5 5.5 1.9 11 8.6 12.2 14 .6 2-.6 5.1-1.5 3.5zm6.4-24.3c1.8 1.3.4 11-2.8 15.4l-4.1-5.6c2.1-3.4 5.6-10.6 6.9-9.8zm-4.8-.8c-.7-3.3-2.7-5-3.7-8 .7-1.1 6-12.5 7.1-12.1 2 .9 0 14.7-3.4 20.1zm3.2-57.7c3-12.3-1.9-23.3-6.4-33.4 1.6-8 2-14.7 3-22.7.6-1.7 2.7-2 3.4-.9 2.2 17.9 9.5 24.1 25.5 23.3l1.1 12c-10.2 4.2-18.8 13-26.6 21.7zm25.7-39.2c-14.8 4.4-23.2-4.6-21.9-24.9-1.8-2.8-6.6 3.6-7.2 1.6-.1-21.4 9.2-22.4 12.8-27.6 3.5.5 7.3 1.7 9.2 4.3 5.7 8.9 4.3 19.7 7.7 29.7.8 1.8 2.5 0 2.5 0-3.8-13.8.3-33.3-16.4-39.1 6.7-9.2 9.3-19.3 12.2-30 1.1-1.2 3.5-1.5 4.7-1-.5 4.2-2.2 8-1.6 12.8.4 2.9 5.9-3.5 9.1-5 4.5-2.3 11.8-1.7 18-.8 1.3.2 1.1 1.5-.2 1.6-6.1.6-15.4 1.8-15.9 4.5 0 2 7 3.9 11.2 4.1.6 2.3 1.2 5.1.9 7.8-7.8 3.7-17.7 13.7-12.2 30-6.2 9-10.2 20.6-12.9 32zm26.8 5c-6.8 20.5-9.8 47.7-18.5 59.5-.2.2-.6.2-.4-.3 10.2-20.4 8.4-38.8 14.4-58.4.3-.7-.5-1.7-1.2-.6-6.8 9-8 44.9-13.8 55.9-.2.4-.8.5-.6-.3 6.9-25.9 1.5-50.9 12.1-70.8.4-.7-.8-1.8-1.9-.6-4.7 8.4-10.2 25.7-8.6 46.2.1 1.1-.8 1.3-1 0-3-23.9-5.3-47.8 11.5-68.4 7.1-8.7 17.7-16.8 24.8-18.6 16.7-3.5 19.1 12.2 19.1 12.2-19.7 5.6-30.2 26.9-35.9 44.2zm5.5 1.7c-1-.6-.9-2.6.1-3 5.8-1.6 22.3-5.4 23.2-3.6.2.6-22.1 7.3-23.3 6.6zm36-10.3c-12.3-.6-24.2.7-34.8 3 2-12.1 18.2-30.6 21.4-28.8 3.1 1.7-3.6 10.3.2 12.9 2.8 1.7 6.2.6 8.5 1.4 5.2 2.5 6.5 11 4.7 11.5z"/><path fill="#3C1E5E" d="M302.6 196.1c-5.8 40.3-28.8 39.9-51.4 26.3-4-1.1-12.2-3.7-17.3-2.5-6.1 1.4-10.6 4.1-16.5 7.3-4.3 2-2 11.2.9 15 22.8-10.4 30.3-12 30.3-12 19.9 22.1 53.8 11.3 56.6-17.5 18.6-5.6 41-8.7 61.5-7.6-2.8-8.3-7.1-14.2-7.1-14.2-27.9-2-57 5.2-57 5.2z"/><path fill="#fff" d="M401.5 281.4c-1.7-2.1-4.7-3.5-9.1-4.3.6-2.2 1-4.7.7-7.3 1.3-.7 4-2.1 4-2.1 1.4-.7 2.3-2.1 2.4-3.7.3-5-1.8-12.4-8.3-18.3.9-2.3 1.3-5.5.3-10.1-.5-2.1-2.5-3.6-4.7-3.4-3.2.3-4-.3-5.1-7.6-.2-1.5-.5-3-.8-4.5 9.1-7.1 11.2-18 7.9-27.2-1.4-4-6.4-3.1-8-.5-1.9 3.1-3.7 5.4-5.7 6.7-12.3-29-33.5-51.8-61.7-65.9-22.4-11.2-49.1-16.9-73.4-15.5-2.1.1-3.9 1.7-4.2 3.9-.3 2.5-.9 6-1.7 8.8-14.2-5.5-19.2-18.8-24.5-32.8-3-7.8-6-15.9-10.8-22.8-4.5-6.3-13.6-17-24.5-19-8.7-.7-8.9 8.1-5.7 9.9 18.7 12.6 20.6 34.8 22.4 56.2 1.6 18.8 12.5 30.1 23.6 38.9-14.1 3-30.4.3-41.5-7.2-17.2-11.3-19.7-29.5-21.6-49.7-1.2-13.1-4.3-25.6-4.3-25.7-2.8-8.8-6.8-18.3-14.9-22.5-3.1-1.7-6.7-1.2-8.7 1.1-1.7 2-1.9 4.8-.3 7 8.7 11.9 9.2 22.5 8.5 34.2-3.7 32.1-1.9 48.4 5.9 65.8 18.3 35.2 45.9 50.4 66.6 55.4-.5 9 .4 16.9 1.6 24.2-29.6 16.3-56.3 35.3-98.9 101.2-3.5 4.6.8 15.1 10.2 7.5 26-24.2 58.3-36.7 86.3-33.4 23.4 2.7 43.1 15.9 58.7 39.1 19.3 30.5 18.4 54.9 16 80-.6 6.4-2.4 15.1 5.6 18.4 2.8 1.2 5.9.8 8.8-1 5.8-3.8 10.2-13.8 11.3-18.6 1.7-2.4 2.4-5.4 2.6-7.4 1.7-2.7 2.1-6.8 2.1-9.3 4.6-6.6 7.6-18.6 3.6-27.1 1.3-5.7 1.2-14.9-1-21.1.8-4.3 2.8-17.7-1.4-26.8 5.4-5.5 11.8-10.3 18.6-14 1.4 16.9 4.5 33.8-9.5 45.9-3.5 2.8-3.2 11.4 5.2 9.2 25.8-8.3 34-51.6 36.6-67.1 6.3-2.8 36.8-12.2 39.3-13.1 4.4-1.7 6-4.7 6.6-7 2-6.4-2.5-14.2-5.1-17.4zm-2.8 20.3c-7.6 2.8-32.8 9.6-41.7 14.2-1.8 6.3-7.5 57-34.1 66-2 .6-2.2-.7-1.1-1.5 16.6-13 12.8-37.1 10.3-56-10 4.3-20.1 11.3-27.8 20 5.3 6.7 3.8 21.3 2.3 27.8 2.6 5.9 2.5 17 .9 21.2 4.7 7.4.9 20.1-3.4 25.1.3 2.8-.4 7.9-1.9 9-.1 2.3-.9 5.6-2.4 7.1 0 2.5-7.1 20.6-14.3 17.5-6.7-2.8-2.2-13.1-2.2-20.5 1.3-21.2 3.1-44-17.4-76.3-42.6-63.7-110.5-44.8-151.7-6.5-3.5 3.3-4.8.8-3.5-1.8 42-65 67.3-83.5 100.1-101.3-1.8-10.1-2.9-19.3-1.9-30-30.5-6.4-55.6-28.3-69.1-58.5-9.1-22.3-3.3-47.5-3.5-71.3-.5-9.2-4.2-17.3-9.4-24.7-1.1-1.5 1.1-2.8 3.3-1.5 7.1 3.7 10.6 13.1 12.8 20 7.4 26.5.8 60.1 27.7 77.7 13.3 8.9 32.5 11.5 48.4 7 .6-1.2 1.6-3.3 2.3-3.9-12.3-9.2-24.2-20-25.9-38.9-1.9-22.5-4.1-45.8-24.4-59.5-.2-.8.5-2.1 2.4-1.9 9.8 1.8 18.4 12.7 21.6 17.2 13.6 19.7 12.8 51.1 41.6 58.6 2.2-3.9 3.4-13.7 3.4-13.7 39.6-2.2 106.2 14.8 132.3 82.6 5.3-.8 9.2-5.1 12-10.2 2.9 7.1.5 18.3-9.1 23.7 3.1 6.4.2 19.2 11.6 18.3 2 8.4-2.2 9.8-2.2 9.8 9.4 6 10.3 14.3 10.2 17.2-2.4 1.2-4.9 2.5-7.2 3.7 2 4.5-.3 9.2-1.1 13.4 5.2.3 9.6 1.2 11.2 3.2 3.3 4 8.8 14.7.9 17.7zm-171.5-165.6c-9.2-5.6-16.5-12.6-21.3-25.8-.2-.2-.9-.5-.5.3.5 2.2 2.2 6.6 3 8.9.1.7-.9.8-1.2.5-1.9-2.1-4.5-9.4-6.2-13.6-.2-.5-.4-.2-.6.1.9 6.7 2.8 12.8 4.6 17.9.2.8-.6 1-1.1.6-2.4-4-3.3-8.5-4.4-14.1-.2-.2-.4-.1-.5.3 1.2 10.3 4.2 20.8 8.6 29.1 3 4.8 7.8 10.2 14.2 9.1 7.6-1.8 8.7-11.1 5.4-13.3zm-2.4 66.7c1.8 1.4-7.9 4.6-6.6 5.9 1.4 1.4 12-8 15-5.2 1.5 1.9-9.2 5.8-8.3 7 1 1.5 12.6-8 15.5-6.3 2.9 2.2-8.1 6.6-6.9 7.4 2.6 1.9 12.4-7.9 14.6-5.7 2.3 2.3-7.3 6.1-5.9 7.3 1.8 1.8 11.5-8.5 14.4-6.5 2.3 1.8-7.7 6.7-6.5 7.6 1.5 1.2 11.5-6 13.5-4.9 2.3 1.7-5.9 5.1-4.9 6 1.3 1.2 7.2-5 9.1-4.1 3.4 1.6-5.5 5.5-3.8 6.7 1.1.9 4.6-4.3 7.2-2.4 2 1.7-3 4.1-2 4.7 1.2.8 4-4.2 6.4-2.6 1.1.7-1.1 2.2-.3 2.6 1.4.6 3.2-1.6 4.7-1 1.6.9-1 2.1.2 2.9 1.1.6 2.9-3.3 5.6-.5 11.9-6.1 24.2-40.9-15.4-52.6-26.5-8.9-73.2 13.3-101.2-7.7-15-11.7-23.2-27.2-23.9-45.5 0-.2-.4-.4-.5.2-.1 15.3 3 31.2 13.4 43.7.5.6-.3 1.2-.8.8-10.8-10.2-14.5-26.3-15.3-39.7-.2-.6-.5-.5-.4.2.6 17.7 4.9 38.2 16.5 47.3.4.4-.2 1.2-.8.8-10.9-8.4-15.6-25-18.1-37.1-.3-.4-.3-.2-.4.2 1 13.7 9.3 46.7 40.7 63.2 8.4 3.8 14.2 0 16.1 1.8 1.1 1.5-4.5 2.6-4.1 3.4.6 1.2 7.7-2.8 9.7-.8.7 1.1-1.6 1.4-1.1 2.2.7.8 5.5-3 8.3-1.1 1.1.8-3.3 2.4-2.7 3 1.1 1.2 9.3-5.3 11.1-2.9 2.2 2.9-6.9 4.1-6 5.6 1 1.7 10.9-6 13.9-3.9z"/><path fill="#EEC6A5" d="M354.8 238.2c.4-2.7-.3-5.5-.9-7.8-4.2-.2-11.3-2.1-11.2-4.1.5-2.6 9.9-3.9 15.9-4.5 1.3-.2 1.5-1.5.2-1.6-6.3-.9-13.5-1.5-18 .8-3.2 1.5-8.7 7.9-9.1 5-.6-4.8 1.1-8.6 1.6-12.8-1.3-.5-3.6-.2-4.7 1-2.8 10.8-5.4 20.8-12.2 30 16.7 5.8 12.7 25.3 16.4 39.1 0 0-1.7 1.8-2.5 0-3.4-10-2-20.8-7.7-29.7-1.9-2.5-5.7-3.8-9.2-4.3-3.6 5.2-12.9 6.2-12.8 27.6.6 2 5.4-4.4 7.2-1.6-1.3 20.3 7.2 29.3 21.9 24.9 2.7-11.3 6.8-22.9 12.9-32.2-5.6-16.1 4.3-26 12.2-29.8zm10.2-13.2c-3.6.2-12.2.4-12.1 1.4.2 1.1 2.4.5 3.7 1.1 1.3 4.8 2.2 14.3.6 15.8-6.9 4.8-13.7 11.6-11.9 20.9 4.1-4.4 11.2-11.6 18.4-14.9-1.5-2.2-1.7-9 1.6-11.8 1.6-.5 3.8-.6 7.7-.6 1.7.3 2.2 1.8 1.6 2.7-1.3 1.6-8.4 2.1-6.8 5.3 1.8 3.6 9.9-1.7 15.4-3.1l-.4-2.9c-8.6-.9-6.7-11.5-9.4-17.3-2.2-3.6-9.3-2.6-8.4 3.4zm28.4 60.4c-2.4-.9-5.7.2-8.5-1.4-3.7-2.6 2.9-11.2-.2-12.9-3.2-1.8-19.4 16.6-21.4 28.8 10.6-2.3 22.5-3.6 34.8-3 1.8-.6.5-9.1-4.7-11.5zm-89.3-2.8c-.7-1.2-2.8-.8-3.4.9-1 8-1.3 14.7-3 22.7 4.5 10.1 9.4 21.1 6.4 33.4 7.8-8.7 16.4-17.5 26.6-21.7l-1.1-12c-16 .9-23.4-5.4-25.5-23.3zm58 21.5c-1 .4-1 2.4-.1 3 1.2.6 23.5-6 23.2-6.5-.7-1.8-17.3 1.9-23.1 3.5z"/><path fill="#EEBF1B" d="M215.5 217.3v5c3-1.5 5.9-3 8.6-3.8l-8.6-1.2zm85.9-25.8c16.9-3.6 38.4-6.7 55.1-5.3 0 0-25.2-57.8-112.5-60-1.8 15.8-10.5 24.4-17.6 37.5 52.3-4.5 66 4.9 75 27.8zm44.5 17.6c-5.9.4-7.9 5.8-8.1 9.7 10.5-7.2 25.6.2 37-4.8 4.1-2.3 7-6.4 7.5-10.9-10.8 10.3-21.4 5.4-36.4 6zm-118.2 69.5c2.9 17.9 22 29.9 37.3 26.9 2-38.7 53.6-54.1 60-91.1-5.9.6-11.4 2.3-16.9 3.7 0 0-2.8 21.4-24.9 28.2-11.2 3-20.1-.4-25.5-2.6-2.3-.9-5.2.6-7.3 1.2-27.3 11.2-41.4 39.2-59.3 61.3-.4.9-.5 2.5 1 3 5.2 1.6 12.7-2.3 17.8-6.3 8.9-7.7 14-16.7 17.8-24.3zm18.2-39.9c1.1-.7 1.4-2.3-1.4-1.7-14.4 3.7-73.7 27.5-123.4 101.7-.7.9-.4 1.8.4 1.3 8.2-8.1 14.7-12.9 23.1-18.5 4.2-2.9 6.6-7.6 9.5-12.5 19.3-32.8 64.6-59.8 91.8-70.3zm5.4 2.3c.9-.4.1-1.7-1-1.1-37.7 16.4-76.8 39.5-98.1 77.9-.5 1.1.9 1.2 1.7.9 9.1-3.2 17.8-5.5 28.2-8.5 1.5-.4 4-2.5 4.4-3.2 16.7-25.4 36.9-52.5 64.8-66zm141.2 20.2s-2.3-15.7-19.1-12.2c-7.1 1.8-17.7 9.9-24.8 18.6-16.8 20.7-14.5 44.5-11.5 68.4.2 1.3 1.1 1.1 1 0-1.5-20.5 4-37.8 8.6-46.2 1.1-1.2 2.3-.1 1.9.6-10.7 19.9-5.3 44.8-12.1 70.8-.2.8.4.8.6.3 5.8-11.1 7-46.9 13.8-55.9.6-1.1 1.5-.1 1.2.6-6 19.7-4.1 38-14.4 58.4-.2.5.3.5.4.3 8.7-11.8 11.7-39 18.5-59.5 5.7-17.3 16.2-38.6 35.9-44.2zm-94.7 1.2c-2-1.6-36.7 35.7-29.5 63.9 4.1 1.6 8.2 5.2 11.4 7.7-.1-18.2 15.7-24.5 15.6-54.4 0 0-3.5-5-2.6-5.6.9-.4 2.5 1.7 3 1.4.8-.6 2.9-12.1 2.1-13zm-68.6 32.7l-3.3-7.2c-3.3 6.7-9.5 15.6-17.8 20.8-1.5 1.4 2.2 1.4 4.4 1 6.3-2.3 12.5-9.4 16.7-14.6zm20.3 31.4c-10.5-5.5-16.5-14.7-16-26.6-.5-.5-1.3-1.4-1.9-2-3.6 4.7-9.7 10.3-14.2 13.6 11.7 3.4 22.1 8.7 31.8 17 .9.9 2-1.3.3-2zm14.7-15.4c-9.4.6-18.2-1.9-26.6-7.5 0 0 .5 18 26.6 21.1v-13.6zm30.4 1.4c-3.3 5-13.2 21.3-12.7 35.7 4.1 1.2 7.1 4.5 10.5 7.2 1.8-9.9 12.7-19.1 5.5-41-.7-2.6-2.1-3.9-3.3-1.9zm-16.2 24.5s-19.2-12.8-23.6-8.3c-4.1 3.3 7 13.7 9.8 15.4 3 2 13.2 2.3 13.2 2.3-.3-3.3.5-6.3.6-9.4zm21.1 39.7c3.9-9.3 5.7-27.3 2.2-29.5-1.7-.7-7.5 14.6-9.9 20.5 1.7 1.7 5 5 7.7 9zm-9-18c-6-6.6-17.7-10.5-20.3-8.2-1.6 2 1.2 5.3 2.6 7.9 3.1 6.2 9.5 7.3 15.5 8.3.7-3 1.5-5.1 2.2-8zm4.2 27.8c1.1-.2 3.9-5.5 3.4-7-3.4-6.2-13.7-11.3-16.2-9.9-2 1.6-.1 6.7 1.1 8.9 1.7 4.1 10.7 8.6 11.7 8zm2.6 2.8c1 3 2.9 4.8 3.7 8 3.4-5.4 5.4-19.2 3.4-20.2-1.1-.3-6.4 11.1-7.1 12.2zm-10.6-1.4c-1.3.5-1 5-.5 7.5.6 4.9 9.1 9.8 10.2 9.4.9.1 2.7-2.8 2.7-4.9-1.9-5.1-10.1-12.6-12.4-12zm12.1 20l4.1 5.6c3.2-4.4 4.6-14.1 2.8-15.4-1.3-.8-4.8 6.4-6.9 9.8zm-10.2-3.1c-1.5-.4-1.7 3.6 0 4.5 4.7 3.1 8.5 7.9 10.7 13 .9 1.7 2.1-1.5 1.5-3.5-1.2-5.4-6.7-12.1-12.2-14zm1.6 10.1c-1.1-.9-4 1.8-2.3 3.1 3.1 2.7 8.5 8.2 9.6 10.8 3-2.4-2.7-10.3-7.3-13.9zm-.8 9.7c-1.3-.3-2.7 1.9-1.4 2.6 2.6 2.2 5.4 5 7.4 7.6.4.4 1.3-.3 1.1-1.4-1.4-3.4-4-7.8-7.1-8.8zm-1.6 6.9c-.7-.2-1.6 2-.6 3 2.8 1.7 3.6 3.7 5.8 6 .8.5 1.4-.4 1.2-1.2-.8-3.2-4.2-6.8-6.4-7.8zm-.6 7.5c-1.8 3.2-3.4 9-.8 10.5 2.5 1 4.5-4.5 5.1-6-1.5-1.6-2.7-3.4-4.3-4.5z"/></g></g></svg>